<svg width="14" height="13" viewBox="0 0 14 13" fill="none" xmlns="http://www.w3.org/2000/svg">
<path fill-rule="evenodd" clip-rule="evenodd" d="M7.29314 0.8125C6.68868 0.8125 6.10898 1.02651 5.68157 1.40744C5.25416 1.78837 5.01404 2.30503 5.01404 2.84375V3.25H9.57224V2.84375C9.57224 2.30503 9.33212 1.78837 8.90471 1.40744C8.47729 1.02651 7.89759 0.8125 7.29314 0.8125ZM10.4839 3.25V2.84375C10.4839 2.08954 10.1477 1.36622 9.54934 0.832915C8.95095 0.299608 8.13938 0 7.29314 0C6.4469 0 5.63532 0.299608 5.03694 0.832915C4.43856 1.36622 4.1024 2.08954 4.1024 2.84375V3.25H0.911652V11.375C0.911652 11.806 1.10375 12.2193 1.44568 12.524C1.78761 12.8288 2.25137 13 2.73493 13H11.8513C12.3349 13 12.7987 12.8288 13.1406 12.524C13.4825 12.2193 13.6746 11.806 13.6746 11.375V3.25H10.4839ZM1.82329 4.0625V11.375C1.82329 11.5905 1.91934 11.7972 2.09031 11.9495C2.26127 12.1019 2.49315 12.1875 2.73493 12.1875H11.8513C12.0931 12.1875 12.325 12.1019 12.496 11.9495C12.6669 11.7972 12.763 11.5905 12.763 11.375V4.0625H1.82329Z" fill="black"/>
</svg>
