<svg width="16" height="16" viewBox="0 0 16 16" fill="none" xmlns="http://www.w3.org/2000/svg">
<g clip-path="url(#clip0_1166_13491)">
<path d="M10.017 15.0329C9.48084 15.3063 8.93382 15.577 8.39518 15.8439C8.21877 15.9313 8.10093 16.0456 7.86002 15.9813C7.81923 15.9705 7.79692 15.9331 7.76275 15.9167C6.73741 15.4323 5.73508 14.8818 4.72926 14.3675C3.28277 13.6279 1.82407 12.9128 0.38873 12.1456C0.219641 12.0553 0.066241 12.0199 0 11.8284L0.00732138 4.13246C0.0592683 3.96172 0.358748 3.85852 0.520515 3.77345C1.66718 3.17178 2.83965 2.58882 3.99677 1.99622C5.20062 1.37964 6.37971 0.755465 7.59785 0.148244C7.72126 0.0865573 7.82132 0.001482 7.97891 2.02299e-05C8.08489 -0.000856835 8.09047 0.0269169 8.16194 0.0576142C8.27874 0.107607 8.37914 0.165493 8.49001 0.221041C9.23993 0.59584 9.98357 0.985256 10.731 1.36766C11.1494 1.58166 11.5904 1.79742 12.0154 2.01552C12.4456 2.23595 12.8661 2.46399 13.304 2.6891C14.0591 3.07676 14.8209 3.45361 15.5764 3.85326C15.6332 3.88337 15.7312 3.91611 15.7804 3.94535C15.9334 4.03627 15.9167 4.14415 15.9993 4.27337L15.9878 11.8916C15.9421 11.9205 15.9111 11.9936 15.8783 12.019C15.7661 12.1056 15.4736 12.2187 15.3324 12.2921C13.5714 13.2063 11.7933 14.1275 10.0167 15.0335L10.017 15.0329ZM14.0434 4.61016C14.2195 4.51866 14.4737 4.40142 14.641 4.30027C14.6787 4.27746 14.71 4.23917 14.746 4.21315C14.6361 4.12924 14.4991 4.07925 14.3743 4.01347C12.8243 3.19751 11.2442 2.41399 9.68479 1.61645C9.21308 1.37497 8.74974 1.11594 8.26723 0.875623C8.16473 0.824461 8.0563 0.779731 7.95346 0.729153C7.81993 0.767744 7.71638 0.849019 7.59785 0.908367C7.1882 1.11418 6.77576 1.31269 6.37762 1.53693C6.31661 1.57143 6.24688 1.5609 6.23991 1.65621C6.2413 1.6948 6.31835 1.69831 6.3567 1.7179C8.52766 2.81335 10.6627 3.9626 12.8518 5.02736C12.9083 5.05484 12.895 5.10249 13.0118 5.10454C13.1161 5.10629 13.1101 5.07004 13.1719 5.04139C13.4647 4.90486 13.7576 4.75897 14.0438 4.61016H14.0434ZM6.14682 4.19619C7.53649 4.91129 8.94289 5.63867 10.3346 6.34851C10.3699 6.36634 10.3869 6.40113 10.4358 6.41019C10.5372 6.4292 10.5515 6.38447 10.6198 6.35143C11.071 6.13333 11.5249 5.89477 11.9684 5.65504C12.0374 5.61762 12.1434 5.59628 12.2006 5.52728C12.2121 5.48167 11.885 5.34398 11.8289 5.31445C10.3301 4.52538 8.81598 3.76906 7.30778 2.99549C6.71057 2.6891 6.13218 2.36196 5.5259 2.07779C5.50114 2.06609 5.4872 2.03773 5.46 2.03043C5.37494 2.00821 5.24594 2.10995 5.17098 2.14766C4.72543 2.3716 4.27673 2.60549 3.83222 2.83762C3.80119 2.85399 3.68893 2.87124 3.6959 2.90954C3.75726 3.01654 3.91485 3.04577 4.02397 3.10308C4.72856 3.47378 5.44257 3.83367 6.14647 4.1959L6.14682 4.19619ZM9.67363 6.85136C9.67015 6.80663 9.61855 6.75927 9.57532 6.73675C7.45386 5.63428 5.30242 4.55111 3.15551 3.46647C3.10182 3.43928 2.98015 3.34895 2.9282 3.33491C2.82501 3.30714 2.69566 3.42408 2.61199 3.46647C2.15911 3.69539 1.69298 3.90442 1.25963 4.15965C1.23313 4.17543 1.19896 4.18567 1.16724 4.1921C1.15782 4.22484 1.17804 4.23741 1.20071 4.25759C1.26207 4.31255 1.42383 4.37073 1.50402 4.41253C2.75214 5.06653 4.03164 5.71351 5.27558 6.35143C6.07674 6.76248 6.86536 7.17441 7.66723 7.5764C7.74079 7.61323 7.89384 7.73076 7.98309 7.70796C8.00715 7.70182 8.12987 7.64042 8.16299 7.62405C8.64341 7.38549 9.12627 7.13553 9.5917 6.87796C9.61506 6.86481 9.64574 6.85516 9.67363 6.85165V6.85136ZM10.0746 7.45098C9.92326 7.47758 9.82389 7.56237 9.69734 7.62405C9.33685 7.80034 8.98263 7.98189 8.62633 8.17309C8.56775 8.20467 8.37914 8.26636 8.36659 8.32073L8.37531 15.0078L8.40982 15.037C8.64167 14.8882 8.89966 14.7768 9.14963 14.649C10.8879 13.7597 12.6339 12.8669 14.3743 11.9699C14.5884 11.8594 14.8408 11.7574 15.0419 11.6381C15.0754 11.6182 15.1577 11.5641 15.1643 11.5361L15.1657 4.92825C15.1479 4.77242 15.0249 4.89346 14.9541 4.92795C14.542 5.12851 14.1425 5.33579 13.7415 5.54833C13.6687 5.58692 13.569 5.622 13.5003 5.66761C13.4438 5.70503 13.4274 5.73193 13.4211 5.79128C13.3605 6.34266 13.4682 6.97181 13.4218 7.53137C13.4204 7.60242 13.3507 7.64656 13.3183 7.70767C12.5328 8.10878 11.7651 8.51077 10.9768 8.89784C10.8625 8.95397 10.7394 9.0487 10.6062 9.08787C10.4497 9.13377 10.1914 9.04928 10.123 8.92357C10.1084 8.89667 10.0958 8.83411 10.0927 8.80283C10.0491 8.39733 10.1283 7.9398 10.0934 7.53079C10.091 7.50243 10.0833 7.47787 10.0749 7.45098H10.0746ZM0.750964 4.86539L0.730395 4.95807L0.740156 11.5439C0.779552 11.5632 0.826618 11.6214 0.854858 11.6378C0.965027 11.7021 1.14423 11.7635 1.26067 11.8237C2.54122 12.49 3.81304 13.1472 5.09045 13.8015C5.87105 14.2015 6.63491 14.5979 7.42388 14.9876C7.44898 14.9999 7.46432 15.0221 7.48628 15.0373L7.5208 15.0081V8.29881C7.1624 8.1193 6.81132 7.92869 6.45501 7.74567C5.63014 7.32146 4.78888 6.9034 3.95773 6.47773C2.9533 5.96377 1.96004 5.42554 0.934347 4.93468C0.876822 4.9072 0.84405 4.84083 0.750964 4.86539ZM11.9806 6.43271C11.8129 6.51807 11.6379 6.62361 11.4681 6.71161C11.3119 6.7923 11.0797 6.87913 10.9402 6.97064C10.8248 7.04665 10.8757 7.10512 10.8775 7.19458C10.8824 7.4425 10.881 7.69305 10.8775 7.94126C10.8768 7.98453 10.8304 8.08714 10.8932 8.11638C10.9096 8.12398 11.0243 8.09679 11.0497 8.08568C11.1093 8.05966 11.1968 7.99271 11.254 7.96465C11.656 7.76555 12.0618 7.56616 12.4568 7.3507C12.5419 7.30421 12.5903 7.32819 12.6032 7.21037C12.6294 6.97152 12.629 6.48328 12.6032 6.24414C12.5994 6.20818 12.5977 6.17163 12.5569 6.15117C12.4826 6.15526 12.4422 6.21782 12.392 6.24384C12.2689 6.30758 12.1075 6.36809 11.9806 6.43271Z" fill="black"/>
<path d="M3.67149 8.36227C4.13797 8.59908 4.6163 8.85898 5.08278 9.10076C5.2428 9.1835 5.64025 9.34312 5.75042 9.4472C5.85082 9.54192 5.86303 9.76967 5.76924 9.87082C5.76401 9.87638 5.66639 9.9518 5.65977 9.95444C5.63641 9.96408 5.49312 9.9904 5.4614 9.99303C5.26093 10.0094 5.15041 9.90181 5.00015 9.82726C4.07696 9.37002 3.15098 8.90576 2.24557 8.42425C2.13888 8.36753 2.07718 8.36081 1.98409 8.27807C1.9562 8.25322 1.93702 8.26579 1.9168 8.21755C1.86974 8.10412 1.87148 7.90824 1.98479 7.82317C2.06741 7.76119 2.17723 7.7109 2.29019 7.71295C2.45545 7.71558 2.79572 7.93689 2.94528 8.01261C3.1834 8.13277 3.43407 8.24241 3.67045 8.36227H3.67149Z" fill="black"/>
</g>
<defs>
<clipPath id="clip0_1166_13491">
<rect width="16" height="16" fill="white"/>
</clipPath>
</defs>
</svg>
