<svg width="49" height="45" viewBox="0 0 49 45" fill="none" xmlns="http://www.w3.org/2000/svg">
<rect width="49.001" height="45" fill="#DE000E"/>
<g clip-path="url(#clip0_1148_3406)">
<path d="M15.4596 15.3018C15.6862 16.1883 15.9079 17.0522 16.1284 17.915C16.6514 19.9556 17.1781 21.9962 17.6913 24.039C17.7428 24.2437 17.8236 24.3045 18.0515 24.3045C22.8493 24.2977 27.6459 24.3 32.4437 24.2988C33.0782 24.2988 33.4028 24.0716 33.5645 23.5035C34.2296 21.1682 34.8934 18.8318 35.5524 16.4942C35.7447 15.8137 35.3038 15.3041 34.5309 15.303C32.9484 15.3007 31.367 15.3052 29.7845 15.3007C29.0373 15.2985 28.5498 14.6831 28.8132 14.0768C28.9675 13.7225 29.2652 13.5076 29.6792 13.5054C31.394 13.4964 33.11 13.466 34.8236 13.5132C36.6438 13.5639 37.936 15.2332 37.4743 16.8801C36.8128 19.2458 36.1379 21.6081 35.4606 23.9704C35.0711 25.3281 33.9699 26.0987 32.4437 26.0998C27.0334 26.0998 21.6244 26.0998 16.2142 26.0998C16.0819 26.0998 15.9459 26.0953 15.8173 26.1178C15.3433 26.2022 15.0089 26.5936 15.0285 27.0267C15.0481 27.4643 15.4351 27.8434 15.919 27.8907C16.0402 27.903 16.1639 27.8974 16.2864 27.8974C21.6759 27.8974 27.0653 27.8974 32.4547 27.8997C32.6164 27.8997 32.7842 27.903 32.9386 27.9413C33.4052 28.0594 33.698 28.4756 33.6404 28.9065C33.5841 29.3249 33.2019 29.6601 32.7389 29.6961C32.6777 29.7006 32.6164 29.6995 32.5552 29.6995C27.0641 29.6995 21.573 29.7029 16.0806 29.6984C14.4087 29.6973 13.0846 28.5139 13.0675 27.0279C13.0515 25.7162 14.089 24.5778 15.5037 24.354C15.5723 24.3427 15.6409 24.3292 15.7438 24.3101C15.5993 23.7364 15.4596 23.1739 15.3163 22.6126C14.3389 18.7947 13.3578 14.979 12.3889 11.1588C12.3203 10.8855 12.2198 10.7831 11.894 10.7932C11.017 10.8202 10.1388 10.8033 9.26055 10.8022C8.61382 10.8011 8.16797 10.4321 8.16797 9.90116C8.16797 9.36796 8.61015 9.00236 9.26055 9.00011C10.4854 8.99899 11.7103 8.99899 12.9352 9.00011C13.5782 9.00011 13.9016 9.24309 14.0535 9.82804C14.3658 11.0396 14.6769 12.2511 14.9979 13.4986C15.113 13.4986 15.2318 13.4986 15.3506 13.4986C17.5039 13.4986 19.6585 13.4964 21.8118 13.4986C22.5737 13.4986 23.0661 14.1229 22.7966 14.7349C22.6386 15.0937 22.2809 15.2985 21.7947 15.2985C19.8043 15.2996 17.8138 15.2985 15.8234 15.2985C15.712 15.2985 15.6005 15.2985 15.4596 15.2985V15.3018Z" fill="white"/>
<path d="M24.8251 17.6135C24.8251 16.6101 24.8251 15.6753 24.8251 14.7394C24.8251 14.0453 24.8226 13.3523 24.8251 12.6583C24.8288 12.1048 25.2366 11.7066 25.794 11.701C26.3623 11.6954 26.7837 12.1003 26.7849 12.6684C26.7873 14.196 26.7849 15.7237 26.7849 17.2524C26.7849 17.3525 26.7849 17.4515 26.7849 17.6079C26.9233 17.4909 27.0139 17.4099 27.1119 17.3334C27.51 17.024 28.0833 17.042 28.4458 17.3739C28.8096 17.708 28.8512 18.2491 28.4899 18.5955C27.8273 19.2322 27.1474 19.8543 26.4554 20.4651C26.0843 20.7925 25.5184 20.788 25.1472 20.4606C24.4638 19.8566 23.7913 19.2401 23.1335 18.6124C22.7612 18.2581 22.7955 17.7069 23.1703 17.3694C23.5378 17.0387 24.1061 17.0252 24.5042 17.339C24.596 17.411 24.6806 17.4909 24.8226 17.6135H24.8251Z" fill="white"/>
<path d="M16.0078 33.3104C16.0029 31.821 17.3221 30.6005 18.9365 30.5994C20.5631 30.5994 21.8799 31.7985 21.8884 33.289C21.897 34.775 20.5741 35.9989 18.9598 35.9989C17.3331 35.9989 16.0127 34.7964 16.0078 33.3093V33.3104ZM18.9487 32.4026C18.4171 32.4015 17.975 32.8019 17.9701 33.2913C17.9652 33.7919 18.4135 34.2024 18.961 34.1979C19.4901 34.1934 19.9299 33.7806 19.925 33.2946C19.9201 32.8031 19.4828 32.4037 18.9487 32.4026Z" fill="white"/>
<path d="M32.6645 33.2946C32.6707 34.7682 31.3576 35.991 29.7604 36C28.1178 36.009 26.7876 34.8042 26.7852 33.3047C26.7827 31.8277 28.0909 30.6094 29.6893 30.6004C31.3307 30.5903 32.6596 31.7939 32.6658 33.2957L32.6645 33.2946ZM30.7023 33.3013C30.7023 32.8097 30.2687 32.407 29.7347 32.4025C29.1908 32.3969 28.7413 32.8108 28.7474 33.3114C28.7548 33.8008 29.1957 34.1979 29.731 34.1967C30.2601 34.1956 30.7035 33.7873 30.7023 33.3013Z" fill="white"/>
</g>
<defs>
<clipPath id="clip0_1148_3406">
<rect width="29.4006" height="27" fill="white" transform="translate(8.16797 9)"/>
</clipPath>
</defs>
</svg>
