<svg width="16" height="13" viewBox="0 0 16 13" fill="none" xmlns="http://www.w3.org/2000/svg">
<g clip-path="url(#clip0_998_8942)">
<path d="M5.81969 8.35204C5.91877 8.73631 6.00999 9.09571 6.10424 9.4551C6.13203 9.561 6.21298 9.61367 6.32415 9.62293C6.36885 9.62698 6.41477 9.62409 6.46008 9.62409C8.47851 9.62409 10.4976 9.62409 12.516 9.62409C13.3243 9.62409 13.9508 10.0263 14.204 10.7017C14.4541 11.3701 14.2299 12.1068 13.6427 12.5444C13.0754 12.9674 12.2719 12.9946 11.6642 12.6109C11.0594 12.2289 10.7755 11.5154 10.9603 10.8394C10.9742 10.7891 10.9875 10.7381 11.0044 10.6745H7.5717C7.59828 10.8556 7.64178 11.0344 7.64782 11.215C7.67501 11.9818 7.12826 12.6595 6.35194 12.8372C5.55991 13.0183 4.75338 12.6439 4.40902 11.9355C4.07251 11.2422 4.28456 10.4065 4.9322 9.95685C5.07116 9.86021 5.08143 9.77861 5.04518 9.6374C4.34015 6.9029 3.63995 4.16782 2.93854 1.43275C2.87571 1.18852 2.83221 1.15669 2.56397 1.15612C1.92962 1.15612 1.29527 1.16075 0.660926 1.15264C0.272463 1.14743 0.0211403 0.792674 0.15828 0.455853C0.24286 0.247511 0.410207 0.124241 0.642802 0.122505C1.3575 0.117297 2.0728 0.105722 2.7869 0.130607C3.36687 0.150863 3.81575 0.535139 3.96195 1.07451C4.0417 1.36793 4.12145 1.66193 4.1873 1.95823C4.21207 2.06993 4.26463 2.09134 4.37096 2.09076C5.18655 2.08729 6.00214 2.08903 6.81773 2.08903C9.51582 2.08903 12.2145 2.08903 14.9126 2.09019C15.0123 2.09019 15.1168 2.09019 15.2117 2.11565C15.4775 2.18741 15.637 2.44205 15.5729 2.71811C15.4672 3.17415 15.3452 3.62613 15.2274 4.07928C14.8969 5.35017 14.5658 6.62048 14.2342 7.89079C14.1496 8.21372 13.9671 8.34914 13.6192 8.34914C11.0872 8.34972 8.55464 8.3503 6.02268 8.3503C5.96287 8.3503 5.90306 8.3503 5.81969 8.3503V8.35204ZM5.55266 7.30338H13.2718C13.6336 5.91154 13.9943 4.52664 14.3562 3.13595H4.49118C4.84702 4.53184 5.19923 5.91385 5.55326 7.30338H5.55266ZM12.6114 10.6646C12.2665 10.6617 11.9946 10.9152 11.9904 11.2434C11.9862 11.5767 12.2616 11.847 12.6054 11.847C12.9407 11.847 13.221 11.579 13.2234 11.2573C13.2259 10.9343 12.9504 10.6681 12.6114 10.6652V10.6646ZM6.56822 11.2468C6.5652 10.9193 6.29333 10.6635 5.94958 10.6652C5.60643 10.6664 5.33758 10.9251 5.33758 11.2538C5.33758 11.5854 5.62213 11.8551 5.96347 11.847C6.30361 11.8389 6.57124 11.5738 6.56761 11.2474L6.56822 11.2468Z" fill="black"/>
<path d="M12.6089 13C12.2585 13 11.9063 12.9033 11.5976 12.7083C10.9487 12.298 10.6454 11.5358 10.843 10.8106C10.8448 10.8043 10.8466 10.7973 10.8484 10.791H7.71292C7.71474 10.8031 7.71715 10.8147 7.71896 10.8268C7.74071 10.9519 7.76367 11.0809 7.7685 11.2117C7.7975 12.0283 7.2133 12.7598 6.38019 12.9502C5.52654 13.1458 4.67047 12.7488 4.29953 11.9849C3.93523 11.2349 4.17145 10.3425 4.86138 9.86384C4.9526 9.80076 4.95502 9.77182 4.92783 9.66592C4.35692 7.45228 3.77996 5.2016 3.22174 3.02442L2.82059 1.46127C2.78837 1.33588 2.70258 1.27318 2.56322 1.27318C2.37413 1.27318 2.18503 1.27318 1.99593 1.27376C1.55793 1.27434 1.10483 1.2755 0.65897 1.26971C0.432417 1.26682 0.231842 1.16496 0.109201 0.990763C-0.00981466 0.819459 -0.0333762 0.60938 0.0457663 0.414348C0.150283 0.157971 0.367774 0.0092376 0.642054 0.00750141L0.958624 0.00460777C1.55914 -0.000600799 2.1802 -0.00580936 2.79159 0.0156036C3.41023 0.0375953 3.9159 0.442127 4.07901 1.04632L4.0911 1.0903C4.16601 1.36578 4.24274 1.65109 4.30557 1.93583C4.31161 1.96361 4.31765 1.97287 4.31886 1.9746C4.31825 1.97345 4.32973 1.97692 4.36779 1.97692H4.37021C4.99066 1.97402 5.62199 1.9746 6.23217 1.9746H8.04399C10.3337 1.9746 12.6228 1.9746 14.9125 1.97576C15.0158 1.97576 15.133 1.97576 15.2441 2.00585C15.5758 2.09498 15.7673 2.4127 15.6906 2.74489C15.6066 3.10718 15.5106 3.47293 15.4181 3.82654L15.3444 4.10896C15.014 5.37985 14.6829 6.65016 14.3512 7.92105C14.254 8.29375 14.0214 8.46679 13.619 8.46737L5.9736 8.4691L6.01831 8.64446C6.08658 8.91183 6.15303 9.17052 6.22069 9.42806C6.23097 9.46568 6.25151 9.50214 6.33367 9.50908C6.35965 9.5114 6.38865 9.51082 6.41885 9.51024C6.43214 9.51024 6.44544 9.51024 6.45873 9.51024H8.36177C9.74586 9.51024 11.1305 9.51024 12.5146 9.51024C13.3725 9.51024 14.0455 9.94197 14.3162 10.6648C14.5832 11.3784 14.3416 12.1712 13.7157 12.6383C13.3919 12.8796 13.001 13.0017 12.6077 13.0017L12.6089 13ZM7.4326 10.5595H11.1595L11.1052 10.7632C11.0949 10.8014 11.0858 10.8355 11.0768 10.8697C10.9052 11.4982 11.168 12.1597 11.7305 12.515C12.299 12.8744 13.0372 12.8495 13.5683 12.4537C14.112 12.0485 14.3216 11.3599 14.0896 10.7412C13.8552 10.115 13.2668 9.74057 12.5152 9.73999C11.1312 9.73999 9.74707 9.73999 8.36237 9.73999H6.42248C6.38744 9.74115 6.35119 9.74173 6.31252 9.73826C6.14397 9.72437 6.02495 9.63119 5.98629 9.48362C5.91862 9.2255 5.85217 8.96623 5.7833 8.69828L5.66488 8.23646L13.6184 8.23472C13.9108 8.23472 14.0455 8.13402 14.1162 7.86375C14.4479 6.59344 14.779 5.32313 15.1094 4.05224L15.1831 3.76924C15.2756 3.41738 15.371 3.05278 15.4544 2.69338C15.5039 2.47983 15.3879 2.28364 15.1789 2.22751C15.0998 2.20609 15.0043 2.20609 14.9125 2.20609C12.6228 2.20494 10.3331 2.20494 8.04399 2.20494H6.23217C5.62199 2.20494 4.99187 2.20436 4.37142 2.20667C4.25482 2.20725 4.11285 2.18237 4.06874 1.98213C4.00712 1.7026 3.931 1.42018 3.85669 1.14702L3.84461 1.10304C3.70867 0.60012 3.29121 0.263879 2.78192 0.245359C2.17657 0.223946 1.55793 0.229155 0.960436 0.234363L0.643866 0.237257C0.465645 0.238414 0.340587 0.325803 0.271111 0.497107C0.220967 0.620376 0.235467 0.752326 0.31038 0.859391C0.388314 0.969929 0.516392 1.03417 0.662595 1.0359C1.10664 1.04169 1.55854 1.04111 1.99593 1.03995C2.18503 1.03995 2.37473 1.0388 2.56383 1.03938C2.88765 1.03938 2.97948 1.10767 3.0556 1.40398L3.45675 2.96712C4.01497 5.1443 4.59193 7.39498 5.16284 9.60862C5.20634 9.77645 5.19547 9.91593 5.00335 10.0496C4.40706 10.464 4.20286 11.236 4.51883 11.8859C4.84084 12.5486 5.58333 12.8935 6.324 12.7239C7.04595 12.559 7.55222 11.9259 7.52685 11.2186C7.52262 11.1029 7.50208 10.9872 7.48093 10.8645C7.47066 10.8066 7.46039 10.7487 7.45193 10.6903L7.4326 10.5583V10.5595ZM5.94883 11.9629C5.75913 11.9629 5.5803 11.8923 5.44196 11.7638C5.29696 11.6284 5.21722 11.4472 5.21722 11.254C5.21722 10.8604 5.53862 10.5514 5.94944 10.5496H5.95246C6.36206 10.5496 6.68528 10.8552 6.68951 11.2464C6.69313 11.6388 6.37596 11.9536 5.96756 11.9629C5.96152 11.9629 5.95548 11.9629 5.94944 11.9629H5.94883ZM5.95246 10.7806H5.95064C5.67515 10.7817 5.45887 10.9889 5.45948 11.2534C5.45948 11.3842 5.51324 11.5063 5.61112 11.5977C5.70657 11.6868 5.83042 11.7331 5.96152 11.7308C6.23701 11.7245 6.45027 11.5121 6.44785 11.2476C6.44544 10.9854 6.22794 10.7806 5.95246 10.7806ZM12.6041 11.9623C12.4071 11.9623 12.2222 11.8882 12.0839 11.754C11.9431 11.6174 11.8664 11.4357 11.8694 11.2418C11.8742 10.85 12.2017 10.545 12.6125 10.5491C13.0191 10.552 13.3477 10.8703 13.3447 11.2574C13.3417 11.6458 13.01 11.9617 12.6059 11.9623H12.6047H12.6041ZM12.6059 10.7806C12.331 10.7806 12.1141 10.9837 12.1105 11.2447C12.1087 11.3761 12.16 11.4993 12.2555 11.5913C12.3485 11.6811 12.4723 11.7308 12.6041 11.7308H12.6047C12.8723 11.7308 13.1001 11.5132 13.1025 11.2557C13.1043 10.9958 12.8838 10.7823 12.6101 10.7806H12.6059ZM13.3659 7.41929H5.45766L4.33698 3.02037H14.5107L13.3665 7.41929H13.3659ZM5.64736 7.1878H13.1774L14.2014 3.25186H4.64449L5.64736 7.1878Z" fill="black"/>
</g>
<defs>
<clipPath id="clip0_998_8942">
<rect width="15.7083" height="13" fill="white"/>
</clipPath>
</defs>
</svg>
