<svg width="14" height="15" viewBox="0 0 14 15" fill="none" xmlns="http://www.w3.org/2000/svg">
<g clip-path="url(#clip0_998_9001)">
<path d="M3.62882 2.80943C3.62882 2.64386 3.62607 2.50506 3.62882 2.36563C3.63569 2.0706 3.83985 1.88263 4.16637 1.87267C4.32516 1.86769 4.48464 1.87205 4.65374 1.87205C4.68605 1.26268 4.94108 0.765983 5.46488 0.396258C5.87527 0.106827 6.34339 -0.0257515 6.86032 0.0041253C7.88043 0.0632564 8.761 0.793992 8.80912 1.87205C8.95279 1.87205 9.09852 1.8708 9.24425 1.87205C9.63263 1.87578 9.83267 2.05815 9.83542 2.41169C9.8361 2.53556 9.83542 2.6588 9.83542 2.79947C9.90828 2.80383 9.96809 2.80943 10.0286 2.81005C10.5613 2.81067 11.0941 2.80943 11.6261 2.81067C12.7315 2.81379 13.4635 3.47917 13.4635 4.48315C13.4635 7.43348 13.4642 10.3844 13.4635 13.3348C13.4635 14.3356 12.7273 14.9998 11.6199 14.9998C8.34443 14.9998 5.06825 15.0004 1.79276 14.9998C0.925937 14.9998 0.239218 14.5211 0.0501807 13.7829C0.0144355 13.6429 0.00137481 13.4953 0.00137481 13.3516C0 10.39 0 7.42912 0 4.46821C0 3.48477 0.734838 2.81565 1.81888 2.81067C2.35162 2.80818 2.88436 2.81067 3.41641 2.81067C3.47828 2.81067 3.54083 2.81067 3.62813 2.81067L3.62882 2.80943ZM3.62951 3.75241C3.53946 3.75241 3.47759 3.75241 3.41504 3.75241C2.89398 3.75241 2.37293 3.75241 1.85187 3.75241C1.29439 3.75241 1.0373 3.98832 1.0373 4.49871C1.0373 7.43908 1.0373 10.3795 1.0373 13.3198C1.0373 13.8221 1.30332 14.0618 1.85944 14.0618C5.10125 14.0618 8.34237 14.0618 11.5842 14.0618C12.1726 14.0618 12.4276 13.829 12.4276 13.2918C12.4276 10.367 12.4276 7.44219 12.4269 4.51738C12.4269 4.42962 12.4235 4.34061 12.4063 4.25472C12.352 3.98271 12.11 3.76735 11.8048 3.76175C11.1642 3.74992 10.5228 3.75864 9.88147 3.75988C9.87185 3.75988 9.86291 3.76984 9.83542 3.7854C9.83542 3.88312 9.83542 3.99081 9.83542 4.09849C9.83542 4.52485 9.65257 4.69104 9.18169 4.69104C7.54979 4.69104 5.9172 4.69104 4.28529 4.69104C4.23374 4.69104 4.18218 4.69291 4.13063 4.68855C3.83161 4.6649 3.63776 4.4819 3.62951 4.2099C3.62538 4.0655 3.62882 3.92109 3.62882 3.75179L3.62951 3.75241ZM8.79056 2.82312H4.67437V3.74121H8.79056V2.82312ZM5.70754 1.86084H7.75601C7.76289 1.35729 7.29201 0.937774 6.73177 0.937774C6.17085 0.937774 5.69929 1.35792 5.70754 1.86084Z" fill="black"/>
<path d="M8.54447 7.26359C9.1975 7.26359 9.85054 7.26173 10.5036 7.26546C10.6053 7.26546 10.7119 7.27355 10.8067 7.30343C11.0239 7.37252 11.1545 7.58041 11.1298 7.78519C11.1057 7.98437 10.9373 8.15118 10.716 8.1904C10.6548 8.20098 10.5909 8.20534 10.5283 8.20534C9.20506 8.20596 7.88181 8.20782 6.55855 8.20284C6.44306 8.20284 6.31658 8.17795 6.21416 8.13127C6.01343 8.04039 5.92545 7.84246 5.96738 7.64452C6.00931 7.44783 6.17497 7.30218 6.39701 7.27293C6.46437 7.26422 6.5338 7.26297 6.60254 7.26297C7.25008 7.26235 7.89693 7.26297 8.54447 7.26297V7.26359Z" fill="black"/>
<path d="M8.5424 11.72C7.87218 11.72 7.20195 11.7225 6.53173 11.7188C6.13647 11.7163 5.88832 11.453 5.97218 11.1362C6.02649 10.9314 6.21827 10.7907 6.47399 10.7795C6.64515 10.772 6.81769 10.777 6.98955 10.777C8.12927 10.777 9.26967 10.777 10.4094 10.777C10.4555 10.777 10.5008 10.777 10.5469 10.777C10.8947 10.782 11.1298 10.9706 11.1312 11.2457C11.1332 11.5221 10.8995 11.7169 10.5524 11.7181C9.88215 11.7212 9.21193 11.7188 8.54171 11.7188L8.5424 11.72Z" fill="black"/>
<path d="M3.37378 7.54025C3.68518 7.25642 3.98489 6.97819 4.29079 6.70681C4.44133 6.57299 4.62555 6.53066 4.82903 6.59789C5.03112 6.66449 5.14386 6.79955 5.16792 6.99189C5.18648 7.14003 5.13148 7.26825 5.01669 7.37344C4.59256 7.75935 4.1698 8.1465 3.74017 8.52743C3.5147 8.72785 3.21706 8.72038 2.98884 8.5212C2.82798 8.38053 2.67057 8.23737 2.51521 8.09235C2.28906 7.88196 2.28012 7.6 2.48909 7.41141C2.69669 7.22405 3.01427 7.23028 3.24249 7.42634C3.27961 7.45809 3.31673 7.49045 3.37447 7.54087L3.37378 7.54025Z" fill="black"/>
<path d="M3.35111 11.0728C3.66869 10.7846 3.95465 10.5238 4.24199 10.2643C4.49014 10.0402 4.7981 10.0228 5.01739 10.2182C5.23736 10.4143 5.2243 10.6981 4.97889 10.9215C4.57951 11.2857 4.17944 11.6492 3.77662 12.0108C3.51471 12.2461 3.22188 12.2448 2.96273 12.0127C2.81218 11.8776 2.66096 11.7432 2.51316 11.6056C2.28769 11.3958 2.27876 11.1126 2.48842 10.9253C2.69739 10.7386 3.01359 10.7442 3.24181 10.9421C3.27893 10.9738 3.30437 11.0162 3.35111 11.0728Z" fill="black"/>
</g>
<defs>
<clipPath id="clip0_998_9001">
<rect width="13.4642" height="15" fill="white"/>
</clipPath>
</defs>
</svg>
