<svg width="11" height="7" viewBox="0 0 11 7" fill="none" xmlns="http://www.w3.org/2000/svg">
<path d="M5.30508 4.78333C6.55206 3.51399 7.74031 2.30337 8.93137 1.09274C9.07955 0.944562 9.21375 0.715298 9.38989 0.676156C9.67508 0.614646 10.1196 0.567116 10.2538 0.723686C10.4272 0.922195 10.4467 1.35276 10.3713 1.64074C10.3097 1.8756 10.0134 2.05174 9.81487 2.25025C8.53155 3.53636 7.24824 4.82247 5.96212 6.103C5.4337 6.62863 5.13174 6.63142 4.6117 6.11418C3.22494 4.7358 1.84097 3.35463 0.456996 1.97345C0.0879373 1.60719 -0.24757 1.20178 0.252895 0.726481C0.742178 0.259566 1.1364 0.603462 1.50266 0.969725C2.73286 2.20831 3.96865 3.4413 5.30788 4.78333L5.30508 4.78333Z" fill="black"/>
</svg>
