<svg width="48" height="49" viewBox="0 0 48 49" fill="none" xmlns="http://www.w3.org/2000/svg">
<g clip-path="url(#clip0_998_1993)">
<path d="M24.7257 23.7244C24.4472 23.7244 24.2499 23.7244 24.0525 23.7244C17.9389 23.7244 11.8234 23.7244 5.70975 23.7244C5.23886 23.7244 5.00403 23.9616 5.00526 24.4361C5.00526 25.3932 5.00526 26.3521 5.00526 27.4374C4.57555 27.1401 4.22514 26.9096 3.88765 26.6624C2.72394 25.8057 1.56944 24.9342 0.400199 24.0849C0.123564 23.886 0 23.6667 0 23.3155C0.0110654 19.8162 0.0129097 16.3187 0 12.8194C0 12.3976 0.12172 12.2656 0.549582 12.2656C8.43 12.2786 16.3123 12.2749 24.1927 12.2768C24.3402 12.2768 24.4878 12.2916 24.7349 12.3065C24.3439 12.9161 24.0027 13.4568 23.6542 13.9939C22.8538 15.2223 22.0534 16.4507 21.2401 17.6698C21.0778 17.9132 21.0815 18.0916 21.2419 18.3351C22.3411 19.9946 23.4236 21.6634 24.5117 23.3304C24.5763 23.4307 24.6279 23.5404 24.7257 23.7244ZM8.21238 17.9727C8.21238 18.7625 8.21607 19.5523 8.21054 20.3403C8.20869 20.6041 8.28984 20.7454 8.57754 20.7417C9.28388 20.7305 9.99207 20.7658 10.6966 20.7231C11.9322 20.6506 12.8857 19.6527 13.0461 18.3221C13.2121 16.9376 12.5519 15.698 11.3236 15.4211C10.4716 15.2279 9.55867 15.3078 8.67344 15.2483C8.29722 15.2242 8.19947 15.3951 8.20685 15.7445C8.22529 16.4879 8.21238 17.2312 8.21238 17.9727ZM4.66592 15.2093C4.66592 15.2242 4.66223 15.2409 4.66223 15.2557C4.33949 15.2557 4.0149 15.2799 3.69585 15.2502C3.2809 15.213 3.16471 15.3951 3.1684 15.7872C3.18315 17.1327 3.17393 18.48 3.17393 19.8273C3.17393 20.7918 3.17393 20.7826 4.144 20.7472C4.43539 20.7361 4.56633 20.632 4.5608 20.3365C4.55157 19.95 4.56817 19.5616 4.55526 19.1769C4.5442 18.8852 4.64563 18.7495 4.95177 18.7662C5.24316 18.7829 5.5364 18.7774 5.82594 18.7569C6.69273 18.6975 7.38063 18.0675 7.46916 17.2702C7.57243 16.3466 7.12059 15.6107 6.21323 15.3784C5.71529 15.2502 5.1823 15.2632 4.66592 15.213V15.2093ZM15.9065 15.2539C15.4307 15.2539 14.9531 15.2762 14.4791 15.2465C14.0605 15.2204 13.9092 15.3691 13.9166 15.8003C13.9369 17.1457 13.924 18.4912 13.924 19.8366C13.924 20.7844 13.924 20.7733 14.8535 20.7435C15.1449 20.7342 15.274 20.6376 15.2629 20.3365C15.25 19.95 15.2813 19.5616 15.2537 19.1769C15.2242 18.7792 15.3496 18.6138 15.7664 18.6398C16.2551 18.6714 16.7494 18.625 17.2381 18.6529C17.7047 18.6789 17.6567 18.3778 17.6641 18.0768C17.6715 17.7534 17.6567 17.4932 17.2159 17.5174C16.7272 17.5434 16.233 17.5025 15.7442 17.5285C15.3477 17.5508 15.2445 17.3799 15.2518 17.0101C15.2592 16.644 15.2832 16.3763 15.7627 16.4042C16.3141 16.4358 16.8674 16.3968 17.4188 16.4117C17.8467 16.4228 17.8356 16.1459 17.819 15.8541C17.8024 15.5791 17.9094 15.2316 17.4225 15.2502C16.9172 15.2688 16.41 15.2539 15.9028 15.2539H15.9065Z" fill="black"/>
<path d="M39.6067 20.8859C39.5975 20.6703 39.5827 20.5049 39.5827 20.3377C39.5827 18.9439 39.5661 17.5501 39.5919 16.1582C39.5993 15.727 39.4665 15.6007 39.0461 15.6025C36.2649 15.6174 33.4838 15.6248 30.7027 15.6025C28.9913 15.5877 27.669 14.8071 26.7616 13.3483C26.3227 12.6421 26.0829 11.8635 26.0829 11.0198C26.0829 8.20247 26.0737 5.38332 26.0903 2.56603C26.0921 2.12002 25.963 1.98621 25.5167 1.98807C20.6314 2.00294 15.7441 1.9955 10.8588 1.99736C9.10489 1.99736 7.93564 3.16256 7.92827 4.92616C7.92089 6.70648 7.92827 8.4868 7.92827 10.2671C7.92827 10.4362 7.92827 10.6035 7.92827 10.8079H5.98444C5.97707 10.6221 5.96047 10.4418 5.96047 10.2616C5.96047 8.48123 5.95493 6.70091 5.96047 4.92058C5.966 2.08842 8.01863 0.0349199 10.8311 0.0330616C15.9009 0.0330616 20.9725 0.0739458 26.0424 -0.000389158C27.1231 -0.0171145 27.822 0.322968 28.5505 1.06632C32.689 5.28111 36.8735 9.4513 41.0489 13.6289C41.3882 13.969 41.5487 14.3351 41.545 14.822C41.5284 16.6804 41.5284 18.5387 41.545 20.3953C41.5487 20.7762 41.4436 20.9212 41.0544 20.8933C40.5971 20.8617 40.1342 20.8859 39.6049 20.8859H39.6067ZM28.0378 3.51008C28.0267 3.70893 28.0102 3.85574 28.0102 4.00441C28.0102 6.201 28.0065 8.39946 28.0102 10.5961C28.0138 12.499 29.1628 13.6661 31.0476 13.6717C33.2275 13.6772 35.4092 13.6717 37.5891 13.6717C37.7477 13.6717 37.9063 13.6494 37.9709 13.6438C34.6826 10.2894 31.3851 6.92763 28.0378 3.51194V3.51008Z" fill="black"/>
<path d="M5.95865 25.1865H7.9246C7.9246 25.3724 7.9246 25.5229 7.9246 25.6734C7.9246 31.6499 7.94673 37.6246 7.91169 43.5993C7.90247 45.322 9.00164 46.3571 10.1414 46.5931C10.3645 46.6396 10.5987 46.6526 10.8274 46.6526C19.4621 46.6563 28.095 46.6563 36.7297 46.6526C37.7938 46.6526 38.6108 46.188 39.1973 45.2867C39.2932 45.1399 39.5108 45.0042 39.6805 44.9931C40.2282 44.9559 40.7797 44.9801 41.3809 44.9801C41.1872 45.9223 40.7428 46.66 40.1084 47.2789C39.2065 48.1579 38.1166 48.6002 36.8625 48.6002C28.1208 48.6039 19.3792 48.6113 10.6375 48.5965C7.98546 48.5927 5.96603 46.4965 5.96049 43.7647C5.94758 37.7436 5.9568 31.7206 5.9568 25.6994C5.9568 25.534 5.9568 25.3668 5.9568 25.1865H5.95865Z" fill="black"/>
<path d="M34.6383 33.3931C35.5863 33.3931 36.442 33.3931 37.2977 33.3931C37.9155 33.3931 37.9174 33.3894 37.9174 32.778C37.9174 29.4812 37.9174 26.1844 37.9192 22.8877C37.9192 22.7186 37.9192 22.5495 37.9192 22.332H43.0683C43.0794 22.5457 43.0997 22.7576 43.0997 22.9676C43.1015 26.2179 43.0997 29.4682 43.1034 32.7185C43.1034 33.3912 43.1071 33.3931 43.7673 33.3949C44.4589 33.3949 45.1505 33.3931 45.8402 33.3949C46.0025 33.3949 46.1666 33.4117 46.4101 33.4247C45.7591 34.1513 45.1707 34.8184 44.5714 35.4745C43.3136 36.8515 42.0485 38.2211 40.7944 39.6019C40.6044 39.8119 40.4661 39.8807 40.243 39.6354C38.4245 37.6227 36.5987 35.6157 34.7766 33.6068C34.7471 33.5733 34.7268 33.5325 34.6365 33.3931H34.6383Z" fill="#DE000E"/>
<path d="M33.1483 43.5103C33.1335 43.3783 33.1169 43.2873 33.1151 43.1962C33.1132 42.2521 33.1151 41.3099 33.1151 40.3176H34.8948C34.8948 40.5071 34.8948 40.6744 34.8948 40.8416C34.9058 41.8544 34.7638 41.7745 35.8464 41.7764C37.722 41.7783 39.5957 41.7764 41.4713 41.7764C42.8545 41.7764 44.2377 41.7671 45.6208 41.782C45.9915 41.7857 46.163 41.6798 46.1317 41.2839C46.1077 40.9773 46.1262 40.6669 46.1262 40.2767C46.6591 40.2767 47.1737 40.2637 47.6864 40.2897C47.7638 40.2934 47.8948 40.47 47.8966 40.5685C47.9132 41.4512 47.9188 42.3339 47.8929 43.2166C47.8893 43.3281 47.6975 43.4564 47.5665 43.5326C47.4854 43.579 47.3563 43.5437 47.2493 43.5437C42.7457 43.5437 38.2439 43.5437 33.7403 43.5437C33.5448 43.5437 33.3493 43.5214 33.1483 43.5103Z" fill="#DE000E"/>
<rect y="13.1934" width="20.831" height="9.02679" fill="black"/>
<path d="M6.64628 18.4669H5.40039V17.6811H6.64628C6.83881 17.6811 6.99553 17.6498 7.11642 17.5871C7.23731 17.5222 7.32575 17.4326 7.38172 17.3184C7.43769 17.2043 7.46567 17.0755 7.46567 16.9322C7.46567 16.7867 7.43769 16.6513 7.38172 16.5259C7.32575 16.4005 7.23731 16.2998 7.11642 16.2237C6.99553 16.1475 6.83881 16.1095 6.64628 16.1095H5.74964V20.2098H4.74219V15.3203H6.64628C7.02911 15.3203 7.35709 15.3897 7.63022 15.5285C7.90559 15.6651 8.11604 15.8543 8.26156 16.0961C8.40708 16.3378 8.47984 16.6143 8.47984 16.9255C8.47984 17.2412 8.40708 17.5143 8.26156 17.7449C8.11604 17.9755 7.90559 18.1535 7.63022 18.2789C7.35709 18.4042 7.02911 18.4669 6.64628 18.4669Z" fill="white"/>
<path d="M10.7105 20.2098H9.64594L9.65265 19.424H10.7105C10.9747 19.424 11.1974 19.3647 11.3788 19.246C11.5601 19.1251 11.6967 18.9494 11.7885 18.7188C11.8825 18.4882 11.9295 18.2095 11.9295 17.8826V17.6442C11.9295 17.3934 11.9026 17.1729 11.8489 16.9826C11.7974 16.7923 11.7202 16.6322 11.6172 16.5024C11.5142 16.3725 11.3877 16.2752 11.2377 16.2102C11.0877 16.1431 10.9153 16.1095 10.7206 16.1095H9.62579V15.3203H10.7206C11.0474 15.3203 11.3463 15.3763 11.6172 15.4882C11.8903 15.5979 12.1265 15.7558 12.3258 15.9617C12.525 16.1677 12.6784 16.414 12.7858 16.7005C12.8955 16.9848 12.9504 17.3016 12.9504 17.6509V17.8826C12.9504 18.2296 12.8955 18.5464 12.7858 18.833C12.6784 19.1195 12.525 19.3658 12.3258 19.5718C12.1287 19.7755 11.8926 19.9333 11.6172 20.0453C11.3441 20.155 11.0418 20.2098 10.7105 20.2098ZM10.2168 15.3203V20.2098H9.20937V15.3203H10.2168Z" fill="white"/>
<path d="M14.7243 15.3203V20.2098H13.7169V15.3203H14.7243ZM16.6721 17.4091V18.1949H14.4489V17.4091H16.6721ZM16.9071 15.3203V16.1095H14.4489V15.3203H16.9071Z" fill="white"/>
</g>
<defs>
<clipPath id="clip0_998_1993">
<rect width="47.9114" height="48.6058" fill="white"/>
</clipPath>
</defs>
</svg>
