<svg width="25" height="25" viewBox="0 0 25 25" fill="none" xmlns="http://www.w3.org/2000/svg">
<g clip-path="url(#clip0_998_9702)">
<path d="M20.5352 8.03568C20.6624 8.03568 20.7617 8.03568 20.8622 8.03568C21.9223 8.03568 22.9824 8.03344 24.0414 8.03568C24.6128 8.03791 24.9955 8.40285 24.9967 8.97202C25.0011 11.9284 25.0011 14.8858 24.9967 17.8422C24.9967 18.3778 24.6105 18.7439 24.0693 18.7461C23.0003 18.7506 21.9312 18.7473 20.8622 18.7484C20.7628 18.7484 20.6624 18.7484 20.5363 18.7484V19.0742C20.5363 20.5619 20.5363 22.0496 20.5363 23.5372C20.5363 24.4423 19.985 24.997 19.0756 24.997C13.2002 24.9981 7.3238 24.9992 1.44847 24.997C0.550149 24.997 0.00334777 24.4479 0.00334777 23.5551C0.00111592 17.764 0.00334777 11.9719 0 6.17973C0 5.51124 0.226532 4.94653 0.697451 4.47668C1.97295 3.20107 3.24733 1.92434 4.52506 0.650961C4.94465 0.231337 5.45909 0.00590069 6.05164 0.00478467C10.4495 -0.00079544 14.8462 -0.00191146 19.2441 0.00366865C19.9839 0.00366865 20.533 0.626409 20.5341 1.43441C20.5374 3.52695 20.5352 5.61837 20.5352 7.71091V8.03568ZM0.894969 6.25004C0.894969 6.34379 0.894969 6.39847 0.894969 6.45316C0.894969 12.1527 0.894969 17.8533 0.894969 23.5528C0.894969 23.9613 1.05008 24.1064 1.48306 24.1064C7.33161 24.1064 13.179 24.1064 19.0276 24.1064C19.5007 24.1064 19.6413 23.9647 19.6425 23.4926C19.6425 22.0049 19.6425 20.5173 19.6425 19.0296C19.6425 18.9403 19.6346 18.8522 19.6302 18.7506H19.2709C14.6967 18.7506 10.1225 18.7506 5.54836 18.7506C4.79065 18.7506 4.46704 18.4258 4.46704 17.6625C4.46704 14.8267 4.46704 11.9909 4.46704 9.15505C4.46704 8.35486 4.78173 8.03679 5.57515 8.03679C10.1493 8.03679 14.7235 8.03679 19.2976 8.03679H19.6436V7.731C19.6436 5.66636 19.6436 3.60284 19.6436 1.5382C19.6436 1.02929 19.5097 0.89537 19.0008 0.894254C14.854 0.894254 10.7073 0.894254 6.56051 0.894254C6.4623 0.894254 6.3641 0.894254 6.25251 0.894254C6.25251 1.03599 6.25251 1.13643 6.25251 1.23799C6.25251 2.45557 6.25697 3.67426 6.25028 4.89184C6.24581 5.66748 5.65884 6.24669 4.88662 6.25004C4.16127 6.25339 3.43592 6.25004 2.71057 6.25004C2.1169 6.25004 1.52323 6.25004 0.894969 6.25004ZM24.0939 8.94858H5.38098V17.8422H24.0939V8.94858ZM1.18065 5.35722C2.37915 5.35722 3.57653 5.35834 4.77391 5.35722C5.20912 5.35722 5.35754 5.20656 5.35866 4.77131C5.35977 3.63855 5.35866 2.50467 5.35866 1.37191C5.35866 1.30383 5.34638 1.23687 5.34192 1.18665C3.95594 2.5761 2.57666 3.95885 1.18176 5.35834L1.18065 5.35722Z" fill="black"/>
<path d="M1.79 22.2956C1.79 22.1471 1.77996 21.9976 1.79223 21.8492C1.81232 21.5958 1.98975 21.4262 2.22968 21.4318C2.47629 21.4385 2.64815 21.5724 2.66712 21.8157C2.69278 22.1483 2.69278 22.4853 2.66935 22.8179C2.65261 23.0623 2.48076 23.1951 2.23637 23.2074C1.99868 23.2185 1.81678 23.0522 1.79447 22.7967C1.77996 22.6304 1.79223 22.4619 1.79223 22.2945L1.79 22.2956Z" fill="black"/>
<path d="M4.02105 22.3026C4.02105 22.1542 4.01212 22.0046 4.02328 21.8562C4.04225 21.6018 4.2141 21.4366 4.45402 21.4299C4.68837 21.4232 4.88812 21.5828 4.90262 21.8361C4.92271 22.1598 4.92271 22.4879 4.90262 22.8115C4.88812 23.0582 4.67944 23.2267 4.44621 23.2077C4.20183 23.1887 4.05006 23.0504 4.02551 22.8037C4.00989 22.6374 4.02216 22.4689 4.02216 22.3026C4.02216 22.3026 4.02105 22.3026 4.01993 22.3026H4.02105Z" fill="black"/>
<path d="M7.14106 22.3412C7.14106 22.4896 7.15111 22.6392 7.13883 22.7876C7.11651 23.0421 6.94131 23.205 6.70362 23.2106C6.45477 23.2162 6.2673 23.0465 6.25614 22.7753C6.24275 22.4695 6.24275 22.1615 6.25614 21.8557C6.2673 21.6013 6.44808 21.4372 6.688 21.4328C6.92346 21.4272 7.10089 21.5879 7.13883 21.8412C7.14106 21.8591 7.14218 21.8781 7.14218 21.897C7.14218 22.0455 7.14218 22.195 7.14218 22.3434C7.14218 22.3434 7.14218 22.3434 7.14106 22.3434V22.3412Z" fill="black"/>
<path d="M9.37362 22.337C9.37362 22.4854 9.38367 22.635 9.37139 22.7834C9.34907 23.049 9.15825 23.2198 8.91163 23.2109C8.67171 23.2019 8.49874 23.039 8.48758 22.779C8.47419 22.4732 8.47419 22.1651 8.48758 21.8593C8.49763 21.6038 8.67617 21.4397 8.9161 21.4319C9.15044 21.4241 9.34126 21.5848 9.36804 21.837C9.3859 22.0022 9.37139 22.1707 9.37139 22.3381C9.37139 22.3381 9.37251 22.3381 9.37362 22.3381V22.337Z" fill="black"/>
<path d="M10.7165 22.318C10.7165 22.1696 10.7098 22.02 10.7177 21.8716C10.7333 21.6116 10.894 21.4475 11.1339 21.4308C11.3671 21.4151 11.578 21.5714 11.5959 21.8214C11.6182 22.1539 11.6204 22.491 11.5959 22.8236C11.578 23.068 11.4028 23.1985 11.1584 23.2075C10.9208 23.2164 10.7422 23.0468 10.721 22.7912C10.7076 22.6338 10.7188 22.4754 10.7188 22.3169C10.7188 22.3169 10.7177 22.3169 10.7165 22.3169V22.318Z" fill="black"/>
<path d="M12.9492 22.2935C12.9492 22.145 12.9391 21.9955 12.9514 21.8471C12.9715 21.596 13.1523 21.4241 13.39 21.4319C13.6366 21.4397 13.8073 21.5747 13.8263 21.818C13.8508 22.1506 13.852 22.4877 13.8285 22.8202C13.8118 23.0646 13.6377 23.1963 13.3933 23.2075C13.1556 23.2175 12.9748 23.0501 12.9536 22.7946C12.9391 22.6283 12.9514 22.4598 12.9503 22.2923L12.9492 22.2935Z" fill="black"/>
<path d="M16.068 22.3255C16.068 22.484 16.0802 22.6425 16.0646 22.7998C16.0401 23.0521 15.8559 23.2128 15.6182 23.2105C15.3794 23.2083 15.1964 23.0465 15.1842 22.7898C15.1696 22.474 15.1685 22.157 15.1842 21.8423C15.1964 21.5934 15.3582 21.4584 15.5993 21.4338C15.8303 21.4104 16.0311 21.5767 16.0602 21.8256C16.0791 21.9907 16.0635 22.1593 16.0635 22.3267H16.0657L16.068 22.3255Z" fill="black"/>
<path d="M17.4119 22.319C17.4119 22.1705 17.4052 22.021 17.413 21.8726C17.4286 21.6125 17.5882 21.4485 17.8292 21.4317C18.0624 21.4161 18.2745 21.5724 18.2912 21.8212C18.3135 22.1538 18.3157 22.4908 18.2912 22.8234C18.2733 23.0678 18.0981 23.1984 17.8538 23.2073C17.6161 23.2163 17.4375 23.0477 17.4163 22.7922C17.4029 22.6348 17.4141 22.4763 17.4141 22.3179C17.4141 22.3179 17.413 22.3179 17.4119 22.3179V22.319Z" fill="black"/>
<path d="M19.1735 16.138C18.8176 16.0599 18.4381 16.032 18.109 15.8903C17.6458 15.6905 17.4327 15.272 17.4126 14.7698C17.4015 14.4963 17.5666 14.3155 17.8166 14.291C18.0487 14.2687 18.2339 14.4149 18.2942 14.6682C18.4013 15.1235 18.4694 15.1782 18.9325 15.1793C19.1557 15.1793 19.3789 15.186 19.6021 15.1771C19.9201 15.1637 20.0741 15.0041 20.0864 14.6872C20.0908 14.5856 20.0886 14.483 20.0864 14.3803C20.0774 14.0008 19.9223 13.8457 19.5362 13.8412C19.2662 13.8379 18.9972 13.8435 18.7272 13.8401C18.1168 13.8323 17.5755 13.425 17.4617 12.8257C17.3981 12.4942 17.387 12.1371 17.4349 11.8023C17.5253 11.1739 18.0956 10.7242 18.7339 10.7164C19.0407 10.713 19.3476 10.713 19.6545 10.7164C20.3441 10.7253 20.9121 11.2565 20.9735 11.9462C21.0003 12.2464 20.8497 12.4585 20.5852 12.4942C20.3319 12.5288 20.1477 12.3748 20.0886 12.0802C20.0149 11.7096 19.9011 11.6125 19.5239 11.6092C19.2729 11.607 19.0218 11.6003 18.7707 11.6114C18.4649 11.6248 18.3154 11.7833 18.3009 12.0857C18.3009 12.0947 18.3009 12.1047 18.3009 12.1136C18.2786 12.8658 18.3589 12.944 19.111 12.9495C19.4882 12.9529 19.871 12.8982 20.2303 13.0902C20.5975 13.2866 20.8608 13.5667 20.9255 13.9763C20.9758 14.2932 20.997 14.628 20.9546 14.945C20.8664 15.6034 20.2973 16.0655 19.6333 16.0733C19.4849 16.0744 19.3354 16.0733 19.1869 16.0733C19.1825 16.0956 19.1769 16.1179 19.1724 16.1391L19.1735 16.138Z" fill="black"/>
<path d="M10.7141 12.5247C11.0411 11.9835 11.3379 11.4824 11.6426 10.9869C11.8211 10.6967 12.0934 10.632 12.3188 10.8128C12.5197 10.9735 12.5521 11.1922 12.3947 11.4601C12.0555 12.0359 11.714 12.6096 11.3602 13.1765C11.2632 13.3316 11.2587 13.4443 11.3569 13.6028C11.7006 14.1541 12.0276 14.7155 12.3601 15.2735C12.5532 15.5971 12.5331 15.8404 12.3054 15.9844C12.0387 16.154 11.7999 16.0715 11.5991 15.7378C11.3134 15.2612 11.0288 14.7847 10.7164 14.2624C10.5043 14.615 10.3102 14.9353 10.1171 15.2556C10.0022 15.4465 9.89392 15.6407 9.77341 15.8282C9.61383 16.0759 9.36944 16.1328 9.12617 15.9866C8.92084 15.8639 8.86616 15.6239 9.01123 15.3762C9.3527 14.7914 9.69752 14.2077 10.0546 13.6329C10.1617 13.4622 10.1729 13.3361 10.0613 13.1586C9.71091 12.6017 9.37948 12.0315 9.04359 11.4645C8.86616 11.1665 8.9108 10.9277 9.16746 10.7703C9.3806 10.6387 9.62499 10.7212 9.79349 10.9958C10.0937 11.4857 10.3872 11.9801 10.7152 12.5236L10.7141 12.5247Z" fill="black"/>
<path d="M14.7329 15.1783C15.3154 15.1783 15.8633 15.166 16.409 15.1861C16.5607 15.1916 16.7538 15.2508 16.8475 15.3568C16.9301 15.4494 16.9647 15.676 16.9078 15.782C16.8375 15.9115 16.6522 16.0521 16.5116 16.0577C15.7696 16.0845 15.0252 16.0778 14.282 16.0666C13.9975 16.0621 13.8424 15.8892 13.8412 15.5968C13.8368 14.1292 13.8368 12.6605 13.8412 11.1929C13.8412 10.9017 14.0209 10.722 14.2809 10.7197C14.5565 10.7175 14.7295 10.9095 14.7295 11.2443C14.7329 12.4429 14.7306 13.6415 14.7306 14.8401C14.7306 14.9417 14.7306 15.0421 14.7306 15.1805L14.7329 15.1783Z" fill="black"/>
</g>
<defs>
<clipPath id="clip0_998_9702">
<rect width="25" height="25" fill="white"/>
</clipPath>
</defs>
</svg>
