<svg width="40" height="40" viewBox="0 0 40 40" fill="none" xmlns="http://www.w3.org/2000/svg">
<path d="M32.1812 0.401611H8.03171C3.93741 0.401611 0.606445 3.76852 0.606445 7.90701V31.8962C0.606445 36.0347 3.93741 39.4016 8.03171 39.4016H32.1812C36.2755 39.4016 39.6064 36.0347 39.6064 31.8962V7.90701C39.6064 3.76852 36.2755 0.401611 32.1812 0.401611ZM35.7897 31.8962C35.7897 33.9304 34.1936 35.5437 32.1812 35.5437H8.03171C6.01926 35.5437 4.42317 33.9304 4.42317 31.8962V7.90701C4.42317 5.87283 6.01926 4.25953 8.03171 4.25953H32.1812C34.1936 4.25953 35.7897 5.87283 35.7897 7.90701V31.8962ZM31.1403 21.1642C29.8911 21.1642 28.8502 22.2164 28.8502 23.4789C28.8502 24.7415 29.8911 25.7937 31.1403 25.7937C32.3894 25.7937 33.4303 24.7415 33.4303 23.4789C33.4303 22.2164 32.3894 21.1642 31.1403 21.1642ZM31.1403 27.3369C29.8911 27.3369 28.8502 28.389 28.8502 29.6516C28.8502 30.9142 29.8911 31.9664 31.1403 31.9664C32.3894 31.9664 33.4303 30.9142 33.4303 29.6516C33.4303 28.389 32.3894 27.3369 31.1403 27.3369ZM14.4854 6.71456C9.76659 6.71456 5.88047 10.5725 5.88047 15.4124C5.88047 20.2523 9.69719 24.1102 14.4854 24.1102C19.2737 24.1102 23.021 20.2523 23.021 15.4124C23.021 10.5725 19.2043 6.71456 14.4854 6.71456ZM14.4854 20.1822C11.8484 20.1822 9.76659 18.0077 9.76659 15.4124C9.76659 12.8171 11.9178 10.6426 14.4854 10.6426C17.0531 10.6426 19.2043 12.8171 19.2043 15.4124C19.2043 18.0077 17.0531 20.1822 14.4854 20.1822Z" fill="black"/>
</svg>
