<svg width="20" height="17" viewBox="0 0 20 17" fill="none" xmlns="http://www.w3.org/2000/svg">
<g clip-path="url(#clip0_998_12558)">
<path d="M9.99179 16.1898C7.28036 16.1898 4.56893 16.1898 1.8581 16.1898C0.788249 16.1898 0.000608217 15.3227 0.000608217 14.1445C0 10.1285 0 6.1131 0 2.09774C0 0.856977 0.768786 0.00134428 1.88791 0.00134428C7.30043 0 12.713 0 18.1255 0C19.2172 0 19.9988 0.858993 19.9994 2.06279C20.0012 6.07815 20.0012 10.0942 19.9994 14.1095C19.9994 15.3355 19.2245 16.1878 18.1109 16.1885C15.4049 16.1905 12.6984 16.1891 9.9924 16.1891L9.99179 16.1898ZM9.99909 9.63309C12.9751 6.90555 15.9365 4.19078 18.9083 1.46728C18.8541 1.39939 18.8182 1.34629 18.7751 1.30126C18.5829 1.10096 18.3499 1.03913 18.0908 1.0398C12.7555 1.04182 7.42025 1.04114 2.08497 1.04182C1.97853 1.04182 1.87209 1.03711 1.76565 1.04518C1.48709 1.06601 1.26874 1.20649 1.08992 1.46795C4.06228 4.19213 7.0243 6.9069 9.99909 9.63376V9.63309ZM1.38065 14.9988C1.41897 15.029 1.44026 15.0599 1.4658 15.0646C1.62394 15.0962 1.78268 15.1453 1.94143 15.1453C7.32841 15.1493 12.716 15.1487 18.103 15.1487C18.1638 15.1487 18.2264 15.1547 18.2848 15.1399C18.3943 15.1124 18.5007 15.0714 18.6352 15.027C18.5707 14.9625 18.5391 14.9275 18.5044 14.8959C16.4042 12.9837 14.3034 11.0728 12.2051 9.15856C12.1193 9.07992 12.0707 9.08664 11.9892 9.16192C11.4466 9.6667 10.8992 10.1654 10.3531 10.6662C10.1067 10.892 9.88961 10.8913 9.64389 10.6655C9.223 10.279 8.80151 9.89321 8.38001 9.5074C8.22066 9.36155 8.0607 9.21704 7.89587 9.06715C5.71967 11.0479 3.55442 13.0187 1.37944 14.9981L1.38065 14.9988ZM19.0512 2.69192C16.9644 4.60482 14.9086 6.4895 12.8389 8.38695C14.9141 10.275 16.9699 12.1462 19.0512 14.0403V2.69192ZM0.953684 2.69729V14.0356C3.03257 12.1435 5.08774 10.2736 7.16054 8.38695C5.08834 6.48815 3.03257 4.60348 0.953684 2.69729Z" fill="black"/>
</g>
<defs>
<clipPath id="clip0_998_12558">
<rect width="20" height="16.1905" fill="white"/>
</clipPath>
</defs>
</svg>
