<svg width="33" height="42" viewBox="0 0 33 42" fill="none" xmlns="http://www.w3.org/2000/svg">
<path d="M24.2426 9.47108H10.3459V2.50033C10.3459 1.37602 9.44451 0.401611 8.24264 0.401611C7.04076 0.401611 6.21447 1.30106 6.21447 2.50033V9.92081C2.83419 10.8203 0.205078 13.8184 0.205078 17.4912V33.3815C0.205078 37.8038 3.81071 41.4016 8.24264 41.4016H24.1675C28.5994 41.4016 32.2051 37.8038 32.2051 33.3815V17.4912C32.2051 13.0689 28.5994 9.47108 24.1675 9.47108M28.1487 33.3815C28.1487 35.5552 26.421 37.2791 24.2426 37.2791H8.31775C6.13935 37.2791 4.41165 35.5552 4.41165 33.3815V17.4912C4.41165 15.3175 6.13935 13.5936 8.31775 13.5936H24.2426C26.421 13.5936 28.1487 15.3175 28.1487 17.4912V33.3815ZM8.61822 21.014C9.97034 21.014 11.0971 19.8897 11.0971 18.5406C11.0971 17.1914 9.97034 16.0671 8.61822 16.0671C7.26611 16.0671 6.13935 17.1914 6.13935 18.5406C6.13935 19.8897 7.26611 21.014 8.61822 21.014ZM16.2802 24.2371C14.9281 24.2371 13.8013 25.3614 13.8013 26.7106C13.8013 28.0597 14.9281 29.1841 16.2802 29.1841C17.6323 29.1841 18.7591 28.0597 18.7591 26.7106C18.7591 25.3614 17.6323 24.2371 16.2802 24.2371ZM16.2802 30.8331C14.9281 30.8331 13.8013 31.9574 13.8013 33.3065C13.8013 34.6557 14.9281 35.78 16.2802 35.78C17.6323 35.78 18.7591 34.6557 18.7591 33.3065C18.7591 31.9574 17.6323 30.8331 16.2802 30.8331ZM8.84358 24.2371C7.49146 24.2371 6.3647 25.3614 6.3647 26.7106C6.3647 28.0597 7.49146 29.1841 8.84358 29.1841C10.1957 29.1841 11.3224 28.0597 11.3224 26.7106C11.3224 25.3614 10.1957 24.2371 8.84358 24.2371ZM8.84358 30.8331C7.49146 30.8331 6.3647 31.9574 6.3647 33.3065C6.3647 34.6557 7.49146 35.78 8.84358 35.78C10.1957 35.78 11.3224 34.6557 11.3224 33.3065C11.3224 31.9574 10.1957 30.8331 8.84358 30.8331ZM23.7919 24.2371C22.4398 24.2371 21.3131 25.3614 21.3131 26.7106C21.3131 28.0597 22.4398 29.1841 23.7919 29.1841C25.144 29.1841 26.2708 28.0597 26.2708 26.7106C26.2708 25.3614 25.144 24.2371 23.7919 24.2371ZM23.7919 30.8331C22.4398 30.8331 21.3131 31.9574 21.3131 33.3065C21.3131 34.6557 22.4398 35.78 23.7919 35.78C25.144 35.78 26.2708 34.6557 26.2708 33.3065C26.2708 31.9574 25.144 30.8331 23.7919 30.8331Z" fill="black"/>
</svg>
