<svg width="86" height="25" viewBox="0 0 86 25" fill="none" xmlns="http://www.w3.org/2000/svg">
<g clip-path="url(#clip0_1144_8853)">
<path d="M14.4578 16.6653H5.35691C5.35691 17.6757 5.56219 18.6188 5.97276 19.4272C6.38332 20.2355 6.93075 20.8418 7.61502 21.246C8.2993 21.6502 9.05201 21.8523 9.87314 21.8523C10.4206 21.8523 10.8996 21.8523 11.3786 21.6502C11.8575 21.5155 12.2681 21.3134 12.7471 21.0439C13.1577 20.7745 13.5682 20.505 13.9104 20.1682C14.2525 19.8314 14.7315 19.4272 15.3474 18.8883C15.6211 18.6862 15.8948 18.6188 16.3738 18.6188C16.8528 18.6188 17.2633 18.7536 17.5371 19.023C17.8108 19.2925 17.9476 19.6293 17.9476 20.1008C17.9476 20.505 17.8108 20.9765 17.4686 21.5828C17.1265 22.1217 16.6475 22.6606 15.9632 23.1995C15.2789 23.7385 14.4578 24.1426 13.4314 24.4795C12.405 24.8163 11.2417 25.0184 9.94157 25.0184C6.93075 25.0184 4.6042 24.21 2.96194 22.5259C1.31967 20.8418 0.498535 18.5515 0.498535 15.7222C0.498535 14.3749 0.703819 13.095 1.11439 11.9498C1.52495 10.8047 2.1408 9.7942 2.89351 8.98584C3.64621 8.17748 4.6042 7.50384 5.76747 7.09966C6.93075 6.62812 8.16245 6.42603 9.59943 6.42603C11.3786 6.42603 12.9524 6.83021 14.2525 7.57121C15.5526 8.3122 16.5106 9.32266 17.1949 10.4678C17.8792 11.6804 18.1529 12.8929 18.1529 14.1055C18.1529 15.2506 17.8108 15.9916 17.1265 16.3285C16.4422 16.6653 15.4842 16.8674 14.3209 16.8674M5.35691 14.1055H13.7735C13.6367 12.5561 13.2261 11.3436 12.4734 10.6026C11.7207 9.7942 10.7627 9.45738 9.531 9.45738C8.2993 9.45738 7.40974 9.86157 6.65703 10.6026C5.90433 11.4109 5.42533 12.5561 5.28848 14.1055" fill="black"/>
<path d="M22.1218 6.62824H22.6007V3.86633C22.6007 3.12533 22.6007 2.58643 22.6007 2.11488C22.6007 1.7107 22.7376 1.30652 22.9429 1.03706C23.1482 0.700247 23.4219 0.498156 23.6956 0.296065C24.0377 0.0939749 24.4483 0.0266113 24.8589 0.0266113C25.4747 0.0266113 25.9537 0.228702 26.4327 0.700247C26.7748 0.969701 26.9801 1.37388 27.0485 1.77806C27.117 2.18224 27.1854 2.78852 27.1854 3.52951V6.62824H28.8961C29.5804 6.62824 30.0594 6.76296 30.4015 7.09978C30.7436 7.4366 30.9489 7.84078 30.9489 8.31233C30.9489 8.9186 30.6752 9.32278 30.1962 9.59223C29.7172 9.86169 29.033 9.99641 28.075 9.99641H27.1854V18.4169C27.1854 19.1579 27.1854 19.6968 27.2538 20.0336C27.2538 20.4378 27.4591 20.7072 27.6644 20.9767C27.8697 21.2461 28.2118 21.3135 28.7592 21.3135C29.033 21.3135 29.3751 21.3135 29.8541 21.1788C30.3331 21.044 30.6752 21.044 30.9489 21.044C31.2911 21.044 31.6332 21.1788 31.9753 21.5156C32.2491 21.785 32.4543 22.1892 32.4543 22.5934C32.4543 23.3344 32.0438 23.8733 31.2226 24.2775C30.4015 24.6817 29.2382 24.8838 27.7328 24.8838C26.2958 24.8838 25.201 24.6143 24.4483 24.1428C23.6956 23.6712 23.2166 22.9976 23.0113 22.1218C22.806 21.2461 22.6692 20.1683 22.6692 18.7537V9.99641H22.0533C21.369 9.99641 20.8901 9.86169 20.5479 9.52487C20.2058 9.18805 20.0005 8.78387 20.0005 8.31233C20.0005 7.84078 20.2058 7.4366 20.5479 7.09978C20.8901 6.83033 21.4375 6.62824 22.1902 6.62824" fill="black"/>
<path d="M46.824 16.6653H37.7231C37.7231 17.6757 37.9284 18.6188 38.339 19.4272C38.7495 20.2355 39.297 20.8418 39.9812 21.246C40.6655 21.6502 41.4182 21.8523 42.2394 21.8523C42.7868 21.8523 43.2658 21.8523 43.7448 21.6502C44.2238 21.5155 44.6343 21.3134 45.1133 21.0439C45.5239 20.7745 45.9345 20.505 46.2766 20.1682C46.6187 19.8314 47.0977 19.4272 47.7136 18.8883C47.9873 18.6862 48.261 18.6188 48.74 18.6188C49.219 18.6188 49.6295 18.7536 49.9033 19.023C50.177 19.2925 50.3138 19.6293 50.3138 20.1008C50.3138 20.505 50.177 20.9765 49.8348 21.5828C49.4927 22.1217 49.0137 22.6606 48.3294 23.1995C47.6451 23.7385 46.824 24.1426 45.7976 24.4795C44.7712 24.8163 43.6079 25.0184 42.3078 25.0184C39.297 25.0184 36.9704 24.21 35.3281 22.5259C33.6859 20.8418 32.8647 18.5515 32.8647 15.7222C32.8647 14.3749 33.07 13.095 33.4806 11.9498C33.8912 10.8047 34.507 9.7942 35.2597 8.98584C36.0124 8.17748 36.9704 7.50384 38.1337 7.09966C39.297 6.62812 40.5287 6.42603 41.9656 6.42603C43.7448 6.42603 45.3186 6.83021 46.6187 7.57121C47.9189 8.3122 48.8768 9.32266 49.5611 10.4678C50.2454 11.6804 50.5191 12.8929 50.5191 14.1055C50.5191 15.2506 50.177 15.9916 49.4927 16.3285C48.8084 16.6653 47.8504 16.8674 46.6872 16.8674M37.7231 14.1055H46.1397C46.0029 12.5561 45.5923 11.3436 44.8396 10.6026C44.0869 9.7942 43.1289 9.45738 41.8972 9.45738C40.6655 9.45738 39.776 9.86157 39.0232 10.6026C38.2705 11.4109 37.7915 12.5561 37.6547 14.1055" fill="#DE000E"/>
<path d="M58.8674 18.2148V22.0546C58.8674 22.9976 58.6622 23.6713 58.1832 24.1428C57.7042 24.6144 57.1567 24.8165 56.4725 24.8165C55.7882 24.8165 55.2408 24.6144 54.8302 24.1428C54.4196 23.6713 54.2144 22.9976 54.2144 22.0546V9.32284C54.2144 7.23457 54.9671 6.22412 56.4725 6.22412C57.2252 6.22412 57.7726 6.49357 58.1147 6.96512C58.4569 7.43666 58.6622 8.17766 58.6622 9.12075C59.2096 8.17766 59.757 7.43666 60.3729 6.96512C60.9203 6.49357 61.7414 6.22412 62.6994 6.22412C63.6574 6.22412 64.6154 6.49357 65.5049 6.96512C66.4629 7.43666 66.8735 8.1103 66.8735 8.8513C66.8735 9.39021 66.6682 9.86175 66.2576 10.2659C65.8471 10.6701 65.4365 10.8048 64.9575 10.8048C64.8207 10.8048 64.4101 10.7375 63.7258 10.468C63.11 10.2659 62.4941 10.1312 62.0151 10.1312C61.3308 10.1312 60.7834 10.3333 60.3729 10.6701C59.9623 11.0069 59.6201 11.5458 59.3464 12.2195C59.1412 12.8931 58.9359 13.7015 58.8674 14.7119C58.799 15.7224 58.7306 16.8676 58.7306 18.2148" fill="black"/>
<path d="M85.2119 15.5203C85.2119 16.8675 85.0066 18.1474 84.5276 19.2926C84.1171 20.4378 83.5012 21.4483 82.6801 22.2566C81.8589 23.065 80.9009 23.7386 79.7377 24.1428C78.5744 24.6143 77.3427 24.8164 75.9057 24.8164C74.4687 24.8164 73.237 24.6143 72.0738 24.1428C70.9789 23.6713 69.9525 23.065 69.1314 22.1893C68.3102 21.3809 67.6944 20.3704 67.2838 19.2253C66.8733 18.0801 66.668 16.8002 66.668 15.4529C66.668 14.1056 66.8733 12.8257 67.3522 11.6805C67.7628 10.5354 68.3787 9.52491 69.1998 8.71655C70.0209 7.90819 70.9789 7.30192 72.1422 6.83037C73.3055 6.35883 74.5372 6.15674 75.9741 6.15674C77.4111 6.15674 78.6428 6.35883 79.8061 6.83037C80.9694 7.30192 81.9274 7.90819 82.7485 8.71655C83.5696 9.52491 84.1855 10.5354 84.596 11.6805C85.0066 12.8257 85.2119 14.1056 85.2119 15.4529M80.5588 15.5203C80.5588 13.6341 80.1482 12.2195 79.3271 11.1416C78.506 10.1312 77.3427 9.59228 75.9741 9.59228C75.0846 9.59228 74.2635 9.79437 73.5792 10.2659C72.8949 10.7375 72.3475 11.4111 72.0053 12.3542C71.5948 13.2299 71.4579 14.3077 71.4579 15.5203C71.4579 16.7328 71.6632 17.7433 72.0053 18.6864C72.3475 19.5621 72.8949 20.2357 73.5792 20.7746C74.2635 21.2462 75.0846 21.5156 76.0426 21.5156C77.4796 21.5156 78.5744 20.9767 79.3955 19.9663C80.2167 18.9558 80.6272 17.4738 80.6272 15.655" fill="black"/>
</g>
<defs>
<clipPath id="clip0_1144_8853">
<rect width="84.5767" height="24.8571" fill="white" transform="translate(0.635254 0.0266113)"/>
</clipPath>
</defs>
</svg>
