<svg width="112" height="33" viewBox="0 0 112 33" fill="none" xmlns="http://www.w3.org/2000/svg">
<g clip-path="url(#clip0_1144_8752)">
<path d="M12.3971 25.4232H4.5197C4.5197 26.3624 4.69874 27.2391 5.0568 27.9905C5.41487 28.742 5.89228 29.3055 6.48906 29.6186C7.08583 29.9943 7.74229 30.1822 8.45841 30.1822C8.93583 30.1822 9.35358 30.1196 9.77132 29.9943C10.1891 29.8691 10.5471 29.6812 10.9052 29.4308C11.2633 29.1803 11.6213 28.9298 11.9197 28.6167C12.2181 28.3036 12.6358 27.9279 13.1133 27.427C13.352 27.2391 13.5907 27.1765 14.0084 27.1765C14.4262 27.1765 14.7245 27.3017 15.0229 27.5522C15.2616 27.8027 15.381 28.1158 15.381 28.5541C15.381 28.9298 15.2616 29.3681 14.9633 29.8691C14.6649 30.37 14.2471 30.871 13.6503 31.3719C13.0536 31.8103 12.3374 32.2486 11.502 32.5617C10.6068 32.8748 9.65196 33 8.51809 33C5.95196 33 3.92293 32.2486 2.49067 30.6831C1.05841 29.1177 0.342285 27.0513 0.342285 24.3587C0.342285 23.1063 0.521317 21.9165 0.879382 20.852C1.23745 19.7875 1.77454 18.8482 2.43099 18.0968C3.08745 17.3454 3.92293 16.7192 4.93745 16.3435C5.95196 15.9051 7.02616 15.7173 8.27938 15.7173C9.83099 15.7173 11.2036 16.093 12.3374 16.7818C13.4713 17.4706 14.3068 18.4099 14.9036 19.4744C15.4407 20.6015 15.7391 21.7287 15.7391 22.8558C15.7391 23.9203 15.4407 24.6091 14.8439 24.9222C14.2471 25.2353 13.4116 25.4232 12.3971 25.4232ZM4.5197 23.0437H11.8003C11.681 21.6034 11.3229 20.5389 10.6665 19.7875C10.01 19.0987 9.17454 18.723 8.10035 18.723C7.02616 18.723 6.25035 19.0987 5.65358 19.8501C4.99712 20.6015 4.63906 21.6661 4.46003 23.1063" fill="black"/>
<path d="M27.4954 31.2466L24.5712 26.738L21.5874 31.2466C21.1696 31.8728 20.8116 32.3111 20.5132 32.6242C20.2148 32.8747 19.8567 33.0625 19.3793 33.0625C18.8422 33.0625 18.4245 32.8747 18.0664 32.5616C17.7083 32.2485 17.5293 31.8728 17.5293 31.4344C17.5293 30.9961 17.8277 30.3699 18.3648 29.4933L22.0051 23.9828L18.7825 19.4117C18.2454 18.6602 17.947 18.0341 17.947 17.4079C17.947 16.9695 18.1261 16.5938 18.4245 16.2807C18.7228 15.9676 19.2003 15.7798 19.7374 15.7798C20.2148 15.7798 20.6325 15.905 20.9309 16.2181C21.2293 16.4686 21.5874 16.9069 22.0051 17.5331L24.6309 21.2902L27.197 17.5331C27.6148 16.9069 27.9728 16.4686 28.2712 16.2181C28.5696 15.9676 28.9874 15.8424 29.4051 15.8424C29.9422 15.8424 30.3599 15.9676 30.718 16.3434C31.0761 16.6564 31.2551 17.0322 31.2551 17.4705C31.2551 17.7836 31.1954 18.0967 31.0164 18.4098C30.8374 18.7229 30.6583 19.036 30.3599 19.4743L27.1374 24.0454L30.7777 29.5559C31.3745 30.4325 31.6132 31.0587 31.6132 31.4971C31.6132 31.9354 31.4341 32.3111 31.0761 32.6242C30.718 32.9373 30.3003 33.1251 29.7632 33.1251C29.2857 33.1251 28.9277 32.9999 28.5696 32.6868C28.2712 32.4363 27.8535 31.9354 27.4954 31.3718" fill="#DE000E"/>
<path d="M34.7162 16.1557H35.134V13.5883C35.134 12.8995 35.134 12.3985 35.134 11.9602C35.134 11.5845 35.2533 11.2088 35.4323 10.9583C35.6114 10.6452 35.8501 10.4574 36.0888 10.2695C36.3872 10.0817 36.7452 10.019 37.1033 10.019C37.6404 10.019 38.0581 10.2069 38.4759 10.6452C38.7743 10.8957 38.8936 11.2714 39.013 11.6471C39.0727 12.0228 39.1323 12.5864 39.1323 13.2752V16.1557H40.6243C41.221 16.1557 41.6388 16.2809 41.9372 16.594C42.2356 16.8445 42.4146 17.2202 42.4146 17.7211C42.4146 18.2847 42.1759 18.6604 41.7581 18.9109C41.3404 19.1614 40.7436 19.224 39.9081 19.224H39.1323V26.9887C39.1323 27.6775 39.1323 28.1784 39.192 28.4915C39.192 28.8672 39.371 29.1177 39.5501 29.3682C39.7291 29.6187 40.0275 29.6813 40.5049 29.6813C40.7436 29.6813 41.042 29.6813 41.4598 29.556C41.8775 29.4934 42.1759 29.4308 42.4146 29.4308C42.7727 29.4308 43.0114 29.556 43.3098 29.8691C43.5485 30.1196 43.7275 30.4953 43.7275 30.871C43.7275 31.5598 43.3694 32.0608 42.6533 32.4365C41.9372 32.8122 40.9227 33.0001 39.6098 33.0001C38.3565 33.0001 37.4017 32.8122 36.7452 32.3113C36.0888 31.8729 35.671 31.2467 35.492 30.4953C35.313 29.7439 35.1936 28.6794 35.1936 27.3644V19.224H34.6565C34.0598 19.224 33.642 19.0987 33.3436 18.7856C33.0452 18.4726 32.8662 18.1595 32.8662 17.6585C32.8662 17.1576 33.0452 16.8445 33.3436 16.5314C33.642 16.2183 34.1194 16.093 34.7162 16.093" fill="black"/>
<path d="M55.4246 30.6204C54.4698 31.4344 53.5149 31.998 52.6198 32.4363C51.7246 32.812 50.7101 33.0625 49.5762 33.0625C48.5617 33.0625 47.6069 32.8747 46.8311 32.4363C46.0552 31.998 45.4585 31.4344 45.0407 30.683C44.623 29.9316 44.3843 29.1802 44.3843 28.3035C44.3843 27.1764 44.7423 26.1745 45.4585 25.3604C46.1746 24.5464 47.1294 23.9828 48.323 23.7324C48.5617 23.7324 49.2182 23.5445 50.2327 23.294C51.2472 23.0435 52.1423 22.8557 52.8585 22.6678C53.5746 22.48 54.3504 22.2921 55.2456 22.0417C55.2456 20.9145 55.0069 20.1005 54.5891 19.5995C54.2311 19.0986 53.4552 18.8481 52.2617 18.8481C51.2472 18.8481 50.4714 18.9733 49.9343 19.2864C49.3972 19.5995 48.9794 20.0379 48.6214 20.664C48.2633 21.2902 48.0246 21.6659 47.8456 21.8538C47.6665 22.0417 47.3681 22.1669 46.8907 22.1669C46.4133 22.1669 46.0552 22.0417 45.6972 21.7286C45.3391 21.4155 45.2198 21.0398 45.2198 20.5388C45.2198 19.7874 45.4585 19.0986 45.9956 18.3472C46.473 17.6584 47.3085 17.0322 48.323 16.5938C49.3972 16.1555 50.7101 15.905 52.3214 15.905C54.1117 15.905 55.4843 16.1555 56.4988 16.5938C57.5133 17.0322 58.2294 17.721 58.6472 18.6602C59.0649 19.5995 59.244 20.8519 59.244 22.4174C59.244 23.4193 59.244 24.2333 59.244 24.9221C59.244 25.6109 59.244 26.3623 59.244 27.239C59.244 28.053 59.3633 28.8671 59.602 29.7437C59.8407 30.6204 59.9601 31.184 59.9601 31.4344C59.9601 31.8728 59.7811 32.2485 59.3633 32.6242C58.9456 32.9999 58.5278 33.1878 58.0504 33.1878C57.6327 33.1878 57.2149 32.9999 56.7972 32.5616C56.3794 32.1859 55.9617 31.5597 55.544 30.8083M55.1262 24.4838C54.5294 24.7343 53.694 24.9847 52.5601 25.2352C51.4262 25.4857 50.6504 25.6735 50.2327 25.7988C49.8149 25.924 49.3972 26.1745 48.9794 26.4876C48.5617 26.8007 48.3827 27.3016 48.3827 27.9278C48.3827 28.554 48.6214 29.1176 49.0988 29.5559C49.5762 29.9942 50.173 30.2447 50.9488 30.2447C51.7246 30.2447 52.5004 30.0568 53.1569 29.6811C53.8133 29.3054 54.3504 28.8671 54.6488 28.2409C55.0069 27.6147 55.1859 26.5502 55.1859 25.0473V24.4212L55.1262 24.4838Z" fill="black"/>
<path d="M70.7613 30.4327V12.0854C70.7613 11.2714 70.9404 10.5826 71.2984 10.1443C71.6565 9.70592 72.1339 9.51807 72.7307 9.51807C73.3275 9.51807 73.8049 9.70592 74.2226 10.1443C74.5807 10.5826 74.7597 11.2088 74.7597 12.0854V30.4327C74.7597 31.3093 74.5807 31.9355 74.163 32.3739C73.8049 32.8122 73.3275 33 72.671 33C72.0146 33 71.5968 32.7496 71.2388 32.3112C70.8807 31.8729 70.7017 31.2467 70.7017 30.4327" fill="black"/>
<path d="M80.9665 13.8386C80.4294 13.8386 79.8923 13.6508 79.5343 13.2751C79.1165 12.8994 78.9375 12.3984 78.9375 11.7722C78.9375 11.146 79.1165 10.7077 79.5343 10.2694C79.952 9.89367 80.4294 9.70581 80.9665 9.70581C81.5036 9.70581 81.9214 9.89367 82.3391 10.2068C82.7569 10.5825 82.9359 11.0834 82.9359 11.7722C82.9359 12.461 82.7569 12.962 82.3391 13.2751C81.9214 13.6508 81.5036 13.8386 80.9665 13.8386Z" fill="#DE000E"/>
<path d="M82.9956 18.2219V30.4325C82.9956 31.3092 82.8165 31.9354 82.3988 32.3737C82.0407 32.812 81.5036 32.9999 80.9069 32.9999C80.3101 32.9999 79.8327 32.7494 79.4746 32.3111C79.1165 31.8728 78.9375 31.2466 78.9375 30.3699V18.2845C78.9375 17.4705 79.1165 16.7817 79.4746 16.406C79.8327 15.9676 80.3101 15.7798 80.9069 15.7798C81.5036 15.7798 81.981 15.9676 82.3988 16.406C82.7569 16.8443 82.9956 17.4079 82.9956 18.1593" fill="black"/>
<path d="M86.8147 16.1556H87.7695V14.9033C87.7695 13.5883 87.9485 12.5238 88.2469 11.7723C88.5453 11.0209 89.0824 10.3947 89.8582 10.0816C90.634 9.70592 91.6485 9.51807 93.0211 9.51807C95.3485 9.51807 96.5421 10.1443 96.5421 11.334C96.5421 11.7097 96.4227 12.0854 96.184 12.3359C95.9453 12.649 95.6469 12.7742 95.2889 12.7742C95.1098 12.7742 94.8711 12.7742 94.4534 12.7116C94.0953 12.7116 93.7373 12.649 93.4985 12.649C92.7824 12.649 92.305 12.8995 92.126 13.3378C91.8873 13.7761 91.8276 14.4023 91.8276 15.279V16.2809H92.8421C94.3937 16.2809 95.1695 16.7818 95.1695 17.7211C95.1695 18.4099 94.9308 18.8482 94.5727 19.0361C94.155 19.2239 93.6179 19.2866 92.9018 19.2866H91.8873V30.4953C91.8873 31.3093 91.7082 31.9981 91.2905 32.4365C90.9324 32.8748 90.3953 33.0627 89.7985 33.0627C89.2018 33.0627 88.784 32.8748 88.3663 32.4365C88.0082 31.9981 87.7695 31.372 87.7695 30.4953V19.2866H86.6356C86.0389 19.2866 85.5615 19.1613 85.2631 18.8482C84.905 18.5351 84.7856 18.1594 84.7856 17.7211C84.7856 16.7192 85.4421 16.2183 86.8147 16.2183" fill="black"/>
<path d="M108.06 25.4232H100.182C100.182 26.3624 100.361 27.2391 100.719 27.9905C101.077 28.742 101.555 29.3055 102.152 29.6186C102.748 29.9943 103.405 30.1822 104.121 30.1822C104.598 30.1822 105.016 30.1196 105.434 29.9943C105.852 29.8691 106.21 29.6812 106.568 29.4308C106.926 29.1803 107.284 28.9298 107.582 28.6167C107.881 28.3036 108.298 27.9279 108.776 27.427C109.015 27.2391 109.253 27.1765 109.671 27.1765C110.089 27.1765 110.387 27.3017 110.686 27.5522C110.924 27.8027 111.044 28.1158 111.044 28.5541C111.044 28.9298 110.924 29.3681 110.626 29.8691C110.327 30.37 109.91 30.871 109.313 31.3719C108.716 31.8103 108 32.2486 107.165 32.5617C106.269 32.8748 105.315 33 104.181 33C101.615 33 99.5855 32.2486 98.1533 30.6831C96.721 29.1177 96.0049 27.0513 96.0049 24.3587C96.0049 23.1063 96.1839 21.9165 96.542 20.852C96.9 19.7875 97.4371 18.8482 98.0936 18.0968C98.75 17.3454 99.5855 16.7192 100.6 16.3435C101.615 15.9051 102.689 15.7173 103.942 15.7173C105.494 15.7173 106.866 16.093 108 16.7818C109.134 17.4706 109.969 18.4099 110.566 19.4744C111.103 20.6015 111.402 21.7287 111.402 22.8558C111.402 23.9203 111.103 24.6091 110.506 24.9222C109.91 25.2353 109.074 25.4232 108.06 25.4232ZM100.182 23.0437H107.463C107.344 21.6034 106.986 20.5389 106.329 19.7875C105.673 19.0987 104.837 18.723 103.763 18.723C102.689 18.723 101.913 19.0987 101.316 19.8501C100.66 20.6015 100.302 21.6661 100.123 23.1063" fill="black"/>
<path d="M88.2472 4.0075C88.2472 4.0075 87.6504 4.25798 87.4714 4.0075C83.8907 0.250385 78.0423 0.250385 74.4617 4.0075C74.223 4.25798 73.8649 4.25798 73.6859 4.0075C73.4472 3.75703 73.4472 3.38132 73.6859 3.19346C77.6843 -1.00199 84.2488 -1.00199 88.2472 3.19346C88.4859 3.44393 88.4859 3.81965 88.2472 4.0075Z" fill="#DE000E"/>
<path d="M86.3971 5.94886C86.3971 5.94886 85.8004 6.19933 85.6213 5.94886C83.0552 3.25626 78.9375 3.25626 76.3713 5.94886C76.1326 6.19933 75.7746 6.19933 75.5955 5.94886C75.3568 5.69839 75.3568 5.32267 75.5955 5.13482C78.5794 2.00389 83.473 2.00389 86.4568 5.13482C86.6955 5.38529 86.6955 5.761 86.4568 5.94886" fill="#DE000E"/>
<path d="M84.5469 8.01522C84.5469 8.01522 83.9501 8.26569 83.7711 8.01522C82.2194 6.38714 79.713 6.38714 78.1614 8.01522C77.9227 8.26569 77.5646 8.26569 77.3856 8.01522C77.1469 7.76474 77.1469 7.38903 77.3856 7.20118C79.3549 5.13476 82.5775 5.13476 84.6065 7.20118C84.8453 7.45165 84.8453 7.82736 84.6065 8.01522" fill="#DE000E"/>
</g>
<defs>
<clipPath id="clip0_1144_8752">
<rect width="111" height="33" fill="white" transform="translate(0.401855)"/>
</clipPath>
</defs>
</svg>
