<svg width="132" height="29" viewBox="0 0 132 29" fill="none" xmlns="http://www.w3.org/2000/svg">
<g clip-path="url(#clip0_1144_8733)">
<path d="M11.6469 21.3359H3.99808C3.99808 22.2314 4.17191 23.0672 4.51959 23.7239C4.86726 24.4404 5.33082 24.9777 5.91028 25.2762C6.48973 25.6344 7.12713 25.8135 7.82248 25.8135C8.28604 25.8135 8.69166 25.8135 9.09728 25.6344C9.5029 25.515 9.85057 25.3359 10.1982 25.0971C10.5459 24.8583 10.8936 24.6195 11.1833 24.321C11.473 24.0224 11.8787 23.6642 12.3422 23.1866C12.5161 23.0075 12.8058 22.9478 13.2114 22.9478C13.617 22.9478 13.9068 23.0672 14.1965 23.306C14.4283 23.5448 14.5442 23.8433 14.5442 24.2612C14.5442 24.6195 14.4283 25.0374 14.1385 25.515C13.8488 25.9926 13.4432 26.4702 12.8637 26.9478C12.2843 27.3657 11.5889 27.7836 10.7777 28.0821C9.90851 28.3807 8.98139 28.5001 7.88042 28.5001C5.38877 28.5001 3.41862 27.7836 2.02793 26.2911C0.63724 24.7986 -0.0581055 22.8284 -0.0581055 20.3209C-0.0581055 19.1269 0.115731 18.0523 0.463404 17.0374C0.811076 16.0224 1.33259 15.1269 1.96999 14.4105C2.60739 13.6941 3.41862 13.0971 4.4037 12.7389C5.38877 12.3209 6.43179 12.1418 7.59069 12.1418C9.09728 12.1418 10.43 12.5001 11.531 13.1568C12.632 13.8135 13.4432 14.709 13.9647 15.7239C14.4862 16.7986 14.7759 17.8732 14.7759 18.9478C14.7759 19.9627 14.4862 20.6195 13.9068 20.918C13.3273 21.2165 12.574 21.3956 11.531 21.3956M3.99808 19.0075H11.0674C10.9515 17.6344 10.6039 16.6195 9.96646 15.903C9.32906 15.2463 8.51782 14.8881 7.4748 14.8881C6.43179 14.8881 5.67849 15.2463 5.09904 15.903C4.46164 16.6195 4.11397 17.6344 3.94013 18.9478" fill="black"/>
<path d="M26.1915 26.8283L23.3522 22.5298L20.4549 26.8283C20.0493 27.4253 19.7016 27.8432 19.4119 28.082C19.1222 28.3208 18.7745 28.4999 18.311 28.4999C17.7894 28.4999 17.3838 28.3208 17.0362 28.0223C16.6885 27.7238 16.5146 27.3656 16.5146 26.9477C16.5146 26.5298 16.8044 25.9328 17.3259 25.1566L20.8606 19.9626L17.7315 15.6044C17.21 14.888 16.9203 14.291 16.9203 13.7537C16.9203 13.3357 17.0941 12.9775 17.3838 12.679C17.7315 12.3805 18.1371 12.2014 18.6586 12.2014C19.1222 12.2014 19.5278 12.3208 19.8175 12.6193C20.1073 12.8581 20.4549 13.276 20.8606 13.8731L23.4102 17.4551L25.8439 13.8731C26.2495 13.276 26.5972 12.8581 26.8869 12.6193C27.1766 12.3805 27.5822 12.2611 27.9878 12.2611C28.5094 12.2611 28.915 12.4402 29.2627 12.7387C29.6103 13.0372 29.7842 13.3954 29.7842 13.8134C29.7842 14.1119 29.7262 14.4104 29.5524 14.7089C29.4365 15.0074 29.2047 15.3059 28.915 15.7238L25.7859 20.082L29.3206 25.276C29.8421 26.1119 30.1318 26.7089 30.1318 27.1268C30.1318 27.5447 29.958 27.9029 29.6103 28.2014C29.2627 28.4999 28.857 28.679 28.3355 28.679C27.872 28.679 27.5243 28.5596 27.1766 28.2611C26.8869 28.0223 26.5392 27.5447 26.1336 27.0074" fill="#DE000E"/>
<path d="M33.2029 12.4999H33.6085V10.1118C33.6085 9.45512 33.6085 8.97751 33.6085 8.6193C33.6085 8.26109 33.7244 7.96259 33.8982 7.66408C34.0721 7.36557 34.2459 7.18647 34.5356 7.00736C34.8254 6.82826 35.1151 6.76855 35.5207 6.76855C35.9843 6.76855 36.4478 6.94766 36.8535 7.36557C37.1432 7.60438 37.317 7.96258 37.375 8.32079C37.4329 8.679 37.4909 9.21632 37.4909 9.87303V12.6193H38.9395C39.461 12.6193 39.9246 12.7387 40.2143 13.0372C40.504 13.276 40.6199 13.6342 40.6199 14.0521C40.6199 14.5895 40.4461 14.9477 39.9825 15.1865C39.5769 15.4253 38.9974 15.5447 38.1862 15.5447H37.4329V22.9477C37.4329 23.5447 37.4329 24.082 37.4909 24.3805C37.4909 24.7387 37.6647 24.9775 37.8385 25.2163C38.0124 25.4551 38.36 25.5148 38.7657 25.5148C38.9974 25.5148 39.2872 25.5148 39.6928 25.3954C40.0984 25.3357 40.3881 25.276 40.6199 25.276C40.9096 25.276 41.1994 25.3954 41.4891 25.6939C41.7209 25.9327 41.8947 26.2909 41.8947 26.6492C41.8947 27.3059 41.547 27.7835 40.8517 28.1417C40.1563 28.4999 39.1713 28.679 37.8965 28.679C36.6217 28.679 35.7525 28.4402 35.1151 28.0223C34.4777 27.6044 34.0721 27.0074 33.8982 26.2909C33.7244 25.5148 33.6085 24.5596 33.6085 23.3059V15.6044H33.087C32.5075 15.6044 32.1019 15.485 31.8122 15.1865C31.5225 14.9477 31.3486 14.5894 31.3486 14.1118C31.3486 13.6342 31.5225 13.3357 31.8122 13.0969C32.1019 12.8581 32.5655 12.679 33.1449 12.679" fill="black"/>
<path d="M53.2518 26.2313C52.3247 27.0074 51.3976 27.5447 50.5284 27.9626C49.6592 28.3208 48.6741 28.5596 47.5732 28.5596C46.5881 28.5596 45.7189 28.3208 44.9656 27.9626C44.2123 27.5447 43.6329 27.0074 43.2272 26.291C42.8216 25.5746 42.5898 24.8581 42.5898 24.0223C42.5898 22.9477 42.9375 21.9925 43.6329 21.2163C44.3282 20.4402 45.2553 19.9029 46.4142 19.6641C46.646 19.6641 47.2834 19.485 48.2685 19.2462C49.2536 19.0074 50.0648 18.8283 50.7602 18.6492C51.4555 18.4701 52.2088 18.291 53.02 18.0522C53.02 16.9775 52.7882 16.2014 52.3826 15.7238C52.035 15.2462 51.2817 15.0074 50.1228 15.0074C49.1377 15.0074 48.3844 15.1268 47.8629 15.4253C47.3414 15.7238 46.9358 16.1417 46.5881 16.679C46.2404 17.276 46.0086 17.6343 45.8348 17.8134C45.661 17.9925 45.3712 18.1119 44.9077 18.1119C44.4441 18.1119 44.0964 17.9925 43.7488 17.694C43.459 17.3954 43.2852 17.0372 43.2852 16.6193C43.2852 15.9029 43.517 15.2462 44.0385 14.5298C44.502 13.8731 45.3133 13.3357 46.2984 12.8581C47.3414 12.4402 48.6162 12.2014 50.1807 12.2014C51.9191 12.2014 53.2518 12.4402 54.2369 12.7984C55.222 13.2163 55.9173 13.8731 56.3229 14.7686C56.7285 15.6641 56.9024 16.8581 56.9024 18.3507C56.9024 19.3059 56.9024 20.082 56.9024 20.7387C56.9024 21.3954 56.9024 22.1119 56.9024 22.9477C56.9024 23.7238 57.0183 24.4999 57.25 25.3357C57.4818 26.1716 57.5977 26.6492 57.5977 26.888C57.5977 27.3059 57.4239 27.6641 57.0183 28.0223C56.6126 28.3805 56.207 28.5596 55.7435 28.5596C55.3378 28.5596 54.9322 28.3805 54.5846 27.9626C54.1789 27.5447 53.7733 27.0074 53.3677 26.291M52.9621 20.3805C52.3826 20.6193 51.5714 20.8581 50.4704 21.0969C49.3695 21.3357 48.6162 21.5148 48.2106 21.6343C47.8049 21.7537 47.3993 21.9925 46.9937 22.291C46.5881 22.6492 46.4142 23.0671 46.4142 23.6641C46.4142 24.2611 46.646 24.7984 47.1096 25.2163C47.5732 25.6343 48.1526 25.8731 48.848 25.8731C49.6012 25.8731 50.3545 25.694 50.9919 25.3357C51.6293 24.9775 52.0929 24.5596 52.4406 23.9626C52.7882 23.3656 52.9621 22.3507 52.9621 20.9775V20.3805Z" fill="black"/>
<path d="M67.7382 12.5001H68.6653V11.3061C68.6653 10.0523 68.8392 9.03742 69.1289 8.321C69.4186 7.60458 69.9401 7.06727 70.6934 6.70906C71.4467 6.35085 72.4318 6.23145 73.7645 6.23145C76.0244 6.23145 77.1833 6.82846 77.1833 7.96279C77.1833 8.321 77.0674 8.67921 76.8356 8.91801C76.6039 9.15682 76.3141 9.33592 75.9665 9.33592C75.7926 9.33592 75.5608 9.33592 75.1552 9.27622C74.8076 9.27622 74.4599 9.21652 74.2281 9.21652C73.5328 9.21652 73.0692 9.45533 72.8954 9.87324C72.7215 10.2911 72.6056 10.8882 72.6056 11.724V12.6792H73.5328C75.0393 12.6792 75.7347 13.1568 75.7347 14.0523C75.7347 14.7091 75.5608 15.127 75.1552 15.3061C74.7496 15.4852 74.2281 15.6046 73.5328 15.6046H72.6056V26.2314C72.6056 27.0076 72.4318 27.6643 72.0262 28.0822C71.6785 28.5001 71.157 28.6792 70.5775 28.6792C69.9981 28.6792 69.5925 28.4404 69.1868 28.0822C68.8392 27.6643 68.6074 27.0673 68.6074 26.2314V15.6046H67.5644C66.9849 15.6046 66.5214 15.4852 66.2316 15.1867C65.9419 14.8882 65.7681 14.5897 65.7681 14.112C65.7681 13.1568 66.4055 12.6792 67.7382 12.6792" fill="black"/>
<path d="M81.7031 22.709V26.0523C81.7031 26.8881 81.5293 27.4851 81.1237 27.903C80.776 28.321 80.2545 28.5001 79.733 28.5001C79.2115 28.5001 78.69 28.321 78.3423 27.903C77.9946 27.4851 77.8208 26.8881 77.8208 26.0523V14.8284C77.8208 13.0374 78.4582 12.1418 79.733 12.1418C80.3704 12.1418 80.834 12.3807 81.1237 12.7986C81.4134 13.2165 81.5873 13.8732 81.5873 14.6493C82.0508 13.8135 82.5144 13.2165 83.0359 12.7986C83.4995 12.3807 84.1948 12.1418 85.006 12.1418C85.8173 12.1418 86.6285 12.3807 87.3818 12.7986C88.1351 13.2165 88.5407 13.7538 88.5407 14.4702C88.5407 14.9478 88.3669 15.3657 88.0192 15.6642C87.6715 15.9627 87.3239 16.1418 86.9762 16.1418C86.8603 16.1418 86.5126 16.0821 85.9332 15.903C85.4117 15.7239 84.8901 15.6045 84.4845 15.6045C83.9051 15.6045 83.4415 15.7836 83.0938 16.0821C82.7462 16.3807 82.4564 16.8583 82.2826 17.4553C82.1088 18.0523 81.9349 18.7687 81.877 19.6045C81.819 20.4404 81.7611 21.4553 81.7611 22.6493" fill="black"/>
<path d="M100.825 21.3359H93.1765C93.1765 22.2314 93.3503 23.0672 93.698 23.7239C94.0456 24.4404 94.5092 24.9777 95.0887 25.2762C95.6681 25.6344 96.3055 25.8135 97.0009 25.8135C97.4644 25.8135 97.87 25.8135 98.2757 25.6344C98.6813 25.515 99.0289 25.3359 99.3766 25.0971C99.7243 24.8583 100.072 24.6195 100.362 24.321C100.651 24.0224 101.057 23.6642 101.579 23.1866C101.752 23.0075 102.042 22.9478 102.448 22.9478C102.853 22.9478 103.143 23.0672 103.433 23.306C103.665 23.5448 103.78 23.8433 103.78 24.2612C103.78 24.6195 103.665 25.0374 103.375 25.515C103.085 25.9926 102.68 26.4702 102.1 26.9478C101.521 27.3657 100.825 27.7836 100.014 28.0821C99.1448 28.3807 98.2177 28.5001 97.1168 28.5001C94.6251 28.5001 92.6549 27.7836 91.2643 26.2911C89.8736 24.7986 89.1782 22.8284 89.1782 20.3209C89.1782 19.1269 89.3521 18.0523 89.6997 17.0374C90.0474 16.0224 90.5689 15.1269 91.2063 14.4105C91.8437 13.6941 92.6549 13.0971 93.64 12.7389C94.6251 12.3209 95.6681 12.1418 96.827 12.1418C98.3336 12.1418 99.6663 12.5001 100.767 13.1568C101.868 13.8135 102.68 14.709 103.201 15.7239C103.723 16.7986 104.012 17.8732 104.012 18.9478C104.012 19.9627 103.723 20.6195 103.143 20.918C102.564 21.2165 101.81 21.3956 100.767 21.3956M93.1765 19.0075H100.246C100.13 17.6344 99.7822 16.6195 99.1448 15.903C98.5074 15.2463 97.6962 14.8881 96.6532 14.8881C95.6102 14.8881 94.8569 15.2463 94.2774 15.903C93.64 16.6195 93.2923 17.6344 93.1765 18.9478" fill="black"/>
<path d="M118.209 21.3359H110.56C110.56 22.2314 110.734 23.0672 111.081 23.7239C111.429 24.4404 111.893 24.9777 112.472 25.2762C113.051 25.6344 113.689 25.8135 114.384 25.8135C114.848 25.8135 115.253 25.8135 115.659 25.6344C116.065 25.515 116.412 25.3359 116.76 25.0971C117.108 24.8583 117.455 24.6195 117.745 24.321C118.035 24.0224 118.44 23.6642 118.962 23.1866C119.136 23.0075 119.425 22.9478 119.831 22.9478C120.237 22.9478 120.526 23.0672 120.816 23.306C121.048 23.5448 121.164 23.8433 121.164 24.2612C121.164 24.6195 121.048 25.0374 120.758 25.515C120.468 25.9926 120.063 26.4702 119.483 26.9478C118.904 27.3657 118.209 27.7836 117.397 28.0821C116.586 28.3807 115.601 28.5001 114.5 28.5001C112.008 28.5001 110.038 27.7836 108.648 26.2911C107.257 24.7986 106.562 22.8284 106.562 20.3209C106.562 19.1269 106.735 18.0523 107.083 17.0374C107.431 16.0224 107.952 15.1269 108.59 14.4105C109.227 13.6941 110.038 13.0971 111.023 12.7389C112.008 12.3209 113.051 12.1418 114.21 12.1418C115.717 12.1418 117.05 12.5001 118.151 13.1568C119.252 13.8135 120.063 14.709 120.584 15.7239C121.106 16.7986 121.396 17.8732 121.396 18.9478C121.396 19.9627 121.106 20.6195 120.526 20.918C119.947 21.2165 119.194 21.3956 118.151 21.3956M110.56 19.0075H117.629C117.513 17.6344 117.166 16.6195 116.528 15.903C115.891 15.2463 115.08 14.8881 114.036 14.8881C112.993 14.8881 112.24 15.2463 111.661 15.903C111.023 16.6195 110.676 17.6344 110.502 18.9478" fill="black"/>
<path d="M130.725 15.3059C130.319 15.3059 129.972 14.9476 129.972 14.5297C129.972 7.60436 124.525 1.99242 117.803 1.99242C117.397 1.99242 117.05 1.63422 117.05 1.2163C117.05 0.798395 117.397 0.440186 117.803 0.440186C125.336 0.440186 131.42 6.76854 131.42 14.47C131.42 14.8879 131.073 15.2462 130.667 15.2462" fill="#DE000E"/>
<path d="M127.248 15.306C126.843 15.306 126.495 14.9478 126.495 14.5299C126.495 9.5747 122.613 5.5747 117.803 5.5747C117.397 5.5747 117.05 5.21649 117.05 4.79858C117.05 4.38067 117.397 4.02246 117.803 4.02246C123.424 4.02246 127.944 8.73888 127.944 14.4702C127.944 14.8881 127.596 15.2463 127.19 15.2463" fill="#DE000E"/>
<path d="M123.714 15.4253C123.308 15.4253 122.96 15.067 122.96 14.6491C122.96 11.6641 120.585 9.2163 117.687 9.2163C117.282 9.2163 116.934 8.85809 116.934 8.44018C116.934 8.02227 117.282 7.66406 117.687 7.66406C121.396 7.66406 124.409 10.7685 124.409 14.5894C124.409 15.0073 124.061 15.3656 123.656 15.3656" fill="#DE000E"/>
</g>
<defs>
<clipPath id="clip0_1144_8733">
<rect width="131.478" height="28" fill="white" transform="translate(0 0.5)"/>
</clipPath>
</defs>
</svg>
