<svg width="39" height="39" viewBox="0 0 39 39" fill="none" xmlns="http://www.w3.org/2000/svg">
<g clip-path="url(#clip0_1144_8769)">
<path d="M19.5226 0.678467C9.16206 0.678467 0.744141 9.09638 0.744141 19.4569C0.744141 26.6794 4.77876 33.1049 11.2043 36.2927C12.3997 36.8904 13.8442 36.3923 14.4419 35.1969C15.0397 34.0015 14.5416 32.557 13.3461 31.9592C8.56433 29.5684 5.57573 24.7866 5.57573 19.4569C5.57573 11.7861 11.8518 5.51005 19.5226 5.51005C27.1933 5.51005 33.4694 11.7363 33.4694 19.4569C33.4694 24.7866 30.4808 29.5684 25.699 31.9592C24.5036 32.557 24.0055 34.0015 24.6032 35.1969C25.0515 36.0437 25.8983 36.5418 26.7948 36.5418C27.1435 36.5418 27.542 36.4422 27.8907 36.2927C34.366 33.1049 38.3508 26.6296 38.3508 19.4569C38.3508 9.09638 29.9329 0.678467 19.5724 0.678467" fill="black"/>
<path d="M19.5227 18.1619C18.1779 18.1619 17.082 19.2577 17.082 20.6026V35.8445C17.082 37.1893 18.1779 38.2851 19.5227 38.2851C20.8676 38.2851 21.9634 37.1893 21.9634 35.8445V20.6026C21.9634 19.2577 20.8676 18.1619 19.5227 18.1619Z" fill="black"/>
</g>
<defs>
<clipPath id="clip0_1144_8769">
<rect width="37.5568" height="37.5568" fill="white" transform="translate(0.744141 0.678467)"/>
</clipPath>
</defs>
</svg>
