<svg width="68" height="26" viewBox="0 0 68 26" fill="none" xmlns="http://www.w3.org/2000/svg">
<path d="M14.2683 16.8122H5.42562C5.42562 17.8356 5.62659 18.7908 6.02853 19.5414C6.43047 20.3601 6.96638 20.9742 7.63628 21.3153C8.30618 21.7247 9.04307 21.9294 9.84695 21.9294C10.3829 21.9294 10.8518 21.9294 11.3207 21.7247C11.7897 21.5883 12.1916 21.3836 12.5935 21.1107C12.9955 20.8377 13.3974 20.5648 13.7324 20.2237C14.0673 19.8825 14.5362 19.4731 15.0722 18.9273C15.2731 18.7226 15.6081 18.6544 16.077 18.6544C16.5459 18.6544 16.8809 18.7908 17.2158 19.0637C17.4838 19.3367 17.6178 19.6778 17.6178 20.1554C17.6178 20.5648 17.4838 21.0424 17.1488 21.5883C16.8139 22.1341 16.345 22.68 15.6751 23.2258C15.0052 23.7034 14.2013 24.181 13.2634 24.5222C12.2586 24.8633 11.1867 24.9998 9.91394 24.9998C7.03337 24.9998 4.75572 24.181 3.14796 22.4753C1.54021 20.7695 0.736328 18.5179 0.736328 15.6522C0.736328 14.2876 0.937298 13.0595 1.33924 11.8996C1.74118 10.7397 2.34408 9.7162 3.08097 8.89744C3.81786 8.07867 4.75572 7.39637 5.89455 6.98699C7.03337 6.50938 8.23919 6.30469 9.57899 6.30469C11.3207 6.30469 12.8615 6.71407 14.1343 7.4646C15.4071 8.21513 16.345 9.23859 16.9479 10.3985C17.5508 11.6266 17.8857 12.8548 17.8857 14.0829C17.8857 15.2429 17.5508 15.9934 16.8809 16.3345C16.211 16.6757 15.3401 16.8804 14.1343 16.8804M5.42562 14.1512H13.5984C13.4644 12.5819 13.0625 11.422 12.3256 10.6032C11.5887 9.85266 10.6508 9.44328 9.44501 9.44328C8.23919 9.44328 7.36832 9.85266 6.69843 10.6032C5.96154 11.422 5.5596 12.5819 5.35863 14.0829" fill="black"/>
<path d="M31.0828 23.0895L27.8003 18.1769L24.4508 23.0895C23.9819 23.7718 23.5799 24.2494 23.245 24.5223C22.9101 24.7952 22.5081 24.9999 21.9722 24.9999C21.3693 24.9999 20.9004 24.7952 20.4984 24.4541C20.0965 24.1129 19.8955 23.7035 19.8955 23.2259C19.8955 22.7483 20.2305 22.066 20.8334 21.179L24.9197 15.243L21.3023 10.2622C20.6994 9.44341 20.3644 8.76111 20.3644 8.14703C20.3644 7.66942 20.5654 7.26004 20.9004 6.91889C21.3023 6.57774 21.7712 6.37305 22.3741 6.37305C22.9101 6.37305 23.379 6.50951 23.7139 6.85066C24.0489 7.12358 24.4508 7.60119 24.9197 8.28349L27.8673 12.3773L30.6809 8.28349C31.1498 7.60119 31.5517 7.12358 31.8867 6.85066C32.2216 6.57774 32.6906 6.44128 33.1595 6.44128C33.7624 6.44128 34.2313 6.64597 34.6333 6.98712C35.0352 7.32827 35.2362 7.73765 35.2362 8.21526C35.2362 8.55642 35.1692 8.89757 34.9682 9.23872C34.8342 9.57987 34.5663 9.92102 34.2313 10.3986L30.6139 15.3794L34.7003 21.3155C35.3032 22.2707 35.6381 22.953 35.6381 23.4306C35.6381 23.9082 35.4372 24.3176 35.0352 24.6588C34.6333 24.9999 34.1643 25.2046 33.5614 25.2046C33.0255 25.2046 32.6236 25.0681 32.2216 24.727C31.8867 24.4541 31.4848 23.9082 31.0158 23.2942" fill="#DE000E"/>
<path d="M39.1886 6.71417H39.6575V3.98496C39.6575 3.23443 39.6575 2.68858 39.6575 2.2792C39.6575 1.86982 39.7915 1.52867 39.9925 1.18752C40.1934 0.846366 40.3944 0.641675 40.7294 0.436984C41.0643 0.232293 41.3993 0.164062 41.8682 0.164062C42.4041 0.164062 42.94 0.368753 43.409 0.846365C43.7439 1.11929 43.9449 1.52867 44.0119 1.93805C44.0789 2.34743 44.1458 2.9615 44.1458 3.71204V6.85063H45.8206C46.4235 6.85063 46.9594 6.98709 47.2944 7.32824C47.6293 7.60116 47.7633 8.01054 47.7633 8.48816C47.7633 9.10223 47.5623 9.51161 47.0264 9.78453C46.5575 10.0575 45.8876 10.1939 44.9497 10.1939H44.0789V18.6545C44.0789 19.3368 44.0789 19.9508 44.1458 20.292C44.1458 20.7014 44.3468 20.9743 44.5478 21.2472C44.7488 21.5201 45.1507 21.5884 45.6196 21.5884C45.8876 21.5884 46.2225 21.5884 46.6915 21.4519C47.1604 21.3837 47.4953 21.3154 47.7633 21.3154C48.0983 21.3154 48.4332 21.4519 48.7681 21.7931C49.0361 22.066 49.2371 22.4754 49.2371 22.8847C49.2371 23.6353 48.8351 24.1811 48.0313 24.5905C47.2274 24.9999 46.0886 25.2046 44.6148 25.2046C43.141 25.2046 42.1362 24.9317 41.3993 24.454C40.6624 23.9764 40.1934 23.2941 39.9925 22.4754C39.7915 21.5884 39.6575 20.4967 39.6575 19.0638V10.2621H39.0546C38.3847 10.2621 37.9158 10.1257 37.5808 9.78453C37.2459 9.51161 37.0449 9.10223 37.0449 8.55639C37.0449 8.01054 37.2459 7.66939 37.5808 7.39647C37.9158 7.12355 38.4517 6.91886 39.1216 6.91886" fill="black"/>
<path d="M62.3671 22.4072C61.2953 23.2942 60.2235 23.9082 59.2186 24.3858C58.2138 24.7952 57.075 25.0681 55.8021 25.0681C54.6633 25.0681 53.6585 24.7952 52.7876 24.3858C51.9167 23.9082 51.2468 23.2942 50.7779 22.4754C50.309 21.6566 50.041 20.8379 50.041 19.8826C50.041 18.6545 50.443 17.5628 51.2468 16.6758C52.0507 15.7888 53.1226 15.1748 54.4623 14.9018C54.7303 14.9018 55.4672 14.6971 56.606 14.4242C57.7448 14.1513 58.6827 13.9466 59.4866 13.7419C60.2905 13.5372 61.1613 13.3325 62.0992 13.0596C62.0992 11.8315 61.8312 10.9445 61.3623 10.3986C60.9604 9.85279 60.0895 9.57987 58.7497 9.57987C57.6109 9.57987 56.74 9.71633 56.1371 10.0575C55.5342 10.3986 55.0653 10.8762 54.6633 11.4903C54.2614 12.1726 53.9934 12.582 53.7924 12.7867C53.5915 12.9914 53.2565 13.1278 52.7206 13.1278C52.1847 13.1278 51.7828 12.9914 51.3808 12.6502C51.0459 12.3091 50.8449 11.8997 50.8449 11.4221C50.8449 10.6033 51.1129 9.85279 51.7158 9.03403C52.2517 8.28349 53.1895 7.66942 54.3284 7.12358C55.5342 6.64597 57.008 6.37305 58.8167 6.37305C60.8264 6.37305 62.3671 6.64597 63.506 7.05535C64.6448 7.53296 65.4487 8.2835 65.9176 9.30695C66.3865 10.3304 66.5875 11.695 66.5875 13.4008C66.5875 14.4924 66.5875 15.3794 66.5875 16.13C66.5875 16.8805 66.5875 17.6993 66.5875 18.6545C66.5875 19.5415 66.7215 20.4285 66.9895 21.3837C67.2574 22.3389 67.3914 22.8848 67.3914 23.1577C67.3914 23.6353 67.1904 24.0447 66.7215 24.4541C66.2526 24.8635 65.7836 25.0681 65.2477 25.0681C64.7788 25.0681 64.3099 24.8635 63.9079 24.3858C63.439 23.9082 62.9701 23.2942 62.5011 22.4754M62.0322 15.7206C61.3623 15.9935 60.4244 16.2664 59.1516 16.5394C57.8788 16.8123 57.008 17.017 56.539 17.1534C56.0701 17.2899 55.6012 17.5628 55.1322 17.904C54.6633 18.3133 54.4623 18.791 54.4623 19.4733C54.4623 20.1556 54.7303 20.7696 55.2662 21.2472C55.8021 21.7249 56.472 21.9978 57.2759 21.9978C58.1468 21.9978 59.0177 21.7931 59.7545 21.3837C60.4914 20.9743 61.0274 20.4967 61.4293 19.8144C61.8312 19.1321 62.0322 17.9722 62.0322 16.4029V15.7206Z" fill="black"/>
</svg>
