<svg width="31" height="34" viewBox="0 0 31 34" fill="none" xmlns="http://www.w3.org/2000/svg">
<g clip-path="url(#clip0_998_9861)">
<path d="M15.9026 33.9978C12.8551 33.9978 9.80836 33.9996 6.76082 33.997C5.6788 33.9961 4.80373 33.2497 4.5799 32.1395C4.54527 31.9665 4.53766 31.7855 4.53766 31.6081C4.53682 26.4219 4.53682 21.2367 4.53851 16.0506C4.53851 14.8218 5.30124 13.8472 6.43647 13.6198C6.56739 13.5939 6.70254 13.5859 6.83515 13.5859C8.27108 13.5841 9.70616 13.585 11.1421 13.5877C11.36 13.5877 11.5779 13.6028 11.7959 13.6153C12.491 13.6581 13.0949 13.9372 13.6009 14.4348C14.0587 14.8851 14.4946 15.3613 14.9515 15.8125C15.0385 15.899 15.1796 15.9712 15.2961 15.9712C18.2305 15.9792 21.1657 15.9819 24.1001 15.973C25.0925 15.9703 25.8578 16.3653 26.2844 17.3337C26.4136 17.6271 26.4508 17.974 26.4871 18.3021C26.52 18.6026 26.5006 18.9102 26.4938 19.2152C26.4905 19.3695 26.5462 19.4221 26.6915 19.4239C27.1552 19.4301 27.624 19.406 28.0818 19.4702C29.3463 19.6468 30.5651 20.9139 30.169 22.6616C29.511 25.565 28.8893 28.4773 28.2482 31.3852C27.9247 32.8529 27.0876 33.6715 25.6728 33.8837C25.2007 33.9542 24.72 33.9925 24.2437 33.9943C21.4639 34.0041 18.6841 33.9996 15.9043 33.9987L15.9026 33.9978ZM15.5217 32.7682C18.3927 32.7682 21.2637 32.77 24.1355 32.7655C24.3087 32.7655 24.4911 32.7504 24.6542 32.6924C25.0892 32.5372 25.3274 32.1351 25.3274 31.5974C25.3282 27.9423 25.3274 24.2872 25.3274 20.6321C25.3274 19.867 25.3299 19.102 25.3274 18.3369C25.3248 17.8313 25.0849 17.4354 24.6584 17.2838C24.4835 17.2214 24.285 17.2116 24.0975 17.2116C21.0297 17.2071 17.9611 17.2071 14.8932 17.2133C14.6838 17.2133 14.5402 17.1438 14.3983 16.9868C13.9802 16.5258 13.5375 16.088 13.1228 15.6234C12.5957 15.0331 11.9589 14.7897 11.1936 14.8022C9.77964 14.8254 8.36483 14.8075 6.95002 14.8093C6.83768 14.8093 6.72281 14.8111 6.61469 14.8361C6.03863 14.9671 5.70161 15.4344 5.70161 16.1005C5.70077 21.2189 5.7109 26.3381 5.69063 31.4565C5.68725 32.2742 6.15604 32.7851 6.95087 32.778C9.80752 32.7521 12.665 32.7682 15.5217 32.7682ZM26.4795 32.3206C26.52 32.2804 26.5791 32.2332 26.6256 32.1752C26.868 31.8756 27.0192 31.5278 27.1028 31.1453C27.3056 30.2197 27.51 29.2941 27.7135 28.3685C28.1612 26.3283 28.6106 24.289 29.0506 22.247C29.087 22.0794 29.0844 21.8885 29.0506 21.72C28.9425 21.1894 28.4746 20.7498 27.9289 20.6874C27.5598 20.6455 27.1848 20.6562 26.8123 20.6508C26.4972 20.6464 26.4972 20.6508 26.4972 20.9772C26.4972 23.6737 26.4989 26.3702 26.4972 29.0658C26.4964 30.1466 26.4871 31.2282 26.4812 32.3197L26.4795 32.3206Z" fill="black"/>
</g>
<rect y="8.29297" width="12.0976" height="13.6098" fill="black"/>
<path d="M5.19641 18.284V12.46H6.75641V18.284H5.19641ZM3.06441 16.152V14.592H8.88841V16.152H3.06441Z" fill="white"/>
<defs>
<clipPath id="clip0_998_9861">
<rect width="25.7073" height="20.4146" fill="white" transform="translate(4.53613 13.585)"/>
</clipPath>
</defs>
</svg>
