<svg width="17" height="17" viewBox="0 0 17 17" fill="none" xmlns="http://www.w3.org/2000/svg">
<path d="M11.418 1.95728C13.6661 4.21629 14.0184 7.84826 12.2055 10.4883L12.1836 10.5994L15.3677 13.8284C15.7425 14.2081 16.629 14.9475 16.865 15.3589C17.4526 16.3851 15.9887 17.5824 15.1279 16.6841L10.6079 12.1499C9.79793 12.6859 8.90177 13.129 7.93618 13.3007C2.66402 14.2404 -1.57312 8.98874 0.566987 4.02577C2.4268 -0.288159 8.09304 -1.38343 11.418 1.95728ZM11.4398 6.70326C11.4398 4.06969 9.31449 1.93468 6.69288 1.93468C4.07126 1.93468 1.9453 4.06969 1.9453 6.70326C1.9453 9.33682 4.07062 11.4718 6.69223 11.4718C9.31385 11.4718 11.4392 9.33682 11.4392 6.70326H11.4398Z" fill="white"/>
</svg>
