<svg width="16" height="22" viewBox="0 0 16 22" fill="none" xmlns="http://www.w3.org/2000/svg">
<g clip-path="url(#clip0_998_8245)">
<path d="M16 7.88219C15.9941 9.2905 15.6837 10.5793 15.0662 11.7718C14.6246 12.6247 14.1052 13.4372 13.5858 14.2454C12.0641 16.6124 10.528 18.9699 8.98844 21.3248C8.85563 21.5277 8.67969 21.7255 8.47921 21.8553C8.07911 22.1167 7.56058 22.0075 7.23575 21.6378C7.14693 21.5363 7.06742 21.4263 6.99383 21.3128C5.21577 18.577 3.4394 15.8412 1.66388 13.1045C0.895811 11.9206 0.347675 10.6429 0.103213 9.2415C-0.108259 8.02405 0.0135486 6.8281 0.378973 5.6588C0.817144 4.25822 1.58014 3.06313 2.65865 2.08041C3.86827 0.97989 5.27244 0.293788 6.88048 0.0805627C9.48413 -0.265068 11.7477 0.502714 13.6248 2.35897C14.8944 3.61425 15.6515 5.16099 15.9044 6.95105C15.9501 7.27604 15.9713 7.60534 15.9992 7.88305L16 7.88219ZM7.99959 21.0841C8.08249 20.9706 8.14508 20.8941 8.19838 20.8124C9.97559 18.0766 11.757 15.3433 13.5266 12.6015C14.0409 11.8045 14.4596 10.9585 14.7379 10.0385C15.3038 8.16849 15.0966 6.37758 14.1822 4.68467C12.7476 2.02968 9.95783 0.623942 7.01751 1.0246C5.87979 1.17936 4.84358 1.60409 3.91141 2.28331C2.65272 3.2007 1.77384 4.41041 1.29169 5.90556C0.983784 6.86163 0.862822 7.8435 1.0007 8.84944C1.18764 10.2087 1.71463 11.4331 2.44886 12.5697C4.232 15.3279 6.02359 18.08 7.81265 20.8339C7.86171 20.9095 7.92008 20.9792 7.99959 21.0849V21.0841Z" fill="black"/>
<path d="M7.99111 12.4211C5.64968 12.4143 3.75912 10.4841 3.76589 8.1085C3.77265 5.73637 5.68775 3.80187 8.01564 3.81649C10.3444 3.8311 12.2324 5.76045 12.2307 8.12312C12.2282 10.4995 10.3258 12.4289 7.99111 12.422V12.4211ZM7.98518 11.4668C9.79623 11.4745 11.2842 9.97164 11.2918 8.12914C11.2994 6.29437 9.80977 4.776 7.99956 4.77256C6.2012 4.76998 4.71836 6.26686 4.70313 8.10248C4.68791 9.93639 6.17244 11.4591 7.98434 11.4668H7.98518Z" fill="black"/>
</g>
<defs>
<clipPath id="clip0_998_8245">
<rect width="16" height="22" fill="white"/>
</clipPath>
</defs>
</svg>
