<svg width="96" height="25" viewBox="0 0 96 25" fill="none" xmlns="http://www.w3.org/2000/svg">
<g clip-path="url(#clip0_1144_8840)">
<path d="M15.8618 15.6862V21.5399C15.8618 22.4504 15.6654 23.1659 15.2071 23.6212C14.7488 24.0765 14.225 24.3366 13.5049 24.3366C12.7847 24.3366 12.2609 24.0765 11.868 23.6212C11.4752 23.1659 11.2133 22.4504 11.2133 21.5399V14.5155C11.2133 13.4098 11.2133 12.5643 11.0824 11.9139C11.0169 11.2634 10.8205 10.8082 10.4931 10.4179C10.1658 10.0277 9.642 9.83255 8.9218 9.83255C7.48142 9.83255 6.49934 10.3529 6.04103 11.3285C5.58273 12.3041 5.32084 13.735 5.32084 15.6212V21.6049C5.32084 22.5155 5.12442 23.2309 4.66612 23.6862C4.27329 24.1415 3.68404 24.4017 3.02932 24.4017C2.3746 24.4017 1.78535 24.1415 1.39251 23.6862C0.934209 23.2309 0.737793 22.5155 0.737793 21.6049V8.98703C0.737793 8.1415 0.934209 7.49109 1.32704 7.10085C1.71987 6.64556 2.24365 6.45044 2.8329 6.45044C3.42215 6.45044 3.94593 6.64556 4.33876 7.03581C4.73159 7.42605 4.92801 8.01141 4.92801 8.72686V9.11711C5.71367 8.20654 6.49934 7.55613 7.41595 7.10085C8.26708 6.64556 9.24916 6.45044 10.3622 6.45044C11.4752 6.45044 12.4573 6.64556 13.243 7.10085C14.0286 7.55613 14.6833 8.20654 15.2071 9.11711C15.9273 8.20654 16.7785 7.55613 17.6296 7.10085C18.4807 6.64556 19.4628 6.45044 20.4449 6.45044C21.6889 6.45044 22.7364 6.7106 23.5876 7.16589C24.4387 7.62117 25.0934 8.33662 25.5517 9.18215C25.9445 9.96263 26.141 11.2634 26.141 12.9545V21.6049C26.141 22.5155 25.9445 23.2309 25.4862 23.6862C25.0279 24.1415 24.5042 24.4017 23.784 24.4017C23.0638 24.4017 22.54 24.1415 22.1472 23.6862C21.6889 23.2309 21.4924 22.5155 21.4924 21.6049V14.1903C21.4924 13.2147 21.4924 12.4992 21.3615 11.9139C21.296 11.3285 21.0341 10.8732 20.7068 10.483C20.3794 10.0927 19.7902 9.89759 19.07 9.89759C18.4807 9.89759 17.957 10.0927 17.4332 10.4179C16.9094 10.7431 16.5166 11.1984 16.1892 11.7838C15.8618 12.4992 15.7309 13.8651 15.7309 15.7513" fill="#DE000E"/>
<path d="M41.4616 21.8649C40.414 22.7105 39.3665 23.2958 38.3189 23.7511C37.3368 24.1413 36.1583 24.4015 34.9144 24.4015C33.8014 24.4015 32.7538 24.1413 31.9027 23.7511C31.0515 23.2958 30.3968 22.7105 29.873 21.93C29.4147 21.1495 29.1528 20.304 29.1528 19.4584C29.1528 18.2227 29.5457 17.182 30.3313 16.3365C31.117 15.4909 32.1645 14.9056 33.474 14.6454C33.7359 14.6454 34.4561 14.4503 35.5691 14.1901C36.6821 13.93 37.6642 13.7348 38.4499 13.5397C39.2355 13.3446 40.0867 13.0844 41.0688 12.8243C41.0688 11.6535 40.8069 10.808 40.3486 10.2877C39.9557 9.76737 39.0391 9.44216 37.7297 9.44216C36.6166 9.44216 35.7655 9.57225 35.1763 9.89745C34.587 10.2227 34.1287 10.6779 33.7359 11.3283C33.343 11.9787 33.0157 12.369 32.8847 12.5641C32.6883 12.7592 32.361 12.8893 31.7717 12.8893C31.2479 12.8893 30.8551 12.7592 30.4623 12.434C30.0694 12.1088 29.9385 11.7186 29.9385 11.1983C29.9385 10.4178 30.2004 9.63729 30.7896 8.92184C31.3789 8.20639 32.23 7.55599 33.4085 7.1007C34.587 6.64542 36.0274 6.38525 37.7951 6.38525C39.7593 6.38525 41.2652 6.64542 42.3782 7.1007C43.4912 7.55599 44.2769 8.27143 44.7352 9.24704C45.1935 10.2227 45.4554 11.5885 45.4554 13.2145C45.4554 14.2552 45.4554 15.1007 45.4554 15.8161C45.4554 16.5316 45.4554 17.3771 45.4554 18.2227C45.4554 19.0682 45.5863 19.9137 45.8482 20.8243C46.1101 21.7348 46.241 22.3202 46.241 22.5804C46.241 23.0357 46.0446 23.4259 45.5863 23.8161C45.1935 24.2064 44.6697 24.4015 44.1459 24.4015C43.6876 24.4015 43.2293 24.2064 42.771 23.7511C42.3127 23.2958 41.8544 22.7105 41.3306 21.8649M41.1997 15.4909C40.545 15.7511 39.6284 16.0113 38.3844 16.2714C37.1404 16.5316 36.2893 16.7267 35.831 16.8568C35.3727 16.9869 34.9144 17.247 34.4561 17.5722C33.9978 17.9625 33.8014 18.4178 33.8014 19.0682C33.8014 19.7186 34.0632 20.304 34.587 20.7592C35.1108 21.2145 35.7655 21.4747 36.6166 21.4747C37.4678 21.4747 38.3189 21.2796 39.0391 20.8893C39.7593 20.4991 40.3486 20.0438 40.6759 19.3934C41.0688 18.743 41.2652 17.6373 41.2652 16.0763V15.4259L41.1997 15.4909Z" fill="black"/>
<path d="M49.1215 6.7756H49.5798V4.10893C49.5798 3.39348 49.5798 2.87316 49.5798 2.41787C49.5798 2.02763 49.7107 1.63738 49.9071 1.37722C50.1036 1.05202 50.3 0.856896 50.6273 0.661774C50.9547 0.466652 51.3475 0.401611 51.7404 0.401611C52.3296 0.401611 52.7879 0.596733 53.2462 1.05202C53.5736 1.31218 53.77 1.70242 53.8355 2.09267C53.9009 2.48291 53.9664 3.06828 53.9664 3.78373V6.7756H55.6032C56.2579 6.7756 56.7162 6.90568 57.0436 7.23088C57.371 7.55608 57.5674 7.94633 57.5674 8.40161C57.5674 8.98698 57.3055 9.37722 56.8472 9.63738C56.3889 9.89755 55.7342 10.0276 54.8175 10.0276H53.9664V18.1577C53.9664 18.8732 53.9664 19.3935 54.0319 19.7187C54.0974 20.0439 54.2283 20.3691 54.4247 20.6293C54.6211 20.8894 54.9485 20.9545 55.4723 20.9545C55.7342 20.9545 56.0615 20.9545 56.5198 20.8244C56.9781 20.6943 57.3055 20.6943 57.5674 20.6943C57.8947 20.6943 58.2221 20.8244 58.5495 21.1496C58.8113 21.4097 59.0078 21.8 59.0078 22.1902C59.0078 22.9057 58.6149 23.426 57.8293 23.8162C57.0436 24.2065 55.9306 24.4016 54.4902 24.4016C53.1153 24.4016 52.0677 24.1414 51.3475 23.6862C50.6273 23.2309 50.169 22.5805 49.9071 21.7349C49.6453 20.8894 49.5798 19.8488 49.5798 18.4829V10.0276H48.9905C48.3358 10.0276 47.8775 9.89755 47.5501 9.57234C47.2228 9.24714 47.0264 8.8569 47.0264 8.40161C47.0264 7.94633 47.2228 7.55608 47.5501 7.23088C47.8775 6.97072 48.4013 6.7756 49.1215 6.7756Z" fill="black"/>
<path d="M72.8226 16.4667H64.1148C64.1148 17.4424 64.3112 18.3529 64.7041 19.1334C65.0969 19.9139 65.6207 20.4993 66.2754 20.8895C66.9301 21.2798 67.6503 21.4749 68.436 21.4749C68.9598 21.4749 69.4181 21.4749 69.8764 21.2798C70.3347 21.1497 70.7275 20.9545 71.1858 20.6944C71.5786 20.4342 71.9715 20.1741 72.2988 19.8489C72.6262 19.5237 73.0845 19.1334 73.6738 18.6131C73.9356 18.418 74.263 18.3529 74.6558 18.3529C75.1141 18.3529 75.507 18.483 75.7689 18.7432C76.0307 19.0033 76.1617 19.3285 76.1617 19.7838C76.1617 20.1741 76.0307 20.6293 75.7034 21.2147C75.376 21.8001 74.9177 22.2554 74.263 22.7757C73.6083 23.296 72.8226 23.6863 71.8405 24.0115C70.8585 24.3367 69.7454 24.5318 68.5015 24.5318C65.6207 24.5318 63.3946 23.7513 61.8233 22.1253C60.252 20.4993 59.4663 18.2879 59.4663 15.5562C59.4663 14.2554 59.6627 13.0196 60.0556 11.9139C60.4484 10.8082 61.0376 9.8326 61.7578 9.05211C62.478 8.27162 63.4601 7.62122 64.5077 7.23097C65.6207 6.77569 66.7992 6.58057 68.1741 6.58057C69.8764 6.58057 71.3822 6.97081 72.6262 7.68626C73.8702 8.4017 74.7868 9.37731 75.4415 10.483C76.0962 11.6537 76.3581 12.8245 76.3581 13.9952C76.3581 15.1009 76.0307 15.8163 75.376 16.1415C74.7213 16.4667 73.8047 16.6619 72.6917 16.6619M64.1148 13.9952H72.1679C72.0369 12.4993 71.6441 11.3285 70.9239 10.6131C70.2037 9.8326 69.2871 9.5074 68.1086 9.5074C66.9301 9.5074 66.079 9.89764 65.3588 10.6131C64.6386 11.3936 64.2458 12.4993 64.0494 13.9952" fill="black"/>
<path d="M95.8033 18.8732C95.8033 19.4585 95.6069 20.0439 95.2796 20.6293C94.9522 21.2797 94.4284 21.865 93.7737 22.4504C93.119 23.0358 92.2024 23.491 91.2203 23.8162C90.1727 24.1414 89.0597 24.3366 87.7503 24.3366C85.0004 24.3366 82.8399 23.5561 81.334 21.9301C79.7627 20.3691 79.0425 18.2228 79.0425 15.5561C79.0425 13.7349 79.3698 12.174 80.09 10.7431C80.8102 9.37722 81.7923 8.27153 83.1672 7.49104C84.4767 6.71056 86.1135 6.32031 87.9467 6.32031C89.1252 6.32031 90.1727 6.51543 91.0893 6.84064C92.0714 7.16584 92.8571 7.62113 93.5118 8.14145C94.1665 8.66178 94.6903 9.24714 95.0177 9.83251C95.345 10.4179 95.5414 11.0032 95.5414 11.5236C95.5414 12.0439 95.345 12.4992 94.9522 12.8894C94.5594 13.2797 94.1011 13.4097 93.5118 13.4097C93.119 13.4097 92.8571 13.3447 92.5952 13.1496C92.3333 12.9545 92.0714 12.6293 91.7441 12.239C91.2203 11.3935 90.631 10.8081 90.0418 10.4179C89.4525 10.0276 88.6669 9.83251 87.7503 9.83251C86.4408 9.83251 85.3933 10.3528 84.5421 11.3935C83.7565 12.4341 83.3636 13.8 83.3636 15.5561C83.3636 16.4016 83.4946 17.1171 83.691 17.8325C83.8874 18.548 84.2148 19.1333 84.6076 19.5886C85.0004 20.0439 85.4587 20.4341 86.048 20.6943C86.5718 20.9545 87.2265 21.0845 87.8812 21.0845C88.7978 21.0845 89.518 20.8894 90.1727 20.4341C90.8275 20.0439 91.3512 19.3935 91.875 18.548C92.1369 18.0276 92.4643 17.6374 92.7916 17.3772C93.119 17.1171 93.5118 16.9219 93.9701 16.9219C94.4939 16.9219 94.9522 17.1171 95.345 17.5073C95.7379 17.8975 95.8688 18.3528 95.8688 18.8081" fill="black"/>
</g>
<defs>
<clipPath id="clip0_1144_8840">
<rect width="95" height="24" fill="white" transform="translate(0.803223 0.401611)"/>
</clipPath>
</defs>
</svg>
