<svg width="15" height="15" viewBox="0 0 15 15" fill="none" xmlns="http://www.w3.org/2000/svg">
<g clip-path="url(#clip0_998_8956)">
<path d="M11.4254 6.0382C11.8671 5.59823 12.2818 5.18521 12.696 4.7716C13.0317 4.4365 13.4295 4.27598 13.904 4.35975C14.3838 4.4447 14.7241 4.72356 14.9005 5.17115C15.0791 5.62459 15.0159 6.06222 14.7153 6.45474C14.6503 6.53969 14.5759 6.61819 14.5003 6.69435C13.5074 7.6897 12.5138 8.68447 11.5179 9.67689C11.4506 9.74426 11.4224 9.81046 11.4224 9.90596C11.4254 11.1409 11.4259 12.3759 11.4236 13.6114C11.4224 14.1785 11.1858 14.6167 10.6667 14.861C10.4834 14.9472 10.2637 14.9929 10.0604 14.9934C7.16057 15.0016 4.26075 15.0011 1.36151 14.9975C0.572404 14.9964 0.00239825 14.4281 0.00181243 13.6384C-0.000530866 9.54742 -0.000530866 5.45646 0.00239825 1.36549C0.00298407 0.568744 0.574162 0.0022307 1.37264 0.00164486C3.85243 -0.00128437 6.33222 0.000473167 8.81201 0.00105901C9.16057 0.00105901 9.48219 0.0936227 9.73585 0.34085C10.1869 0.779648 10.6333 1.22431 11.0727 1.67423C11.3316 1.93904 11.4259 2.27238 11.4254 2.63795C11.4236 3.70712 11.4254 4.77629 11.4254 5.84546V6.0382ZM7.90925 0.8851C7.86414 0.882757 7.83544 0.880414 7.80732 0.880414C5.65969 0.880414 3.51148 0.879828 1.36385 0.880414C1.04985 0.880414 0.880547 1.06203 0.880547 1.39244C0.880547 5.46349 0.880547 9.53453 0.880547 13.6062C0.880547 13.9495 1.04926 14.1188 1.39256 14.1188C4.27246 14.1188 7.15237 14.1188 10.0323 14.1188C10.3756 14.1188 10.5443 13.9495 10.5449 13.6062C10.5455 12.6741 10.5449 11.7414 10.5449 10.8093C10.5449 10.7689 10.539 10.7285 10.5367 10.6922C10.4412 10.742 10.3597 10.7988 10.2701 10.8292C9.6843 11.029 9.0973 11.2259 8.50855 11.4151C8.4154 11.445 8.30293 11.4567 8.20861 11.435C7.9403 11.3735 7.82255 11.1151 7.9198 10.8205C8.10375 10.2604 8.28535 9.69915 8.48394 9.14377C8.53608 8.99848 8.6263 8.85378 8.73409 8.74305C9.29941 8.16306 9.87527 7.59245 10.4506 7.02184C10.5173 6.95564 10.5484 6.89002 10.5478 6.79336C10.5443 5.74879 10.5455 4.70423 10.5455 3.65967C10.5455 3.61339 10.5455 3.56769 10.5455 3.51672C9.83309 3.51672 9.14534 3.51672 8.457 3.51672C8.06567 3.51672 7.90925 3.35971 7.90925 2.96603C7.90925 2.27824 7.90925 1.59046 7.90925 0.885686V0.8851ZM10.2168 8.51164C10.4224 8.71786 10.6234 8.91939 10.8015 9.09807C11.488 8.41439 12.1869 7.71841 12.8688 7.03941C12.6773 6.84784 12.4757 6.64631 12.2842 6.45415C11.5982 7.13725 10.9011 7.83089 10.2168 8.51164ZM8.79619 2.62741H10.5888C10.5238 2.48563 10.4968 2.3462 10.4142 2.2595C10.0059 1.833 9.58764 1.41588 9.16057 1.00813C9.07504 0.926696 8.93561 0.90209 8.79677 0.83999V2.62741H8.79619ZM13.5384 6.37916C13.6925 6.23387 13.8653 6.09034 14.0147 5.92455C14.1705 5.75231 14.1477 5.50098 13.9872 5.34163C13.8267 5.18287 13.5753 5.16353 13.4031 5.3182C13.2373 5.467 13.0903 5.63573 12.9456 5.78453C13.1453 5.98489 13.3474 6.18701 13.5384 6.37858V6.37916ZM10.153 9.8005C9.94206 9.58901 9.74053 9.38748 9.5314 9.17834C9.46754 9.24805 9.36209 9.31835 9.32343 9.41502C9.20919 9.70208 9.12132 10.0003 9.00767 10.3395C9.41365 10.1315 9.87996 10.1608 10.153 9.80109V9.8005Z" fill="black"/>
<path d="M5.27123 4.39402C6.26655 4.39402 7.26127 4.39402 8.25659 4.39402C8.31986 4.39402 8.38488 4.39343 8.44522 4.40691C8.66256 4.45612 8.80492 4.65413 8.78617 4.8709C8.76801 5.08121 8.60047 5.24877 8.38547 5.26986C8.34212 5.27396 8.2976 5.27279 8.25366 5.27279C6.2683 5.27279 4.28295 5.27279 2.2976 5.27279C2.24897 5.27279 2.19976 5.27454 2.15114 5.26927C1.92618 5.24349 1.75805 5.05427 1.75864 4.83223C1.75922 4.61019 1.92853 4.42214 2.15348 4.39753C2.20679 4.39167 2.26069 4.39402 2.31458 4.39402C3.29994 4.39402 4.28529 4.39402 5.27065 4.39402H5.27123Z" fill="black"/>
<path d="M4.39484 7.03202C3.69244 7.03202 2.99004 7.03202 2.28822 7.03202C2.23491 7.03202 2.17984 7.03378 2.12771 7.02499C1.91095 6.98867 1.75395 6.7971 1.75922 6.58151C1.7645 6.35947 1.93731 6.17669 2.16403 6.1556C2.21734 6.15091 2.27123 6.15267 2.32513 6.15267C3.70533 6.15267 5.08553 6.15267 6.46573 6.15267C6.47569 6.15267 6.48506 6.15267 6.49502 6.15267C6.83069 6.15267 7.03339 6.3208 7.03104 6.59615C7.0287 6.86623 6.82835 7.03144 6.50205 7.03202C6.43351 7.03202 6.36555 7.03202 6.29701 7.03202C5.66315 7.03202 5.0287 7.03202 4.39484 7.03202Z" fill="black"/>
<path d="M4.38488 8.78983C3.67311 8.78983 2.96074 8.78866 2.24897 8.79042C2.04452 8.791 1.88634 8.71543 1.79847 8.52737C1.67193 8.2573 1.85823 7.94446 2.15992 7.91341C2.20796 7.90872 2.25717 7.91048 2.30638 7.91048C3.70122 7.91048 5.09607 7.91048 6.49091 7.91048C6.52021 7.91048 6.5495 7.91048 6.57879 7.91048C6.84124 7.91868 7.03104 8.10322 7.03104 8.34928C7.03104 8.59533 6.84182 8.78632 6.57996 8.78808C6.06326 8.79218 5.54598 8.78925 5.02929 8.78983C4.81487 8.78983 4.59988 8.78983 4.38547 8.78983H4.38488Z" fill="black"/>
<path d="M4.396 10.5467C3.67427 10.5467 2.95254 10.5491 2.2308 10.5455C1.88751 10.5444 1.66548 10.2362 1.79319 9.94096C1.87521 9.75056 2.03045 9.66678 2.23607 9.66678C2.95312 9.66795 3.67017 9.66678 4.38663 9.66678C5.11305 9.66678 5.84006 9.66444 6.56648 9.66795C6.90801 9.66971 7.12652 9.98431 6.99413 10.2796C6.90918 10.4688 6.7516 10.5479 6.54656 10.5473C5.82951 10.5455 5.11246 10.5467 4.396 10.5467Z" fill="black"/>
<path d="M7.02343 13.242C6.60398 13.242 6.18511 13.2431 5.76567 13.242C5.47041 13.2408 5.27182 13.0598 5.27416 12.7985C5.2765 12.5425 5.47275 12.3638 5.75922 12.3632C6.60749 12.362 7.45577 12.362 8.30404 12.3632C8.5905 12.3632 8.78617 12.543 8.78793 12.7996C8.78968 13.0615 8.59168 13.2414 8.29525 13.242C7.87111 13.2431 7.44698 13.242 7.02284 13.242H7.02343Z" fill="black"/>
</g>
<defs>
<clipPath id="clip0_998_8956">
<rect width="15" height="15" fill="white"/>
</clipPath>
</defs>
</svg>
