<svg width="13" height="15" viewBox="0 0 13 15" fill="none" xmlns="http://www.w3.org/2000/svg">
<g clip-path="url(#clip0_1166_13342)">
<path d="M2.10872 12.6642C1.93745 12.6642 1.79055 12.6649 1.64366 12.6642C0.668079 12.658 0.00210458 12.0281 0.00144586 11.1002C0.0001284 7.92398 0.0001284 4.74839 0.00144586 1.57218C0.00210458 0.63737 0.674007 0.00250222 1.65551 0.00187735C3.27467 2.74031e-06 4.89382 0.00312709 6.51297 2.7403e-06C6.87066 -0.00062213 7.17631 0.105606 7.44244 0.333058C8.44832 1.19475 9.45749 2.05332 10.4647 2.9144C10.7157 3.12873 10.8573 3.39492 10.8889 3.71735C10.8955 3.78421 10.9515 3.85857 11.0068 3.90669C11.493 4.32785 11.9778 4.75151 12.4764 5.15955C12.8387 5.45574 13.0028 5.81129 13.0008 6.26745C12.9916 8.65195 12.9975 11.0365 12.9962 13.4216C12.9962 14.1858 12.5535 14.7613 11.821 14.9444C11.6748 14.9813 11.518 14.9969 11.3665 14.9969C8.82511 15 6.28374 15 3.74236 14.9988C2.79182 14.9981 2.11926 14.3595 2.11003 13.4547C2.1074 13.2004 2.11003 12.9454 2.11003 12.6642H2.10872ZM6.32458 1.00917C6.25607 1.00604 6.20732 1.00229 6.15924 1.00229C4.65536 1.00229 3.15214 1.00229 1.64827 1.00229C1.26225 1.00229 1.05673 1.19475 1.05673 1.55905C1.05607 4.73964 1.05607 7.92023 1.05673 11.1014C1.05673 11.4695 1.25764 11.6619 1.64234 11.6619C2.20226 11.6619 2.76152 11.6576 3.32144 11.6569C5.29169 11.6563 7.26195 11.6569 9.23154 11.6569C9.63139 11.6569 9.82572 11.4726 9.82572 11.0933C9.82572 8.78692 9.82572 6.48115 9.82572 4.17476C9.82572 4.11977 9.82572 4.06478 9.82572 4.00167C9.74272 4.00167 9.68277 4.00167 9.62283 4.00167C8.93116 4.00167 8.24016 4.00479 7.54849 4.00042C7.01097 3.99729 6.5492 3.68299 6.39111 3.20433C6.34302 3.05874 6.32853 2.89815 6.32721 2.74381C6.31997 2.17205 6.32458 1.59967 6.32458 1.00854V1.00917ZM3.164 12.6755C3.164 12.9373 3.16334 13.1804 3.164 13.4241C3.16532 13.8078 3.36623 13.9983 3.77069 13.9983C6.29032 13.9983 8.8093 13.9983 11.3289 13.9983C11.738 13.9983 11.9389 13.8109 11.9389 13.4272C11.9402 12.7192 11.9389 12.0113 11.9389 11.3026C11.9389 9.6155 11.9389 7.92898 11.9369 6.24183C11.9369 6.16747 11.9356 6.06561 11.8882 6.0225C11.5773 5.74006 11.2532 5.46949 10.8981 5.16518C10.8981 5.26703 10.8981 5.32702 10.8981 5.38638C10.8981 7.27661 10.8968 9.16622 10.8988 11.0564C10.8988 11.6644 10.6583 12.1462 10.1011 12.468C9.81452 12.633 9.49767 12.6755 9.16962 12.6755C7.24284 12.6755 5.31672 12.6755 3.38994 12.6755H3.16268H3.164ZM7.38052 1.62779C7.38052 2.04083 7.3792 2.40763 7.38052 2.77505C7.38118 2.95501 7.43256 3 7.62952 3C8.02871 3.00125 8.42855 3.00063 8.82774 3C8.86727 3 8.90679 2.9925 8.97135 2.98626C8.43909 2.53198 7.92792 2.09582 7.37986 1.62779H7.38052Z" fill="black"/>
<path d="M5.44305 5.00082C6.26054 5.00082 7.07802 4.99957 7.89484 5.00144C8.12605 5.00144 8.29403 5.10767 8.38625 5.30763C8.4765 5.50321 8.44686 5.69817 8.28086 5.83752C8.18205 5.92062 8.03252 5.99373 7.90538 5.99436C6.26515 6.00498 4.62491 6.00248 2.98468 5.99998C2.68891 5.99998 2.45902 5.77628 2.45572 5.50571C2.45243 5.22827 2.6843 5.00394 2.99061 5.00207C3.80809 4.99832 4.62557 5.00082 5.4424 5.00082H5.44305Z" fill="black"/>
<path d="M4.92596 8.99902C5.54582 8.99902 6.16569 8.99902 6.78555 8.99902C7.13402 8.99902 7.37643 9.20336 7.37907 9.49579C7.3817 9.78761 7.13731 9.99881 6.7928 9.99944C5.54253 10.0001 4.29161 10.0001 3.04134 9.99944C2.69748 9.99944 2.4531 9.78573 2.45705 9.49454C2.461 9.20523 2.69814 9.00027 3.03475 8.99965C3.66581 8.9984 4.29622 8.99965 4.92728 8.99965L4.92596 8.99902Z" fill="black"/>
<path d="M4.22508 8.0012C3.82457 8.0012 3.42407 8.00245 3.02356 8.0012C2.69419 7.99932 2.45178 7.78124 2.45639 7.49505C2.46101 7.21074 2.69551 7.00203 3.01895 7.00141C3.81469 6.99953 4.61043 6.99953 5.40552 7.00141C5.73686 7.00141 5.97466 7.21699 5.97137 7.50693C5.96807 7.78999 5.73291 7.99932 5.41013 8.0012C5.01489 8.00307 4.62032 8.0012 4.22508 8.0012Z" fill="black"/>
</g>
<defs>
<clipPath id="clip0_1166_13342">
<rect width="13" height="15" fill="white"/>
</clipPath>
</defs>
</svg>
