<svg width="17" height="17" viewBox="0 0 17 17" fill="none" xmlns="http://www.w3.org/2000/svg">
<g clip-path="url(#clip0_998_8241)">
<path d="M8.23454e-05 3.88184C-0.0152402 3.1229 0.277886 2.39845 0.89545 1.80336C1.3378 1.37679 1.74951 0.915715 2.21519 0.515013C3.02795 -0.184226 3.86469 -0.173611 4.64014 0.560125C5.42492 1.30182 6.18372 2.07205 6.92453 2.85753C7.52477 3.49441 7.52277 4.37343 6.93719 5.02093C6.51815 5.48465 6.06247 5.91587 5.61678 6.35439C5.53484 6.43533 5.52485 6.49238 5.57348 6.59388C6.01584 7.51934 6.65805 8.29952 7.35356 9.04056C8.05306 9.78623 8.82185 10.4543 9.68858 11.0036C9.93107 11.1575 10.1936 11.2809 10.4414 11.4269C10.5313 11.4799 10.5706 11.4295 10.6226 11.3778C10.995 11.0056 11.3674 10.6341 11.7411 10.2639C12.0329 9.97464 12.3587 9.74046 12.7764 9.67014C13.3407 9.5746 13.821 9.75505 14.2194 10.1445C14.9482 10.857 15.6697 11.5775 16.3892 12.2992C17.1513 13.0635 17.2133 13.9412 16.5071 14.7499C16.0055 15.3238 15.4605 15.8651 14.8936 16.3753C14.296 16.9133 13.5485 17.048 12.7631 16.9863C11.5253 16.8888 10.3907 16.4549 9.29152 15.9115C7.62803 15.0896 6.12176 14.0414 4.79736 12.7471C2.96066 10.9519 1.46505 8.91915 0.536371 6.50432C0.194612 5.61667 0.00341333 4.7476 8.23454e-05 3.88184ZM0.865471 3.86128C0.869469 4.76551 1.08598 5.4946 1.35579 6.21043C2.11659 8.22854 3.33573 9.95607 4.7967 11.5224C6.21903 13.0476 7.87652 14.2669 9.75386 15.1851C10.6939 15.6448 11.6618 16.0177 12.7158 16.1245C13.3407 16.1875 13.9376 16.1179 14.4099 15.6687C14.9189 15.1844 15.4079 14.6776 15.8849 14.1615C16.2166 13.8019 16.2133 13.38 15.8722 13.0303C15.1181 12.2575 14.3513 11.4965 13.5778 10.7429C13.2767 10.4496 12.8857 10.4516 12.5486 10.709C12.4699 10.7694 12.398 10.8397 12.3267 10.9094C11.9137 11.3187 11.5033 11.7314 11.0889 12.1394C10.8138 12.41 10.522 12.4545 10.1782 12.2787C9.93174 12.1526 9.68325 12.0286 9.44675 11.8853C8.35685 11.2258 7.40685 10.3999 6.55212 9.46182C5.82597 8.66506 5.1671 7.82253 4.72408 6.82939C4.53222 6.3995 4.58018 6.14939 4.92261 5.81968C5.32166 5.43622 5.71938 5.05012 6.11044 4.65804C6.61808 4.1492 6.61741 3.75778 6.11044 3.24894C5.44224 2.57823 4.76938 1.9115 4.09786 1.24344C4.04323 1.18904 3.98527 1.13663 3.92531 1.08754C3.62752 0.84075 3.29975 0.812223 2.97198 1.01523C2.86473 1.08157 2.7668 1.16649 2.67686 1.25538C2.28913 1.63552 1.91073 2.02494 1.52101 2.40176C1.06933 2.83829 0.84815 3.36438 0.864139 3.86128H0.865471Z" fill="black"/>
</g>
<defs>
<clipPath id="clip0_998_8241">
<rect width="17" height="17" fill="white"/>
</clipPath>
</defs>
</svg>
