<svg width="6" height="11" viewBox="0 0 6 11" fill="none" xmlns="http://www.w3.org/2000/svg">
<path d="M5.99688 4.85133L5.8528 5.96991C5.8285 6.15707 5.66499 6.29752 5.47127 6.29752H3.59937V10.9741C3.40184 10.9916 3.20187 11 2.99983 11C2.54782 11 2.10623 10.9563 1.67957 10.873V6.29752H0.239889C0.10762 6.29752 0 6.19269 0 6.06433V4.66484C0 4.53682 0.107967 4.43165 0.239889 4.43165H1.67957V2.33259C1.67957 1.04399 2.75404 0 4.0795 0H5.75907C5.89134 0 5.99896 0.104836 5.99896 0.233192V1.63268C5.99896 1.7607 5.89099 1.86587 5.75907 1.86587H4.55928C4.02951 1.86587 3.59972 2.28353 3.59972 2.79897V4.43165H5.61534C5.84655 4.43165 6.02569 4.62889 5.99688 4.85167V4.85133Z" fill="black"/>
</svg>
