<svg width="16" height="12" viewBox="0 0 16 12" fill="none" xmlns="http://www.w3.org/2000/svg">
<path d="M15.9893 6.00439C15.9773 6.50189 15.9702 7.00016 15.951 7.49729C15.9376 7.84852 15.9163 8.19975 15.8826 8.54907C15.8465 8.92582 15.8029 9.30295 15.7423 9.67589C15.6863 10.0214 15.6178 10.3665 15.4396 10.6713C15.2854 10.9341 15.0922 11.1539 14.8597 11.3398C14.6736 11.4884 14.4687 11.5878 14.2493 11.6518C14.0994 11.6956 13.9445 11.7242 13.79 11.7429C13.4217 11.7878 13.0527 11.832 12.683 11.8598C12.2187 11.8949 11.7537 11.9189 11.2883 11.9375C10.7992 11.9573 10.3093 11.9718 9.81983 11.9768C8.68951 11.989 7.55883 11.9989 6.4285 11.9996C5.92696 12 5.42543 11.9787 4.92424 11.9634C4.64423 11.9551 4.36457 11.9398 4.08491 11.9253C3.87579 11.9147 3.66667 11.9048 3.45826 11.8865C3.09176 11.8541 2.72207 11.837 2.35983 11.7741C1.99333 11.7105 1.61337 11.6766 1.28693 11.4526C1.08844 11.3162 0.905188 11.1627 0.750296 10.9665C0.5752 10.7448 0.442283 10.5018 0.366432 10.2252C0.313974 10.0347 0.270732 9.83969 0.242022 9.64351C0.195944 9.32504 0.159436 9.00505 0.129662 8.6843C0.0988258 8.35365 0.0750779 8.02223 0.0587735 7.69043C0.0399879 7.30758 0.0318357 6.92398 0.0208479 6.54075C0.0123412 6.24628 -0.00148218 5.95182 0.00135338 5.65735C0.00489783 5.27717 0.0212023 4.89699 0.0350257 4.51681C0.0438868 4.27949 0.0502668 4.0414 0.0722424 3.80522C0.108041 3.42161 0.146676 3.03762 0.201969 2.65668C0.247338 2.34507 0.300505 2.03194 0.383091 1.72986C0.483753 1.36187 0.68685 1.05902 0.96119 0.805313C1.18697 0.596558 1.43118 0.433515 1.71864 0.353899C1.87495 0.310472 2.0348 0.276568 2.19501 0.256759C2.56931 0.210665 2.94396 0.166476 3.31931 0.137906C3.77477 0.10324 4.23095 0.0792409 4.68712 0.0609558C5.18228 0.0411469 5.67814 0.0262902 6.17366 0.020957C7.32702 0.00990976 8.48109 0.00114813 9.63517 5.31189e-06C10.1101 -0.000375628 10.5851 0.0198142 11.0597 0.0342899C11.3397 0.0426706 11.6194 0.0540988 11.899 0.0716221C12.2488 0.0933357 12.599 0.116954 12.9482 0.150477C13.2381 0.178285 13.5284 0.208761 13.8151 0.260568C14.0895 0.310091 14.3684 0.346661 14.6194 0.499418C14.8416 0.634652 15.0373 0.797694 15.2099 1.00264C15.4023 1.2312 15.5423 1.4872 15.6242 1.77823C15.6777 1.96832 15.7178 2.16413 15.7465 2.36031C15.7983 2.71306 15.8447 3.06696 15.8787 3.42199C15.9067 3.71151 15.9174 4.00331 15.9294 4.29473C15.9454 4.68405 15.9531 5.07413 15.9677 5.46345C15.9744 5.64364 15.9893 5.82382 16.0003 6.004C15.9967 6.004 15.9928 6.004 15.9893 6.00439ZM6.42992 3.47304V8.52545C6.48132 8.49574 6.51712 8.47631 6.55185 8.45498C6.91445 8.23022 7.27634 8.00508 7.63893 7.78071C7.90689 7.615 8.17627 7.4512 8.44388 7.28473C8.8646 7.02302 9.28427 6.75979 9.70464 6.49808C9.94921 6.34571 10.1945 6.19448 10.4401 6.04324C10.4897 6.01239 10.489 5.98724 10.4394 5.95639C10.1356 5.76896 9.83259 5.58002 9.52883 5.39183C9.26335 5.22727 8.99752 5.06423 8.73204 4.89928C8.39567 4.69014 8.05966 4.48024 7.72329 4.27073C7.43017 4.08826 7.13739 3.90502 6.84356 3.72332C6.71171 3.64179 6.57843 3.56294 6.42957 3.47342L6.42992 3.47304Z" fill="black"/>
</svg>
