<svg width="50" height="50" viewBox="0 0 50 50" fill="none" xmlns="http://www.w3.org/2000/svg">
<g clip-path="url(#clip0_1144_8911)">
<g clip-path="url(#clip1_1144_8911)">
<path d="M36.4998 47.275H18.8688C13.9621 47.275 9.97021 43.264 9.97021 38.3337V20.6185C9.97021 15.6883 13.9621 11.6772 18.8688 11.6772H36.4998C41.4065 11.6772 45.3984 15.6883 45.3984 20.6185V38.3337C45.3984 43.264 41.4065 47.275 36.4998 47.275ZM18.8688 16.2732C16.4571 16.2732 14.5443 18.1951 14.5443 20.6185V38.3337C14.5443 40.7571 16.4571 42.679 18.8688 42.679H36.4998C38.9116 42.679 40.8244 40.7571 40.8244 38.3337V20.6185C40.8244 18.1951 38.9116 16.2732 36.4998 16.2732H18.8688Z" fill="black"/>
<path d="M30.4288 21.7883C30.4288 23.2925 29.1813 24.5459 27.6844 24.5459C26.1874 24.5459 24.9399 23.2925 24.9399 21.7883C24.9399 20.2842 26.1874 19.0308 27.6844 19.0308C29.1813 19.0308 30.4288 20.2842 30.4288 21.7883Z" fill="black"/>
<path d="M30.4288 30.8967C30.4288 32.4009 29.1813 33.6543 27.6844 33.6543C26.1874 33.6543 24.9399 32.4009 24.9399 30.8967C24.9399 29.3926 26.1874 28.1392 27.6844 28.1392C29.1813 28.1392 30.4288 29.3926 30.4288 30.8967Z" fill="black"/>
<path d="M30.4288 38.1665C30.4288 39.6706 29.1813 40.9241 27.6844 40.9241C26.1874 40.9241 24.9399 39.6706 24.9399 38.1665C24.9399 36.6624 26.1874 35.4089 27.6844 35.4089C29.1813 35.4089 30.4288 36.6624 30.4288 38.1665Z" fill="black"/>
<path d="M22.1124 30.8967C22.1124 32.4009 20.8649 33.6543 19.368 33.6543C17.871 33.6543 16.6235 32.4009 16.6235 30.8967C16.6235 29.3926 17.871 28.1392 19.368 28.1392C20.8649 28.1392 22.1124 29.3926 22.1124 30.8967Z" fill="black"/>
<path d="M22.1124 38.1665C22.1124 39.6706 20.8649 40.9241 19.368 40.9241C17.871 40.9241 16.6235 39.6706 16.6235 38.1665C16.6235 36.6624 17.871 35.4089 19.368 35.4089C20.8649 35.4089 22.1124 36.6624 22.1124 38.1665Z" fill="black"/>
<path d="M38.6622 30.8967C38.6622 32.4009 37.4147 33.6543 35.9178 33.6543C34.4208 33.6543 33.1733 32.4009 33.1733 30.8967C33.1733 29.3926 34.4208 28.1392 35.9178 28.1392C37.4147 28.1392 38.6622 29.3926 38.6622 30.8967Z" fill="black"/>
<path d="M38.6622 38.1665C38.6622 39.6706 37.4147 40.9241 35.9178 40.9241C34.4208 40.9241 33.1733 39.6706 33.1733 38.1665C33.1733 36.6624 34.4208 35.4089 35.9178 35.4089C37.4147 35.4089 38.6622 36.6624 38.6622 38.1665Z" fill="black"/>
</g>
</g>
<defs>
<clipPath id="clip0_1144_8911">
<rect width="42.5138" height="39.1575" fill="white" transform="translate(6.42725 8.11743)"/>
</clipPath>
<clipPath id="clip1_1144_8911">
<rect width="35.4282" height="35.5977" fill="white" transform="translate(9.97021 11.6772)"/>
</clipPath>
</defs>
</svg>
