<svg width="70" height="26" viewBox="0 0 70 26" fill="none" xmlns="http://www.w3.org/2000/svg">
<g clip-path="url(#clip0_1144_8924)">
<path d="M16.1732 19.9233C16.1732 21.198 15.8434 22.2714 15.2497 23.1435C14.656 24.0156 13.7325 24.7536 12.6111 25.1561C11.4896 25.5587 10.0384 25.827 8.3233 25.827C6.60819 25.827 5.35485 25.5587 4.16747 25.0891C3.04605 24.6194 2.1885 23.9486 1.59481 23.2106C1.00112 22.4726 0.803223 21.7347 0.803223 20.9296C0.803223 20.46 1.00112 19.9904 1.33095 19.6549C1.66078 19.3195 2.12253 19.1182 2.65026 19.1182C3.11202 19.1182 3.50781 19.2524 3.70571 19.4537C3.96957 19.722 4.16747 19.9904 4.43133 20.46C4.89309 21.265 5.42081 21.8688 6.08047 22.2714C6.74013 22.6739 7.59768 22.8752 8.71909 22.8752C9.64261 22.8752 10.3682 22.6739 10.896 22.2714C11.4896 21.8688 11.7535 21.3992 11.7535 20.8625C11.7535 20.0575 11.4896 19.4537 10.83 19.1182C10.2363 18.7157 9.24682 18.3803 7.86154 18.0448C6.34433 17.6423 5.09099 17.2398 4.1015 16.8372C3.11202 16.4347 2.3864 15.8309 1.79271 15.16C1.19902 14.4221 0.935154 13.617 0.935154 12.5436C0.935154 11.6044 1.19902 10.7993 1.72674 9.92717C2.25447 9.12212 3.04605 8.45124 4.1015 7.98162C5.15695 7.512 6.4103 7.24365 7.86154 7.24365C9.04892 7.24365 10.0384 7.37783 10.9619 7.57909C11.8854 7.84744 12.677 8.18288 13.2707 8.58541C13.8644 8.98794 14.3262 9.45756 14.656 9.92717C14.9858 10.3968 15.1178 10.9335 15.1178 11.4031C15.1178 11.9398 14.9199 12.3423 14.59 12.6778C14.2602 13.0132 13.7325 13.1474 13.1388 13.1474C12.677 13.1474 12.2812 13.0132 11.9514 12.7449C11.6216 12.4765 11.2917 12.074 10.83 11.5373C10.5002 11.0677 10.1044 10.7322 9.64261 10.4639C9.18085 10.1955 8.58716 10.0613 7.79557 10.0613C7.00399 10.0613 6.27837 10.2626 5.75064 10.5981C5.22292 10.9335 4.95905 11.4031 4.95905 11.8727C4.95905 12.3423 5.15695 12.7449 5.55274 13.0803C5.94854 13.3487 6.47626 13.617 7.13592 13.8183C7.79557 14.0195 8.71909 14.2879 9.90647 14.5562C11.2917 14.8917 12.4132 15.2942 13.3367 15.7638C14.1942 16.2334 14.8539 16.8372 15.3157 17.441C15.7774 18.0448 15.9753 18.8499 15.9753 19.6549" fill="black"/>
<path d="M19.8672 7.78043H20.329V5.02983C20.329 4.29186 20.329 3.75515 20.329 3.28554C20.329 2.88301 20.4609 2.48048 20.6588 2.21213C20.8567 1.87669 21.1205 1.67543 21.3844 1.47416C21.7142 1.2729 22.11 1.20581 22.5058 1.20581C23.0995 1.20581 23.5613 1.40707 24.023 1.87669C24.3529 2.14504 24.5508 2.54757 24.6167 2.9501C24.6827 3.35263 24.7487 3.95642 24.7487 4.69439V7.78043H26.3978C27.0574 7.78043 27.5192 7.91461 27.849 8.25005C28.1789 8.58549 28.3768 8.92093 28.3768 9.45763C28.3768 10.0614 28.1129 10.464 27.6511 10.7323C27.1894 11.0007 26.5297 11.1348 25.6062 11.1348H24.7487V19.5208C24.7487 20.2588 24.7487 20.7955 24.8146 21.1309C24.8806 21.4664 25.0125 21.8018 25.2104 22.0702C25.4083 22.3385 25.7381 22.4056 26.2659 22.4056C26.5297 22.4056 26.8596 22.4056 27.3213 22.2714C27.7831 22.1373 28.1129 22.1373 28.3768 22.1373C28.7066 22.1373 29.0364 22.2714 29.3662 22.6069C29.6301 22.8752 29.828 23.2778 29.828 23.6803C29.828 24.4183 29.4322 24.955 28.6406 25.3575C27.849 25.76 26.7276 25.9613 25.2764 25.9613C23.8911 25.9613 22.8357 25.6929 22.11 25.2233C21.3844 24.7537 20.9226 24.0828 20.7248 23.2107C20.5269 22.3385 20.3949 21.2651 20.3949 19.8563V11.1348H19.8012C19.1416 11.1348 18.6798 11.0007 18.35 10.6652C18.0202 10.3298 17.8223 9.92725 17.8223 9.45763C17.8223 8.98802 18.0202 8.58549 18.35 8.25005C18.6798 7.9817 19.2075 7.78043 19.9332 7.78043" fill="black"/>
<path d="M33.4563 5.23098C32.8626 5.23098 32.3348 5.02972 31.8731 4.62719C31.4113 4.22466 31.2134 3.68796 31.2134 2.94999C31.2134 2.27911 31.4113 1.7424 31.8731 1.33988C32.3348 0.937348 32.8626 0.736084 33.4563 0.736084C34.0499 0.736084 34.5777 0.937348 34.9735 1.27279C35.4352 1.67532 35.6331 2.21202 35.6331 2.94999C35.6331 3.68796 35.4352 4.22466 34.9735 4.62719C34.5117 5.02972 33.984 5.23098 33.3903 5.23098M35.6331 9.99423V23.1435C35.6331 24.0827 35.4352 24.7536 34.9735 25.2232C34.5117 25.6928 33.984 25.9612 33.3243 25.9612C32.6647 25.9612 32.1369 25.6928 31.7412 25.2232C31.3454 24.7536 31.1475 24.0827 31.1475 23.1435V10.1284C31.1475 9.25626 31.3454 8.51829 31.7412 8.11576C32.1369 7.64615 32.6647 7.44488 33.3243 7.44488C33.984 7.44488 34.5117 7.64615 34.9735 8.11576C35.4352 8.58538 35.6331 9.18917 35.6331 9.99423Z" fill="#DE000E"/>
<path d="M44.4066 19.3196V23.1436C44.4066 24.0828 44.2087 24.7537 43.7469 25.2233C43.2851 25.693 42.7574 25.8942 42.0978 25.8942C41.4381 25.8942 40.9104 25.693 40.5146 25.2233C40.1188 24.7537 39.9209 24.0828 39.9209 23.1436V10.464C39.9209 8.38425 40.6465 7.37793 42.0978 7.37793C42.8234 7.37793 43.3511 7.64628 43.6809 8.1159C44.0108 8.58551 44.2087 9.32348 44.2087 10.2627C44.7364 9.32348 45.2641 8.58551 45.8578 8.1159C46.3855 7.64628 47.1771 7.37793 48.1006 7.37793C49.0242 7.37793 49.9477 7.64628 50.8712 8.1159C51.7947 8.58551 52.1905 9.25639 52.1905 9.99436C52.1905 10.5311 51.9926 11.0007 51.5968 11.4032C51.201 11.7386 50.8052 11.9399 50.3435 11.9399C50.2115 11.9399 49.8157 11.8728 49.1561 11.6045C48.4964 11.4032 47.9687 11.269 47.5069 11.269C46.8473 11.269 46.3196 11.4703 45.9238 11.8057C45.528 12.1412 45.1981 12.6779 44.9343 13.3488C44.6704 14.0196 44.5385 14.8247 44.4725 15.831C44.4066 16.8373 44.3406 17.9778 44.3406 19.3196" fill="black"/>
<path d="M69.8034 16.636C69.8034 17.9778 69.6055 19.2525 69.1437 20.393C68.7479 21.5334 68.1542 22.5398 67.3627 23.3448C66.5711 24.1499 65.6475 24.8208 64.5261 25.2233C63.4047 25.6929 62.2173 25.8942 60.8321 25.8942C59.4468 25.8942 58.2594 25.6929 57.204 25.2233C56.1485 24.7537 55.159 24.1499 54.3674 23.2777C53.5758 22.4727 52.9822 21.4664 52.5864 20.3259C52.1906 19.1854 51.9927 17.9107 51.9927 16.5689C51.9927 15.2272 52.1906 13.9525 52.6523 12.812C53.0481 11.6715 53.6418 10.6652 54.4334 9.86013C55.225 9.05508 56.1485 8.45129 57.2699 7.98167C58.3913 7.51206 59.5787 7.31079 60.898 7.31079C62.2173 7.31079 63.4707 7.51206 64.5921 7.98167C65.7135 8.45129 66.637 9.05508 67.4286 9.86013C68.2202 10.6652 68.8139 11.6715 69.2097 12.812C69.6055 13.9525 69.8034 15.2272 69.8034 16.5689M65.3177 16.636C65.3177 14.7576 64.9219 13.3487 64.1303 12.2753C63.3388 11.2019 62.2173 10.7323 60.898 10.7323C60.0405 10.7323 59.2489 10.9335 58.5892 11.4032C57.9296 11.8728 57.4019 12.5437 57.072 13.4829C56.6762 14.355 56.5443 15.4284 56.5443 16.636C56.5443 17.8436 56.7422 18.8499 57.072 19.7892C57.4019 20.6613 57.9296 21.3322 58.5892 21.8689C59.2489 22.3385 60.0405 22.6069 60.964 22.6069C62.2833 22.6069 63.4047 22.0701 64.1963 21.0638C64.9879 20.0575 65.3837 18.5816 65.3837 16.7702" fill="black"/>
</g>
<defs>
<clipPath id="clip0_1144_8924">
<rect width="69" height="25.0909" fill="white" transform="translate(0.803223 0.803223)"/>
</clipPath>
</defs>
</svg>
