<svg width="36" height="44" viewBox="0 0 36 44" fill="none" xmlns="http://www.w3.org/2000/svg">
<path d="M29.7104 15.942C28.368 15.942 27.2494 16.4883 26.2053 17.1906L18.6731 11.8838C18.8222 11.1814 19.1205 10.4791 19.1205 9.6206C19.1205 4.31377 14.9443 0.0214844 9.87308 0.0214844C4.80189 0.0214844 0.700195 4.31377 0.700195 9.6206C0.700195 14.9274 4.87647 19.2978 9.94765 19.2978L13.5273 32.4087C12.2595 33.5794 11.3646 35.2963 11.3646 37.2473C11.3646 40.8372 14.1239 43.7248 17.5544 43.7248C20.9849 43.7248 23.7443 40.8372 23.7443 37.2473C23.7443 36.0767 23.3714 34.9841 22.8493 34.0476L27.2493 28.4286C27.9951 28.7408 28.8155 28.9749 29.7104 28.9749C33.1409 28.9749 35.9002 26.0874 35.9002 22.4975C35.9002 18.9075 33.1409 16.02 29.7104 16.02M4.80189 9.6206C4.80189 6.65502 7.11376 4.31377 9.87308 4.31377C12.6324 4.31377 14.9443 6.73306 14.9443 9.6206C14.9443 12.5081 12.6324 15.0055 9.87308 15.0055C7.11376 15.0055 4.80189 12.5862 4.80189 9.6206ZM13.9002 18.2052C15.0934 17.5808 16.0629 16.7224 16.8832 15.7078L23.8188 20.6245C23.6697 21.1708 23.5205 21.717 23.5205 22.3414C23.5205 23.434 23.8188 24.3705 24.2663 25.307L19.7917 31.082C19.1205 30.7699 18.3748 30.6138 17.5544 30.6138C17.4799 30.6138 17.4053 30.6138 17.3307 30.6138L13.9002 18.1271V18.2052ZM17.5544 39.4325C16.4358 39.4325 15.4663 38.4179 15.4663 37.2473C15.4663 36.0767 16.4358 35.0621 17.5544 35.0621C18.6731 35.0621 19.6426 36.0767 19.6426 37.2473C19.6426 38.4179 18.6731 39.4325 17.5544 39.4325ZM29.7104 24.6046C28.5171 24.6046 27.6222 23.59 27.6222 22.4194C27.6222 21.2488 28.5917 20.2343 29.7104 20.2343C30.829 20.2343 31.7985 21.2488 31.7985 22.4194C31.7985 23.59 30.829 24.6046 29.7104 24.6046Z" fill="black"/>
</svg>
