<svg width="14" height="15" viewBox="0 0 14 15" fill="none" xmlns="http://www.w3.org/2000/svg">
<g clip-path="url(#clip0_998_2101)">
<path d="M14 7.57318C13.9919 11.3898 10.8371 14.5275 7.01032 14.5C3.37545 14.4738 0.00312774 11.6536 2.32161e-06 7.49879C-0.0031231 3.63275 3.1498 0.487534 7.01157 0.500037C11.2009 0.513791 13.9975 3.94283 14 7.57318ZM11.4203 2.73689C10.2264 1.66035 8.85181 1.08769 7.2741 1.00705C7.26348 1.02893 7.25472 1.03831 7.25472 1.04706C7.25285 1.32838 7.25222 1.60971 7.25035 1.89103C7.2491 2.08859 7.15846 2.20487 7.00469 2.20737C6.84654 2.2105 6.75091 2.08984 6.74966 1.88416C6.74903 1.77975 6.74966 1.67598 6.74966 1.57157C6.74966 1.3859 6.74966 1.20022 6.74966 1.00517C5.14507 1.09082 3.76863 1.66222 2.58472 2.73439C2.80725 2.95569 3.02353 3.16638 3.23481 3.38206C3.36233 3.51209 3.35733 3.68151 3.23169 3.77779C3.1248 3.85969 2.99478 3.84781 2.88039 3.73528C2.66473 3.52397 2.45346 3.30829 2.23218 3.08698C1.16016 4.27355 0.586331 5.65079 0.50507 7.25185C0.811986 7.25185 1.09765 7.25122 1.38331 7.25185C1.58271 7.25247 1.6946 7.34124 1.6971 7.49754C1.6996 7.6607 1.58646 7.75135 1.37706 7.7526C1.17391 7.75323 0.970757 7.7526 0.767605 7.7526C0.681969 7.7526 0.596957 7.7526 0.50382 7.7526C0.590706 9.36116 1.16141 10.7365 2.23843 11.9231C2.41095 11.7462 2.57035 11.5824 2.73037 11.4186C2.76287 11.3848 2.79663 11.3523 2.82976 11.3192C2.9879 11.1623 3.1348 11.1379 3.24919 11.2498C3.36545 11.3636 3.34483 11.5142 3.18918 11.6693C2.9904 11.8668 2.79038 12.0631 2.58285 12.2682C3.77363 13.3447 5.15194 13.9161 6.75028 13.9987C6.75028 13.6798 6.75028 13.3835 6.75028 13.0872C6.75028 12.9459 6.80591 12.8427 6.95156 12.8121C7.11971 12.7765 7.24847 12.8915 7.25035 13.0809C7.25347 13.3816 7.25097 13.6829 7.25097 13.9999C8.85431 13.9155 10.232 13.3441 11.4203 12.2676C11.2034 12.0538 10.9984 11.8543 10.7964 11.6511C10.7564 11.6111 10.7139 11.5661 10.6958 11.5149C10.6558 11.4017 10.6789 11.2948 10.7839 11.2248C10.899 11.1485 11.0146 11.1629 11.1109 11.2585C11.3284 11.4742 11.5409 11.6949 11.7647 11.9231C12.843 10.729 13.4155 9.35116 13.4956 7.76823C13.4643 7.75948 13.4543 7.75385 13.4449 7.75385C13.1636 7.7526 12.8824 7.75385 12.6011 7.75135C12.4129 7.7501 12.3073 7.65945 12.3054 7.50441C12.3035 7.34875 12.4104 7.2531 12.5948 7.25122C12.7617 7.24934 12.928 7.25122 13.0949 7.25122C13.2274 7.25122 13.3593 7.25122 13.4987 7.25122C13.4099 5.64266 12.8405 4.26667 11.766 3.0826C11.5522 3.29954 11.3528 3.50522 11.1502 3.70777C11.0027 3.85531 10.8533 3.86969 10.7421 3.75216C10.6371 3.6415 10.6546 3.49459 10.7946 3.35455C10.9971 3.152 11.2021 2.95257 11.4215 2.73626L11.4203 2.73689Z" fill="black"/>
<path d="M6.74959 5.53535C6.74959 4.90018 6.74896 4.26501 6.74959 3.62984C6.74959 3.44292 6.84398 3.33789 7.00025 3.33789C7.15152 3.33789 7.24778 3.44042 7.24903 3.61484C7.25153 3.99994 7.24966 4.38505 7.24966 4.77077C7.24966 5.57787 7.25153 6.38433 7.24716 7.19142C7.24716 7.29708 7.27716 7.34271 7.3778 7.38022C7.97163 7.60278 8.56296 7.82972 9.15116 8.06666C9.2368 8.10104 9.32743 8.18481 9.36119 8.26859C9.38557 8.3286 9.34306 8.46176 9.28868 8.49677C9.21429 8.54428 9.08678 8.56491 9.00427 8.53553C8.51983 8.36236 8.04226 8.17169 7.5622 7.98664C7.36342 7.90974 7.16652 7.82847 6.96524 7.75782C6.81022 7.70343 6.74584 7.60341 6.74709 7.44024C6.75084 6.80507 6.74896 6.1699 6.74896 5.53473L6.74959 5.53535Z" fill="black"/>
</g>
<defs>
<clipPath id="clip0_998_2101">
<rect width="14" height="14" fill="white" transform="translate(0 0.5)"/>
</clipPath>
</defs>
</svg>
