<svg width="16" height="12" viewBox="0 0 16 12" fill="none" xmlns="http://www.w3.org/2000/svg">
<g clip-path="url(#clip0_998_8992)">
<path d="M14.7059 9.46692C14.7059 9.53188 14.7059 9.57979 14.7059 9.62771C14.7059 10.191 14.7065 10.7548 14.7059 11.3181C14.7053 11.6035 14.5246 11.7643 14.1989 11.7643C10.3434 11.7648 6.48792 11.7691 2.6318 11.7627C1.20129 11.76 0.0939992 10.7697 0.0927864 9.51324C0.0903608 6.9353 0.0909672 4.3579 0.0927864 1.77997C0.0927864 0.823755 0.931442 0.0821054 2.02115 0.081573C5.66988 0.0789109 9.318 0.0805081 12.9667 0.0810405C13.3221 0.0810405 13.4943 0.234907 13.4943 0.547965C13.4943 1.19112 13.4943 1.8348 13.4943 2.47796V2.64141C13.7247 2.64141 13.9455 2.64141 14.1662 2.64141C14.5355 2.64194 14.7059 2.78995 14.7059 3.11099C14.7059 3.84306 14.7059 4.57513 14.7059 5.30719V5.46958C14.8545 5.46958 14.9939 5.46851 15.1334 5.46958C15.4275 5.47224 15.6161 5.63622 15.6161 5.89551C15.6173 6.94276 15.6173 7.98948 15.6161 9.03673C15.6161 9.30347 15.4299 9.46266 15.1219 9.46639C14.9909 9.46799 14.8605 9.46639 14.7059 9.46639V9.46692ZM1.00846 3.18926C1.00482 3.23877 1.00239 3.25634 1.00239 3.27391C1.00239 5.36363 1.00057 7.45334 1.00603 9.54252C1.00603 9.69053 1.03878 9.8444 1.09153 9.98496C1.32379 10.6079 1.93383 10.9673 2.74883 10.9673C6.37209 10.9683 9.99475 10.9673 13.618 10.9673H13.7872V9.46586C13.7205 9.46586 13.6611 9.46586 13.6022 9.46586C12.9807 9.46319 12.3555 9.49727 11.7388 9.44935C10.5272 9.35565 9.64 8.41275 9.70731 7.34739C9.77341 6.30174 10.7764 5.47224 11.9801 5.46851C12.5307 5.46691 13.0819 5.46851 13.6326 5.46851C13.6853 5.46851 13.7381 5.46851 13.7872 5.46851V3.44002C13.7096 3.44002 13.6404 3.44002 13.5707 3.44002C9.90743 3.44002 6.24354 3.44002 2.58025 3.44056C2.04541 3.44056 1.50631 3.46984 1.00906 3.18819L1.00846 3.18926ZM12.5762 0.880723H12.3767C8.95659 0.880723 5.53708 0.880723 2.11696 0.880723C2.04601 0.880723 1.97506 0.880722 1.90533 0.886047C1.41838 0.922251 1.02422 1.28536 1.00421 1.71501C0.979348 2.24849 1.4384 2.64034 2.09392 2.64034C5.53404 2.64087 8.97417 2.64034 12.4143 2.64034H12.5762V0.880723ZM14.7004 6.27245C13.7454 6.27245 12.8054 6.25382 11.8667 6.27884C11.1718 6.29748 10.6224 6.84267 10.6151 7.45547C10.6078 8.10767 11.1997 8.65659 11.9419 8.66404C12.8364 8.67363 13.7308 8.66724 14.6252 8.66724C14.6489 8.66724 14.6725 8.66191 14.7004 8.65819V6.27245Z" fill="black"/>
<path d="M7.64763 11.8462C5.9776 11.8462 4.29665 11.8451 2.63146 11.8425C1.1579 11.8398 0.00270225 10.8171 0.00148944 9.51319C0.000276632 7.21051 0.000276632 4.7529 0.00148944 1.77991C0.00209584 0.783769 0.889264 0.00272121 2.02142 0.00165639C4.90729 -0.000473255 7.84168 5.91568e-05 10.6796 5.91568e-05H12.967C13.3715 5.91568e-05 13.5855 0.189598 13.5855 0.547378C13.5855 1.00419 13.5855 1.46046 13.5855 1.91727V2.56096H13.7086C13.8633 2.56096 14.0149 2.56096 14.1659 2.56096C14.5843 2.56202 14.7959 2.74677 14.7965 3.11041C14.7965 3.63909 14.7965 4.16778 14.7965 4.69646V5.38913H14.842C14.9415 5.38913 15.0373 5.38913 15.1337 5.38913C15.4812 5.39232 15.7061 5.59091 15.7067 5.89492C15.7079 6.89692 15.7079 7.95375 15.7067 9.03615C15.7067 9.34601 15.4824 9.5414 15.1228 9.54513C15.0336 9.5462 14.9445 9.54566 14.8481 9.54513H14.7965V10.1297C14.7965 10.5253 14.7965 10.9209 14.7965 11.3165C14.7959 11.6455 14.5722 11.842 14.1986 11.842L11.4922 11.843C10.2255 11.843 8.93927 11.8441 7.64763 11.8441V11.8462ZM6.93086 0.159783C5.296 0.159783 3.65143 0.159783 2.02142 0.16138C0.99114 0.161912 0.184017 0.873214 0.18341 1.78044C0.181591 4.75343 0.181591 7.21051 0.18341 9.51372C0.184623 10.7281 1.25978 11.6812 2.63146 11.6833C5.58465 11.6881 8.58816 11.687 11.4922 11.686L14.1986 11.6849C14.4739 11.6849 14.614 11.5614 14.6146 11.3186C14.6152 10.923 14.6152 10.528 14.6146 10.1324V9.38754H14.8487C14.9445 9.38754 15.0324 9.38807 15.1203 9.38754C15.3805 9.38434 15.5242 9.26029 15.5248 9.03774C15.526 7.95535 15.526 6.89851 15.5248 5.89652C15.5248 5.68195 15.3775 5.55258 15.1319 5.54992C15.0367 5.54885 14.9408 5.54938 14.8426 5.54992H14.6146V4.69753C14.6146 4.16884 14.6146 3.64016 14.6146 3.11147C14.6146 2.83515 14.4842 2.72228 14.1659 2.72175C14.0149 2.72175 13.8633 2.72175 13.7092 2.72175H13.4036V1.91834C13.4036 1.46206 13.4036 1.00525 13.4036 0.548975C13.4036 0.277446 13.2726 0.161912 12.967 0.161912H10.6796C9.4444 0.16138 8.19097 0.16138 6.93086 0.16138V0.159783ZM8.04664 11.0481C6.2808 11.0481 4.51495 11.0481 2.7491 11.0476C1.8868 11.0476 1.25129 10.6691 1.00569 10.0105C0.947479 9.85393 0.915946 9.69208 0.915946 9.543C0.911701 7.82385 0.911701 6.07647 0.912307 4.3866V3.27386C0.912307 3.26108 0.91352 3.24883 0.915339 3.22754L0.92868 3.04811L1.05906 3.12159C1.49142 3.36596 1.9535 3.36437 2.44348 3.3617C2.48956 3.3617 2.53565 3.3617 2.58113 3.3617C5.32874 3.36117 8.07636 3.36117 10.824 3.36117H13.879V5.54938H13.1216C12.7414 5.54938 12.3612 5.54832 11.981 5.54938C10.8209 5.55258 9.86282 6.34481 9.79854 7.35266C9.73245 8.39459 10.5887 9.28052 11.7469 9.3705C12.1678 9.40298 12.6013 9.39712 13.0216 9.39126C13.212 9.3886 13.4097 9.38594 13.6031 9.38647C13.6431 9.38647 13.6838 9.38647 13.7262 9.38647H13.8784V11.0476H10.8312C9.90284 11.0476 8.97444 11.0476 8.04664 11.0476V11.0481ZM1.09362 3.32497V4.3866C1.09362 6.07647 1.09302 7.82384 1.09726 9.54247C1.09726 9.67504 1.12576 9.81932 1.17791 9.96041C1.39743 10.5498 1.96987 10.8873 2.7485 10.8879C5.44275 10.8884 8.13639 10.8884 10.8306 10.8879H13.6959V9.5462C13.6638 9.5462 13.6322 9.5462 13.6013 9.5462C13.4091 9.54513 13.2132 9.54833 13.0234 9.55046C12.5989 9.55631 12.1605 9.5627 11.7299 9.52916C10.4729 9.43173 9.54446 8.47179 9.61541 7.34361C9.68454 6.25163 10.7227 5.39285 11.9786 5.38913C12.3588 5.38806 12.7396 5.38806 13.1198 5.3886H13.6947V3.51983H10.8215C8.07393 3.51983 5.32632 3.51983 2.5787 3.51983C2.53322 3.51983 2.48774 3.51983 2.44166 3.51983C1.99292 3.52196 1.53084 3.52409 1.0918 3.32284L1.09362 3.32497ZM13.0889 8.74864C12.7075 8.74864 12.3224 8.74758 11.9416 8.74332C11.1526 8.7348 10.5171 8.1566 10.525 7.45382C10.5329 6.78085 11.1338 6.21756 11.8646 6.19839C12.5219 6.18082 13.1932 6.18508 13.842 6.18881C14.1271 6.19041 14.4133 6.192 14.7007 6.192H14.7917V8.72682L14.7134 8.7364C14.7056 8.73746 14.6977 8.73853 14.6904 8.73959C14.6716 8.74279 14.6498 8.74598 14.6261 8.74598C14.3696 8.74598 14.1125 8.74598 13.856 8.74705C13.6031 8.74705 13.3466 8.74811 13.0895 8.74811L13.0889 8.74864ZM12.9979 6.34534C12.6214 6.34534 12.2436 6.34853 11.87 6.35812C11.2351 6.37515 10.7136 6.86763 10.7069 7.45595C10.6997 8.07088 11.2545 8.57667 11.944 8.58413C12.5807 8.59105 13.229 8.58945 13.8554 8.58839C14.107 8.58839 14.3587 8.58732 14.6097 8.58732V6.35226C14.3526 6.35226 14.0961 6.35066 13.8408 6.34907C13.5631 6.34747 13.2811 6.34587 12.9979 6.34587V6.34534ZM7.06912 2.72121C5.41061 2.72121 3.75209 2.72121 2.09358 2.72121C1.73702 2.72121 1.42047 2.61154 1.20277 2.41188C1.00327 2.22927 0.900179 1.98063 0.912914 1.71229C0.934744 1.24377 1.36711 0.846593 1.89711 0.807195C1.96988 0.801871 2.04264 0.801338 2.11662 0.801338C5.25173 0.801338 8.38684 0.801338 11.5213 0.801338H12.6668V2.72175H9.7379C8.84831 2.72175 7.95811 2.72175 7.06852 2.72175L7.06912 2.72121ZM10.6839 0.960529C7.82834 0.960529 4.97278 0.960529 2.11723 0.960529C2.04749 0.960529 1.97897 0.960529 1.91287 0.965853C1.47262 0.998331 1.11363 1.32896 1.09483 1.71868C1.08392 1.94656 1.167 2.14781 1.33436 2.30114C1.5175 2.46885 1.78735 2.56096 2.09358 2.56096C4.64169 2.56149 7.1898 2.56096 9.73851 2.56096H12.4855V0.959997H10.6839V0.960529Z" fill="black"/>
<path d="M11.9771 7.86743C11.7266 7.8669 11.5271 7.69174 11.5247 7.47078C11.5217 7.25463 11.7266 7.07041 11.9722 7.06935C12.2281 7.06775 12.4355 7.2493 12.4337 7.47291C12.4319 7.68854 12.2245 7.86796 11.9777 7.86743H11.9771Z" fill="black"/>
<path d="M11.9783 7.94707H11.9765C11.6751 7.946 11.4368 7.7373 11.4331 7.47162C11.4313 7.34544 11.4871 7.22512 11.5902 7.13301C11.6927 7.04143 11.8279 6.99032 11.9704 6.98926H11.9746C12.122 6.98926 12.2596 7.0393 12.3633 7.13035C12.4676 7.22192 12.5246 7.34384 12.5234 7.47322C12.521 7.73037 12.2718 7.94707 11.9783 7.94707ZM11.9746 7.14898H11.9716C11.8776 7.14951 11.7879 7.18359 11.7199 7.24482C11.6508 7.30658 11.6138 7.38644 11.615 7.47003C11.6175 7.64732 11.7763 7.78681 11.9771 7.78734H11.9783C12.1741 7.78734 12.3403 7.64306 12.3415 7.47215C12.3421 7.3859 12.3045 7.30444 12.2348 7.24322C12.1657 7.18252 12.0729 7.14898 11.9746 7.14898Z" fill="black"/>
</g>
<defs>
<clipPath id="clip0_998_8992">
<rect width="15.7083" height="11.8462" fill="white"/>
</clipPath>
</defs>
</svg>
