<svg width="37" height="34" viewBox="0 0 37 34" fill="none" xmlns="http://www.w3.org/2000/svg">
<path d="M16.4375 21.9766C16.4375 23.7506 14.9624 25.2289 13.1922 25.2289C11.422 25.2289 9.94678 23.7506 9.94678 21.9766C9.94678 20.2027 11.422 18.7244 13.1922 18.7244C14.9624 18.7244 16.4375 20.2027 16.4375 21.9766Z" fill="black"/>
<path d="M16.4375 30.5508C16.4375 32.3248 14.9624 33.8031 13.1922 33.8031C11.422 33.8031 9.94678 32.3248 9.94678 30.5508C9.94678 28.7769 11.422 27.2986 13.1922 27.2986C14.9624 27.2986 16.4375 28.7769 16.4375 30.5508Z" fill="black"/>
<path d="M6.60307 21.9766C6.60307 23.7506 5.1279 25.2289 3.35769 25.2289C1.58748 25.2289 0.112305 23.7506 0.112305 21.9766C0.112305 20.2027 1.58748 18.7244 3.35769 18.7244C5.1279 18.7244 6.60307 20.2027 6.60307 21.9766Z" fill="black"/>
<path d="M6.60307 30.5508C6.60307 32.3248 5.1279 33.8031 3.35769 33.8031C1.58748 33.8031 0.112305 32.3248 0.112305 30.5508C0.112305 28.7769 1.58748 27.2986 3.35769 27.2986C5.1279 27.2986 6.60307 28.7769 6.60307 30.5508Z" fill="black"/>
<path d="M26.1739 21.9766C26.1739 23.7506 24.6987 25.2289 22.9285 25.2289C21.1583 25.2289 19.6831 23.7506 19.6831 21.9766C19.6831 20.2027 21.1583 18.7244 22.9285 18.7244C24.6987 18.7244 26.1739 20.2027 26.1739 21.9766Z" fill="black"/>
<path d="M26.1739 30.5508C26.1739 32.3248 24.6987 33.8031 22.9285 33.8031C21.1583 33.8031 19.6831 32.3248 19.6831 30.5508C19.6831 28.7769 21.1583 27.2986 22.9285 27.2986C24.6987 27.2986 26.1739 28.7769 26.1739 30.5508Z" fill="black"/>
<path d="M36.2051 21.9766C36.2051 23.7506 34.7299 25.2289 32.9597 25.2289C31.1895 25.2289 29.7144 23.7506 29.7144 21.9766C29.7144 20.2027 31.1895 18.7244 32.9597 18.7244C34.7299 18.7244 36.2051 20.2027 36.2051 21.9766Z" fill="black"/>
<path d="M36.2051 30.5508C36.2051 32.3248 34.7299 33.8031 32.9597 33.8031C31.1895 33.8031 29.7144 32.3248 29.7144 30.5508C29.7144 28.7769 31.1895 27.2986 32.9597 27.2986C34.7299 27.2986 36.2051 28.7769 36.2051 30.5508Z" fill="black"/>
<path d="M16.4375 4.23713C16.4375 6.01109 14.9624 7.48939 13.1922 7.48939C11.422 7.48939 9.94678 6.01109 9.94678 4.23713C9.94678 2.46316 11.422 0.984863 13.1922 0.984863C14.9624 0.984863 16.4375 2.46316 16.4375 4.23713Z" fill="black"/>
<path d="M16.4375 12.8113C16.4375 14.5853 14.9624 16.0636 13.1922 16.0636C11.422 16.0636 9.94678 14.5853 9.94678 12.8113C9.94678 11.0374 11.422 9.55908 13.1922 9.55908C14.9624 9.55908 16.4375 11.0374 16.4375 12.8113Z" fill="black"/>
<path d="M6.60307 4.23713C6.60307 6.01109 5.1279 7.48939 3.35769 7.48939C1.58748 7.48939 0.112305 6.01109 0.112305 4.23713C0.112305 2.46316 1.58748 0.984863 3.35769 0.984863C5.1279 0.984863 6.60307 2.46316 6.60307 4.23713Z" fill="black"/>
<path d="M6.60307 12.8113C6.60307 14.5853 5.1279 16.0636 3.35769 16.0636C1.58748 16.0636 0.112305 14.5853 0.112305 12.8113C0.112305 11.0374 1.58748 9.55908 3.35769 9.55908C5.1279 9.55908 6.60307 11.0374 6.60307 12.8113Z" fill="black"/>
<path d="M26.1739 4.23713C26.1739 6.01109 24.6987 7.48939 22.9285 7.48939C21.1583 7.48939 19.6831 6.01109 19.6831 4.23713C19.6831 2.46316 21.1583 0.984863 22.9285 0.984863C24.6987 0.984863 26.1739 2.46316 26.1739 4.23713Z" fill="black"/>
<path d="M26.1739 12.8113C26.1739 14.5853 24.6987 16.0636 22.9285 16.0636C21.1583 16.0636 19.6831 14.5853 19.6831 12.8113C19.6831 11.0374 21.1583 9.55908 22.9285 9.55908C24.6987 9.55908 26.1739 11.0374 26.1739 12.8113Z" fill="black"/>
<path d="M36.2051 4.23713C36.2051 6.01109 34.7299 7.48939 32.9597 7.48939C31.1895 7.48939 29.7144 6.01109 29.7144 4.23713C29.7144 2.46316 31.1895 0.984863 32.9597 0.984863C34.7299 0.984863 36.2051 2.46316 36.2051 4.23713Z" fill="black"/>
<path d="M36.2051 12.8113C36.2051 14.5853 34.7299 16.0636 32.9597 16.0636C31.1895 16.0636 29.7144 14.5853 29.7144 12.8113C29.7144 11.0374 31.1895 9.55908 32.9597 9.55908C34.7299 9.55908 36.2051 11.0374 36.2051 12.8113Z" fill="black"/>
</svg>
