<svg width="85" height="32" viewBox="0 0 85 32" fill="none" xmlns="http://www.w3.org/2000/svg">
<path d="M6.3945 25.7189L6.78541 24.7276L1.31266 10.7828C0.986899 9.98973 0.791444 9.39493 0.791444 9.06448C0.791444 8.66795 0.856596 8.3375 1.05205 8.00706C1.24751 7.67661 1.50811 7.41226 1.83387 7.21399C2.15963 7.01572 2.55054 6.94963 2.8763 6.94963C3.52782 6.94963 3.98388 7.1479 4.30964 7.54443C4.6354 7.94097 4.89601 8.53577 5.15661 9.32884L8.93542 20.3657L12.4536 10.1219C12.7142 9.26275 12.9748 8.66795 13.2354 8.13924C13.496 7.67661 13.6915 7.34617 13.9521 7.1479C14.2127 6.94963 14.5385 6.88354 14.9945 6.88354C15.3203 6.88354 15.646 6.94963 15.9718 7.1479C16.2976 7.34617 16.493 7.54444 16.6885 7.87488C16.8839 8.20533 16.9491 8.46968 16.9491 8.86621C16.9491 9.06448 16.8188 9.39493 16.7536 9.79146C16.6885 10.188 16.5582 10.5845 16.4279 10.9811L10.6294 26.3137C10.1081 27.6355 9.65208 28.6929 9.19602 29.486C8.73996 30.2791 8.08844 30.8739 7.30662 31.2704C6.5248 31.6669 5.48237 31.8652 4.11418 31.8652C2.746 31.8652 1.83387 31.733 1.18235 31.4026C0.530837 31.1382 0.205078 30.6095 0.205078 29.8164C0.205078 29.2877 0.335382 28.8912 0.661141 28.6268C0.986899 28.3625 1.44296 28.2303 2.02933 28.2303C2.28993 28.2303 2.48539 28.2303 2.746 28.2964C3.0066 28.3625 3.26721 28.3625 3.46267 28.3625C3.98388 28.3625 4.37479 28.2964 4.6354 28.0981C4.96116 27.9659 5.15661 27.7016 5.41722 27.305C5.67783 26.9085 5.93843 26.3798 6.19904 25.6528" fill="#DE000E"/>
<path d="M23.9856 9.39485V9.92357C24.7675 8.86614 25.6144 8.13916 26.5265 7.61045C27.4387 7.14783 28.4811 6.88347 29.719 6.88347C30.9569 6.88347 31.9341 7.14783 32.8463 7.67654C33.7584 8.20525 34.4751 8.93223 34.9311 9.85748C35.2569 10.3862 35.3872 10.981 35.5175 11.6419C35.6478 12.3028 35.6478 13.0958 35.6478 14.0872V22.4144C35.6478 23.3396 35.4523 24.0005 35.0614 24.4631C34.6705 24.9258 34.1493 25.124 33.4978 25.124C32.8463 25.124 32.3251 24.8597 31.869 24.3971C31.4781 23.9344 31.2175 23.2735 31.2175 22.3483V14.8802C31.2175 13.4263 31.022 12.3028 30.6311 11.5097C30.2402 10.7166 29.3932 10.3201 28.2205 10.3201C27.4387 10.3201 26.722 10.5845 26.0705 11.0471C25.419 11.5097 24.9629 12.1706 24.6371 13.0297C24.4417 13.6906 24.3114 14.9463 24.3114 16.7968V22.4144C24.3114 23.3396 24.1159 24.0005 23.6599 24.4631C23.269 24.9258 22.6826 25.124 22.0311 25.124C21.3796 25.124 20.8583 24.8597 20.4674 24.3971C20.0765 23.9344 19.8159 23.2735 19.8159 22.3483V9.39485C19.8159 8.5357 20.0114 7.87481 20.4023 7.47827C20.7932 7.08174 21.2493 6.81738 21.9008 6.81738C22.2917 6.81738 22.6174 6.88347 22.9432 7.08174C23.269 7.28001 23.5296 7.54436 23.725 7.9409C23.9205 8.33743 23.9856 8.80005 23.9856 9.32876" fill="black"/>
<path d="M53.8898 19.3082C53.8898 20.5639 53.5641 21.6213 52.9777 22.4805C52.3913 23.3396 51.4792 24.0666 50.3716 24.4631C49.2641 24.8597 47.8307 25.124 46.1368 25.124C44.4428 25.124 43.2049 24.8597 42.0322 24.3971C40.9246 23.9344 40.0777 23.2735 39.4913 22.5466C38.9049 21.8196 38.7095 21.0926 38.7095 20.2995C38.7095 19.8369 38.9049 19.3743 39.2307 19.0438C39.5564 18.7134 40.0125 18.5151 40.5337 18.5151C40.9898 18.5151 41.3807 18.6473 41.5762 18.8456C41.8368 19.1099 42.0322 19.3743 42.2928 19.8369C42.7489 20.63 43.2701 21.2248 43.9216 21.6213C44.5731 22.0179 45.4201 22.2161 46.5277 22.2161C47.4398 22.2161 48.1565 22.0179 48.6777 21.6213C49.2641 21.2248 49.5247 20.7622 49.5247 20.2335C49.5247 19.4404 49.2641 18.8456 48.6125 18.5151C48.0262 18.1186 47.0489 17.7882 45.6807 17.4577C44.1822 17.0612 42.9443 16.6646 41.9671 16.2681C40.9898 15.8716 40.2731 15.2768 39.6867 14.6159C39.1004 13.8889 38.8398 13.0958 38.8398 12.0384C38.8398 11.1132 39.1004 10.3201 39.6216 9.46094C40.1428 8.66787 40.9246 8.00698 41.9671 7.54436C43.0095 7.08174 44.2474 6.81738 45.6807 6.81738C46.8534 6.81738 47.8307 6.94956 48.7428 7.14783C49.655 7.41218 50.4368 7.74263 51.0232 8.13916C51.6095 8.5357 52.0656 8.99832 52.3913 9.46094C52.7171 9.92357 52.8474 10.4523 52.8474 10.9149C52.8474 11.4436 52.6519 11.8401 52.3262 12.1706C52.0004 12.501 51.4792 12.6332 50.8929 12.6332C50.4368 12.6332 50.0459 12.501 49.7201 12.2367C49.3944 11.9723 49.0686 11.5758 48.6125 11.0471C48.2868 10.5845 47.8959 10.254 47.4398 9.98965C46.9837 9.7253 46.3974 9.59312 45.6156 9.59312C44.8337 9.59312 44.1171 9.79139 43.5959 10.1218C43.0746 10.4523 42.814 10.9149 42.814 11.3775C42.814 11.8401 43.0095 12.2367 43.4004 12.5671C43.7913 12.8315 44.3125 13.0958 44.964 13.2941C45.6156 13.4924 46.5277 13.7567 47.7004 14.0211C49.0686 14.3515 50.1762 14.7481 51.0883 15.2107C51.9353 15.6733 52.5868 16.2681 53.0429 16.8629C53.4989 17.4577 53.6944 18.2508 53.6944 19.0438" fill="black"/>
<path d="M57.6042 7.27995H58.0602V4.5703C58.0602 3.84332 58.0602 3.3146 58.0602 2.85198C58.0602 2.45545 58.1905 2.05891 58.386 1.79456C58.5815 1.46411 58.8421 1.26585 59.1027 1.06758C59.4284 0.869312 59.8193 0.803223 60.2102 0.803223C60.7966 0.803223 61.2527 1.00149 61.7087 1.46411C62.0345 1.72847 62.23 2.125 62.2951 2.52154C62.3603 2.91807 62.4254 3.51287 62.4254 4.23985V7.27995H64.0542C64.7057 7.27995 65.1618 7.41212 65.4875 7.74257C65.8133 8.07301 66.0088 8.40346 66.0088 8.93217C66.0088 9.52697 65.7482 9.92351 65.2921 10.1879C64.836 10.4522 64.1845 10.5844 63.2724 10.5844H62.4254V18.8455C62.4254 19.5725 62.4254 20.1012 62.4906 20.4317C62.5557 20.7621 62.686 21.0925 62.8815 21.3569C63.0769 21.6213 63.4027 21.6874 63.9239 21.6874C64.1845 21.6874 64.5103 21.6874 64.9663 21.5552C65.4224 21.423 65.7481 21.423 66.0088 21.423C66.3345 21.423 66.6603 21.5552 66.986 21.8856C67.2466 22.15 67.4421 22.5465 67.4421 22.943C67.4421 23.67 67.0512 24.1987 66.2694 24.5953C65.4875 24.9918 64.38 25.1901 62.9466 25.1901C61.5784 25.1901 60.536 24.9257 59.8193 24.4631C59.1027 24.0005 58.6466 23.3396 58.4512 22.4804C58.2557 21.6213 58.1254 20.5638 58.1254 19.176V10.5844H57.539C56.8875 10.5844 56.4315 10.4522 56.1057 10.1218C55.7799 9.79133 55.5845 9.39479 55.5845 8.93217C55.5845 8.46955 55.7799 8.07301 56.1057 7.74257C56.4315 7.47821 56.9527 7.27995 57.6693 7.27995" fill="black"/>
<path d="M79.951 22.6127C78.9085 23.4719 77.8661 24.0667 76.8237 24.5293C75.8464 24.9258 74.6737 25.1902 73.4358 25.1902C72.3282 25.1902 71.2858 24.9258 70.4388 24.5293C69.5918 24.0667 68.9403 23.4719 68.4842 22.6788C68.0282 21.8857 67.7676 21.0266 67.7676 20.1674C67.7676 18.9117 68.1585 17.8543 68.9403 16.9952C69.7221 16.136 70.7646 15.5412 72.1327 15.2768C72.3934 15.2768 73.11 15.0786 74.2176 14.8142C75.3252 14.5499 76.3025 14.3516 77.0843 14.1533C77.8661 13.9551 78.7131 13.6907 79.6903 13.4264C79.6903 12.2368 79.4297 11.3776 78.9737 10.8489C78.5828 10.3202 77.6706 9.98973 76.3676 9.98973C75.26 9.98973 74.4131 10.1219 73.8267 10.4524C73.2403 10.7828 72.7843 11.2454 72.3934 11.9063C72.0024 12.5672 71.6767 12.9637 71.5464 13.162C71.3509 13.3603 71.0252 13.4924 70.4388 13.4924C69.9176 13.4924 69.5267 13.3603 69.1358 13.0298C68.7449 12.6994 68.6145 12.3028 68.6145 11.7741C68.6145 10.9811 68.8752 10.188 69.4615 9.46102C69.9827 8.73404 70.8949 8.07315 72.0676 7.61052C73.2403 7.1479 74.6737 6.88354 76.4328 6.88354C78.3873 6.88354 79.8858 7.1479 80.9934 7.61052C82.101 8.07315 82.8828 8.80013 83.3388 9.79146C83.7949 10.7828 84.0555 12.1707 84.0555 13.8229C84.0555 14.8803 84.0555 15.7395 84.0555 16.4664C84.0555 17.1934 84.0555 18.0526 84.0555 18.9117C84.0555 19.7709 84.1858 20.6301 84.4464 21.5553C84.707 22.4806 84.8373 23.0754 84.8373 23.3397C84.8373 23.8023 84.6419 24.1989 84.1858 24.5954C83.7949 24.9919 83.2737 25.1902 82.7525 25.1902C82.2964 25.1902 81.8404 24.9919 81.3843 24.5293C80.9282 24.0667 80.4722 23.4719 79.951 22.6127ZM79.6252 16.136C78.9737 16.4004 78.0616 16.6647 76.8237 16.9291C75.5858 17.1934 74.7388 17.3917 74.2828 17.5239C73.8267 17.6561 73.3706 17.9204 72.9146 18.2509C72.4585 18.6474 72.263 19.11 72.263 19.7709C72.263 20.4318 72.5237 21.0266 73.0449 21.4892C73.5661 21.9518 74.2176 22.2162 75.0646 22.2162C75.9115 22.2162 76.7585 22.0179 77.4752 21.6214C78.1919 21.2249 78.7782 20.7622 79.104 20.1013C79.4949 19.4405 79.6903 18.3169 79.6903 16.7308V16.0699L79.6252 16.136Z" fill="black"/>
</svg>
