<svg width="30" height="30" viewBox="0 0 30 30" fill="none" xmlns="http://www.w3.org/2000/svg">
<rect x="29.5" y="29.5" width="29" height="29" transform="rotate(-180 29.5 29.5)" stroke="black"/>
<g clip-path="url(#clip0_998_3874)">
<path d="M13.0131 15.0035C13.6117 15.5959 14.1982 16.1753 14.7846 16.7547C15.8833 17.8394 16.9843 18.922 18.0808 20.0088C18.5023 20.427 18.4393 21.044 17.9557 21.3182C17.6039 21.5181 17.2155 21.4493 16.8814 21.1204C15.859 20.1131 14.8388 19.1036 13.8175 18.0963C12.9966 17.2858 12.1744 16.4774 11.3534 15.6668C10.9042 15.2228 10.9042 14.7789 11.3546 14.3327C13.1968 12.5149 15.0402 10.697 16.8847 8.88135C17.2697 8.50294 17.761 8.47177 18.1106 8.79857C18.4625 9.12753 18.447 9.63601 18.0631 10.0155C16.4543 11.6044 14.8421 13.1911 13.2322 14.7789C13.1625 14.8477 13.0961 14.9197 13.0131 15.0057L13.0131 15.0035Z" fill="black"/>
</g>
<defs>
<clipPath id="clip0_998_3874">
<rect width="7.34694" height="12.8571" fill="white" transform="translate(18.3667 21.4292) rotate(-180)"/>
</clipPath>
</defs>
</svg>
