<svg width="19" height="18" viewBox="0 0 19 18" fill="none" xmlns="http://www.w3.org/2000/svg">
<g clip-path="url(#clip0_1148_5073)">
<path d="M8.06605 5.7478H7.83601C6.723 5.7478 5.60999 5.7478 4.49698 5.7478C3.87761 5.7478 3.58614 6.00968 3.58614 6.5665C3.58614 8.04122 3.59042 9.51528 3.58399 10.99C3.57971 11.8781 2.78888 12.5529 1.81803 12.5153C0.972917 12.4822 0.242101 11.8405 0.234957 11.0717C0.21924 9.46212 0.194237 7.85193 0.241386 6.24369C0.294251 4.41699 1.94519 2.88394 3.94833 2.72383C4.13764 2.70892 4.32838 2.70114 4.51841 2.70114C5.62571 2.6992 6.733 2.69985 7.83959 2.69985H8.02104C7.92174 2.48269 7.79315 2.27915 7.73457 2.06005C7.56026 1.40858 7.88674 0.743504 8.51754 0.408372C9.15477 0.0693504 9.95845 0.136766 10.5014 0.607377C11.125 1.14864 11.7266 1.71065 12.3374 2.26424C12.6488 2.54686 12.9617 2.82819 13.2711 3.11276C13.9833 3.76877 13.984 4.68665 13.2696 5.33812C12.3709 6.15747 11.4722 6.97618 10.5664 7.78906C10.0849 8.22077 9.50339 8.35755 8.8583 8.17216C8.21964 7.98871 7.83744 7.57579 7.71457 6.97878C7.63599 6.59762 7.72386 6.2385 7.95174 5.90921C7.98246 5.86448 8.01461 5.82105 8.06676 5.7478H8.06605ZM9.30908 5.22792C9.03618 5.52286 8.79472 5.78215 8.5554 6.04339C8.14463 6.49066 8.16963 7.08249 8.61327 7.45781C9.05547 7.83184 9.72056 7.81758 10.1721 7.41179C11.0765 6.59827 11.9773 5.78086 12.8753 4.96085C13.3546 4.5233 13.3504 3.92758 12.8731 3.48938C12.5052 3.15101 12.133 2.81653 11.763 2.48075C11.2201 1.98809 10.6814 1.49155 10.132 1.00474C9.82629 0.733781 9.45124 0.652104 9.04332 0.766192C8.63684 0.880279 8.37752 1.13633 8.28608 1.51554C8.20892 1.83641 8.29608 2.12552 8.52682 2.37833C8.77543 2.65058 9.02689 2.92089 9.30265 3.22037C9.1962 3.22037 9.13262 3.22037 9.06904 3.22037C7.54526 3.22037 6.02148 3.21972 4.49769 3.22167C4.32553 3.22167 4.15264 3.22944 3.98119 3.24435C2.25738 3.39345 0.845042 4.71971 0.810751 6.28647C0.775746 7.86814 0.795749 9.45175 0.805036 11.0341C0.807894 11.5714 1.31654 11.9993 1.90876 11.9986C2.52813 11.998 3.01177 11.5501 3.0132 10.9667C3.01606 9.49778 3.01391 8.02825 3.01391 6.55937C3.01391 5.72835 3.56471 5.22922 4.48126 5.22922C6.01719 5.22922 7.5524 5.22922 9.08833 5.22922C9.1462 5.22922 9.20406 5.22922 9.30979 5.22922L9.30908 5.22792Z" fill="black"/>
<path d="M1.89666 12.549C1.87023 12.549 1.8438 12.549 1.81665 12.5477C0.932244 12.5133 0.207143 11.8515 0.199285 11.0723L0.19357 10.5382C0.178568 9.13022 0.163566 7.67431 0.205 6.24303C0.257865 4.41503 1.90095 2.85541 3.94481 2.69141C4.13055 2.6765 4.32343 2.66872 4.51774 2.66872C5.34786 2.66742 6.17869 2.66742 7.0088 2.66742H7.96608C7.94108 2.61491 7.91393 2.56241 7.88821 2.5112C7.81534 2.36859 7.74033 2.22079 7.6989 2.06781C7.52173 1.40662 7.8432 0.728581 8.4983 0.380485C9.16267 0.0272023 9.97707 0.108879 10.525 0.584027C10.9651 0.965831 11.4008 1.36449 11.8223 1.74953C12.0016 1.91354 12.181 2.07754 12.3617 2.24089L12.5696 2.42887C12.8125 2.64862 13.0546 2.86772 13.2954 3.08941C14.0241 3.76098 14.0233 4.69507 13.294 5.36015C12.4367 6.1419 11.5216 6.97552 10.5907 7.81108C10.0985 8.25317 9.49558 8.38865 8.84692 8.20196C8.20897 8.01851 7.80534 7.59717 7.6789 6.98395C7.60103 6.60474 7.68175 6.23719 7.92036 5.89104C7.94108 5.86122 7.96179 5.83205 7.98894 5.79446L7.99966 5.7789H4.49631C3.89908 5.7789 3.62119 6.02911 3.62119 6.56519C3.62119 7.00988 3.62119 7.45456 3.6219 7.89859C3.62262 8.91112 3.62405 9.95865 3.61905 10.9887C3.6169 11.4243 3.42973 11.8262 3.09112 12.1185C2.76964 12.3966 2.34816 12.5477 1.89595 12.5477L1.89666 12.549ZM6.18012 2.73224C5.62647 2.73224 5.07282 2.73224 4.51846 2.73354C4.32629 2.73354 4.13555 2.74132 3.95124 2.75623C1.9431 2.91699 0.329303 4.44939 0.277153 6.24497C0.235719 7.67495 0.250721 9.13022 0.265723 10.5375L0.271438 11.0717C0.278582 11.8165 0.973679 12.4498 1.82022 12.4828C2.28243 12.501 2.71749 12.3558 3.04325 12.0732C3.36758 11.7925 3.54689 11.4074 3.54904 10.99C3.55404 9.95995 3.55261 8.91306 3.55189 7.90054C3.55189 7.45585 3.55118 7.01117 3.55118 6.56714C3.55118 5.99476 3.86051 5.71602 4.49774 5.71602H6.83521H8.13253L8.04966 5.8314C8.02323 5.86835 8.0018 5.89752 7.9818 5.92669C7.75319 6.25858 7.67461 6.61057 7.74962 6.97358C7.87249 7.57059 8.24969 7.96406 8.86906 8.14168C9.49915 8.32253 10.0621 8.19678 10.5414 7.76635C11.4723 6.93079 12.3874 6.09718 13.2447 5.31542C13.9448 4.67627 13.9455 3.78042 13.2461 3.13544C13.0061 2.91375 12.7632 2.69465 12.521 2.4749L12.3131 2.28691C12.1331 2.12356 11.9531 1.95956 11.7738 1.79556C11.3523 1.41051 10.9172 1.01186 10.4779 0.631347C9.9535 0.176294 9.17339 0.0985069 8.53687 0.43688C7.90893 0.770716 7.60103 1.42024 7.77105 2.0529C7.81034 2.1994 7.88107 2.33812 7.95536 2.48397C7.98894 2.55009 8.02394 2.6188 8.05538 2.68752L8.07609 2.73224H7.01095C6.73448 2.73224 6.45801 2.73224 6.18155 2.73224H6.18012ZM1.90738 12.0297C1.28301 12.0297 0.772222 11.5831 0.769364 11.0328C0.767936 10.7592 0.765793 10.485 0.764364 10.2115C0.755791 8.92408 0.746504 7.59328 0.775794 6.28451C0.810799 4.71322 2.21742 3.36297 3.97838 3.21063C4.15055 3.19572 4.32557 3.18794 4.49845 3.18794C5.67147 3.18665 6.84521 3.18665 8.01823 3.18665H9.22625L9.02337 2.96755C8.84263 2.77178 8.67046 2.5851 8.49901 2.39776C8.25612 2.13199 8.17254 1.83251 8.25112 1.50775C8.34542 1.11881 8.61545 0.851096 9.03266 0.734415C9.45343 0.616438 9.84205 0.702004 10.1564 0.98074C10.5472 1.32689 10.9393 1.68406 11.318 2.02957C11.4744 2.17218 11.6309 2.31479 11.7873 2.45675L12.1024 2.74197C12.3681 2.98246 12.6339 3.22295 12.8975 3.46538C13.3933 3.92044 13.394 4.53042 12.8989 4.98223C11.9745 5.82687 11.0651 6.65141 10.1957 7.43382C9.73561 7.84738 9.0448 7.86748 8.58759 7.48114C8.1311 7.09479 8.10538 6.48093 8.52687 6.02198C8.69046 5.84437 8.85406 5.66676 9.02837 5.47877L9.23125 5.25967H7.77034C6.67304 5.25967 5.57646 5.25967 4.47917 5.25967C3.58261 5.25967 3.04754 5.74519 3.04754 6.55742V7.94915C3.04754 8.95455 3.04825 9.9593 3.04682 10.9647C3.0454 11.5611 2.54533 12.0284 1.90667 12.0291H1.90524L1.90738 12.0297ZM6.96665 3.25212C6.14368 3.25212 5.32071 3.25212 4.49774 3.25342C4.327 3.25342 4.15483 3.26119 3.98481 3.2761C2.25957 3.4252 0.880809 4.74822 0.846518 6.28646C0.817228 7.59393 0.826515 8.92473 0.835088 10.2115C0.837231 10.4857 0.83866 10.7592 0.840089 11.0328C0.842946 11.5468 1.32158 11.9649 1.90667 11.9649H1.90809C2.50603 11.9649 2.9761 11.5254 2.97681 10.9653C2.97896 9.95995 2.97824 8.9552 2.97824 7.9498V6.55806C2.97824 5.705 3.53975 5.1955 4.48131 5.1955C5.57789 5.1955 6.67519 5.1955 7.77248 5.1955H9.38628L9.08481 5.5209C8.9105 5.70889 8.7469 5.88586 8.58331 6.06412C8.18682 6.49583 8.2104 7.07211 8.63832 7.43446C9.06695 7.79682 9.71561 7.77737 10.1478 7.38909C11.0172 6.60733 11.9266 5.78214 12.8503 4.93815C13.3154 4.51356 13.3147 3.94053 12.8482 3.51271C12.5846 3.27027 12.3188 3.02978 12.0531 2.78929L11.738 2.50342C11.5816 2.36146 11.4251 2.21885 11.268 2.07624C10.8893 1.73074 10.4971 1.37421 10.1071 1.02806C9.81205 0.766826 9.44771 0.687095 9.05409 0.797293C8.65689 0.908788 8.41043 1.15252 8.32113 1.52266C8.24755 1.82667 8.32613 2.108 8.55402 2.35757C8.72476 2.54491 8.89764 2.73095 9.07838 2.92671L9.37913 3.25277H8.01823C7.66747 3.25277 7.31742 3.25277 6.96665 3.25277V3.25212Z" fill="black"/>
<path d="M1.89673 12.6786C1.86815 12.6786 1.83957 12.6786 1.81029 12.6767C0.851581 12.6391 0.0643282 11.9195 0.0557556 11.0729L0.0500405 10.5388C0.0350384 9.12957 0.0200364 7.67236 0.0621851 6.23914C0.117193 4.34632 1.81671 2.7316 3.93201 2.56176C4.12204 2.54685 4.31921 2.53843 4.5178 2.53843C5.34792 2.53713 6.17875 2.53713 7.00958 2.53713H7.7454C7.67396 2.39776 7.60252 2.25321 7.56108 2.09763C7.36891 1.3807 7.71682 0.64561 8.42692 0.267696C9.14702 -0.115405 10.03 -0.0259501 10.6244 0.489388C11.0659 0.872489 11.5023 1.27115 11.9245 1.65749C12.1039 1.82149 12.2832 1.98549 12.4632 2.14819L12.6711 2.33618C12.914 2.55593 13.1569 2.77568 13.3976 2.99737C14.1849 3.72273 14.1841 4.73137 13.3955 5.4509C12.5382 6.2333 11.6231 7.06627 10.6915 7.90248C10.1586 8.38087 9.50635 8.52672 8.80411 8.32512C8.1133 8.12677 7.67539 7.67042 7.53822 7.00728C7.45964 6.62678 7.52894 6.25729 7.74254 5.90854H6.83384H4.49637C3.9763 5.90854 3.76413 6.09912 3.76413 6.5652C3.76413 7.00988 3.76413 7.45391 3.76484 7.89859C3.76556 8.91177 3.76699 9.95865 3.76198 10.9893C3.75984 11.4606 3.55696 11.8955 3.18976 12.2125C2.84186 12.514 2.38537 12.6773 1.89601 12.6773L1.89673 12.6786ZM6.17803 2.86189C5.6251 2.86189 5.07145 2.86189 4.51852 2.86319C4.32992 2.86319 4.14347 2.87096 3.96344 2.88523C2.02603 3.04015 0.469384 4.51745 0.419378 6.24821C0.377943 7.6756 0.392945 9.13022 0.407947 10.5362L0.413662 11.071C0.420092 11.7367 1.06732 12.324 1.826 12.3538C2.24963 12.37 2.64683 12.2378 2.94401 11.9798C3.23977 11.7238 3.40408 11.3718 3.40551 10.9893C3.41051 9.95995 3.40908 8.91306 3.40836 7.90054C3.40836 7.45586 3.40765 7.01117 3.40765 6.56649C3.40765 5.91568 3.77413 5.58573 4.49709 5.58573H6.83455H8.39477L8.16831 5.90206C8.14188 5.93836 8.12188 5.96688 8.10187 5.99541C7.89256 6.29878 7.82112 6.61965 7.88899 6.94959C8.00186 7.49605 8.34548 7.85581 8.91127 8.01787C9.48707 8.18316 10.0014 8.06778 10.4401 7.67431C11.3709 6.83875 12.2853 6.00578 13.1419 5.22402C13.7834 4.63867 13.7841 3.81737 13.1426 3.22684C12.9025 3.0058 12.6604 2.7867 12.4182 2.5676L12.2103 2.37961C12.0296 2.21626 11.8503 2.05161 11.6702 1.88761C11.2495 1.50321 10.8151 1.1052 10.3772 0.725342C9.89927 0.311127 9.18774 0.239822 8.60694 0.549025C8.03401 0.85369 7.75254 1.44617 7.90756 2.02244C7.94328 2.15662 8.01115 2.28951 8.08259 2.42952C8.11688 2.49694 8.15259 2.5663 8.18546 2.6376L8.28833 2.86189H7.00886C6.73168 2.86189 6.4545 2.86189 6.17803 2.86189ZM1.90744 12.1594C1.20449 12.1594 0.630121 11.6544 0.626549 11.0334C0.625121 10.7599 0.622977 10.4857 0.621549 10.2121C0.612976 8.92408 0.603689 7.59198 0.632979 6.28192C0.669412 4.6458 2.13319 3.24045 3.96487 3.08164C4.14132 3.06608 4.32135 3.0583 4.49852 3.0583C5.67225 3.05701 6.84527 3.05701 8.019 3.05701H8.92127L8.91556 3.05052C8.73482 2.85476 8.56194 2.66807 8.39048 2.48073C8.12188 2.18644 8.02615 1.84029 8.1133 1.47988C8.21903 1.04232 8.52265 0.741548 8.992 0.609958C9.46563 0.477072 9.90355 0.573009 10.2579 0.887398C10.6494 1.2342 11.0416 1.59202 11.4209 1.93752C11.5774 2.08013 11.7338 2.22274 11.8903 2.3647L12.2053 2.64992C12.4711 2.89041 12.7375 3.13155 13.0018 3.37399C13.5483 3.87636 13.5491 4.57515 13.0033 5.07363C12.0789 5.91827 11.1687 6.74346 10.2993 7.52586C9.78425 7.98934 9.007 8.01074 8.49336 7.57578C7.97971 7.14082 7.949 6.4524 8.42049 5.93901C8.58408 5.76075 8.74839 5.58378 8.9227 5.39515L8.92842 5.38932H7.77397C6.67739 5.38932 5.58009 5.38932 4.48351 5.38932C3.66483 5.38932 3.19476 5.8152 3.19476 6.55742V7.94915C3.19476 8.95455 3.19548 9.95995 3.19405 10.9647C3.19262 11.6337 2.62968 12.1581 1.91101 12.1587H1.90958L1.90744 12.1594ZM6.96672 3.38177C6.14374 3.38177 5.32077 3.38177 4.4978 3.38306C4.33206 3.38306 4.16347 3.39084 3.99773 3.4051C2.34322 3.54836 1.0216 4.81499 0.988742 6.28905C0.959453 7.59522 0.96874 8.92473 0.977312 10.2108C0.979455 10.485 0.980884 10.7586 0.982313 11.0328C0.984456 11.4684 1.40737 11.8359 1.90601 11.8359H1.90744C2.43466 11.8359 2.83257 11.4612 2.83328 10.9653C2.83543 9.95995 2.83471 8.9552 2.83471 7.9498V6.55807C2.83471 5.63823 3.46552 5.0665 4.48066 5.06585C5.57795 5.06585 6.67453 5.06585 7.77183 5.06585H9.69209L9.19417 5.60453C9.01986 5.79251 8.85626 5.96948 8.69338 6.14709C8.34191 6.53019 8.35905 7.0209 8.73553 7.33982C9.11273 7.65875 9.66423 7.64125 10.0464 7.29704C10.9158 6.51528 11.8245 5.69074 12.7482 4.84675C13.1597 4.47078 13.159 3.98267 12.7461 3.60346C12.4825 3.36167 12.2174 3.12118 11.9517 2.88069L11.6367 2.59482C11.4795 2.45221 11.323 2.3096 11.1666 2.16699C10.788 1.82214 10.3965 1.46561 10.0071 1.12011C9.74853 0.890639 9.44135 0.823872 9.0963 0.920457C8.75196 1.01704 8.53836 1.22836 8.46049 1.54988C8.3962 1.81695 8.46264 2.05355 8.66409 2.2746C8.83483 2.46194 9.007 2.64798 9.18774 2.84309L9.68495 3.38177H8.01758C7.66753 3.38177 7.31676 3.38177 6.96672 3.38177Z" fill="black"/>
<path d="M1.8967 12.711C1.86741 12.711 1.83812 12.711 1.80883 12.7091C0.830834 12.6708 0.0285797 11.937 0.0207214 11.073L0.0150064 10.5388C4.26642e-06 9.13022 -0.0149978 7.67301 0.0271509 6.23785C0.0828729 4.32882 1.79668 2.69984 3.92912 2.52935C4.11986 2.5138 4.31775 2.50602 4.51778 2.50602C5.31932 2.50472 6.12157 2.50472 6.92311 2.50472H7.68893C7.62321 2.37378 7.56248 2.24349 7.52605 2.10541C7.33031 1.37422 7.68464 0.624869 8.40903 0.239824C9.1427 -0.150407 10.0435 -0.0596558 10.6493 0.466054C11.0908 0.848507 11.5266 1.24781 11.9488 1.63351C12.1295 1.7988 12.3089 1.9628 12.4889 2.12551L12.6968 2.31349C12.9397 2.53324 13.1833 2.75299 13.424 2.97533C14.2256 3.71431 14.2248 4.74174 13.4219 5.47424C12.5625 6.25794 11.6459 7.09285 10.7172 7.92647C10.1743 8.41329 9.50918 8.56238 8.79408 8.35689C8.0897 8.15464 7.64321 7.68987 7.50391 7.01377C7.42747 6.64299 7.48819 6.28257 7.68393 5.94161H6.83524H4.49777C3.99627 5.94161 3.80125 6.11663 3.80125 6.56585C3.80125 6.98071 3.80125 7.39557 3.80125 7.81044V7.89924C3.80196 8.91372 3.80339 9.9606 3.79839 10.99C3.79625 11.4703 3.58907 11.9131 3.21545 12.2365C2.86255 12.5418 2.39462 12.7104 1.8967 12.7104V12.711ZM6.18658 2.57019C5.63079 2.57019 5.07428 2.57019 4.51849 2.57149C4.3206 2.57149 4.12486 2.57991 3.93627 2.59482C1.83883 2.76271 0.152883 4.36383 0.0985894 6.24044C0.0571551 7.67431 0.0721572 9.13087 0.0864449 10.5388L0.0921599 11.073C0.100018 11.9027 0.871554 12.6079 1.8124 12.6449C2.32318 12.6643 2.80682 12.5016 3.16616 12.1905C3.52621 11.8793 3.72552 11.4528 3.72695 10.9906C3.73195 9.96125 3.73052 8.91436 3.72981 7.90249V7.81173C3.72981 7.39687 3.72909 6.98201 3.72909 6.56714C3.72909 6.08422 3.95913 5.87808 4.49706 5.87808H6.83453H7.80395L7.77466 5.92605C7.56463 6.26831 7.49748 6.63067 7.57391 7.0034C7.70822 7.65422 8.13756 8.10149 8.81552 8.29661C9.50418 8.49431 10.1443 8.35106 10.6672 7.88174C11.5959 7.04877 12.5125 6.21386 13.3711 5.43016C14.1448 4.72424 14.1455 3.7344 13.3733 3.02265C13.1325 2.80096 12.8897 2.58121 12.6468 2.36146L12.4389 2.17348C12.2589 2.01012 12.0795 1.84612 11.9002 1.68212C11.4773 1.29513 11.0415 0.896475 10.6008 0.514671C10.0178 0.009056 9.15199 -0.0784543 8.44618 0.297516C7.74965 0.667652 7.40818 1.38848 7.59678 2.0918C7.63678 2.24024 7.70536 2.38156 7.77894 2.52546L7.80252 2.57149H6.92525C6.6795 2.57149 6.43376 2.57149 6.18801 2.57149L6.18658 2.57019ZM1.89527 12.3869C1.87169 12.3869 1.84812 12.3869 1.82383 12.3856C1.04658 12.3551 0.383629 11.7529 0.3772 11.0704L0.371484 10.5362C0.357197 9.12828 0.34148 7.67431 0.382915 6.24692C0.433636 4.49996 2.00457 3.00904 3.95984 2.85282C4.14058 2.83856 4.32846 2.83078 4.51778 2.83078C5.07071 2.82948 5.62436 2.82948 6.17729 2.82948H8.23401L8.15185 2.65057C8.11899 2.57862 8.08256 2.50666 8.0497 2.44314C7.97754 2.30118 7.90896 2.167 7.87181 2.02957C7.71322 1.43904 8.00112 0.832301 8.58834 0.520505C9.18342 0.204172 9.91138 0.276773 10.4015 0.70136C10.8394 1.08122 11.2737 1.47858 11.6938 1.86233C11.8752 2.02828 12.0545 2.19228 12.2353 2.35563L12.4432 2.54361C12.6853 2.76271 12.9275 2.98181 13.1683 3.20351C13.8241 3.80765 13.8234 4.64775 13.1676 5.24671C12.3089 6.02977 11.393 6.86403 10.465 7.697C10.0164 8.09955 9.48989 8.21817 8.90053 8.04898C8.32116 7.88239 7.96897 7.51485 7.85395 6.95543C7.78466 6.61706 7.85753 6.28841 8.07184 5.97856C8.09184 5.95003 8.11185 5.92216 8.13756 5.88586L8.32902 5.61879H6.83453H4.49706C3.79768 5.61879 3.44334 5.93772 3.44334 6.56714C3.44334 6.98201 3.44334 7.39687 3.44334 7.81173V7.90054C3.44405 8.91436 3.44548 9.9606 3.44048 10.99C3.43905 11.3815 3.27117 11.7413 2.96756 12.0038C2.67966 12.2527 2.30104 12.3876 1.89455 12.3876L1.89527 12.3869ZM6.17801 2.8943C5.62507 2.8943 5.07142 2.8943 4.51849 2.8956C4.33132 2.8956 4.14558 2.90338 3.96698 2.91764C2.04743 3.07127 0.505075 4.53496 0.455782 6.24887C0.414348 7.67496 0.42935 9.12828 0.444352 10.5336L0.450067 11.0697C0.456496 11.7186 1.0873 12.2916 1.82812 12.3208C2.24174 12.337 2.62966 12.2073 2.92041 11.9558C3.20902 11.7056 3.36904 11.3627 3.37119 10.9887C3.37619 9.95995 3.37476 8.91372 3.37404 7.90184V7.81109C3.37404 7.39622 3.37333 6.98136 3.37333 6.5665C3.37333 5.89429 3.75195 5.55332 4.49849 5.55332H6.83596H8.46189L8.19972 5.91957C8.17328 5.95652 8.15328 5.98439 8.13399 6.01226C7.92968 6.3085 7.85967 6.62159 7.92611 6.94311C8.03612 7.4766 8.37188 7.82794 8.9241 7.98675C9.48632 8.14816 9.98854 8.03537 10.4165 7.65097C11.3444 6.81801 12.2603 5.98439 13.1183 5.20133C13.7455 4.6296 13.7455 3.8271 13.1183 3.24953C12.8782 3.02849 12.636 2.80939 12.3939 2.59029L12.186 2.4023C12.0052 2.23895 11.8259 2.0743 11.6459 1.9103C11.2244 1.5246 10.7901 1.12789 10.3529 0.74868C9.88638 0.344188 9.19271 0.275476 8.62549 0.576901C8.06613 0.874436 7.7918 1.452 7.94254 2.01466C7.97754 2.14625 8.04469 2.27719 8.11542 2.41591C8.14828 2.48009 8.18543 2.55269 8.219 2.62594L8.34259 2.89495H6.17872L6.17801 2.8943ZM1.90884 12.1918H1.90741C1.18517 12.1918 0.594373 11.6726 0.590801 11.0334C0.589372 10.7825 0.587943 10.5317 0.5858 10.2808V10.2121C0.576513 8.92279 0.567226 7.59134 0.596516 6.28128C0.632949 4.62895 2.11101 3.20934 3.96127 3.04923C4.13915 3.03367 4.31989 3.02589 4.49777 3.02589C5.67151 3.0246 6.84453 3.0246 8.01826 3.0246H8.84409C8.67907 2.84569 8.51976 2.67391 8.3626 2.50148C8.08684 2.19941 7.98826 1.84353 8.07756 1.4734C8.18614 1.02353 8.49833 0.714972 8.98054 0.579494C9.46704 0.442718 9.9171 0.541897 10.2821 0.864712C10.6722 1.21022 11.063 1.56674 11.4409 1.91095C11.6023 2.05809 11.7588 2.2007 11.9152 2.34266L12.2303 2.62788C12.4967 2.86902 12.7625 3.10951 13.0268 3.3526C13.5876 3.86794 13.5883 4.58552 13.0282 5.09762C12.1031 5.9429 11.1937 6.76809 10.3243 7.54985C9.79494 8.0263 8.99697 8.04769 8.46832 7.60041C7.94039 7.15314 7.90825 6.44657 8.39189 5.91892C8.54119 5.75557 8.69193 5.59351 8.85052 5.42238H7.77323H4.48277C3.68623 5.42238 3.22974 5.83659 3.22974 6.55807V7.94981C3.22974 8.9552 3.23045 9.9606 3.22902 10.966C3.2276 11.6531 2.64894 12.1918 1.91027 12.1924L1.90884 12.1918ZM6.91525 3.09007C6.10943 3.09007 5.3036 3.09007 4.49777 3.09136C4.32203 3.09136 4.14344 3.09914 3.9677 3.1147C2.15316 3.27157 0.703674 4.66396 0.667954 6.28322C0.638665 7.59263 0.647951 8.92344 0.656524 10.2108V10.2808C0.658667 10.5317 0.660096 10.7825 0.661525 11.0341C0.665097 11.6369 1.22375 12.1276 1.9067 12.1276H1.90813C2.60608 12.127 3.15401 11.6168 3.15544 10.966C3.15759 9.9606 3.15687 8.9552 3.15687 7.95045V6.55872C3.15687 5.79576 3.6398 5.3582 4.48134 5.3582H7.7718H9.00268L8.93125 5.43534C8.76265 5.61685 8.60406 5.78863 8.44547 5.96105C7.98683 6.46083 8.01612 7.13045 8.51547 7.55374C9.01554 7.97703 9.77065 7.95629 10.2721 7.50448C11.1416 6.72272 12.051 5.89753 12.9761 5.05224C13.5069 4.56737 13.5062 3.88738 12.9747 3.39862C12.7111 3.15619 12.4446 2.91505 12.1788 2.67456L11.8638 2.38934C11.7073 2.24738 11.5509 2.10477 11.3944 1.96216C11.0115 1.61341 10.6215 1.25754 10.2314 0.912033C9.88709 0.606719 9.46132 0.513375 9.00126 0.642371C8.54476 0.770072 8.24972 1.06242 8.14685 1.4883C8.06184 1.83899 8.15542 2.17542 8.41689 2.46129C8.58548 2.64603 8.75551 2.83013 8.9341 3.0233L8.99697 3.09136H8.01826C7.65107 3.09136 7.28316 3.09136 6.91525 3.09136V3.09007ZM1.90813 11.8677C1.38948 11.8677 0.950136 11.4852 0.947279 11.0321C0.94585 10.7813 0.944421 10.5304 0.942278 10.2795V10.2108C0.932991 8.92538 0.923704 7.59523 0.952994 6.28841C0.985856 4.79814 2.32176 3.51725 3.99413 3.37269C4.16058 3.35843 4.32989 3.35065 4.49706 3.35065C5.32003 3.35 6.143 3.34936 6.96597 3.34936H9.60777L9.15985 2.86384C8.97911 2.66872 8.80694 2.48203 8.63621 2.29534C8.42689 2.06652 8.35831 1.82084 8.42546 1.5434C8.50619 1.20957 8.72836 0.98982 9.08555 0.889993C9.44489 0.789518 9.76279 0.858878 10.0321 1.09742C10.4215 1.44293 10.8122 1.7988 11.1908 2.14366L11.2123 2.16375C11.3623 2.29988 11.5116 2.43666 11.6616 2.57278L11.9767 2.85865C12.2424 3.09914 12.5075 3.33899 12.7711 3.58142C13.199 3.97425 13.1997 4.48051 12.7732 4.87009C11.8467 5.71667 10.938 6.54121 10.0714 7.32038C9.67492 7.6769 9.1027 7.6957 8.7105 7.36381C8.31902 7.03257 8.30044 6.52371 8.66478 6.127C8.82766 5.94939 8.99197 5.77242 9.16628 5.58443L9.61491 5.09892H6.74308H4.48063C3.48763 5.09892 2.8704 5.65833 2.8704 6.55872V7.95045C2.8704 8.95585 2.87112 9.9606 2.86969 10.966C2.86897 11.48 2.45535 11.8683 1.90813 11.869V11.8677ZM6.96669 3.41418C6.14372 3.41418 5.32074 3.41418 4.49777 3.41548C4.33275 3.41548 4.16558 3.42325 4.00127 3.43687C2.36462 3.57883 1.05729 4.83185 1.02443 6.2897C0.995143 7.59588 1.00443 8.92538 1.013 10.2102V10.2789C1.01515 10.5297 1.01657 10.7806 1.018 11.0321C1.02015 11.4502 1.42735 11.8035 1.90598 11.8035C2.41391 11.8035 2.79682 11.4424 2.79754 10.9653C2.79968 9.9606 2.79896 8.9552 2.79896 7.95045V6.55872C2.79896 5.61879 3.44334 5.03474 4.48063 5.03409H7.7718H9.76851L9.22129 5.62592C9.04698 5.81391 8.88338 5.99087 8.7205 6.16849C8.38117 6.53797 8.3976 7.00988 8.75979 7.31649C9.1227 7.62375 9.65278 7.6056 10.0214 7.27436C10.8879 6.49519 11.7966 5.67065 12.7232 4.82407C13.1197 4.46171 13.119 3.99175 12.7211 3.62615C12.4575 3.38436 12.1924 3.14387 11.9267 2.90403L11.6116 2.61816C11.4616 2.48203 11.3116 2.34526 11.1623 2.20913L11.1416 2.19033C10.7622 1.84483 10.3714 1.4883 9.98211 1.14345C9.7335 0.923053 9.43917 0.85823 9.10699 0.951575C8.77623 1.04427 8.57048 1.24781 8.49619 1.55702C8.43403 1.81371 8.49833 2.04189 8.69264 2.25386C8.86338 2.44119 9.03555 2.62723 9.21629 2.82235L9.76279 3.41418H6.96812H6.96669Z" fill="black"/>
<path d="M10.6765 14.5559C10.9244 14.8664 11.0623 15.1776 11.053 15.5302C11.0358 16.1674 10.7136 16.6413 10.08 16.9083C9.44561 17.1754 8.83981 17.0866 8.29259 16.6899C8.2233 16.6393 8.16043 16.581 8.09757 16.5239C7.23816 15.7454 6.37947 14.9669 5.52149 14.1877C4.7471 13.4851 4.74496 12.5808 5.51506 11.8814C6.39876 11.0788 7.27888 10.2738 8.16758 9.47709C8.98055 8.74783 10.2729 8.88655 10.8265 9.76425C11.1516 10.2789 11.138 10.8034 10.8115 11.3193C10.7765 11.3744 10.7372 11.4269 10.6872 11.4976C10.7544 11.5021 10.8044 11.5086 10.8544 11.5086C12.0031 11.5086 13.1518 11.5099 14.3006 11.5086C14.8528 11.5086 15.1578 11.2273 15.1585 10.7223C15.1585 9.23724 15.1543 7.75216 15.1607 6.26708C15.1643 5.38484 15.9408 4.71393 16.9074 4.74051C17.8039 4.76514 18.5133 5.438 18.5162 6.27939C18.5204 7.80791 18.5183 9.33642 18.5162 10.8643C18.5154 11.3057 18.4211 11.7329 18.2461 12.1445C17.6375 13.5771 16.1544 14.53 14.462 14.552C13.2776 14.5676 12.0931 14.5559 10.9087 14.5566C10.8444 14.5566 10.7794 14.5566 10.6772 14.5566L10.6765 14.5559ZM9.44775 12.0278C9.50276 11.9617 9.53491 11.9189 9.57134 11.8801C9.7778 11.6564 9.98569 11.4347 10.1914 11.2098C10.6008 10.7619 10.5758 10.1661 10.1328 9.79472C9.68279 9.41745 9.02412 9.44014 8.5612 9.8537C8.16686 10.2063 7.77752 10.5629 7.38532 10.9181C6.87597 11.3803 6.36304 11.8386 5.85868 12.3053C5.41148 12.7189 5.3879 13.3185 5.82011 13.7165C6.74666 14.5708 7.68179 15.4181 8.62335 16.2595C9.0377 16.6296 9.6885 16.6244 10.115 16.275C10.5479 15.9198 10.6093 15.3357 10.2464 14.9137C10.0264 14.6583 9.79066 14.4153 9.56206 14.1663C9.52991 14.1313 9.50276 14.0931 9.45633 14.0367H9.68064C11.2401 14.0367 12.7996 14.0542 14.3592 14.0315C15.8801 14.0095 16.9817 13.3554 17.6403 12.1076C17.8482 11.7135 17.9418 11.2889 17.9425 10.852C17.9454 9.32864 17.9461 7.80596 17.9425 6.28264C17.9418 5.71479 17.4682 5.27011 16.8659 5.25909C16.2351 5.24742 15.7329 5.6934 15.7315 6.27875C15.7279 7.74762 15.7301 9.2165 15.7301 10.686C15.7301 11.5294 15.1828 12.0285 14.2584 12.0291C12.7225 12.0291 11.1873 12.0291 9.65135 12.0291C9.5942 12.0291 9.53705 12.0291 9.44704 12.0291L9.44775 12.0278Z" fill="black"/>
<path d="M9.35841 17.0943C8.98336 17.0943 8.61903 16.9673 8.26969 16.7145C8.20611 16.6685 8.14753 16.6153 8.09181 16.5641L8.07181 16.5459C7.2124 15.7674 6.35371 14.9889 5.49574 14.2097C4.70705 13.4935 4.7042 12.5704 5.48931 11.858C5.72791 11.6415 5.9658 11.425 6.20369 11.2085C6.83735 10.6315 7.49244 10.0358 8.14182 9.45372C8.54616 9.09136 9.08695 8.92217 9.62702 8.98894C10.145 9.05312 10.5929 9.32926 10.8572 9.74736C11.1851 10.2666 11.1801 10.8007 10.8422 11.3349C10.8186 11.3718 10.7929 11.4075 10.7636 11.4483C10.7586 11.4548 10.7536 11.4619 10.7486 11.469C10.75 11.469 10.7515 11.469 10.7529 11.469C10.79 11.4723 10.8222 11.4749 10.8536 11.4749C12.0024 11.4749 13.1511 11.4762 14.2998 11.4749C14.8299 11.4749 15.1214 11.2065 15.1221 10.721C15.1221 10.2491 15.1221 9.77718 15.1221 9.30528C15.1214 8.30896 15.1206 7.27893 15.1249 6.26575C15.1264 5.83339 15.3107 5.43408 15.6436 5.14238C15.9786 4.84873 16.4273 4.69446 16.908 4.70742C17.8267 4.7327 18.549 5.42306 18.5511 6.27872C18.5554 7.80075 18.5533 9.3163 18.5511 10.8643C18.5504 11.2979 18.459 11.7322 18.2782 12.1562C17.661 13.6088 16.1629 14.5624 14.4613 14.5844C13.6426 14.5954 12.8103 14.5928 12.0052 14.5909C11.6394 14.5896 11.2737 14.589 10.9072 14.589H10.745C10.9872 14.9079 11.0965 15.2087 11.0879 15.5315C11.0708 16.1849 10.7272 16.671 10.0942 16.9381C9.84491 17.0431 9.59916 17.0956 9.3577 17.0956L9.35841 17.0943ZM9.39556 9.03886C8.95336 9.03886 8.52473 9.20091 8.19182 9.49909C7.54245 10.0812 6.88736 10.6776 6.2537 11.2538C6.01581 11.4703 5.7772 11.6869 5.53931 11.9034C4.78492 12.5885 4.78778 13.4753 5.54574 14.1637C6.40443 14.9429 7.26312 15.7214 8.12181 16.4999L8.14182 16.5181C8.19682 16.568 8.25326 16.6192 8.31398 16.6633C8.86549 17.0626 9.45414 17.1345 10.0642 16.8772C10.6793 16.6179 10.9994 16.1641 11.0165 15.5276C11.0251 15.2028 10.9079 14.8995 10.6472 14.5734L10.6057 14.5222H10.9072C11.273 14.5222 11.6394 14.5228 12.0052 14.5241C12.8096 14.5261 13.6419 14.5287 14.4598 14.5176C16.1322 14.4963 17.6046 13.5589 18.2111 12.1309C18.3882 11.7147 18.4783 11.2875 18.479 10.8623C18.4818 9.315 18.484 7.79945 18.479 6.27742C18.4768 5.45677 17.7853 4.79493 16.9052 4.77095C16.4444 4.75798 16.0136 4.90643 15.6922 5.18775C15.3735 5.46714 15.1964 5.85024 15.1949 6.2651C15.1907 7.27828 15.1914 8.30831 15.1921 9.30463C15.1921 9.77653 15.1928 10.2484 15.1921 10.7204C15.1921 11.2402 14.8663 11.5384 14.2984 11.5391C13.1497 11.5397 12.0009 11.5391 10.8522 11.5391C10.8172 11.5391 10.7836 11.5365 10.7443 11.5326C10.725 11.5313 10.7043 11.5293 10.6822 11.5274L10.6229 11.5235L10.655 11.4781C10.6715 11.4541 10.6872 11.4327 10.7022 11.412C10.7307 11.3725 10.7558 11.3375 10.7786 11.3012C11.1029 10.7891 11.1079 10.2763 10.7936 9.77848C10.5407 9.37788 10.1114 9.1134 9.61631 9.05182C9.54201 9.04275 9.46772 9.03821 9.39413 9.03821L9.39556 9.03886ZM9.37199 16.5673C9.09052 16.5673 8.8112 16.472 8.59831 16.2821C7.64818 15.4342 6.70519 14.5786 5.79435 13.7391C5.34857 13.3282 5.36429 12.7156 5.83292 12.2819C6.18797 11.9539 6.55302 11.624 6.90593 11.305C7.05738 11.1683 7.20883 11.0315 7.36028 10.8941C7.47387 10.791 7.58745 10.6879 7.70033 10.5849C7.97322 10.3366 8.2554 10.0799 8.53544 9.82969C9.0098 9.40575 9.69203 9.38047 10.1564 9.77005C10.6143 10.1538 10.64 10.7677 10.2185 11.2292C10.0978 11.3608 9.97636 11.4917 9.85491 11.6227C9.76919 11.7147 9.68417 11.8068 9.59916 11.8988C9.57559 11.9241 9.55416 11.9507 9.52701 11.9844C9.52487 11.9876 9.52201 11.9909 9.51915 11.9935H11.0544C12.1224 11.9935 13.1911 11.9935 14.2591 11.9935C15.1578 11.9935 15.695 11.5034 15.695 10.6828V9.36426C15.6943 8.33488 15.6936 7.30486 15.6964 6.27548C15.6964 5.98248 15.82 5.71217 16.0422 5.51511C16.2608 5.32129 16.5544 5.21822 16.8673 5.22341C17.4895 5.23508 17.9775 5.69856 17.9789 6.27936C17.9818 7.73268 17.9818 9.26962 17.9789 10.8487C17.9782 11.3083 17.8753 11.7355 17.6731 12.1179C17.0045 13.3846 15.89 14.0386 14.3605 14.0607C13.2754 14.0762 12.1709 14.0723 11.1037 14.0691C10.6293 14.0678 10.1557 14.0658 9.68203 14.0658H9.52772C9.52772 14.0658 9.52844 14.0671 9.52915 14.0678C9.55201 14.097 9.57059 14.1203 9.59059 14.1423C9.66631 14.2247 9.74275 14.307 9.81919 14.3887C9.97136 14.5514 10.1285 14.7199 10.2757 14.891C10.6479 15.3234 10.5893 15.9275 10.14 16.2957C9.92135 16.4753 9.64631 16.5647 9.37342 16.5647L9.37199 16.5673ZM9.39485 9.56003C9.11052 9.56003 8.8212 9.66634 8.58616 9.87636C8.30613 10.1266 8.02394 10.3833 7.75105 10.6315C7.63746 10.7346 7.52459 10.8377 7.411 10.9407C7.25955 11.0782 7.1081 11.2149 6.95665 11.3517C6.60375 11.6706 6.2387 11.9999 5.88436 12.3279C5.44501 12.735 5.42858 13.3094 5.84578 13.6938C6.75591 14.5332 7.6989 15.3882 8.64903 16.2361C9.04123 16.5861 9.67489 16.5926 10.0914 16.2504C10.5129 15.9048 10.5672 15.3383 10.2185 14.9332C10.0721 14.7633 9.91563 14.5954 9.76418 14.4327C9.68775 14.3504 9.61131 14.2687 9.53558 14.1858C9.51415 14.1624 9.49486 14.1378 9.47057 14.1073C9.45843 14.0918 9.44485 14.0743 9.42842 14.0548L9.38699 14.003H9.68132C10.1557 14.003 10.6293 14.0049 11.1037 14.0062C12.1709 14.0101 13.274 14.0133 14.3591 13.9978C15.8593 13.9764 16.953 13.3346 17.6088 12.092C17.806 11.718 17.9067 11.2999 17.9075 10.8506C17.9103 9.27222 17.911 7.73463 17.9075 6.28196C17.9067 5.7368 17.4488 5.30119 16.8659 5.29082C16.5723 5.28434 16.2965 5.38222 16.0922 5.56437C15.8836 5.74912 15.7686 6.00257 15.7679 6.27807C15.7657 7.30745 15.7657 8.33748 15.7664 9.36686V10.6853C15.7664 11.5462 15.2028 12.0602 14.2591 12.0609C13.1911 12.0609 12.1224 12.0609 11.0544 12.0609H9.37627L9.41914 12.009C9.43771 11.9863 9.45414 11.9662 9.46843 11.9481C9.497 11.9131 9.51915 11.8859 9.54344 11.8593C9.62845 11.7666 9.71418 11.6745 9.7999 11.5825C9.92135 11.4515 10.0428 11.3206 10.1635 11.189C10.5607 10.7547 10.5371 10.1784 10.1078 9.81867C9.90206 9.64559 9.64988 9.56003 9.39413 9.56003H9.39485Z" fill="black"/>
<path d="M9.36203 17.222C8.95269 17.222 8.55334 17.0859 8.18044 16.8162C8.11043 16.7656 8.04899 16.7099 7.99041 16.6561L7.97041 16.6379C7.111 15.8594 6.25231 15.0803 5.39362 14.3011C4.5435 13.5291 4.54064 12.534 5.38719 11.7659C5.62579 11.5494 5.86368 11.3329 6.10157 11.1164C6.73523 10.5395 7.39104 9.94309 8.04042 9.36098C8.47619 8.9701 9.06127 8.78795 9.64564 8.8599C10.2079 8.92926 10.6936 9.22939 10.9801 9.6825C11.3187 10.2192 11.3244 10.7929 10.998 11.3452C12.0981 11.3452 13.199 11.3465 14.2991 11.3452C14.7499 11.3452 14.9785 11.1352 14.9785 10.721C14.9785 10.249 14.9785 9.77714 14.9785 9.30523C14.9778 8.30891 14.9771 7.27824 14.9814 6.26506C14.9835 5.79704 15.1828 5.36532 15.5443 5.04899C15.9072 4.73071 16.3937 4.56477 16.9124 4.57773C17.9089 4.60496 18.6912 5.35236 18.694 6.27867C18.6983 7.80135 18.6962 9.3169 18.694 10.8642C18.6933 11.3134 18.5983 11.7639 18.4119 12.2028C17.7732 13.7054 16.2237 14.6907 14.4635 14.714C13.6433 14.725 12.8104 14.7224 12.0053 14.7205C11.6709 14.7199 11.3366 14.7186 11.0023 14.7186C11.1651 14.9889 11.2387 15.2533 11.2316 15.5347C11.213 16.2406 10.8408 16.7669 10.1557 17.0554C9.89067 17.1669 9.62492 17.2226 9.36274 17.2226L9.36203 17.222ZM9.39632 9.16846C8.99198 9.16846 8.59835 9.31755 8.29259 9.59175C7.64393 10.1732 6.98884 10.7696 6.35518 11.3458C6.11729 11.5624 5.87869 11.7795 5.64008 11.9954C4.93641 12.6345 4.93856 13.4299 5.64651 14.0723C6.50449 14.8514 7.36389 15.63 8.22258 16.4085L8.24259 16.4266C8.29688 16.4759 8.34832 16.5226 8.40261 16.5621C8.90839 16.9284 9.44704 16.9945 10.0035 16.7598C10.5651 16.5232 10.858 16.1077 10.873 15.5249C10.8808 15.23 10.7722 14.9519 10.5308 14.6498L10.325 14.3925H10.9065C11.2723 14.3925 11.6388 14.3931 12.0045 14.3944C12.8082 14.3964 13.6398 14.399 14.457 14.388C16.0701 14.3672 17.491 13.4629 18.0768 12.0842C18.2475 11.6823 18.334 11.2713 18.3347 10.8616C18.3376 9.31431 18.3397 7.79876 18.3347 6.27738C18.3326 5.52673 17.7018 4.92194 16.8995 4.8999C16.478 4.88823 16.0837 5.02371 15.7901 5.28041C15.4993 5.53581 15.3379 5.8852 15.3364 6.26506C15.3321 7.27759 15.3329 8.30762 15.3336 9.30394C15.3336 9.77584 15.3343 10.2478 15.3336 10.7197C15.3336 11.3128 14.9464 11.6674 14.2977 11.6674C13.149 11.668 12.0003 11.6674 10.8515 11.6674C10.8101 11.6674 10.7715 11.6641 10.7308 11.6609C10.7122 11.6596 10.6929 11.6576 10.6708 11.6563L10.3743 11.6362L10.5336 11.4081C10.5508 11.3841 10.5665 11.3614 10.5815 11.3407C10.6086 11.3031 10.6322 11.27 10.6536 11.2363C10.9508 10.767 10.9558 10.2977 10.6686 9.84261C10.4379 9.47701 10.0471 9.23587 9.59563 9.18013C9.52777 9.1717 9.46061 9.16781 9.39346 9.16781L9.39632 9.16846ZM9.37203 16.6969C9.05413 16.6969 8.73837 16.5893 8.49834 16.3748C7.54749 15.5262 6.60379 14.6699 5.69295 13.8305C5.19788 13.3741 5.21431 12.6695 5.73152 12.1918C6.08657 11.8631 6.45234 11.5332 6.80596 11.2143C6.95741 11.0775 7.10886 10.9407 7.25959 10.8039C7.37318 10.7009 7.48605 10.5978 7.59964 10.4947C7.87253 10.2465 8.15543 9.98911 8.43618 9.7389C8.96697 9.2644 9.73208 9.23847 10.2543 9.67667C10.7701 10.109 10.8015 10.7974 10.3293 11.3141C10.2086 11.4463 10.0864 11.5773 9.96497 11.7088C9.91568 11.7614 9.8671 11.8145 9.81852 11.867H11.0558C12.1238 11.867 13.1926 11.867 14.2606 11.867C15.0821 11.867 15.5536 11.4366 15.5536 10.686V9.36746C15.5529 8.33743 15.5522 7.30805 15.555 6.27802C15.5557 5.95002 15.6936 5.6473 15.9437 5.42561C16.1901 5.20716 16.5209 5.09113 16.8716 5.09696C17.5725 5.10992 18.1218 5.63045 18.1232 6.28256C18.1261 7.73588 18.1261 9.27347 18.1232 10.8525C18.1225 11.3316 18.0147 11.7776 17.8032 12.1775C17.1095 13.4921 15.9522 14.1708 14.3634 14.1935C13.2761 14.2091 12.1717 14.2052 11.1037 14.2019C10.6779 14.2006 10.2522 14.1993 9.82638 14.1987C9.86067 14.235 9.89424 14.2719 9.92853 14.3082C10.0814 14.4722 10.2393 14.6414 10.3886 14.8145C10.8072 15.3013 10.7415 15.9806 10.2364 16.3955C9.99069 16.5971 9.68136 16.6982 9.37417 16.6982L9.37203 16.6969ZM9.39418 9.68704C9.147 9.68704 8.89625 9.78168 8.68622 9.96901C8.40689 10.2186 8.12471 10.4753 7.85182 10.7229C7.73823 10.826 7.62464 10.929 7.51106 11.0321C7.35961 11.1695 7.20816 11.3063 7.05671 11.4431C6.7038 11.7614 6.33946 12.0907 5.98584 12.418C5.60293 12.7719 5.58722 13.2704 5.94727 13.6023C6.85668 14.4411 7.79967 15.2961 8.74909 16.1434C9.08699 16.4454 9.63492 16.45 9.99569 16.1544C10.3607 15.8549 10.4086 15.3642 10.1064 15.0135C9.9614 14.8456 9.80566 14.6784 9.65564 14.517C9.57849 14.4346 9.50205 14.3523 9.42561 14.2693C9.40203 14.2441 9.3806 14.2168 9.35417 14.1831C9.34203 14.1676 9.32917 14.1507 9.31345 14.1319L9.10485 13.8739H9.68136C10.1557 13.8739 10.6301 13.8759 11.1044 13.8772C12.171 13.8811 13.2733 13.8843 14.357 13.8687C15.7986 13.848 16.8495 13.2315 17.4803 12.0369C17.6682 11.6803 17.7639 11.281 17.7653 10.8512C17.7682 9.27282 17.7689 7.73588 17.7653 6.28256C17.7646 5.80871 17.3681 5.43015 16.8638 5.42042C16.608 5.41589 16.3694 5.49951 16.1923 5.65703C16.0115 5.81714 15.9115 6.03818 15.9115 6.27867C15.9094 7.30805 15.9094 8.33743 15.9101 9.36681V10.6853C15.9101 11.6136 15.2779 12.1898 14.2599 12.1905C13.1918 12.1905 12.1231 12.1905 11.0551 12.1905H9.09128L9.30631 11.9312C9.32488 11.9092 9.3406 11.8891 9.35488 11.8716C9.38489 11.834 9.40918 11.8048 9.4349 11.7763C9.51991 11.6836 9.60563 11.5915 9.69136 11.4995C9.81281 11.3692 9.93425 11.2382 10.0543 11.1066C10.4015 10.7274 10.3836 10.2257 10.0121 9.91456C9.83138 9.76288 9.61492 9.68769 9.39489 9.68769L9.39418 9.68704Z" fill="black"/>
<path d="M9.36203 17.2544C8.94197 17.2544 8.53691 17.1157 8.15829 16.8415C8.08685 16.7903 8.02541 16.7339 7.96612 16.6801L7.9454 16.6613C7.086 15.8828 6.22731 15.1036 5.36862 14.3244C4.5035 13.5388 4.50064 12.5256 5.36219 11.7432C5.60079 11.5267 5.83868 11.3102 6.07657 11.0937L6.08657 11.0846C6.71737 10.5109 7.36961 9.91782 8.01541 9.3383C8.45904 8.94029 9.05484 8.7549 9.65064 8.82815C10.2236 8.89881 10.7194 9.20477 11.0115 9.66695C11.3466 10.1978 11.3623 10.7657 11.0573 11.3134C12.1381 11.3134 13.219 11.3141 14.2999 11.3134C14.7328 11.3134 14.9435 11.1196 14.9435 10.7216C14.9435 10.2789 14.9435 9.83679 14.9435 9.3947V9.30654C14.9428 8.31281 14.9421 7.28538 14.9464 6.26572C14.9485 5.78927 15.1521 5.34848 15.52 5.02631C15.8886 4.70285 16.3837 4.53301 16.9138 4.54598C17.9296 4.57385 18.7276 5.33487 18.7305 6.27868C18.7348 7.79812 18.7326 9.31497 18.7305 10.8649C18.7298 11.318 18.634 11.7724 18.4461 12.2151C17.8025 13.73 16.2401 14.7238 14.4649 14.7471C13.6441 14.7581 12.8111 14.7555 12.006 14.7536H11.9431C11.6495 14.7529 11.3559 14.7516 11.0623 14.7516C11.208 15.0083 11.2752 15.2657 11.268 15.536C11.2487 16.2555 10.8694 16.7909 10.1714 17.0859C9.90282 17.1993 9.63135 17.2564 9.36346 17.2564L9.36203 17.2544ZM9.3956 8.87677C8.90696 8.87677 8.43333 9.05568 8.06685 9.38368C7.42104 9.96319 6.76881 10.5563 6.13801 11.13L6.12801 11.1391C5.89012 11.3556 5.65151 11.5721 5.41362 11.7886C4.58279 12.5431 4.58494 13.52 5.42005 14.2778C6.27874 15.0569 7.13743 15.8361 7.99684 16.6146L8.01684 16.6328C8.07613 16.6866 8.13614 16.741 8.20401 16.7903C8.80266 17.2233 9.4749 17.305 10.1407 17.025C10.8129 16.7417 11.178 16.2257 11.1959 15.5327C11.203 15.2572 11.1294 14.996 10.9708 14.7335L10.9415 14.6855H11.0015C11.3152 14.6855 11.6288 14.6862 11.9424 14.6875H12.0053C12.8104 14.69 13.6426 14.692 14.4627 14.6816C16.208 14.6589 17.7446 13.6814 18.3783 12.1911C18.5633 11.7562 18.6576 11.3096 18.6583 10.8642C18.6612 9.31432 18.6633 7.79747 18.6583 6.27868C18.6555 5.36987 17.8882 4.63738 16.9109 4.61015C16.4001 4.59719 15.9229 4.76184 15.5686 5.07234C15.215 5.38284 15.0185 5.80613 15.0171 6.26572C15.0128 7.28473 15.0135 8.31216 15.0142 9.30589V9.3947C15.0142 9.83679 15.015 10.2795 15.0142 10.7223C15.0142 11.1514 14.7671 11.3783 14.2991 11.3789C13.1983 11.3796 12.0981 11.3789 10.998 11.3789H10.938L10.9665 11.3309C11.2873 10.7897 11.2816 10.2257 10.9494 9.70001C10.6686 9.25533 10.1921 8.96168 9.64135 8.89362C9.5592 8.88325 9.47704 8.87871 9.39489 8.87871L9.3956 8.87677ZM9.36131 16.9303C9.02412 16.9303 8.69622 16.8162 8.38118 16.588C8.32546 16.5472 8.27331 16.4999 8.2183 16.45L8.19829 16.4318C7.3396 15.6533 6.4802 14.8748 5.62222 14.0956C4.89926 13.439 4.89641 12.6254 5.61579 11.9727C5.83725 11.7717 6.058 11.5708 6.27946 11.3692L6.33089 11.3225C6.9667 10.7443 7.62036 10.1492 8.2683 9.56842C8.57906 9.28969 8.97983 9.13606 9.39703 9.13606C9.46633 9.13606 9.53562 9.14059 9.6042 9.14902C10.0664 9.20607 10.4672 9.45369 10.7029 9.82771C10.9973 10.2938 10.9923 10.7735 10.6879 11.2538C10.6665 11.2869 10.6436 11.3193 10.6179 11.3556C10.6001 11.3802 10.5843 11.4022 10.5672 11.4269L10.4393 11.609L10.6765 11.6252C10.6986 11.6265 10.7186 11.6285 10.7372 11.6298C10.7772 11.633 10.8151 11.6363 10.8544 11.6363C12.0031 11.6363 13.1518 11.6376 14.3006 11.6363C14.9271 11.6363 15.3007 11.2933 15.3007 10.721C15.3007 10.2782 15.3007 9.83614 15.3007 9.3934V9.30459C15.3 8.31151 15.2993 7.28408 15.3036 6.26572C15.305 5.87743 15.47 5.51961 15.7679 5.25773C16.0687 4.99455 16.4716 4.85583 16.9031 4.86815C17.7253 4.89083 18.3711 5.50989 18.3733 6.27803C18.3776 7.80396 18.3754 9.31756 18.3733 10.8629C18.3733 11.2765 18.2847 11.6914 18.1125 12.0971C17.5217 13.4882 16.088 14.4003 14.4599 14.4217C13.6462 14.4321 12.8182 14.4301 12.0167 14.4282H11.8895C11.5623 14.4269 11.2351 14.4256 10.9087 14.4262H10.3972L10.5615 14.6317C10.8079 14.9396 10.9187 15.2242 10.9108 15.5263C10.8951 16.1226 10.5958 16.5472 10.0207 16.7896C9.79852 16.8836 9.57849 16.9303 9.36274 16.9303H9.36131ZM9.39632 9.20088C8.99841 9.20088 8.6155 9.34803 8.31831 9.61445C7.67036 10.1953 7.0167 10.7903 6.38376 11.3659L6.33018 11.4152C6.10872 11.6162 5.88797 11.8178 5.66651 12.0187C4.97856 12.6436 4.9807 13.4221 5.67294 14.0502C6.53092 14.8294 7.39033 15.6079 8.24902 16.3864L8.26902 16.4046C8.3226 16.4532 8.37332 16.4992 8.42618 16.5375C8.92054 16.8953 9.44632 16.9601 9.98997 16.7313C10.5379 16.4999 10.8237 16.0941 10.8387 15.525C10.8465 15.2371 10.7401 14.9655 10.5029 14.6699L10.2564 14.3614H10.908C11.2351 14.3614 11.5623 14.3614 11.8888 14.3627H12.016C12.8168 14.3653 13.6448 14.3672 14.4577 14.3569C16.0565 14.3361 17.4646 13.4403 18.0447 12.0745C18.214 11.6764 18.2997 11.2694 18.3004 10.8636C18.3033 9.31821 18.3054 7.80525 18.3004 6.27933C18.2983 5.54619 17.6832 4.95566 16.8995 4.93427C16.4887 4.9226 16.103 5.05484 15.8165 5.3057C15.5322 5.55462 15.375 5.89623 15.3736 6.26702C15.3693 7.28538 15.37 8.31216 15.3707 9.30589V9.3947C15.3707 9.83744 15.3714 10.2795 15.3707 10.7223C15.3707 11.3355 14.97 11.7024 14.2991 11.7024C13.1504 11.703 12.0017 11.7024 10.8529 11.7024C10.8101 11.7024 10.7708 11.6991 10.7286 11.6952C10.7101 11.694 10.6908 11.692 10.6694 11.6907L10.3129 11.6661L10.5043 11.3925C10.5215 11.3679 10.5372 11.3459 10.5522 11.3251C10.5808 11.2856 10.6029 11.2545 10.6236 11.222C10.9144 10.7631 10.9194 10.3048 10.6386 9.86077C10.4136 9.50425 10.0321 9.26829 9.59206 9.21384C9.52705 9.20607 9.46061 9.20153 9.39418 9.20153L9.39632 9.20088ZM9.37203 16.7294C9.03198 16.7294 8.71265 16.6114 8.47333 16.3975C7.52249 15.5483 6.57807 14.6926 5.66723 13.8525C5.15859 13.3832 5.17502 12.6592 5.70581 12.1685C6.06371 11.8372 6.42805 11.5086 6.78024 11.1903L6.80167 11.1708C6.94598 11.0405 7.09028 10.9102 7.23388 10.78L7.57392 10.4708C7.84896 10.2212 8.13043 9.96449 8.41047 9.71427C8.95554 9.22746 9.74065 9.20088 10.2779 9.6514C10.8079 10.0961 10.8408 10.8033 10.3557 11.3329C10.2364 11.4632 10.1164 11.5922 9.9964 11.7218L9.89353 11.8327H11.0537C12.1217 11.8327 13.1904 11.8327 14.2584 11.8327C15.0571 11.8327 15.5157 11.4139 15.5157 10.684V9.36553C15.515 8.3355 15.5143 7.30612 15.5172 6.27609C15.5179 5.93901 15.66 5.62787 15.9165 5.40034C16.1694 5.17605 16.5073 5.05484 16.8702 5.06261C17.5903 5.07623 18.1554 5.61101 18.1568 6.28063C18.1597 7.7346 18.1597 9.27218 18.1568 10.8506C18.1561 11.3342 18.0468 11.7847 17.8332 12.1898C17.1331 13.5168 15.9651 14.2013 14.362 14.2246C13.2747 14.2402 12.1703 14.2363 11.1023 14.233C10.7015 14.2318 10.3014 14.2305 9.90139 14.2298L9.95354 14.2856C10.1064 14.4489 10.2643 14.6181 10.4143 14.7925C10.8451 15.2922 10.7772 15.991 10.2579 16.4176C10.0135 16.6179 9.6985 16.7281 9.37131 16.7281L9.37203 16.7294ZM9.39489 9.39664C9.06556 9.39664 8.73194 9.51916 8.46047 9.76095C8.18043 10.0105 7.89897 10.2672 7.62679 10.5148L7.2846 10.826C7.14029 10.9563 6.9967 11.0866 6.85239 11.2169L6.83096 11.2363C6.47877 11.5539 6.11515 11.8826 5.75724 12.2138C5.25431 12.6786 5.23788 13.3638 5.71866 13.8072C6.62951 14.6466 7.57321 15.5029 8.52405 16.3514C8.75051 16.5537 9.05198 16.6645 9.37274 16.6645C9.6935 16.6645 9.97997 16.5602 10.2114 16.3702C10.7029 15.967 10.7665 15.3065 10.36 14.8333C10.2107 14.6596 10.0536 14.491 9.90067 14.3283L9.74922 14.1656H9.82638C10.2522 14.1656 10.6779 14.1676 11.1037 14.1689C12.1717 14.1728 13.2761 14.176 14.3627 14.1604C15.9365 14.1378 17.0831 13.4655 17.7703 12.1626C17.9797 11.7666 18.0861 11.3251 18.0868 10.8513C18.0897 9.27283 18.0904 7.73524 18.0868 6.28192C18.0854 5.64796 17.551 5.14105 16.8702 5.12873C16.5266 5.1216 16.2066 5.23634 15.9679 5.44831C15.7251 5.66352 15.5907 5.95846 15.59 6.27739C15.5879 7.30677 15.5879 8.3368 15.5886 9.36618V10.6847C15.5886 11.4554 15.1043 11.8975 14.2599 11.8981C13.1918 11.8981 12.1231 11.8981 11.0551 11.8981H9.74137L9.94282 11.681C10.0628 11.552 10.1829 11.4223 10.3014 11.2927C10.7608 10.7903 10.7308 10.1201 10.23 9.70001C9.98854 9.49777 9.6935 9.39729 9.39489 9.39729V9.39664ZM9.37203 16.4052C9.13557 16.4052 8.90196 16.3255 8.72337 16.1667C7.77609 15.3208 6.8331 14.4658 5.92155 13.6257C5.54721 13.2802 5.56293 12.7629 5.96013 12.396C6.31518 12.0673 6.67951 11.7387 7.0317 11.421L7.07528 11.3822C7.21244 11.2583 7.34961 11.1345 7.48677 11.0101L7.82753 10.7009C8.08614 10.4656 8.37903 10.1991 8.66193 9.94634C8.87196 9.75835 9.13271 9.65528 9.39489 9.65528C9.63135 9.65528 9.85281 9.73696 10.0364 9.89059C10.4222 10.2141 10.4415 10.7346 10.0821 11.1274C9.96354 11.257 9.84424 11.3854 9.72494 11.5144L9.71922 11.5202C9.63349 11.6123 9.54777 11.7043 9.46276 11.797C9.43704 11.8249 9.41346 11.8534 9.38417 11.8904C9.36917 11.9085 9.35346 11.928 9.33488 11.95L9.16271 12.1574H11.0551C12.1231 12.1574 13.1918 12.1574 14.2599 12.1574C15.2557 12.1574 15.8744 11.5928 15.8744 10.6847V9.36618C15.8736 8.3368 15.8729 7.30742 15.8758 6.27803C15.8758 6.02847 15.9801 5.79965 16.1673 5.6337C16.3509 5.471 16.6009 5.38543 16.8638 5.38802C17.3881 5.39775 17.7996 5.79057 17.8003 6.28257C17.8032 7.73589 17.8032 9.27348 17.8003 10.8513C17.7996 11.2862 17.7025 11.6901 17.5117 12.0511C16.8745 13.2581 15.8136 13.8804 14.357 13.9018C13.2661 13.9174 12.1667 13.9135 11.1037 13.9102H11.0508C10.5943 13.9083 10.1371 13.907 9.68064 13.907H9.17414L9.34131 14.1131C9.35703 14.1326 9.3706 14.1494 9.38274 14.165C9.40846 14.1974 9.42918 14.224 9.45204 14.2493C9.52776 14.3322 9.60492 14.4145 9.68136 14.4969C9.83352 14.6596 9.98854 14.8262 10.1336 14.9941C10.4472 15.3584 10.3979 15.8679 10.0193 16.179C9.83424 16.3307 9.60206 16.4059 9.37203 16.4059V16.4052ZM9.39418 9.71946C9.15057 9.71946 8.90839 9.81604 8.71122 9.99236C8.42833 10.2445 8.13614 10.5109 7.87754 10.7462L7.53677 11.0554C7.39961 11.1799 7.26245 11.3037 7.12529 11.4275L7.08171 11.4664C6.72952 11.7841 6.3659 12.1127 6.01085 12.4414C5.64223 12.7823 5.62579 13.2614 5.97227 13.5803C6.88383 14.4204 7.8261 15.2754 8.77337 16.1207C9.09771 16.4104 9.62421 16.415 9.97068 16.1304C10.3214 15.8426 10.3672 15.3707 10.0771 15.0336C9.93354 14.8664 9.77851 14.7004 9.62849 14.5403C9.54991 14.456 9.47276 14.3737 9.39703 14.2907C9.37346 14.2648 9.35131 14.2369 9.32417 14.2026C9.31202 14.187 9.29916 14.1708 9.28345 14.1514L9.0327 13.8415H9.67993C10.1364 13.8415 10.5936 13.8428 11.0501 13.8448H11.103C12.166 13.8486 13.2647 13.8525 14.3549 13.837C15.7822 13.8162 16.8224 13.2063 17.446 12.0232C17.6317 11.6713 17.7268 11.2765 17.7275 10.8513C17.7303 9.27348 17.731 7.73654 17.7275 6.28257C17.7268 5.82622 17.346 5.46192 16.8609 5.45285C16.6159 5.44766 16.3851 5.52934 16.2151 5.68037C16.0415 5.83465 15.9451 6.04727 15.9451 6.27868C15.9429 7.30806 15.9429 8.33744 15.9437 9.36682V10.6853C15.9437 11.633 15.2979 12.2223 14.2577 12.2229C13.1897 12.2229 12.121 12.2229 11.053 12.2229H9.01698L9.27487 11.9118C9.29273 11.8897 9.30845 11.8709 9.32274 11.8534C9.35417 11.8145 9.37846 11.7847 9.40489 11.7562C9.4899 11.6635 9.57563 11.5714 9.66136 11.4787L9.66707 11.4729C9.78637 11.3446 9.90568 11.2156 10.0243 11.0866C10.3586 10.721 10.3422 10.238 9.98497 9.93856C9.81495 9.79595 9.60992 9.72011 9.39203 9.72011L9.39418 9.71946Z" fill="black"/>
</g>
<defs>
<clipPath id="clip0_1148_5073">
<rect width="18.7326" height="17.2544" fill="white"/>
</clipPath>
</defs>
</svg>
