<svg width="30" height="30" viewBox="0 0 30 30" fill="none" xmlns="http://www.w3.org/2000/svg">
<rect x="0.5" y="0.5" width="29" height="29" stroke="black"/>
<g clip-path="url(#clip0_998_3878)">
<path d="M16.9869 14.9965C16.3883 14.4041 15.8018 13.8247 15.2154 13.2453C14.1167 12.1606 13.0157 11.078 11.9192 9.99121C11.4977 9.57303 11.5607 8.95597 12.0443 8.68184C12.3961 8.48189 12.7845 8.55069 13.1186 8.87965C14.141 9.88693 15.1612 10.8964 16.1825 11.9037C17.0034 12.7142 17.8256 13.5226 18.6466 14.3332C19.0958 14.7772 19.0958 15.2211 18.6454 15.6673C16.8032 17.4851 14.9598 19.303 13.1153 21.1187C12.7303 21.4971 12.239 21.5282 11.8894 21.2014C11.5375 20.8725 11.553 20.364 11.9369 19.9845C13.5457 18.3956 15.1579 16.8089 16.7678 15.2211C16.8375 15.1523 16.9039 15.0803 16.9869 14.9943V14.9965Z" fill="black"/>
</g>
<defs>
<clipPath id="clip0_998_3878">
<rect width="7.34694" height="12.8571" fill="white" transform="translate(11.6333 8.5708)"/>
</clipPath>
</defs>
</svg>
