<svg width="20" height="20" viewBox="0 0 20 20" fill="none" xmlns="http://www.w3.org/2000/svg">
<g clip-path="url(#clip0_998_7813)">
<path d="M0.168188 9.97948C0.168188 8.39349 0.173924 6.80669 0.164092 5.2207C0.161634 4.82933 0.31403 4.58483 0.669622 4.42073C3.66512 3.03576 6.65733 1.64341 9.64873 0.248597C9.89125 0.135371 10.1133 0.135371 10.3542 0.247776C13.3579 1.64751 16.3624 3.04479 19.3685 4.43878C19.6922 4.58893 19.8372 4.82277 19.8364 5.17968C19.8323 8.39267 19.8323 11.6065 19.8364 14.8195C19.8364 15.1764 19.693 15.4111 19.3693 15.5612C16.3632 16.9552 13.3587 18.3533 10.355 19.7522C10.1149 19.8646 9.89207 19.8646 9.64955 19.7522C6.65815 18.3574 3.66594 16.965 0.671261 15.5793C0.315669 15.4152 0.162453 15.1707 0.164911 14.7793C0.174743 13.1793 0.169008 11.5794 0.169008 9.97948H0.168188ZM6.39678 8.39349V8.64292C6.39678 9.44289 6.39678 10.2429 6.39678 11.0428C6.39678 11.1249 6.39842 11.2086 6.3804 11.2873C6.3083 11.6172 5.99695 11.8387 5.66757 11.8018C5.33902 11.7648 5.08748 11.4883 5.08666 11.1413C5.08257 10.0812 5.08339 9.02198 5.08748 7.96192C5.08748 7.83967 5.06454 7.76501 4.94164 7.70839C3.84537 7.20462 2.75156 6.69346 1.65692 6.18558C1.60612 6.16179 1.55041 6.14702 1.4865 6.12323V14.5036C4.09936 15.7179 6.71059 16.9322 9.3382 18.1531C9.34148 18.085 9.34476 18.0514 9.34476 18.0169C9.34476 15.3167 9.34476 12.6157 9.34803 9.91548C9.34803 9.79077 9.30215 9.73662 9.19728 9.68903C8.55819 9.39694 7.92239 9.09829 7.28576 8.80291C6.99736 8.66918 6.70813 8.53544 6.39678 8.39185V8.39349ZM10.6573 18.1465C10.7352 18.117 10.7925 18.0989 10.8466 18.0735C13.3497 16.9101 15.8527 15.7442 18.3575 14.5848C18.4926 14.5225 18.5246 14.4437 18.5238 14.3059C18.5205 11.6475 18.5213 8.98834 18.5205 6.32999C18.5205 6.26599 18.5139 6.20117 18.5099 6.12077C18.4468 6.14702 18.4025 6.16261 18.3607 6.1823C15.8454 7.35149 13.33 8.52231 10.813 9.68739C10.6852 9.74646 10.6541 9.81785 10.6541 9.94994C10.6582 12.6083 10.6565 15.2675 10.6565 17.9258V18.1465H10.6573ZM7.09732 7.2678C8.06413 7.7166 8.98916 8.14981 9.91911 8.57318C9.97892 8.60026 10.0789 8.58056 10.1452 8.55021C12.5811 7.42123 15.0154 6.28896 17.4496 5.15588C17.4931 5.13537 17.5316 5.10501 17.5938 5.06481C16.5762 4.59139 15.5865 4.13439 14.6008 3.66917C14.4763 3.6101 14.382 3.61584 14.2616 3.67656C12.3198 4.65293 10.3755 5.62438 8.43202 6.59747C8.00022 6.81325 7.56925 7.03068 7.09732 7.2678ZM12.9097 2.88644C11.9421 2.43681 11.0162 2.0036 10.0863 1.58023C10.0264 1.55316 9.92648 1.57449 9.86012 1.60485C7.44144 2.7248 5.02439 3.84886 2.60735 4.97374C2.54918 5.00081 2.49346 5.03527 2.41317 5.07958C2.50412 5.12635 2.56721 5.16163 2.63357 5.19198C3.55451 5.62027 4.47708 6.04528 5.39555 6.48014C5.52665 6.54249 5.62579 6.53839 5.75442 6.47439C7.63644 5.52674 9.52091 4.58483 11.4054 3.64128C11.8921 3.3976 12.3788 3.15309 12.9105 2.88726L12.9097 2.88644Z" fill="#DE000E"/>
<path d="M10.0025 20.0002C9.86239 20.0002 9.72229 19.9674 9.57972 19.9009C6.94883 18.6743 3.8247 17.2188 0.601434 15.7288C0.188489 15.5368 -0.00241654 15.2357 4.14687e-05 14.7778C0.0074155 13.6095 0.00577682 12.4214 0.00495749 11.2727C0.00495749 10.842 0.00413815 10.4104 0.00413815 9.97967C0.00413815 9.54892 0.00413815 9.12309 0.00495749 8.6948C0.00577682 7.55679 0.0074155 6.37941 4.14687e-05 5.22171C-0.00323588 4.7647 0.187669 4.46277 0.600615 4.2716C3.87304 2.75945 7.11762 1.24813 9.5789 0.100279C9.86321 -0.0326383 10.1393 -0.0326383 10.4228 0.0994588C13.7567 1.65263 16.7055 3.02365 19.4372 4.29047C19.8165 4.46605 20.0009 4.75732 20 5.18069C19.9959 8.36907 19.9959 11.6124 20 14.8205C20 15.2439 19.8165 15.5351 19.438 15.7107C16.7202 16.971 13.7714 18.342 10.4236 19.9017C10.2819 19.9674 10.1426 20.001 10.0025 20.001V20.0002ZM10.0025 0.327552C9.90991 0.327552 9.81733 0.350525 9.71737 0.397293C7.25608 1.54514 4.01069 3.05729 0.738264 4.57025C0.440844 4.70809 0.325318 4.89024 0.327776 5.22007C0.33515 6.37859 0.334331 7.5568 0.332692 8.69562C0.332692 9.12391 0.331873 9.5522 0.331873 9.97967C0.331873 10.4071 0.331873 10.8412 0.332692 11.2727C0.333511 12.4222 0.33515 13.6111 0.327776 14.7803C0.326137 15.1101 0.440844 15.2923 0.739083 15.4301C3.96235 16.9209 7.0873 18.3756 9.71819 19.6031C9.91729 19.6958 10.0869 19.6958 10.2852 19.6031C13.6338 18.0425 16.5826 16.6715 19.2995 15.4121C19.5609 15.2906 19.6723 15.1134 19.6715 14.8197C19.6674 11.6116 19.6674 8.36743 19.6715 5.17905C19.6715 4.88531 19.5601 4.70891 19.2987 4.58748C16.567 3.32066 13.6182 1.94964 10.2844 0.396472C10.186 0.350525 10.0943 0.327552 10.0025 0.327552ZM9.48959 18.406L1.32245 14.6096V5.89122L1.54203 5.96999C1.56252 5.97737 1.58136 5.98394 1.59939 5.98968C1.64035 6.00363 1.68296 6.01758 1.72556 6.03727C2.05084 6.18824 2.37612 6.3392 2.70057 6.49017C3.45682 6.84134 4.23847 7.20563 5.00946 7.55926C5.22249 7.65689 5.25117 7.81771 5.25035 7.96211C5.24625 9.05253 5.24543 10.1216 5.24953 11.1398C5.25035 11.3999 5.43388 11.6091 5.68542 11.6379C5.93204 11.6658 6.16637 11.4959 6.21962 11.2514C6.23191 11.1956 6.23191 11.13 6.23191 11.0602V11.0414C6.23273 10.4334 6.23191 9.82542 6.23191 9.21827V8.13605L6.74154 8.37153C6.95047 8.46835 7.15203 8.56106 7.35358 8.6546L7.8968 8.9073C8.35236 9.11899 8.80709 9.33149 9.26428 9.53989C9.37898 9.5924 9.51172 9.68266 9.5109 9.91567C9.50762 12.1031 9.50762 14.2913 9.50762 16.4787V18.0171C9.50762 18.0417 9.50598 18.0655 9.50434 18.1L9.48878 18.4044L9.48959 18.406ZM1.64937 14.4004L9.18071 17.9006V16.4803C9.18071 14.2929 9.1807 12.1047 9.18398 9.91731C9.18398 9.86644 9.18398 9.86562 9.12909 9.84019C8.6719 9.63097 8.21553 9.41846 7.75998 9.20596L7.21676 8.95325C7.01602 8.85972 6.81446 8.767 6.60553 8.67019L6.56047 8.64967V9.21909C6.56047 9.82706 6.56047 10.435 6.56047 11.043V11.0611C6.56047 11.1415 6.56047 11.2317 6.5408 11.322C6.45068 11.7355 6.06723 12.0112 5.64936 11.9644C5.23642 11.9176 4.92425 11.564 4.92261 11.1415C4.91852 10.1224 4.91934 9.05253 4.92343 7.96129C4.92343 7.88088 4.91934 7.87842 4.87345 7.85791C4.10246 7.50346 3.31999 7.13999 2.56293 6.78801C2.25895 6.64688 1.95416 6.50494 1.65018 6.36382V14.3996L1.64937 14.4004ZM10.4933 18.3847V16.596C10.4933 14.3807 10.4933 12.1654 10.49 9.95013C10.49 9.80491 10.5195 9.64245 10.744 9.53825C12.7555 8.60701 14.7989 7.65689 16.7751 6.73878L18.2917 6.03399C18.322 6.02004 18.3532 6.00773 18.39 5.99296L18.6621 5.8822L18.6735 6.11275C18.6752 6.13901 18.6768 6.16362 18.6776 6.18659C18.6809 6.23828 18.6842 6.28423 18.6842 6.33018V8.27061C18.6842 10.2824 18.6842 12.2942 18.6875 14.3061C18.6875 14.4578 18.6571 14.6269 18.4253 14.7343C16.5072 15.6221 14.5596 16.5279 12.6752 17.4042L10.9144 18.223C10.8726 18.2427 10.83 18.2583 10.785 18.2739C10.7637 18.2821 10.7399 18.2903 10.7145 18.3001L10.4925 18.3847H10.4933ZM18.3573 6.36546L16.9136 7.03661C14.9374 7.95555 12.8939 8.90566 10.8825 9.83691C10.8259 9.86316 10.8186 9.86644 10.8186 9.95013C10.8218 12.1654 10.8218 14.3815 10.8218 16.5968V17.9047L12.5392 17.1064C14.4236 16.2301 16.372 15.3243 18.2893 14.4365C18.3507 14.4078 18.3614 14.4004 18.3605 14.3069C18.3581 12.2951 18.3581 10.2832 18.3573 8.27061V6.36546ZM9.99103 8.75059C9.94269 8.75059 9.89517 8.74239 9.85174 8.7227C9.09877 8.37891 8.35891 8.03513 7.57644 7.67166L6.72106 7.27373L7.4642 6.90041C7.77145 6.74616 8.06477 6.59848 8.35973 6.45079L9.70262 5.77882C11.1987 5.03054 12.694 4.28226 14.1885 3.5307C14.3565 3.44619 14.5056 3.44373 14.6711 3.52168C15.424 3.87695 16.1647 4.22073 16.9488 4.58502L17.9353 5.04367L17.6821 5.20448C17.6625 5.21679 17.6444 5.22909 17.6289 5.23976C17.5928 5.26356 17.5592 5.28653 17.5191 5.3054C15.0644 6.44833 12.658 7.56828 10.2147 8.70054C10.1524 8.72926 10.0713 8.75223 9.99103 8.75223V8.75059ZM7.47403 7.26224L7.71409 7.37383C8.49656 7.7373 9.23478 8.08108 9.98693 8.42404C9.99512 8.42486 10.0394 8.4183 10.0762 8.40107C12.4695 7.29178 14.8268 6.1948 17.2299 5.07649L16.8104 4.88203C16.0254 4.51774 15.2848 4.17396 14.531 3.81787C14.4548 3.78177 14.4146 3.78341 14.3351 3.82361C12.8407 4.57517 11.3446 5.32345 9.84846 6.07173L8.50557 6.7437C8.21143 6.89057 7.91729 7.03907 7.61086 7.19332L7.47403 7.26224ZM5.56825 6.68955C5.48878 6.68955 5.41012 6.66904 5.32491 6.62883C4.66125 6.31459 3.98365 6.00035 3.32901 5.69677C3.07419 5.57862 2.81856 5.46047 2.56374 5.3415C2.51786 5.32017 2.47362 5.29719 2.42036 5.2693C2.39496 5.25617 2.36792 5.2414 2.33761 5.22581L2.06231 5.08469L2.33351 4.93618C2.35973 4.92142 2.38349 4.90829 2.40561 4.89516C2.45232 4.8689 2.49246 4.84593 2.53671 4.82542C4.77431 3.78505 7.30934 2.6052 9.78947 1.45653C9.88943 1.40976 10.0377 1.37941 10.1524 1.4311C10.9062 1.77488 11.6461 2.11866 12.4294 2.48295L13.2856 2.88088L10.3229 4.36513C8.84805 5.10356 7.32409 5.86661 5.82634 6.62063C5.7354 6.66657 5.65182 6.68873 5.56825 6.68873V6.68955ZM2.77431 5.07731C3.00537 5.18479 3.23642 5.29145 3.46665 5.39893C4.12212 5.70333 4.79971 6.01758 5.46501 6.33264C5.54859 6.37202 5.59447 6.3712 5.67968 6.32854C7.17743 5.57452 8.70221 4.81065 10.177 4.07304L12.5318 2.89319L12.2917 2.78161C11.5093 2.41731 10.7702 2.07353 10.0172 1.73057C10.0123 1.73057 9.96891 1.73631 9.92794 1.75519C7.48468 2.88663 4.98652 4.04843 2.77349 5.07813L2.77431 5.07731Z" fill="#DE000E"/>
</g>
<defs>
<clipPath id="clip0_998_7813">
<rect width="20" height="20" fill="white"/>
</clipPath>
</defs>
</svg>
