<svg width="30" height="27" viewBox="0 0 30 27" fill="none" xmlns="http://www.w3.org/2000/svg">
<g clip-path="url(#clip0_1147_16220)">
<path d="M7.45895 6.30184C7.68555 7.18826 7.90725 8.05219 8.12773 8.91499C8.65075 10.9556 9.17745 12.9962 9.69067 15.039C9.74211 15.2437 9.82296 15.3045 10.0508 15.3045C14.8486 15.2977 19.6452 15.3 24.443 15.2988C25.0775 15.2988 25.4021 15.0716 25.5638 14.5035C26.2289 12.1682 26.8928 9.83179 27.5518 7.49424C27.7441 6.81367 27.3031 6.30409 26.5302 6.30296C24.9477 6.30071 23.3664 6.30521 21.7838 6.30071C21.0367 6.29846 20.5492 5.68314 20.8125 5.07681C20.9668 4.72247 21.2645 4.50761 21.6785 4.50536C23.3933 4.49636 25.1094 4.46599 26.823 4.51324C28.6431 4.56386 29.9354 6.23322 29.4736 7.88008C28.8121 10.2458 28.1372 12.6081 27.4599 14.9704C27.0704 16.3281 25.9692 17.0987 24.443 17.0998C19.0328 17.0998 13.6237 17.0998 8.21347 17.0998C8.08119 17.0998 7.94523 17.0953 7.81661 17.1178C7.34259 17.2022 7.0082 17.5936 7.0278 18.0267C7.04739 18.4643 7.43445 18.8434 7.91828 18.8907C8.03954 18.903 8.16325 18.8974 8.28574 18.8974C13.6752 18.8974 19.0646 18.8974 24.454 18.8997C24.6157 18.8997 24.7835 18.903 24.9379 18.9413C25.4045 19.0594 25.6973 19.4756 25.6397 19.9065C25.5834 20.3249 25.2012 20.6601 24.7382 20.6961C24.677 20.7006 24.6157 20.6995 24.5545 20.6995C19.0634 20.6995 13.5723 20.7029 8.07996 20.6984C6.40801 20.6973 5.08393 19.5139 5.06678 18.0279C5.05085 16.7162 6.08832 15.5778 7.50305 15.354C7.57164 15.3427 7.64023 15.3292 7.74312 15.3101C7.59859 14.7364 7.45895 14.1739 7.31564 13.6126C6.33819 9.79467 5.35707 5.97899 4.3882 2.15881C4.31961 1.88545 4.21917 1.78309 3.89335 1.79321C3.01634 1.82021 2.13811 1.80334 1.25988 1.80221C0.613143 1.80109 0.16729 1.43212 0.16729 0.901161C0.16729 0.367956 0.609468 0.00236107 1.25988 0.000111258C2.48475 -0.00101365 3.70962 -0.00101365 4.93449 0.000111258C5.57755 0.000111258 5.90091 0.243091 6.0528 0.828042C6.36514 2.03957 6.67626 3.25109 6.99718 4.49861C7.11231 4.49861 7.23113 4.49861 7.34994 4.49861C9.50326 4.49861 11.6578 4.49636 13.8111 4.49861C14.573 4.49861 15.0654 5.12293 14.7959 5.73488C14.6379 6.09373 14.2803 6.29846 13.794 6.29846C11.8036 6.29959 9.81316 6.29846 7.82274 6.29846C7.71128 6.29846 7.59981 6.29846 7.45895 6.29846V6.30184Z" fill="white"/>
<path d="M16.8243 8.61349C16.8243 7.61008 16.8243 6.67528 16.8243 5.73936C16.8243 5.04529 16.8219 4.35235 16.8243 3.65828C16.828 3.10483 17.2359 2.70661 17.7932 2.70099C18.3615 2.69536 18.7829 3.10033 18.7841 3.66841C18.7866 5.19603 18.7841 6.72365 18.7841 8.2524C18.7841 8.35251 18.7841 8.45151 18.7841 8.60787C18.9225 8.49088 19.0132 8.40989 19.1112 8.33339C19.5092 8.02404 20.0825 8.04204 20.445 8.37389C20.8088 8.70799 20.8505 9.24907 20.4891 9.59554C19.8265 10.2322 19.1467 10.8543 18.4546 11.4651C18.0835 11.7925 17.5176 11.788 17.1465 11.4606C16.463 10.8566 15.7905 10.2401 15.1328 9.61241C14.7604 9.25806 14.7947 8.70686 15.1695 8.36939C15.537 8.03867 16.1053 8.02517 16.5034 8.33902C16.5953 8.41101 16.6798 8.49088 16.8219 8.61349H16.8243Z" fill="white"/>
<path d="M8.00647 24.3104C8.00157 22.821 9.32076 21.6005 10.9351 21.5994C12.5618 21.5994 13.8785 22.7985 13.8871 24.289C13.8957 25.775 12.5728 26.9989 10.9584 26.9989C9.33178 26.9989 8.01137 25.7964 8.00647 24.3093V24.3104ZM10.9474 23.4026C10.4158 23.4015 9.97361 23.8019 9.96871 24.2913C9.96381 24.7919 10.4121 25.2024 10.9596 25.1979C11.4888 25.1934 11.9285 24.7806 11.9236 24.2946C11.9187 23.8031 11.4814 23.4037 10.9474 23.4026Z" fill="white"/>
<path d="M24.6647 24.2946C24.6709 25.7682 23.3578 26.991 21.7606 27C20.118 27.009 18.7878 25.8042 18.7853 24.3047C18.7829 22.8277 20.0911 21.6094 21.6895 21.6004C23.3308 21.5903 24.6598 22.7939 24.666 24.2957L24.6647 24.2946ZM22.7025 24.3013C22.7025 23.8097 22.2689 23.407 21.7348 23.4025C21.191 23.3969 20.7415 23.8108 20.7476 24.3114C20.7549 24.8008 21.1959 25.1979 21.7312 25.1967C22.2603 25.1956 22.7037 24.7873 22.7025 24.3013Z" fill="white"/>
</g>
<defs>
<clipPath id="clip0_1147_16220">
<rect width="29.4006" height="27" fill="white" transform="translate(0.16729)"/>
</clipPath>
</defs>
</svg>
