<svg width="54" height="27" viewBox="0 0 54 27" fill="none" xmlns="http://www.w3.org/2000/svg">
<g clip-path="url(#clip0_1144_8827)">
<path d="M18.2421 20.4125C18.2421 21.0467 18.0342 21.6808 17.6878 22.315C17.3414 23.0196 16.7872 23.6537 16.0944 24.2174C15.4017 24.8516 14.4318 25.3448 13.3926 25.6971C12.2841 26.0494 11.0371 26.2608 9.72084 26.2608C6.81116 26.2608 4.52497 25.4153 2.93157 23.6537C1.2689 21.9627 0.506836 19.6375 0.506836 16.7486C0.506836 14.7757 0.853227 13.0846 1.61529 11.5345C2.37735 10.0548 3.41652 8.85699 4.87136 8.01146C6.25693 7.16593 7.98889 6.74316 9.92868 6.74316C11.1757 6.74316 12.2841 6.95455 13.254 7.30685C14.2932 7.65915 15.1245 8.15238 15.8173 8.71606C16.5101 9.27975 17.0643 9.9139 17.4107 10.548C17.7571 11.1822 17.965 11.8163 17.965 12.38C17.965 12.9437 17.7571 13.4369 17.3414 13.8597C16.9258 14.2825 16.4408 14.4234 15.8173 14.4234C15.4017 14.4234 15.1245 14.3529 14.8474 14.1415C14.5703 13.9302 14.2932 13.5779 13.9468 13.1551C13.3926 12.2391 12.7691 11.605 12.1456 11.1822C11.5221 10.7594 10.6907 10.548 9.72084 10.548C8.33528 10.548 7.22682 11.1117 6.32621 12.2391C5.49487 13.3665 5.0792 14.8461 5.0792 16.7486C5.0792 17.6646 5.21776 18.4396 5.42559 19.2147C5.63343 19.9898 5.97982 20.6239 6.39549 21.1171C6.81116 21.6104 7.2961 22.0331 7.91961 22.315C8.47383 22.5968 9.16662 22.7377 9.8594 22.7377C10.8293 22.7377 11.5914 22.5264 12.2841 22.0331C12.9769 21.6104 13.5311 20.9058 14.0854 19.9898C14.3625 19.4261 14.7089 19.0033 14.986 18.7215C15.3324 18.4396 15.748 18.2283 16.233 18.2283C16.7872 18.2283 17.2722 18.4396 17.6878 18.8624C18.0342 19.2852 18.2421 19.7784 18.2421 20.2716" fill="black"/>
<path d="M35.0766 17.8054H25.8626C25.8626 18.8623 26.0704 19.8487 26.4861 20.6943C26.9018 21.5398 27.456 22.174 28.1488 22.5967C28.8416 23.0195 29.6036 23.2309 30.435 23.2309C30.9892 23.2309 31.4741 23.2309 31.9591 23.0195C32.444 22.8786 32.8597 22.6672 33.3447 22.3853C33.7603 22.1035 34.176 21.8216 34.5224 21.4693C34.8688 21.117 35.3537 20.6943 35.9772 20.1306C36.2543 19.9192 36.5314 19.8487 37.0164 19.8487C37.5013 19.8487 37.917 19.9897 38.1941 20.2715C38.4712 20.5534 38.6098 20.9057 38.6098 21.3989C38.6098 21.8216 38.4712 22.3149 38.1248 22.949C37.7785 23.5127 37.2935 24.0764 36.6007 24.6401C35.9079 25.2038 35.0766 25.6265 34.0374 25.9788C32.9983 26.3311 31.8205 26.4721 30.5042 26.4721C27.456 26.4721 25.1005 25.6265 23.4379 23.865C21.7752 22.1035 20.9438 19.7078 20.9438 16.7485C20.9438 15.3393 21.1517 14.0005 21.5674 12.8027C21.983 11.6048 22.6065 10.5479 23.3686 9.70241C24.1306 8.85688 25.1698 8.15227 26.2783 7.72951C27.456 7.23628 28.703 7.0249 30.1579 7.0249C31.9591 7.0249 33.5525 7.44767 34.8688 8.22273C36.1851 8.9978 37.155 10.0547 37.8477 11.2525C38.5405 12.5208 38.8176 13.7891 38.8176 15.0574C38.8176 16.2553 38.4712 17.0303 37.7785 17.3826C37.0857 17.7349 36.1158 17.9463 34.938 17.9463M25.9319 15.1279H34.4531C34.3145 13.5073 33.8989 12.239 33.1368 11.4639C32.3748 10.6889 31.4049 10.2661 30.1579 10.2661C28.9108 10.2661 28.0102 10.6889 27.2482 11.4639C26.4861 12.3095 26.0012 13.5073 25.8626 15.1279" fill="#DE000E"/>
<path d="M42.8356 7.30676H43.3206V4.41787C43.3206 3.6428 43.3206 3.00866 43.3206 2.58589C43.3206 2.16313 43.4591 1.74036 43.667 1.45852C43.8748 1.10622 44.0826 0.894836 44.429 0.683454C44.7754 0.472072 45.1911 0.401611 45.6067 0.401611C46.2302 0.401611 46.7152 0.612993 47.2001 1.10622C47.5465 1.38806 47.7544 1.81083 47.8236 2.23359C47.8929 2.65635 47.9622 3.2905 47.9622 4.06557V7.30676H49.6942C50.3869 7.30676 50.8719 7.44768 51.2183 7.79998C51.5647 8.15229 51.7725 8.50459 51.7725 9.06828C51.7725 9.70242 51.4954 10.1252 51.0104 10.407C50.5255 10.6889 49.8327 10.7593 48.8628 10.7593H47.9622V19.5669C47.9622 20.342 47.9622 20.9057 48.0315 21.258C48.0315 21.6807 48.2393 21.9626 48.4471 22.2444C48.655 22.5263 49.0014 22.5967 49.5556 22.5967C49.8327 22.5967 50.1791 22.5967 50.6641 22.4558C51.149 22.3854 51.4954 22.3149 51.7725 22.3149C52.1189 22.3149 52.4653 22.4558 52.8117 22.8081C53.0888 23.09 53.2966 23.5127 53.2966 23.9355C53.2966 24.7106 52.881 25.2742 52.0496 25.697C51.2183 26.1198 50.0406 26.3312 48.5164 26.3312C47.0616 26.3312 45.9531 26.0493 45.1911 25.5561C44.429 25.0629 43.9441 24.3582 43.7362 23.4423C43.5284 22.5263 43.3898 21.3989 43.3898 19.8488V10.6889H42.7663C42.0736 10.6889 41.5886 10.548 41.2422 10.1956C40.8958 9.84334 40.688 9.42058 40.688 8.92736C40.688 8.43413 40.8958 8.01137 41.2422 7.65906C41.5886 7.37722 42.1428 7.16584 42.9049 7.16584" fill="black"/>
</g>
<defs>
<clipPath id="clip0_1144_8827">
<rect width="52.9286" height="26" fill="white" transform="translate(0.4375 0.401611)"/>
</clipPath>
</defs>
</svg>
