<svg width="43" height="43" viewBox="0 0 43 43" fill="none" xmlns="http://www.w3.org/2000/svg">
<g clip-path="url(#clip0_1144_8824)">
<path d="M20.4479 39.9279C12.7366 39.9279 5.40694 35.2162 2.42929 27.4922C-0.701063 19.2275 3.57454 9.49526 11.8204 6.25118C18.6155 3.54778 26.785 7.17806 29.3809 13.8979C30.6025 16.9876 30.5261 20.4634 29.2282 23.3985C28.0066 26.1791 25.7161 28.3418 22.6621 29.5004C17.852 31.3542 12.0494 28.8053 10.217 24.0936C8.61365 19.9999 10.9042 14.6703 14.798 13.1255C18.2338 11.8125 22.0513 13.5117 23.3492 16.9103C24.4945 19.8454 23.0438 23.244 20.0662 24.4026C18.9973 24.866 17.7757 24.3254 17.3176 23.1668C16.8595 22.0082 17.4703 20.8496 18.5392 20.3861C19.3027 20.0772 19.6844 19.2275 19.379 18.4551C18.9209 17.2193 17.5466 16.6013 16.2487 17.0648C14.4926 17.76 13.3474 20.6178 14.0345 22.5488C15.0271 25.0978 18.3865 26.4881 21.0587 25.484C23.0438 24.7116 24.4945 23.3985 25.258 21.6992C26.0978 19.7682 26.0978 17.5282 25.258 15.4427C23.5019 10.8856 17.7757 8.4139 13.1183 10.1904C7.3157 12.5849 4.10899 19.9227 6.3995 25.9474C9.37715 33.7486 18.1574 37.6879 25.8688 34.6755C30.6788 32.8218 34.4963 29.1142 36.5578 24.3254C38.6192 19.5365 38.7719 14.2069 36.8632 9.34078C36.4814 8.25942 36.9395 7.02358 38.0848 6.56014C39.1537 6.17394 40.3753 6.71462 40.8334 7.79598C43.1239 13.7435 42.9712 20.2316 40.4516 26.0246C37.9321 31.8176 33.2747 36.2976 27.3958 38.6148C25.1053 39.5417 22.7384 39.9279 20.4479 39.9279Z" fill="black"/>
</g>
<defs>
<clipPath id="clip0_1144_8824">
<rect width="42" height="42" fill="white" transform="translate(0.401855 0.401611)"/>
</clipPath>
</defs>
</svg>
