<svg width="11" height="6" viewBox="0 0 11 6" fill="none" xmlns="http://www.w3.org/2000/svg">
<path d="M5.77872 4.28443C7.02569 3.01509 8.21395 1.80447 9.405 0.593843C9.55318 0.445661 9.68738 0.216397 9.86353 0.177254C10.1487 0.115744 10.5933 0.0682142 10.7275 0.224785C10.9008 0.423293 10.9204 0.853862 10.8449 1.14184C10.7834 1.3767 10.487 1.55284 10.2885 1.75135C9.00519 3.03746 7.72187 4.32357 6.43575 5.60409C5.90733 6.12972 5.60537 6.13252 5.08533 5.61528C3.69857 4.2369 2.3146 2.85573 0.930628 1.47455C0.561569 1.10829 0.226062 0.702883 0.726527 0.22758C1.21581 -0.239335 1.61003 0.104561 1.97629 0.470823C3.20649 1.70941 4.44228 2.9424 5.78151 4.28443L5.77872 4.28443Z" fill="#DE000E"/>
</svg>
