<svg width="20" height="21" viewBox="0 0 20 21" fill="none" xmlns="http://www.w3.org/2000/svg">
<g clip-path="url(#clip0_998_7832)">
<path d="M14.6734 19.0723C14.2701 19.0155 13.6791 18.9396 13.0906 18.8476C12.8185 18.8052 12.5998 18.87 12.4049 19.0659C12.0391 19.4329 11.6652 19.792 11.2914 20.151C10.5159 20.8955 9.48746 20.8971 8.71275 20.155C8.33892 19.7968 7.96429 19.4377 7.59921 19.0699C7.39798 18.8676 7.17447 18.8036 6.89529 18.85C6.39261 18.934 5.88754 19.0075 5.38167 19.0667C4.28006 19.1962 3.49104 18.6029 3.2906 17.5002C3.20152 17.0092 3.11641 16.5174 3.03846 16.0248C2.99471 15.7466 2.86109 15.5514 2.60657 15.4227C2.1516 15.1924 1.70301 14.9477 1.2552 14.7046C0.30074 14.1864 -0.0166198 13.2085 0.451863 12.2249C0.67139 11.7627 0.893303 11.3013 1.12556 10.8455C1.25361 10.5928 1.25282 10.3561 1.12556 10.1034C0.894098 9.64764 0.672185 9.18624 0.452658 8.72405C-0.0142336 7.74128 0.303921 6.76251 1.25839 6.24514C1.70142 6.00524 2.14286 5.76215 2.59304 5.53665C2.86268 5.40151 2.99869 5.1992 3.04403 4.90413C3.12277 4.39156 3.20947 3.87898 3.31287 3.3712C3.53081 2.30127 4.37073 1.72553 5.44769 1.88946C5.95196 1.96622 6.45703 2.03579 6.96131 2.11096C7.20152 2.14694 7.40195 2.07737 7.57614 1.90545C7.94918 1.53601 8.32699 1.17137 8.7048 0.807532C9.48666 0.053464 10.5167 0.0510651 11.2986 0.802734C11.6716 1.16178 12.0462 1.52082 12.4121 1.88786C12.6078 2.08457 12.8281 2.14774 13.0993 2.10376C13.6028 2.0222 14.1071 1.94623 14.6129 1.88466C15.7336 1.74792 16.5417 2.37244 16.7247 3.50075C16.8034 3.98693 16.8925 4.47072 16.9728 4.95691C17.0158 5.22079 17.1534 5.40151 17.392 5.52386C17.8517 5.75895 18.3075 6.00365 18.7609 6.25154C19.705 6.76651 20.02 7.74208 19.5578 8.71765C19.3359 9.18624 19.11 9.65324 18.877 10.1154C18.7529 10.3617 18.7545 10.5936 18.8786 10.8391C19.1093 11.2957 19.3312 11.7571 19.5515 12.2185C20.0255 13.2109 19.7058 14.1896 18.7402 14.7102C18.2972 14.9493 17.8557 15.1924 17.4063 15.4187C17.1439 15.5506 17.0134 15.7506 16.9657 16.036C16.8686 16.6198 16.7804 17.2067 16.642 17.7817C16.4447 18.5989 15.7002 19.1243 14.6797 19.0715L14.6734 19.0723ZM5.12237 3.04095C4.77081 3.03375 4.5322 3.22247 4.47095 3.54713C4.38585 3.99813 4.28801 4.44833 4.23631 4.90413C4.14166 5.72937 3.75033 6.31711 2.98915 6.66495C2.58589 6.84887 2.20251 7.07677 1.81197 7.28708C1.40553 7.50538 1.31009 7.80045 1.51052 8.21707C1.73562 8.68407 1.96071 9.15106 2.19137 9.61566C2.47771 10.193 2.47692 10.7648 2.18899 11.3413C1.96946 11.7811 1.75709 12.2249 1.54234 12.6671C1.29815 13.1685 1.38326 13.4364 1.86924 13.6947C2.3075 13.929 2.74496 14.1649 3.18561 14.3952C3.76306 14.6974 4.08996 15.1724 4.19336 15.8161C4.27608 16.3287 4.36676 16.8397 4.4622 17.3499C4.54254 17.7793 4.80979 17.9616 5.23214 17.8976C5.73641 17.8216 6.24148 17.7529 6.74576 17.6769C7.40991 17.5762 7.97065 17.7721 8.44471 18.2479C8.79627 18.6013 9.15737 18.9444 9.5153 19.2914C9.84618 19.6121 10.154 19.6105 10.4881 19.2866C10.8651 18.9212 11.2405 18.5541 11.6175 18.1887C12.0375 17.7817 12.5346 17.5889 13.12 17.6665C13.6712 17.7393 14.2224 17.8184 14.772 17.8984C15.1848 17.9592 15.4568 17.7753 15.534 17.3642C15.6294 16.8541 15.7233 16.3439 15.8036 15.8305C15.9054 15.1788 16.2331 14.6982 16.8185 14.3928C17.2767 14.1537 17.7324 13.909 18.1874 13.6643C18.5938 13.446 18.6885 13.1517 18.4873 12.7343C18.2622 12.2673 18.0371 11.8003 17.8064 11.3357C17.5201 10.7584 17.5209 10.1866 17.8088 9.61006C18.0347 9.15826 18.2518 8.70246 18.4721 8.24746C18.6925 7.79246 18.6026 7.51018 18.1635 7.27509C17.7133 7.03439 17.2647 6.7921 16.8122 6.5554C16.2355 6.25314 15.9078 5.77735 15.8044 5.13443C15.7209 4.61546 15.6278 4.09808 15.5316 3.58151C15.4568 3.18169 15.1848 2.99297 14.7847 3.05134C14.2805 3.12491 13.7746 3.19368 13.2711 3.27285C12.5998 3.3792 12.0319 3.19208 11.5531 2.7051C11.1991 2.34526 10.8317 1.99821 10.4682 1.64716C10.1556 1.3457 9.83902 1.3465 9.52404 1.65116C9.1701 1.99261 8.80979 2.32766 8.46857 2.68111C7.95952 3.20808 7.35741 3.3888 6.64156 3.26005C6.12695 3.16729 5.60597 3.10972 5.12158 3.04175L5.12237 3.04095Z" fill="#DE000E"/>
<path d="M9.99754 20.9524C9.4885 20.9524 8.98024 20.7445 8.54596 20.3286C8.17849 19.976 7.7983 19.6122 7.42845 19.2395C7.28607 19.0964 7.14211 19.0516 6.93212 19.0868C6.39126 19.1763 5.89255 19.2483 5.40737 19.3051C4.18009 19.4498 3.27812 18.7749 3.05382 17.5435C2.95758 17.0141 2.87486 16.5295 2.80089 16.0625C2.76827 15.8554 2.6776 15.7283 2.49784 15.6371C2.06038 15.4156 1.62451 15.1789 1.20216 14.9494L1.14012 14.9158C0.0782766 14.3393 -0.286011 13.2158 0.234968 12.1218C0.443359 11.6828 0.670044 11.2118 0.911047 10.7369C1.00411 10.5537 1.00411 10.397 0.911047 10.2131C0.67084 9.73969 0.444155 9.2679 0.234968 8.82809C-0.285215 7.73338 0.079072 6.61067 1.1425 6.03412L1.32226 5.93657C1.70007 5.73106 2.0914 5.51915 2.48353 5.32244C2.67681 5.22568 2.76987 5.09374 2.80486 4.86824C2.89792 4.2637 2.98382 3.77272 3.07529 3.32332C3.3155 2.14144 4.2811 1.46973 5.47975 1.65285C5.76768 1.69683 6.0564 1.73841 6.34433 1.78C6.55988 1.81118 6.77623 1.84237 6.99178 1.87435C7.15483 1.89834 7.28209 1.85596 7.40458 1.73522C7.78478 1.35938 8.17134 0.985146 8.53483 0.6349C9.40975 -0.208729 10.5845 -0.210328 11.4587 0.630102L11.5478 0.716464C11.8866 1.04272 12.2374 1.37937 12.5754 1.71842C12.7122 1.85516 12.8562 1.89994 13.0558 1.86796C13.6516 1.7712 14.1359 1.70163 14.5782 1.64725C15.8174 1.49532 16.7504 2.20861 16.954 3.46246C16.9954 3.71594 17.0391 3.96863 17.0828 4.22212C17.1234 4.45402 17.1632 4.68592 17.2014 4.91862C17.2316 5.10413 17.3191 5.22168 17.4933 5.31044C17.9991 5.56953 18.4939 5.83661 18.8677 6.04132C19.9208 6.61627 20.2819 7.73338 19.7665 8.8217C19.5104 9.36146 19.2932 9.80766 19.0832 10.2251C18.9942 10.4018 18.995 10.5537 19.0848 10.7321C19.3242 11.2062 19.5509 11.6772 19.7601 12.1162C20.2859 13.2166 19.9184 14.3449 18.8462 14.923L18.5814 15.0662C18.2314 15.2557 17.8695 15.4524 17.506 15.6347C17.3207 15.7275 17.2308 15.8562 17.1934 16.0777L17.1473 16.3584C17.0677 16.8454 16.985 17.3491 16.8665 17.8401C16.6366 18.7933 15.7697 19.3707 14.6593 19.3131L14.6386 19.3115C14.5312 19.2963 14.4103 19.2803 14.2799 19.2619C13.926 19.2139 13.4861 19.154 13.0518 19.086C12.849 19.054 12.7098 19.098 12.5706 19.2371C12.2143 19.5946 11.8452 19.9488 11.4889 20.2919L11.4531 20.3262C11.0172 20.7445 10.5066 20.954 9.99595 20.954L9.99754 20.9524ZM7.05859 18.5958C7.33061 18.5958 7.56366 18.6966 7.76569 18.9005C8.13157 19.2683 8.50938 19.6305 8.87525 19.9808C9.55849 20.6349 10.4414 20.6341 11.1246 19.9776L11.1604 19.9432C11.5151 19.6026 11.8826 19.2499 12.235 18.8965C12.4815 18.6494 12.7726 18.5558 13.1258 18.611C13.5553 18.6782 13.9928 18.7373 14.3451 18.7853C14.4716 18.8029 14.5893 18.8189 14.6951 18.8333C15.574 18.8765 16.2286 18.4527 16.4036 17.7266C16.5181 17.2532 16.5985 16.7582 16.6772 16.2792L16.7233 15.9977C16.7854 15.6259 16.9715 15.3668 17.2928 15.2053C17.6492 15.0262 18.0079 14.8311 18.3555 14.6431L18.6211 14.4992C19.4786 14.0362 19.7506 13.2022 19.3306 12.3226C19.1222 11.886 18.8971 11.4174 18.6601 10.9472C18.5018 10.6337 18.5018 10.3178 18.6585 10.006C18.8669 9.59176 19.0825 9.14955 19.337 8.61299C19.7426 7.75737 19.4698 6.91294 18.6418 6.46114C18.2704 6.25803 17.7788 5.99254 17.2785 5.73665C16.9715 5.57912 16.7878 5.32963 16.7329 4.99538C16.6947 4.76428 16.6549 4.53398 16.6152 4.30369C16.5706 4.0486 16.5269 3.79431 16.4855 3.53922C16.3225 2.53087 15.6321 2.0015 14.6386 2.12304C14.202 2.17662 13.7239 2.24539 13.1345 2.34055C12.7806 2.39812 12.4887 2.30536 12.2413 2.05747C11.9065 1.72162 11.5581 1.38657 11.2208 1.06191L11.131 0.97555C10.4438 0.314241 9.55531 0.31664 8.8681 0.979548C8.5054 1.32899 8.12043 1.70163 7.74183 2.07587C7.51276 2.30297 7.23755 2.39413 6.92497 2.34775C6.71021 2.31576 6.49466 2.28457 6.27911 2.25339C5.98959 2.21181 5.70007 2.17022 5.41055 2.12544C4.45211 1.97911 3.73785 2.47489 3.54537 3.41768C3.45549 3.85908 3.37118 4.34287 3.27891 4.93941C3.22085 5.31844 3.03075 5.58312 2.69828 5.74945C2.31252 5.94216 1.92516 6.15327 1.55054 6.35638L1.37078 6.45394C0.534033 6.90814 0.257239 7.75737 0.666863 8.61859C0.874459 9.05599 1.09955 9.52459 1.33737 9.99238C1.50122 10.3154 1.50202 10.6297 1.33737 10.9528C1.09876 11.423 0.874459 11.8907 0.666863 12.3266C0.250876 13.2014 0.519716 14.0306 1.36839 14.492L1.43043 14.5256C1.8496 14.7535 2.28309 14.9886 2.71419 15.2069C3.03393 15.3692 3.21687 15.6235 3.27414 15.9857C3.34732 16.4487 3.42924 16.9293 3.52469 17.4555C3.70206 18.4279 4.3853 18.9404 5.35328 18.8269C5.83131 18.7709 6.32286 18.6998 6.85577 18.6118C6.92656 18.5998 6.99416 18.5942 7.06018 18.5942L7.05859 18.5958ZM9.99675 19.7705C9.77802 19.7705 9.56008 19.6681 9.34851 19.4634C9.26022 19.3779 9.17193 19.2931 9.08364 19.2075C8.81719 18.9508 8.54119 18.6846 8.27474 18.4167C7.85 17.9905 7.36163 17.8257 6.78021 17.9137C6.5233 17.9521 6.26639 17.9897 6.00948 18.0264C5.76131 18.0616 5.51395 18.0976 5.26658 18.1352C4.70981 18.2192 4.33041 17.9489 4.22701 17.3947C4.11725 16.8086 4.03135 16.3192 3.95658 15.8554C3.86352 15.2789 3.57559 14.871 3.0745 14.6088C2.7643 14.4464 2.45648 14.2817 2.14787 14.1162L1.75654 13.9067C1.15364 13.5852 1.02558 13.183 1.32783 12.5617C1.39066 12.4329 1.4527 12.3042 1.51554 12.1754C1.66507 11.866 1.82017 11.5469 1.97607 11.2334C2.2298 10.7257 2.23059 10.2315 1.97766 9.7229C1.75575 9.2767 1.53622 8.8209 1.32385 8.37949L1.29601 8.32192C1.03831 7.78775 1.1775 7.35674 1.69927 7.07607C1.80904 7.01689 1.91801 6.95692 2.02697 6.89614C2.30536 6.74181 2.59329 6.58268 2.89076 6.44674C3.55968 6.14128 3.91125 5.6423 3.99953 4.87703C4.04169 4.5076 4.11327 4.14056 4.18247 3.78551C4.20077 3.69116 4.21906 3.5968 4.23735 3.50244C4.32087 3.06023 4.66209 2.79075 5.12819 2.80115L5.15602 2.80355C5.30238 2.82434 5.45191 2.84353 5.60383 2.86352C5.95618 2.9099 6.32127 2.95788 6.68476 3.02345C7.33698 3.141 7.8492 2.97867 8.2986 2.51407C8.55392 2.24939 8.82276 1.9927 9.08285 1.74401C9.17591 1.65525 9.26817 1.56649 9.36044 1.47773C9.76609 1.0859 10.2314 1.0843 10.6346 1.47373C10.7174 1.5537 10.8009 1.63366 10.8836 1.71363C11.1612 1.97991 11.4483 2.25579 11.7235 2.53566C12.1459 2.96587 12.6406 3.129 13.2348 3.03544C13.5776 2.98107 13.9268 2.93149 14.2632 2.88351C14.4255 2.86032 14.5885 2.83713 14.7508 2.81314C15.2797 2.73558 15.6687 3.01305 15.7665 3.53682C15.8516 3.99582 15.951 4.54038 16.0401 5.09614C16.1324 5.67188 16.4211 6.0797 16.9222 6.34279C17.2722 6.52671 17.6261 6.71622 17.9689 6.89934L18.2751 7.06327C18.8287 7.35914 18.9631 7.78056 18.6863 8.3523L18.5305 8.67456C18.365 9.01681 18.1948 9.37106 18.0214 9.7173C17.7677 10.2259 17.7669 10.7201 18.019 11.2278C18.2425 11.6788 18.4644 12.1386 18.6792 12.584L18.7007 12.6296C18.9584 13.1646 18.8192 13.5956 18.2982 13.8755L18.2735 13.8891C17.8337 14.1258 17.3779 14.3705 16.927 14.6056C16.4203 14.8702 16.13 15.2829 16.0385 15.8674C15.9598 16.372 15.8691 16.8638 15.7673 17.4075C15.6671 17.9433 15.2821 18.2152 14.7365 18.1352C14.0739 18.0384 13.5656 17.9665 13.0876 17.9033C12.5937 17.8377 12.1666 17.9873 11.7816 18.3599C11.5915 18.5446 11.4014 18.7293 11.2113 18.9141C11.0252 19.0956 10.8391 19.2763 10.6521 19.4578C10.4374 19.6657 10.2171 19.7705 9.99675 19.7705ZM7.0737 17.4107C7.65434 17.4107 8.17054 17.6338 8.61198 18.0776C8.87525 18.3423 9.14887 18.6062 9.41373 18.8613C9.50202 18.9468 9.5911 19.0324 9.67939 19.118C9.91721 19.3483 10.0795 19.3475 10.3213 19.1132C10.5074 18.9324 10.6935 18.7517 10.8796 18.5702C11.0697 18.3847 11.2598 18.2 11.4507 18.0153C11.9399 17.5411 12.5118 17.3435 13.1497 17.4283C13.6301 17.4923 14.1407 17.5635 14.8049 17.661C15.0936 17.7034 15.2455 17.5978 15.298 17.3196C15.399 16.779 15.4889 16.2912 15.5668 15.793C15.6822 15.0574 16.0655 14.5144 16.7074 14.1793C17.156 13.945 17.6102 13.7012 18.0484 13.4653L18.0731 13.4517C18.3666 13.2941 18.4159 13.139 18.2712 12.8383L18.2497 12.7928C18.0357 12.3489 17.8146 11.8899 17.5919 11.4421C17.2722 10.7984 17.2729 10.1459 17.5951 9.5014C17.7669 9.15755 17.9363 8.8057 18.1009 8.46425L18.2568 8.1412C18.4215 7.80135 18.3769 7.66061 18.0508 7.48549L17.7438 7.32156C17.4026 7.13844 17.0494 6.94972 16.7011 6.7666C16.0655 6.43395 15.6846 5.89658 15.5684 5.1713C15.4801 4.62115 15.3815 4.08058 15.2964 3.62398C15.2463 3.3537 15.0944 3.24655 14.8184 3.28733C14.6553 3.31132 14.4923 3.33451 14.3292 3.3577C13.9936 3.40568 13.6468 3.45526 13.3079 3.50884C12.5611 3.62718 11.9136 3.41288 11.3831 2.87232C11.1127 2.59724 10.8279 2.32376 10.5527 2.05987C10.4692 1.97991 10.3857 1.89994 10.303 1.81918C10.0834 1.60727 9.91164 1.60807 9.68973 1.82238C9.59667 1.91194 9.50361 2.0007 9.41055 2.09026C9.15443 2.33575 8.88877 2.58924 8.63982 2.84673C8.08543 3.42007 7.39902 3.63838 6.59965 3.49444C6.2465 3.43127 5.88778 3.38409 5.54099 3.33851C5.39305 3.31932 5.2467 3.30013 5.10353 3.28014H5.10114C4.87764 3.28014 4.74402 3.38489 4.70504 3.5912C4.68675 3.68636 4.66845 3.78152 4.65016 3.87667C4.58255 4.22292 4.51335 4.58036 4.47279 4.93061C4.36541 5.867 3.91204 6.50512 3.08802 6.88175C2.80725 7.01049 2.52727 7.16483 2.25684 7.31436C2.14628 7.37593 2.03572 7.43671 1.92437 7.49668C1.63087 7.65501 1.58076 7.80934 1.72552 8.11001L1.75336 8.16759C1.96493 8.60739 2.18446 9.06159 2.40478 9.5054C2.72453 10.1491 2.72373 10.8024 2.4024 11.4461C2.2473 11.7564 2.09299 12.0747 1.94425 12.3825C1.88142 12.5121 1.81938 12.6408 1.75654 12.7704C1.56883 13.1566 1.6086 13.2821 1.98084 13.4812L2.37297 13.6908C2.67999 13.8555 2.98701 14.0194 3.29562 14.1809C3.93113 14.5136 4.31212 15.0502 4.42904 15.7762C4.50301 16.236 4.58812 16.7214 4.69709 17.3036C4.75276 17.601 4.89752 17.7034 5.19659 17.6586C5.44555 17.621 5.6945 17.585 5.94346 17.5499C6.19957 17.5131 6.45489 17.4763 6.71021 17.4379C6.83429 17.4195 6.95678 17.4099 7.07529 17.4099L7.0737 17.4107Z" fill="#DE000E"/>
<path d="M6.11583 14.9574C5.88517 14.9502 5.70939 14.8446 5.6044 14.6383C5.49861 14.432 5.51531 14.2249 5.64576 14.0338C5.69428 13.9634 5.7587 13.9035 5.81915 13.8419C8.33019 11.3166 10.8412 8.7921 13.3523 6.26681C13.501 6.11728 13.6521 5.98454 13.8804 5.99173C14.1134 5.99893 14.2868 6.10608 14.3926 6.31159C14.4984 6.5179 14.4817 6.72501 14.3513 6.91613C14.3027 6.9865 14.2383 7.04647 14.1779 7.10804C11.6668 9.63333 9.15501 12.1578 6.64476 14.6831C6.49682 14.8326 6.3457 14.9694 6.11583 14.9574Z" fill="#DE000E"/>
<path d="M6.14471 15.1982C6.13199 15.1982 6.11926 15.1982 6.10653 15.1974C5.78838 15.1862 5.53545 15.0271 5.39228 14.748C5.24752 14.4657 5.2682 14.1635 5.44955 13.898C5.50284 13.8196 5.56647 13.7564 5.62294 13.7013L5.65157 13.6725L8.23658 11.0736C9.88621 9.41514 11.5358 7.75667 13.1847 6.0974C13.3557 5.92468 13.5657 5.74076 13.8894 5.75195C14.2076 5.76235 14.4629 5.92148 14.606 6.20135C14.7516 6.48363 14.7309 6.7859 14.5496 7.05218C14.4963 7.13055 14.4326 7.19372 14.3762 7.24969L14.3483 7.27768L11.5772 10.0637C9.98961 11.6598 8.40202 13.2559 6.81522 14.8527C6.67762 14.9911 6.47162 15.1982 6.1463 15.1982H6.14471ZM13.8631 6.23174C13.7454 6.23174 13.6579 6.29891 13.5211 6.43645C11.8723 8.09572 10.2227 9.75419 8.57303 11.4127L5.957 14.0427C5.91246 14.0875 5.86951 14.1291 5.84247 14.1698C5.76054 14.2898 5.75259 14.4041 5.81622 14.5289C5.88064 14.6552 5.9753 14.7136 6.12324 14.7176H6.12801C6.24652 14.724 6.33083 14.66 6.47559 14.5137C8.06239 12.9168 9.64998 11.3207 11.2376 9.7246L14.0389 6.90824C14.0843 6.86346 14.1264 6.82108 14.1543 6.7811C14.2362 6.66115 14.2441 6.5476 14.1805 6.42286C14.1153 6.29571 14.0206 6.23734 13.8727 6.23254C13.8695 6.23254 13.8663 6.23254 13.8631 6.23254V6.23174Z" fill="#DE000E"/>
<path d="M7.65233 9.48863C6.46641 9.49102 5.50478 8.52825 5.50001 7.33437C5.49604 6.14689 6.45845 5.16812 7.63722 5.16093C8.82234 5.15373 9.80146 6.1357 9.80067 7.32957C9.80067 8.51945 8.83746 9.48703 7.65153 9.48863H7.65233ZM7.64278 6.3508C7.1059 6.3548 6.67162 6.79301 6.67321 7.33037C6.6748 7.86214 7.11862 8.30914 7.64756 8.31074C8.18444 8.31314 8.63384 7.85414 8.62429 7.31518C8.61395 6.77142 8.18206 6.34761 7.64278 6.3508Z" fill="#DE000E"/>
<path d="M7.64869 9.7284C6.3371 9.7284 5.26651 8.65527 5.26173 7.33505C5.25696 6.01164 6.32199 4.92891 7.63596 4.92092C8.27068 4.91852 8.87359 5.16641 9.33014 5.62301C9.78828 6.08121 10.0396 6.68654 10.0396 7.32946C10.0388 8.64968 8.96744 9.726 7.65267 9.7284H7.64869ZM7.65108 5.4007C7.65108 5.4007 7.64312 5.4007 7.63994 5.4007C6.58844 5.4071 5.73578 6.27392 5.73976 7.33345C5.74374 8.39059 6.59958 9.24861 7.64949 9.24861H7.65267C8.70576 9.24701 9.56319 8.38579 9.56319 7.32946C9.56319 6.81608 9.36116 6.3307 8.99448 5.96366C8.63179 5.60062 8.15456 5.4015 7.65108 5.4015V5.4007ZM7.65108 8.55052H7.6463C6.9917 8.54812 6.43652 7.98917 6.43413 7.33106C6.43175 6.66335 6.97261 6.11559 7.64074 6.11079C7.64074 6.11079 7.6463 6.11079 7.64949 6.11079C8.31761 6.11079 8.84972 6.63616 8.86245 7.31026C8.86802 7.63092 8.73996 7.94998 8.51089 8.18348C8.28261 8.41698 7.96923 8.54972 7.65108 8.54972V8.55052ZM7.64471 6.59058C7.23907 6.59378 6.91057 6.92483 6.91216 7.32866C6.91375 7.72928 7.251 8.06913 7.64869 8.07073C7.84515 8.07073 8.02889 7.99236 8.17126 7.84683C8.31363 7.70209 8.3892 7.51417 8.38601 7.31906C8.37806 6.90724 8.05116 6.59058 7.64471 6.59058Z" fill="#DE000E"/>
<path d="M12.3548 11.4639C13.5527 11.4695 14.5055 12.4403 14.496 13.6477C14.4872 14.8312 13.5057 15.8012 12.3286 15.79C11.149 15.7788 10.1906 14.7992 10.1953 13.6109C10.2009 12.4227 11.1697 11.4583 12.3548 11.4639ZM12.3405 14.6001C12.8806 14.6025 13.3117 14.1787 13.3228 13.6349C13.3339 13.1 12.879 12.6386 12.3429 12.641C11.8116 12.6442 11.3725 13.088 11.3717 13.6221C11.3717 14.1619 11.8028 14.5969 12.3405 14.5993V14.6001Z" fill="#DE000E"/>
<path d="M12.3496 16.0298C12.3416 16.0298 12.3345 16.0298 12.3265 16.0298C11.0141 16.017 9.95149 14.9318 9.95705 13.61C9.96262 12.2922 11.0332 11.2239 12.3456 11.2239C12.3496 11.2239 12.3528 11.2239 12.3567 11.2239C12.9994 11.2271 13.5991 11.479 14.0469 11.9348C14.4955 12.3914 14.7405 13.0007 14.7357 13.65C14.731 14.2865 14.4764 14.8863 14.0183 15.3389C13.5665 15.7859 12.9748 16.0306 12.3496 16.0306V16.0298ZM12.3456 11.7037C11.2957 11.7037 10.4391 12.5577 10.4343 13.6124C10.4295 14.6712 11.2806 15.5404 12.3313 15.55C12.3376 15.55 12.3432 15.55 12.3496 15.55C12.8483 15.55 13.3215 15.3533 13.6834 14.9958C14.0501 14.6336 14.2537 14.1538 14.2577 13.646C14.2617 13.1254 14.066 12.6377 13.7065 12.2722C13.3486 11.9084 12.8682 11.7061 12.3536 11.7045C12.3504 11.7045 12.348 11.7045 12.3448 11.7045L12.3456 11.7037ZM12.3456 14.8399H12.34C11.6743 14.8367 11.1334 14.2905 11.1334 13.622C11.1334 12.9519 11.6759 12.4042 12.3416 12.401H12.348C12.6661 12.401 12.9803 12.5353 13.211 12.7704C13.4408 13.0047 13.5689 13.3214 13.5617 13.6396C13.5482 14.3137 13.0145 14.8399 12.3456 14.8399ZM12.348 12.8807H12.344C11.9463 12.8831 11.6107 13.2222 11.6107 13.6228C11.6107 14.0274 11.9384 14.3585 12.3416 14.3601H12.3448C12.7512 14.3601 13.0758 14.0402 13.0837 13.63C13.0877 13.4405 13.0097 13.2502 12.8698 13.107C12.729 12.9631 12.5389 12.8807 12.3472 12.8807H12.348Z" fill="#DE000E"/>
</g>
<defs>
<clipPath id="clip0_998_7832">
<rect width="20" height="20.9524" fill="white"/>
</clipPath>
</defs>
</svg>
