<svg width="16" height="14" viewBox="0 0 16 14" fill="none" xmlns="http://www.w3.org/2000/svg">
<g clip-path="url(#clip0_998_9014)">
<path d="M0.00204894 6.99208C0.00204894 5.4112 -0.0010186 3.83086 0.00327596 2.24998C0.00573 1.20425 0.789181 0.315418 1.92417 0.070523C2.13092 0.0262451 2.34872 0.00492616 2.56099 0.00437952C4.24814 -0.000540246 5.93529 -0.00163353 7.62244 0.0027396C8.89854 0.00601944 9.91083 0.760383 10.136 1.87553C10.1753 2.07123 10.1722 2.27458 10.1753 2.4741C10.1808 2.85237 10.1814 3.2301 10.1753 3.60838C10.1697 3.95112 9.92249 4.21351 9.56849 4.26763C9.21695 4.3212 8.87584 4.1572 8.75559 3.86366C8.71817 3.77237 8.70651 3.66796 8.70528 3.56957C8.69976 3.15521 8.70406 2.74031 8.70283 2.32596C8.7016 1.69951 8.26785 1.31468 7.56232 1.31413C5.91075 1.31358 4.2598 1.31358 2.60823 1.31413C1.91129 1.31413 1.47508 1.70115 1.47508 2.31831C1.47508 5.43853 1.47508 8.55875 1.47508 11.679C1.47508 12.2874 1.91313 12.6777 2.59842 12.6782C4.2598 12.6793 5.92118 12.6793 7.58318 12.6782C8.2654 12.6782 8.70099 12.2863 8.70283 11.6751C8.70467 11.1602 8.69853 10.6458 8.7059 10.1309C8.7108 9.80618 8.97891 9.54708 9.33229 9.50499C9.69365 9.4618 10.0237 9.64219 10.1348 9.94667C10.155 10.0024 10.1728 10.062 10.1722 10.12C10.1697 10.7349 10.2016 11.3515 10.1507 11.9638C10.0581 13.0882 9.00099 13.9721 7.7341 13.9852C5.97087 14.0033 4.20642 14.0044 2.4432 13.9852C1.08612 13.971 0.00757052 12.9663 0.00327596 11.7478C-0.00224562 10.1626 0.00204894 8.57734 0.00204894 6.99208Z" fill="black"/>
<path d="M13.1567 7.65318C13.1021 7.65318 13.0481 7.65318 12.9935 7.65318C10.9487 7.65318 8.90445 7.65318 6.85963 7.65318C6.45594 7.65318 6.16268 7.44273 6.09336 7.10873C6.01421 6.72663 6.33631 6.36311 6.77435 6.34179C6.83018 6.33906 6.88662 6.3407 6.94307 6.3407C8.95722 6.3407 10.9708 6.3407 12.9849 6.3407C13.0407 6.3407 13.0972 6.3407 13.1849 6.3407C13.1364 6.2926 13.1064 6.26035 13.0732 6.23083C12.6616 5.86348 12.2462 5.49888 11.8389 5.12825C11.4861 4.80738 11.5542 4.30119 11.9714 4.08362C12.2695 3.92838 12.6174 3.97211 12.8831 4.20498C13.2328 4.51164 13.5782 4.82214 13.9254 5.13153C14.4242 5.57595 14.9236 6.01982 15.4218 6.46479C15.8027 6.8048 15.8027 7.18909 15.4205 7.53019C14.5751 8.28401 13.7297 9.03782 12.8824 9.79C12.661 9.98679 12.3959 10.0568 12.0959 9.9611C11.8039 9.86817 11.6401 9.67411 11.6076 9.40079C11.5824 9.1887 11.672 9.00994 11.8419 8.86017C12.2481 8.50048 12.6518 8.13915 13.0573 7.77891C13.0935 7.74721 13.1371 7.72206 13.1769 7.69364C13.1696 7.68052 13.1628 7.66685 13.1555 7.65373L13.1567 7.65318Z" fill="black"/>
</g>
<defs>
<clipPath id="clip0_998_9014">
<rect width="15.7083" height="14" fill="white"/>
</clipPath>
</defs>
</svg>
