<svg width="89" height="27" viewBox="0 0 89 27" fill="none" xmlns="http://www.w3.org/2000/svg">
<path d="M14.839 17.8654H5.55993C5.55993 18.898 5.76924 19.8618 6.18784 20.6878C6.60644 21.5139 7.16458 22.1335 7.86226 22.5465C8.55993 22.9596 9.32738 23.1661 10.1646 23.1661C10.7227 23.1661 11.2111 23.1661 11.6995 22.9596C12.1878 22.8219 12.6064 22.6154 13.0948 22.34C13.5134 22.0647 13.932 21.7893 14.2809 21.4451C14.6297 21.1009 15.1181 20.6878 15.746 20.1371C16.0251 19.9306 16.3041 19.8618 16.7925 19.8618C17.2809 19.8618 17.6995 19.9994 17.9785 20.2748C18.2576 20.5502 18.3971 20.8944 18.3971 21.3762C18.3971 21.7893 18.2576 22.2712 17.9088 22.8907C17.5599 23.4415 17.0716 23.9922 16.3739 24.5429C15.6762 25.0936 14.839 25.5067 13.7925 25.8509C12.746 26.1951 11.5599 26.4016 10.2344 26.4016C7.16458 26.4016 4.79249 25.5755 3.11807 23.8545C1.44365 22.1335 0.606445 19.7929 0.606445 16.9016C0.606445 15.5248 0.815748 14.2168 1.23435 13.0465C1.65296 11.8762 2.28086 10.8436 3.04831 10.0176C3.81575 9.19147 4.79249 8.50306 5.97854 8.09002C7.16458 7.60813 8.4204 7.40161 9.88551 7.40161C11.6995 7.40161 13.3041 7.81465 14.6297 8.5719C15.9553 9.32915 16.932 10.3618 17.6297 11.532C18.3274 12.7712 18.6064 14.0103 18.6064 15.2494C18.6064 16.4197 18.2576 17.177 17.5599 17.5212C16.8623 17.8654 15.8855 18.0719 14.6995 18.0719M5.55993 15.1806H14.1413C14.0018 13.5973 13.5832 12.3581 12.8157 11.6009C12.0483 10.7748 11.0716 10.4306 9.81575 10.4306C8.55993 10.4306 7.65296 10.8436 6.88551 11.6009C6.11807 12.427 5.6297 13.5973 5.49017 15.1806" fill="black"/>
<path d="M27.0321 10.0767V10.6254C27.875 9.52796 28.7883 8.77345 29.7717 8.22472C30.7552 7.74457 31.9494 7.4702 33.2139 7.4702C34.4783 7.4702 35.6023 7.74457 36.5858 8.29331C37.5693 8.84204 38.342 9.59656 38.8337 10.5568C39.1147 11.1056 39.3255 11.7229 39.4659 12.4088C39.5362 13.0948 39.6064 13.9179 39.6064 14.9467V23.5893C39.6064 24.5496 39.3957 25.2355 38.9742 25.7157C38.5527 26.1958 37.9907 26.4016 37.2883 26.4016C36.5858 26.4016 36.0238 26.1272 35.5321 25.6471C35.1106 25.167 34.8296 24.481 34.8296 23.5207V15.7698C34.8296 14.2608 34.6188 13.0948 34.1974 12.2716C33.7759 11.4485 32.8626 11.037 31.5982 11.037C30.7552 11.037 29.9825 11.3114 29.28 11.7915C28.5775 12.2716 28.0858 12.9576 27.7345 13.8493C27.5238 14.5352 27.3833 15.8384 27.3833 17.759V23.5893C27.3833 24.5496 27.1726 25.2355 26.6808 25.7157C26.2593 26.1958 25.6271 26.4016 24.9246 26.4016C24.2221 26.4016 23.6602 26.1272 23.2387 25.6471C22.8172 25.167 22.6064 24.481 22.6064 23.5207V10.0767C22.6064 9.185 22.8172 8.49908 23.1684 8.08753C23.5899 7.67598 24.0817 7.40161 24.7841 7.40161C25.2056 7.40161 25.5569 7.4702 25.9081 7.67598C26.2593 7.88176 26.5403 8.15612 26.6808 8.56768C26.8916 8.97923 26.9618 9.45937 26.9618 10.0081" fill="#DE000E"/>
<path d="M44.8207 7.30676H45.3207V4.41787C45.3207 3.6428 45.3207 3.07912 45.3207 2.58589C45.3207 2.16313 45.4636 1.74036 45.6779 1.45852C45.8922 1.10622 46.1779 0.894836 46.4636 0.683454C46.8207 0.472072 47.2493 0.401611 47.6779 0.401611C48.3207 0.401611 48.8207 0.612993 49.3207 1.10622C49.6779 1.38806 49.8922 1.81083 49.9636 2.23359C50.035 2.65635 50.1064 3.2905 50.1064 4.06557V7.30676H51.8922C52.6064 7.30676 53.1064 7.44768 53.4636 7.79998C53.8207 8.15229 54.035 8.50459 54.035 9.06828C54.035 9.70242 53.7493 10.1252 53.2493 10.407C52.7493 10.6889 52.035 10.8298 51.035 10.8298H50.1064V19.6374C50.1064 20.4125 50.1064 20.9761 50.1779 21.3284C50.1779 21.7512 50.3922 22.033 50.6064 22.3149C50.8207 22.5967 51.1779 22.6672 51.7493 22.6672C52.035 22.6672 52.3922 22.6672 52.8922 22.5263C53.3922 22.4558 53.7493 22.3853 54.035 22.3853C54.3922 22.3853 54.7493 22.5263 55.1064 22.8786C55.3922 23.1604 55.6064 23.5832 55.6064 24.0059C55.6064 24.781 55.1779 25.3447 54.3207 25.7675C53.4636 26.1902 52.2493 26.4016 50.6779 26.4016C49.1779 26.4016 48.035 26.1198 47.2493 25.6265C46.4636 25.1333 45.9636 24.4287 45.7493 23.5127C45.535 22.5967 45.3922 21.4694 45.3922 19.9897V10.8298H44.7493C44.035 10.8298 43.535 10.6889 43.1779 10.3366C42.8207 9.98427 42.6064 9.5615 42.6064 9.06828C42.6064 8.57505 42.8207 8.15229 43.1779 7.79998C43.535 7.51814 44.1064 7.30676 44.8922 7.30676" fill="black"/>
<path d="M61.3848 19.6552V23.5791C61.3848 24.5429 61.174 25.2313 60.6821 25.7132C60.1902 26.1951 59.6281 26.4016 58.9254 26.4016C58.2227 26.4016 57.6605 26.1951 57.2389 25.7132C56.8173 25.2313 56.6064 24.5429 56.6064 23.5791V10.5683C56.6064 8.43422 57.3794 7.40161 58.9254 7.40161C59.6983 7.40161 60.2605 7.67697 60.6118 8.15886C60.9632 8.64074 61.174 9.39799 61.174 10.3618C61.7362 9.39799 62.2983 8.64074 62.9308 8.15886C63.4929 7.67697 64.3362 7.40161 65.32 7.40161C66.3037 7.40161 67.2875 7.67697 68.201 8.15886C69.1848 8.64074 69.6064 9.32915 69.6064 10.0864C69.6064 10.6371 69.3956 11.119 68.974 11.532C68.5524 11.8762 68.1308 12.0828 67.6389 12.0828C67.4983 12.0828 67.0767 11.9451 66.374 11.7386C65.7416 11.532 65.1092 11.3944 64.6173 11.3944C63.9146 11.3944 63.3524 11.6009 62.9308 11.9451C62.5091 12.2893 62.1578 12.84 61.8767 13.5284C61.5956 14.2168 61.4551 15.1118 61.3848 16.0755C61.3146 17.0393 61.2443 18.2784 61.2443 19.6552" fill="black"/>
<path d="M83.1675 23.7265C82.0072 24.6182 80.8469 25.2355 79.6866 25.7157C78.5988 26.1272 77.366 26.4016 75.9156 26.4016C74.6828 26.4016 73.5225 26.1272 72.5797 25.7157C71.637 25.2355 70.9118 24.6182 70.4042 23.7951C69.8965 22.972 69.6064 22.0803 69.6064 21.1886C69.6064 19.8854 70.0416 18.7879 70.9118 17.8962C71.782 17.0045 72.9423 16.3872 74.4652 16.1128C74.7553 16.1128 75.553 15.907 76.7858 15.6327C78.0187 15.3583 79.1064 15.1525 79.9767 14.9467C80.8469 14.741 81.7897 14.4666 82.8774 14.1922C82.8774 12.9576 82.5874 12.0659 82.0797 11.5171C81.6446 10.9684 80.6294 10.6254 79.179 10.6254C77.9461 10.6254 77.0034 10.7626 76.3507 11.1056C75.6981 11.4485 75.1904 11.9287 74.7553 12.6146C74.3202 13.3005 73.9576 13.7121 73.8126 13.9179C73.595 14.1236 73.2324 14.2608 72.5797 14.2608C71.9996 14.2608 71.5645 14.1236 71.1293 13.7807C70.6942 13.4377 70.5492 13.0262 70.5492 12.4774C70.5492 11.6543 70.8393 10.8312 71.4919 10.0767C72.1446 9.32219 73.0874 8.63627 74.3927 8.15612C75.698 7.67598 77.2935 7.40161 79.2515 7.40161C81.4271 7.40161 83.095 7.67598 84.3278 8.15612C85.5606 8.63627 86.4309 9.39078 86.9385 10.4197C87.4461 11.4485 87.7362 12.889 87.7362 14.6038C87.7362 15.7013 87.7362 16.5929 87.7362 17.3475C87.7362 18.102 87.7362 18.9937 87.7362 19.8854C87.7362 20.7771 87.8813 21.6688 88.1713 22.629C88.4614 23.5893 88.6064 24.2067 88.6064 24.481C88.6064 24.9612 88.3889 25.3727 87.8813 25.7843C87.4461 26.1958 86.866 26.4016 86.2858 26.4016C85.7782 26.4016 85.2706 26.1958 84.7629 25.7157C84.2553 25.2355 83.7477 24.6182 83.1675 23.7265ZM82.8774 17.0045C82.1522 17.2789 81.137 17.5532 79.7591 17.8276C78.3813 18.102 77.4385 18.3077 76.8584 18.4449C76.3507 18.5821 75.8431 18.8565 75.3355 19.1994C74.8278 19.611 74.6103 20.0911 74.6103 20.7771C74.6103 21.463 74.9003 22.0803 75.4805 22.5605C76.0606 23.0406 76.7858 23.315 77.7286 23.315C78.6713 23.315 79.6141 23.1092 80.4118 22.6976C81.2095 22.2861 81.8622 21.8059 82.2248 21.12C82.6599 20.4341 82.8774 19.268 82.8774 17.6218V16.9359V17.0045Z" fill="black"/>
</svg>
