<svg width="14" height="10" viewBox="0 0 14 10" fill="none" xmlns="http://www.w3.org/2000/svg">
<path fill-rule="evenodd" clip-rule="evenodd" d="M13.9279 0.330195C13.9736 0.294673 14 0.24223 14 0.186953C14 0.0837014 13.9097 -3.34731e-07 13.7983 -3.3205e-07L0.313121 -7.53512e-09C0.140189 -3.37359e-09 9.60584e-10 0.129937 2.14552e-09 0.290223C2.78336e-09 0.376502 0.041417 0.458308 0.113014 0.513447L6.68702 5.57623C6.83028 5.68655 7.03817 5.68611 7.18088 5.57517L13.9279 0.330195ZM0.631568 1.99625C0.380497 1.80289 1.45516e-08 1.96838 1.67884e-08 2.27094L7.12866e-08 9.64286C7.27447e-08 9.8401 0.172514 10 0.385321 10L13.6147 10C13.8275 10 14 9.8401 14 9.64286L14 2.12745C14 1.82413 13.6178 1.65889 13.3671 1.85381L7.22466 6.62877L7.18358 6.6607C7.04088 6.77164 6.83298 6.77208 6.68973 6.66176L6.64849 6.63L0.631568 1.99625Z" fill="black"/>
</svg>
