<svg width="51" height="42" viewBox="0 0 51 42" fill="none" xmlns="http://www.w3.org/2000/svg">
<g clip-path="url(#clip0_998_10243)">
<path d="M25.6162 41.994C20.143 41.994 14.6676 42.0022 9.19437 41.992C5.19017 41.9838 2.12517 39.8441 1.10496 36.248C0.533558 34.2372 0.936386 32.3041 2.05511 30.4958C7.32034 21.9902 12.5768 13.4806 17.8311 4.96889C18.6433 3.65154 19.449 2.34441 20.8151 1.42798C24.6617 -1.15355 30.067 -0.140982 32.4665 3.68836C35.6519 8.77369 38.7738 13.8938 41.9264 18.9975C44.3587 22.9353 46.8369 26.8485 49.2189 30.8108C51.8657 35.2149 49.1619 40.7503 43.8858 41.8181C43.2137 41.9531 42.5109 41.9899 41.8213 41.992C36.4203 42.0063 31.0193 42.0002 25.6184 42.0002V41.994H25.6162ZM25.5593 37.5469V37.5531C30.923 37.5531 36.2868 37.5531 41.6505 37.549C42.1037 37.549 42.5766 37.5633 43.0079 37.4569C45.1796 36.9189 46.1626 34.6872 45.0351 32.8605C41.506 27.1369 37.9681 21.4195 34.4324 15.7C32.4095 12.4271 30.4151 9.1378 28.3484 5.88736C27.0874 3.90314 24.0421 3.93383 22.7395 5.88941C22.4986 6.25148 22.2688 6.61968 22.0411 6.98789C16.743 15.5712 11.4471 24.1545 6.1425 32.7337C5.48791 33.7933 5.38501 34.8652 6.01771 35.937C6.67231 37.0437 7.71222 37.5551 9.08271 37.551C14.5734 37.5367 20.0664 37.5449 25.5571 37.5449L25.5593 37.5469Z" fill="#DE000E"/>
<path d="M25.607 14.4559C26.1916 14.4559 26.7739 14.4478 27.3585 14.458C28.0612 14.4703 28.4597 14.8241 28.4181 15.4808C28.3305 16.8227 28.2035 18.1625 28.0809 19.5024C27.8861 21.6216 27.6803 23.7409 27.4789 25.8621C27.411 26.5924 27.0782 26.8808 26.2879 26.8849C25.85 26.887 25.4122 26.889 24.9743 26.889C24.1227 26.889 23.7549 26.6088 23.6739 25.8274C23.5425 24.5571 23.444 23.2827 23.3324 22.0103C23.1441 19.8911 22.9624 17.7698 22.761 15.6506C22.6909 14.9142 23.0806 14.4621 23.8578 14.4539C24.4423 14.4478 25.0247 14.4539 25.6092 14.4539L25.607 14.4559Z" fill="#DE000E"/>
<path d="M25.5136 32.8934C23.5652 32.9446 22.5471 31.2304 23.3287 29.8394C23.8782 28.8636 25.3144 28.4443 26.5842 28.8697C27.6744 29.2339 28.2283 30.2546 27.9547 31.394C27.7401 32.2879 26.7265 32.9098 25.5114 32.8934H25.5136Z" fill="#DE000E"/>
</g>
<defs>
<clipPath id="clip0_998_10243">
<rect width="49.399" height="42" fill="white" transform="translate(0.84668)"/>
</clipPath>
</defs>
</svg>
