<svg width="40" height="40" viewBox="0 0 40 40" fill="none" xmlns="http://www.w3.org/2000/svg">
<g clip-path="url(#clip0_1144_8726)">
<path d="M20.345 15.8284C18.1228 15.8284 16.312 17.6822 16.312 19.9574C16.312 21.5304 17.19 22.8506 18.452 23.5528V37.3444C18.452 38.4118 19.3025 39.2825 20.345 39.2825C21.3876 39.2825 22.2381 38.4118 22.2381 37.3444V23.5528C23.5001 22.8506 24.3781 21.5304 24.3781 19.9574C24.3781 17.6822 22.5673 15.8284 20.345 15.8284Z" fill="black"/>
<path d="M20.3448 0.379395C16.6959 0.379395 13.1018 1.44677 9.94672 3.49725C9.06878 4.05903 8.79443 5.26685 9.34314 6.16569C9.91929 7.06453 11.0716 7.34542 11.977 6.78365C14.5285 5.12641 17.4092 4.28374 20.3448 4.28374C28.8224 4.28374 35.8459 11.334 36.0105 20.0416C36.0105 21.1089 36.861 21.9516 37.9036 21.9516H37.931C38.9736 21.9516 39.8241 21.0528 39.7966 19.9573C39.5772 9.1712 30.8526 0.407483 20.3448 0.407483" fill="black"/>
<path d="M20.3448 7.823C18.0951 7.823 15.8728 8.49713 13.8974 9.73304C13.0195 10.2948 12.7451 11.5026 13.2938 12.4015C13.8425 13.3003 15.0223 13.5812 15.9002 13.0194C17.272 12.1487 18.7809 11.6993 20.3173 11.6993C24.8716 11.6993 28.548 15.3508 28.7126 20.0135C28.7401 21.0528 29.5906 21.8955 30.6057 21.8955H30.6606C31.7031 21.8674 32.5262 20.9686 32.4987 19.9012C32.2793 13.1318 26.9293 7.823 20.3173 7.823" fill="black"/>
<path d="M4.65193 20.4348C4.65193 20.4348 4.67936 20.0697 4.67936 19.9854C4.67936 18.918 3.80142 18.2158 2.75887 18.2158C1.71632 18.2158 0.838379 19.2551 0.838379 20.3225C0.838379 27.3447 4.37757 33.7208 10.3037 37.3724C10.6054 37.569 10.9347 37.6533 11.2913 37.6533C11.9498 37.6533 12.5534 37.3162 12.91 36.7264C13.4587 35.7994 13.157 34.6197 12.2516 34.0579C7.47779 31.1086 4.62449 25.9683 4.62449 20.4348" fill="black"/>
<path d="M11.9224 20.4348C11.9224 20.4348 11.9499 20.1258 11.9499 20.0416C11.9773 18.9742 11.1542 18.0192 10.1117 17.9911C9.06913 17.8506 8.19119 18.7495 8.16376 19.8449L8.10889 20.3224C8.10889 24.6762 10.3037 28.6648 13.9801 30.9681C14.2819 31.1647 14.6386 31.249 14.9678 31.249C15.5988 31.249 16.2298 30.9119 16.5865 30.3221C17.1352 29.3951 16.8608 28.2154 15.9555 27.6536C13.4314 26.0526 11.895 23.3279 11.895 20.4348" fill="black"/>
</g>
<defs>
<clipPath id="clip0_1144_8726">
<rect width="38.9311" height="38.9311" fill="white" transform="translate(0.865723 0.379395)"/>
</clipPath>
</defs>
</svg>
