<svg width="40" height="39" viewBox="0 0 40 39" fill="none" xmlns="http://www.w3.org/2000/svg">
<g clip-path="url(#clip0_1144_8748)">
<path d="M31.3529 0H15.3795C14.6327 0 12.6827 0.0823653 3.09866 9.2661C2.93271 9.43083 2.76675 9.55438 2.60079 9.7603C2.51781 9.84266 2.43483 9.88384 2.35186 10.0074C2.22739 10.0898 2.26888 10.2545 2.1859 10.378C1.14866 11.7371 0.401855 13.3432 0.401855 15.1964V31.0517C0.401855 35.4583 4.01143 39.0412 8.45079 39.0412H24.4242C26.2912 39.0412 27.9508 38.2999 29.3199 37.2291C29.4444 37.1468 29.5689 37.188 29.6519 37.1056C29.7348 37.0232 29.8593 36.8997 29.9838 36.8173C30.0667 36.735 30.1497 36.6526 30.2327 36.5702C33.3859 33.5639 39.4433 27.3041 39.4433 23.9271V7.98944C39.4433 3.58289 35.8338 0 31.3944 0M8.45079 34.8817C6.29335 34.8817 4.55079 33.1521 4.55079 31.0106V15.1552C4.55079 14.208 4.9242 13.3432 5.50505 12.6843C5.671 12.5195 5.87845 12.3548 6.04441 12.1901C6.70824 11.6547 7.53803 11.2841 8.45079 11.2841H24.4242C26.5816 11.2841 28.3242 13.0137 28.3242 15.1552V31.0106C28.3242 31.9989 27.9093 32.8638 27.287 33.5639C27.1625 33.6463 27.0795 33.7698 26.9965 33.8522C26.2912 34.4699 25.4199 34.8817 24.4242 34.8817H8.45079ZM35.2529 23.8448C35.1699 24.5449 34.0912 26.1098 32.4731 28.0454V15.114C32.4731 10.7075 28.8636 7.1246 24.4242 7.1246H11.521C13.388 5.4773 14.8816 4.283 15.3795 4.11827H31.3529C33.5104 4.11827 35.2529 5.84794 35.2529 7.98944V23.8448Z" fill="black"/>
<path d="M16.4583 16.2671C15.2966 16.2671 14.3838 17.1731 14.3838 18.3262V27.7982C14.3838 28.9514 15.2966 29.8574 16.4583 29.8574C17.62 29.8574 18.5327 28.9514 18.5327 27.7982V18.3262C18.5327 17.1731 17.62 16.2671 16.4583 16.2671Z" fill="black"/>
</g>
<defs>
<clipPath id="clip0_1144_8748">
<rect width="39" height="39" fill="white" transform="translate(0.401855)"/>
</clipPath>
</defs>
</svg>
