<svg width="16" height="14" viewBox="0 0 16 14" fill="none" xmlns="http://www.w3.org/2000/svg">
<g clip-path="url(#clip0_998_8979)">
<path d="M9.6488 3.5C8.86806 3.49962 8.11944 3.22298 7.56745 2.73088L6.75259 2.00637C6.56899 1.8427 6.32012 1.75051 6.06044 1.75H2.45441C2.19723 1.74996 1.9503 1.83986 1.76671 2.00038C1.58312 2.16089 1.47753 2.3792 1.47264 2.60837L1.5178 3.5H0.536037L0.490875 2.625C0.490875 2.16087 0.697747 1.71575 1.06598 1.38756C1.43422 1.05937 1.93365 0.875 2.45441 0.875H6.05946C6.58018 0.875099 7.07953 1.05954 7.44768 1.38775L8.26058 2.11225C8.62873 2.44046 9.12808 2.6249 9.6488 2.625V3.5Z" fill="black"/>
<path fill-rule="evenodd" clip-rule="evenodd" d="M13.5579 3.5H2.14974C2.01336 3.49999 1.87847 3.52531 1.75368 3.57434C1.62889 3.62337 1.51692 3.69503 1.42492 3.78476C1.33293 3.87449 1.26291 3.98032 1.21935 4.0955C1.17579 4.21069 1.15963 4.33269 1.1719 4.45375L1.79729 10.5788C1.81933 10.7962 1.93176 10.9984 2.11249 11.1457C2.29323 11.293 2.52922 11.3748 2.77415 11.375H12.9335C13.1784 11.3748 13.4144 11.293 13.5951 11.1457C13.7759 10.9984 13.8883 10.7962 13.9103 10.5788L14.5357 4.45375C14.548 4.33269 14.5318 4.21069 14.4883 4.0955C14.4447 3.98032 14.3747 3.87449 14.2827 3.78476C14.1907 3.69503 14.0787 3.62337 13.9539 3.57434C13.8291 3.52531 13.6943 3.49999 13.5579 3.5ZM2.14974 2.625C1.87689 2.62497 1.60703 2.67563 1.35736 2.77374C1.1077 2.87185 0.883723 3.01526 0.699713 3.19482C0.515704 3.37438 0.375704 3.58614 0.288642 3.81661C0.201581 4.04708 0.169369 4.29119 0.194062 4.53338L0.819448 10.6584C0.863781 11.0932 1.08887 11.4975 1.45053 11.792C1.81218 12.0865 2.28428 12.2498 2.77415 12.25H12.9335C13.4233 12.2498 13.8954 12.0865 14.2571 11.792C14.6188 11.4975 14.8438 11.0932 14.8882 10.6584L15.5136 4.53338C15.5383 4.29119 15.506 4.04708 15.419 3.81661C15.3319 3.58614 15.1919 3.37438 15.0079 3.19482C14.8239 3.01526 14.5999 2.87185 14.3503 2.77374C14.1006 2.67563 13.8307 2.62497 13.5579 2.625H2.14974Z" fill="black"/>
</g>
<defs>
<clipPath id="clip0_998_8979">
<rect width="15.7083" height="14" fill="white"/>
</clipPath>
</defs>
</svg>
