<svg width="78" height="32" viewBox="0 0 78 32" fill="none" xmlns="http://www.w3.org/2000/svg">
<g clip-path="url(#clip0_1144_8898)">
<path d="M17.3984 10.596V23.3722C17.3984 24.8638 17.2702 26.096 16.9495 27.1337C16.6288 28.1714 16.1157 29.0793 15.4743 29.7278C14.7688 30.4412 13.935 30.9601 12.7805 31.2843C11.6902 31.6086 10.2791 31.8032 8.67568 31.8032C7.20051 31.8032 5.85361 31.6086 4.63499 31.1546C3.48051 30.7006 2.51844 30.1818 1.87706 29.5333C1.23568 28.8847 0.91499 28.1714 0.91499 27.458C0.91499 26.9391 1.1074 26.4852 1.42809 26.1609C1.74878 25.8366 2.19775 25.6421 2.71085 25.6421C3.35223 25.6421 3.92947 25.9015 4.37844 26.4852C4.63499 26.7446 4.8274 27.0688 5.08395 27.3931C5.34051 27.7174 5.59706 27.9119 5.91775 28.1713C6.23844 28.3659 6.55913 28.5605 7.00809 28.6253C7.45706 28.755 7.90602 28.755 8.48326 28.755C9.63775 28.755 10.4715 28.6253 11.1129 28.3011C11.7543 27.9768 12.1391 27.5228 12.3957 26.9391C12.6522 26.3555 12.7805 25.7718 12.8446 25.1232C12.8446 24.4747 12.9088 23.437 12.9088 22.0103C12.2674 22.9831 11.4336 23.6965 10.5998 24.1504C9.70189 24.6693 8.67568 24.8638 7.45706 24.8638C5.98189 24.8638 4.69913 24.4747 3.60878 23.7613C2.51844 22.9831 1.68464 21.9454 1.1074 20.5835C0.530162 19.2216 0.209473 17.6651 0.209473 15.914C0.209473 14.617 0.401886 13.3847 0.722576 12.3471C1.04327 11.3094 1.55637 10.4015 2.26189 9.62323C2.90327 8.90984 3.67292 8.32616 4.57085 7.93704C5.40464 7.54792 6.36671 7.41821 7.39292 7.41821C8.61154 7.41821 9.70189 7.67763 10.5998 8.1316C11.4977 8.58558 12.3315 9.36382 13.1012 10.4015V9.81779C13.1012 9.03955 13.2936 8.45587 13.6784 8.06675C14.0633 7.61277 14.5122 7.41821 15.0895 7.41821C15.9233 7.41821 16.5005 7.67763 16.7571 8.26131C17.0136 8.78014 17.1419 9.62323 17.1419 10.6609M4.76327 16.1734C4.76327 17.9893 5.14809 19.2864 5.91775 20.1944C6.6874 21.1023 7.71361 21.5563 8.93223 21.5563C9.63775 21.5563 10.3433 21.3617 10.9846 20.9726C11.626 20.5835 12.1391 19.9998 12.524 19.2216C12.9088 18.4433 13.1012 17.4705 13.1012 16.368C13.1012 14.5521 12.7164 13.1902 11.9467 12.1525C11.1771 11.1797 10.1509 10.6609 8.86809 10.6609C7.58533 10.6609 6.62327 11.1149 5.85361 12.0877C5.08395 13.0605 4.76327 14.4224 4.76327 16.1734Z" fill="black"/>
<path d="M31.7013 22.7887C30.6751 23.6318 29.6489 24.2154 28.6227 24.6694C27.6606 25.0585 26.5703 25.318 25.2875 25.318C24.1972 25.318 23.171 25.0585 22.3372 24.6694C21.5034 24.2154 20.862 23.6318 20.413 22.8535C19.9641 22.0753 19.7075 21.2322 19.7075 20.3891C19.7075 19.1569 20.0923 18.1192 20.862 17.2761C21.6317 16.433 22.6579 15.8493 24.0048 15.5899C24.2613 15.5899 24.9668 15.3954 26.0572 15.1359C27.1475 14.8765 28.1096 14.682 28.8792 14.4874C29.6489 14.2928 30.4827 14.0334 31.4448 13.774C31.4448 12.6067 31.1882 11.7636 30.7392 11.2447C30.3544 10.7259 29.4565 10.4016 28.1737 10.4016C27.0834 10.4016 26.2496 10.5313 25.6723 10.8556C25.0951 11.1799 24.6461 11.6339 24.2613 12.2824C23.8765 12.9309 23.5558 13.32 23.4275 13.5146C23.2351 13.7092 22.9144 13.8389 22.3372 13.8389C21.8241 13.8389 21.4392 13.7092 21.0544 13.3849C20.6696 13.0606 20.5413 12.6715 20.5413 12.1527C20.5413 11.3744 20.7979 10.5962 21.3751 9.8828C21.9523 9.16942 22.7861 8.52088 23.9406 8.0669C25.0951 7.61293 26.5061 7.35352 28.2379 7.35352C30.162 7.35352 31.6372 7.61293 32.7275 8.0669C33.8179 8.52088 34.5875 9.23427 35.0365 10.2071C35.4855 11.1799 35.742 12.5418 35.742 14.1631C35.742 15.2008 35.742 16.0439 35.742 16.7573C35.742 17.4707 35.742 18.3138 35.742 19.1569C35.742 20 35.8703 20.8431 36.1268 21.751C36.3834 22.659 36.5117 23.2426 36.5117 23.5021C36.5117 23.956 36.3192 24.3451 35.8703 24.7343C35.4855 25.1234 34.9723 25.318 34.4592 25.318C34.0103 25.318 33.5613 25.1234 33.1123 24.6694C32.6634 24.2154 32.2144 23.6318 31.7013 22.7887ZM31.3806 16.433C30.7392 16.6924 29.8413 16.9518 28.6227 17.2113C27.4041 17.4707 26.5703 17.6652 26.1213 17.7949C25.6723 17.9246 25.2234 18.1841 24.7744 18.5083C24.3255 18.8974 24.133 19.3514 24.133 20C24.133 20.6485 24.3896 21.2322 24.9027 21.6862C25.4158 22.1401 26.0572 22.3995 26.891 22.3995C27.7248 22.3995 28.5586 22.205 29.2641 21.8159C29.9696 21.4267 30.5468 20.9728 30.8675 20.3242C31.2523 19.6757 31.4448 18.5732 31.4448 17.0167V16.3682L31.3806 16.433Z" fill="#DE000E"/>
<path d="M44.0796 18.8974V22.5941C44.0796 23.5021 43.8872 24.1506 43.4383 24.6046C42.9893 25.0585 42.4762 25.2531 41.8348 25.2531C41.1934 25.2531 40.6803 25.0585 40.2955 24.6046C39.9107 24.1506 39.7183 23.5021 39.7183 22.5941V10.3368C39.7183 8.32632 40.4238 7.35352 41.8348 7.35352C42.5403 7.35352 43.0534 7.61293 43.3741 8.0669C43.6948 8.52088 43.8872 9.23427 43.8872 10.1422C44.4003 9.23427 44.9134 8.52088 45.4907 8.0669C46.0038 7.61293 46.7734 7.35352 47.6714 7.35352C48.5693 7.35352 49.4672 7.61293 50.301 8.0669C51.199 8.52088 51.5838 9.16942 51.5838 9.8828C51.5838 10.4016 51.3914 10.8556 51.0065 11.2447C50.6217 11.569 50.2369 11.7636 49.7879 11.7636C49.6596 11.7636 49.2107 11.6987 48.6334 11.4393C48.0562 11.2447 47.479 11.115 47.03 11.115C46.3886 11.115 45.8755 11.3096 45.4907 11.6339C45.1058 11.9581 44.7852 12.4769 44.5286 13.1255C44.2721 13.774 44.1438 14.5523 44.0796 15.5251C44.0155 16.4979 43.9514 17.6004 43.9514 18.8974" fill="black"/>
<path d="M64.8607 22.7236V22.2697C64.2834 22.9831 63.7062 23.5019 63.1289 23.9559C62.5517 24.4098 61.9744 24.6692 61.2689 24.9287C60.6275 25.1232 59.8579 25.2529 59.0882 25.2529C58.062 25.2529 57.1 25.0584 56.202 24.6044C55.3041 24.1504 54.5344 23.5019 53.8931 22.7236C53.2517 21.8805 52.7386 20.9077 52.4179 19.8052C52.0972 18.7027 51.9048 17.4705 51.9048 16.1734C51.9048 13.3847 52.5462 11.2446 53.8931 9.75293C55.24 8.19644 56.9717 7.4182 59.1524 7.4182C60.4351 7.4182 61.4613 7.61276 62.2951 8.06673C63.1289 8.52071 63.9627 9.16924 64.7965 10.0772V3.52698C64.7965 2.61903 64.9889 1.9705 65.3096 1.45167C65.6944 0.997695 66.1434 0.738281 66.8489 0.738281C67.5544 0.738281 68.0034 0.932842 68.3882 1.38682C68.7731 1.84079 68.9013 2.42447 68.9013 3.26757V22.7236C68.9013 23.5667 68.7089 24.2153 68.3241 24.6044C67.9393 24.9935 67.4262 25.2529 66.8489 25.2529C66.2717 25.2529 65.7586 25.0584 65.3738 24.6044C64.9889 24.1504 64.7965 23.5667 64.7965 22.7236M56.2662 16.3031C56.2662 17.4705 56.4586 18.5082 56.8434 19.3513C57.2282 20.1943 57.6772 20.8429 58.3827 21.232C59.0241 21.686 59.7296 21.8805 60.4993 21.8805C61.2689 21.8805 61.9744 21.686 62.6158 21.2969C63.2572 20.9077 63.7703 20.2592 64.1551 19.4161C64.54 18.573 64.7324 17.5354 64.7324 16.3031C64.7324 15.1358 64.54 14.0981 64.1551 13.255C63.7703 12.4119 63.2572 11.7634 62.6158 11.3094C61.9744 10.8554 61.2689 10.6609 60.4993 10.6609C59.7296 10.6609 58.96 10.9203 58.3827 11.3743C57.7413 11.8282 57.2924 12.4768 56.9075 13.3199C56.5869 14.163 56.3944 15.2006 56.3944 16.3031" fill="black"/>
<path d="M75.1865 5.27805C74.6093 5.27805 74.0962 5.08349 73.6472 4.69437C73.1983 4.30525 73.0059 3.78642 73.0059 3.07303C73.0059 2.42449 73.1983 1.90566 73.6472 1.51654C74.0962 1.12742 74.6093 0.932861 75.1865 0.932861C75.7638 0.932861 76.2769 1.12742 76.6617 1.45169C77.1107 1.84081 77.3031 2.35964 77.3031 3.07303C77.3031 3.78642 77.1107 4.30525 76.6617 4.69437C76.2128 5.08349 75.6997 5.27805 75.1224 5.27805M77.3672 9.88265V22.5939C77.3672 23.5019 77.1748 24.1504 76.7259 24.6044C76.2769 25.0584 75.7638 25.3178 75.1224 25.3178C74.481 25.3178 73.9679 25.0584 73.5831 24.6044C73.1983 24.1504 73.0059 23.5019 73.0059 22.5939V10.0124C73.0059 9.16926 73.1983 8.45587 73.5831 8.06675C73.9679 7.61278 74.481 7.41822 75.1224 7.41822C75.7638 7.41822 76.2769 7.61278 76.7259 8.06675C77.1107 8.52073 77.3672 9.10441 77.3672 9.88265Z" fill="black"/>
</g>
<defs>
<clipPath id="clip0_1144_8898">
<rect width="76.9655" height="31" fill="white" transform="translate(0.401855 0.803223)"/>
</clipPath>
</defs>
</svg>
