<svg width="34" height="39" viewBox="0 0 34 39" fill="none" xmlns="http://www.w3.org/2000/svg">
<path d="M16.8645 38.346H16.3451C10.7794 36.9463 0.241699 31.4213 0.241699 19.9293V2.61759L1.50325 2.10192C1.94851 1.88092 6.17842 0.260254 16.8645 0.260254C27.5506 0.260254 32.0032 2.02826 32.2258 2.10192L33.4873 2.61759V19.9293C33.4873 31.3476 22.9497 36.8726 17.384 38.1986H16.9387L16.8645 38.346ZM4.3974 5.49059V20.0029C4.3974 29.948 14.4898 33.484 16.8645 34.2206C19.2392 33.5576 29.3316 30.0216 29.3316 20.0029V5.49059C27.4764 5.04859 23.5433 4.31193 16.8645 4.31193C10.1857 4.31193 6.17842 5.04859 4.3974 5.49059Z" fill="black"/>
</svg>
