<svg width="62" height="62" viewBox="0 0 62 62" fill="none" xmlns="http://www.w3.org/2000/svg">
<path d="M5.38296 32.3653C5.38296 32.0242 5.38296 31.7741 5.38296 31.524C5.41076 28.9774 5.32231 26.4232 5.48657 23.8867C5.93387 16.9922 8.75412 11.1689 13.9044 6.58351C27.0301 -5.10607 47.3658 -0.662161 54.4947 15.4082C55.9756 18.7455 56.6225 22.2622 56.6276 25.9053C56.6276 27.8001 56.6276 29.6949 56.6276 31.5897V32.3602C57.0142 32.3602 57.3453 32.3602 57.6763 32.3602C60.3551 32.3728 61.9876 34.0125 61.9977 36.7031C62.0028 38.2821 62.0028 39.861 61.9977 41.44C61.9901 44.1685 60.3601 45.8056 57.646 45.8183C57.3352 45.8183 57.0218 45.8183 56.6756 45.8183C56.6301 46.7151 56.6099 47.5514 56.5442 48.3825C56.1171 53.8319 51.5431 58.6447 46.0997 59.15C43.4892 59.3925 40.8433 59.2713 38.2126 59.294C37.7577 59.2965 37.4898 59.3748 37.2472 59.8447C36.5599 61.1736 35.4151 61.9341 33.9039 61.9669C31.9681 62.0124 30.0298 62.0149 28.0915 61.9644C26.042 61.9113 24.3817 60.2288 24.2882 58.2102C24.1897 56.0526 25.5998 54.1604 27.7074 54.0012C29.863 53.837 32.0414 53.8774 34.2021 53.9734C35.6501 54.0366 36.6786 54.9132 37.3559 56.1992C37.4519 56.3785 37.7072 56.5933 37.8866 56.5933C40.4743 56.5882 43.0722 56.6564 45.6524 56.4948C49.0261 56.2825 52.5034 53.4075 53.3045 50.3455C52.7813 50.5527 52.2987 50.8028 51.7857 50.9342C49.9838 51.3889 48.1391 51.3611 46.3322 51.0883C44.4596 50.8053 43.148 49.1379 43.143 47.2356C43.1253 41.8038 43.1227 36.3721 43.143 30.9404C43.1505 28.7551 44.9018 27.0144 47.0751 26.9664C48.1062 26.9436 49.1398 26.9462 50.1708 26.9714C51.5052 27.0043 52.703 27.4792 53.8655 28.2422V24.2505C53.4434 24.1975 53.0492 24.1671 52.6651 24.0939C50.1961 23.6113 48.46 22.2041 47.573 19.8597C46.5495 17.1539 45.056 14.7867 42.9433 12.8009C33.914 4.31482 18.9965 7.7987 14.6953 19.415C13.6163 22.333 11.6072 23.9953 8.48625 24.2682C8.38516 24.2783 8.28408 24.2985 8.14762 24.3213V28.0426C9.16098 27.7066 10.1617 27.2089 11.2105 27.0725C12.5776 26.8956 13.9928 26.8881 15.3676 27.022C17.4069 27.219 18.8651 28.942 18.8726 31.001C18.8878 36.3898 18.8903 41.7811 18.8726 47.1699C18.8651 49.4537 17.1011 51.1995 14.8141 51.2146C13.5961 51.2222 12.3578 51.2904 11.1599 51.1136C8.35736 50.6992 6.53532 49.0369 5.67611 46.3513C5.53711 45.9193 5.35516 45.8132 4.93566 45.8107C4.26598 45.8082 3.57608 45.8107 2.9342 45.649C1.26631 45.2271 0.0735136 43.7289 0.035607 42.0135C-0.00735374 40.0783 -0.012408 38.1406 0.035607 36.2028C0.0886763 34.0908 1.7692 32.4587 3.8945 32.3754C4.35443 32.3577 4.81436 32.3728 5.38549 32.3728L5.38296 32.3653ZM53.4738 21.4917C52.0611 12.1188 43.0621 2.10928 29.8807 2.75098C16.9773 3.37753 9.50973 13.7736 8.56206 21.5271C8.73138 21.5094 8.89817 21.5094 9.05485 21.4715C10.6545 21.0875 11.587 20.034 12.1455 18.5232C17.1289 5.04999 34.2981 1.00778 44.7831 10.8253C47.1788 13.0662 48.9225 15.7341 50.0546 18.8087C50.6308 20.375 51.768 21.2466 53.4738 21.4917ZM16.1863 39.0728C16.1863 36.4631 16.1939 33.8558 16.1838 31.2461C16.1788 30.1749 15.6607 29.6646 14.5917 29.6494C13.7704 29.6393 12.9491 29.6241 12.1303 29.6544C9.86857 29.7378 8.15014 31.3623 8.1274 33.5451C8.08696 37.2462 8.08949 40.9499 8.1274 44.6536C8.14762 46.5939 9.60828 48.2082 11.5314 48.4406C12.4867 48.5569 13.4621 48.519 14.43 48.524C15.7062 48.5316 16.1889 48.0465 16.1889 46.7758C16.1914 44.2089 16.1889 41.6421 16.1889 39.0753L16.1863 39.0728ZM53.9034 39.1183C53.9034 37.3296 53.9034 35.5409 53.9034 33.7548C53.9034 33.6714 53.8983 33.5855 53.8958 33.5021C53.8099 31.5644 52.3947 29.9551 50.464 29.7328C49.4456 29.614 48.4069 29.6494 47.3759 29.6544C46.3473 29.6595 45.8293 30.1875 45.8268 31.2284C45.8192 36.4681 45.8192 41.7053 45.8268 46.945C45.8268 48.0112 46.3549 48.5114 47.4365 48.5265C48.1947 48.5366 48.9528 48.5392 49.7084 48.5265C52.2127 48.4886 53.8832 46.8061 53.9009 44.2974C53.9135 42.5718 53.9009 40.8463 53.9009 39.1208L53.9034 39.1183ZM5.35769 35.0508C4.86743 35.0508 4.45046 35.0331 4.03349 35.0559C3.26272 35.0963 2.72192 35.6142 2.71434 36.3847C2.69159 38.1911 2.69412 39.9949 2.71434 41.8013C2.72192 42.491 3.19954 43.0317 3.85659 43.1024C4.34685 43.1554 4.84722 43.1125 5.36022 43.1125V35.0533L5.35769 35.0508ZM56.6529 43.1226C57.1532 43.1226 57.593 43.1479 58.0276 43.1175C58.7579 43.067 59.2861 42.5441 59.2962 41.8013C59.319 39.9975 59.319 38.1911 59.2962 36.3847C59.2886 35.6647 58.7933 35.1291 58.1034 35.066C57.6309 35.023 57.1532 35.0584 56.6529 35.0584V43.1226ZM31.0053 59.294C31.867 59.294 32.7313 59.3041 33.593 59.2915C34.4447 59.2788 35.0411 58.7129 35.0411 57.95C35.0411 57.1845 34.4573 56.6287 33.5905 56.6211C31.8645 56.6084 30.1385 56.6084 28.415 56.6211C27.5482 56.6287 26.967 57.1845 26.967 57.95C26.967 58.7129 27.5634 59.2763 28.4175 59.2915C29.2793 59.3041 30.1435 59.294 31.0053 59.294Z" fill="black"/>
</svg>
