<svg width="22" height="22" viewBox="0 0 22 22" fill="none" xmlns="http://www.w3.org/2000/svg">
<g clip-path="url(#clip0_998_7829)">
<path d="M17.9321 7.95396C17.7976 4.76649 14.9668 1.28203 10.7217 1.45042C6.61198 1.61373 4.15494 5.11426 4.07713 7.95565C4.48903 7.83803 4.8967 7.83719 5.30015 7.98272C6.03853 8.24926 6.55446 8.93719 6.55785 9.72072C6.5663 11.8708 6.568 14.0217 6.55785 16.1726C6.55362 17.0383 5.91335 17.7956 5.07686 17.9766C4.21161 18.1645 3.34128 17.755 2.96068 16.9596C2.88033 16.7912 2.79067 16.7446 2.6139 16.7489C2.31956 16.7565 2.0193 16.7599 1.73004 16.7125C0.854644 16.5686 0.189002 15.797 0.18139 14.9076C0.168703 13.6037 0.168703 12.299 0.18139 10.9942C0.19154 9.98303 1.02296 9.16311 2.03453 9.13942C2.26628 9.13434 2.49803 9.13942 2.75684 9.13942C2.64858 6.13726 3.71513 3.66819 6.0935 1.82696C7.64723 0.622033 9.44116 0.0788026 11.4051 0.182033C13.7226 0.30388 15.6535 1.26849 17.181 3.01073C18.7094 4.7538 19.3463 6.81419 19.2423 9.13857C19.4748 9.13857 19.6838 9.13688 19.8927 9.13857C20.9914 9.14788 21.8219 9.96865 21.827 11.0644C21.8329 12.3193 21.8329 13.575 21.827 14.8298C21.8219 15.9256 20.9905 16.7455 19.8918 16.7556C19.8563 16.7556 19.8208 16.7599 19.7861 16.7556C19.3903 16.7057 19.0756 16.7497 18.8921 17.199C18.7618 17.5189 18.4438 17.7186 18.1173 17.854C18.0065 17.9005 17.9778 17.9606 17.9769 18.074C17.9752 18.376 17.9896 18.684 17.9423 18.9802C17.7959 19.8957 17.0254 20.5523 16.1001 20.5608C15.064 20.5701 14.0279 20.5659 12.9918 20.5608C12.8582 20.5608 12.7863 20.5887 12.7237 20.7241C12.3135 21.6117 11.3264 22.0382 10.4079 21.7386C9.50206 21.4425 8.95991 20.5202 9.13499 19.57C9.30668 18.6375 10.1567 17.9648 11.1201 18.0308C11.8618 18.0816 12.4023 18.464 12.7262 19.1342C12.7838 19.2535 12.8404 19.2966 12.9741 19.2966C13.989 19.2907 15.004 19.295 16.0189 19.2924C16.4452 19.2916 16.7049 19.0318 16.7108 18.6104C16.7108 18.6036 16.7108 18.596 16.7108 18.5893C16.7675 18.1772 16.6888 17.8912 16.2583 17.6551C15.6874 17.342 15.4438 16.759 15.4429 16.1007C15.4404 14.0065 15.4387 11.9123 15.4429 9.81803C15.4455 8.52849 16.5594 7.64596 17.8154 7.92857C17.8492 7.93619 17.8831 7.9438 17.9321 7.9548V7.95396ZM4.02384 12.9454C4.02384 13.982 4.02553 15.0176 4.023 16.0542C4.023 16.352 4.13802 16.5771 4.41122 16.699C4.8375 16.8893 5.28915 16.5703 5.29 16.0762C5.29338 14.6589 5.29084 13.2424 5.29084 11.8251C5.29084 11.1558 5.29084 10.4856 5.29084 9.81634C5.29084 9.52696 5.16736 9.31034 4.90347 9.19273C4.47719 9.00234 4.02638 9.32134 4.02469 9.81549C4.0213 10.8588 4.02384 11.9021 4.02384 12.9454ZM17.9786 12.9463C17.9786 11.9097 17.9769 10.874 17.9795 9.83749C17.9795 9.54049 17.8636 9.31457 17.5904 9.19273C17.1633 9.00234 16.7133 9.32219 16.7125 9.81634C16.7091 11.1558 16.7116 12.4953 16.7116 13.8347C16.7116 14.5819 16.7116 15.329 16.7116 16.0762C16.7116 16.3656 16.8351 16.5822 17.099 16.6998C17.5253 16.8893 17.9761 16.5703 17.9778 16.0762C17.9812 15.0329 17.9786 13.9896 17.9786 12.9463ZM19.2566 15.483C19.5044 15.483 19.7294 15.4923 19.9536 15.4813C20.2978 15.4644 20.5549 15.197 20.5558 14.8433C20.56 13.5766 20.56 12.3091 20.5558 11.0424C20.5549 10.7319 20.3494 10.4679 20.0491 10.429C19.7895 10.396 19.5222 10.4222 19.2566 10.4222V15.483ZM2.73992 15.483V10.4103C2.49549 10.4103 2.26374 10.3993 2.03284 10.4129C1.70805 10.4315 1.44924 10.6946 1.44755 11.023C1.44078 12.304 1.44078 13.5851 1.44755 14.8662C1.44924 15.2038 1.71566 15.4653 2.05145 15.4805C2.27558 15.4906 2.49972 15.4822 2.73992 15.4822V15.483ZM11.0076 19.2941C10.665 19.2907 10.3715 19.5776 10.3682 19.9211C10.3648 20.2646 10.6507 20.5574 10.994 20.5608C11.3366 20.5642 11.6292 20.2773 11.6335 19.9338C11.6369 19.5903 11.351 19.2983 11.0067 19.2941H11.0076Z" fill="#DE000E"/>
<path d="M10.9947 22C10.7824 22 10.5667 21.967 10.3553 21.8976C9.37586 21.5778 8.77958 20.5632 8.96819 19.5377C9.1568 18.5096 10.0863 17.7878 11.1309 17.8606C11.9209 17.9148 12.5248 18.3294 12.8775 19.0596C12.9096 19.1264 12.9113 19.1264 12.9713 19.1264C13.6006 19.1231 14.24 19.1231 14.8592 19.1231C15.2448 19.1231 15.6305 19.1231 16.0171 19.1231C16.3494 19.1231 16.5347 18.9395 16.5398 18.6078C16.5398 18.5942 16.5398 18.5798 16.5414 18.5655C16.588 18.227 16.5431 18.0053 16.1752 17.8039C15.5942 17.4849 15.2728 16.8808 15.2719 16.1014C15.2694 14.2374 15.2677 12.0331 15.2719 9.81876C15.2736 9.15453 15.5561 8.54784 16.0483 8.15522C16.5169 7.78122 17.131 7.63399 17.7484 7.74399C17.4955 4.62168 14.6756 1.46553 10.7266 1.62207C8.39305 1.7143 6.874 2.86591 6.01044 3.8153C4.99802 4.92799 4.35183 6.37999 4.25457 7.7423C4.63517 7.67122 5.00394 7.69999 5.35495 7.82607C6.17114 8.12053 6.72091 8.88291 6.72429 9.72314C6.73359 12.0315 6.73359 14.1418 6.72429 16.1759C6.72006 17.1151 6.04089 17.9427 5.10967 18.1449C4.16322 18.3505 3.21593 17.8945 2.80487 17.0356C2.75582 16.9332 2.73129 16.918 2.61457 16.9205C2.30501 16.9281 2.00136 16.9315 1.69857 16.8816C0.745358 16.7234 0.018819 15.8755 0.00951521 14.9092C-0.00317174 13.5808 -0.00317174 12.2633 0.00951521 10.9924C0.0205106 9.90337 0.925512 8.9963 2.02758 8.97007C2.18659 8.96668 2.34476 8.96753 2.51223 8.96837C2.53506 8.96837 2.55705 8.96837 2.57989 8.96837C2.51645 5.93999 3.66251 3.49207 5.98676 1.6923C7.56417 0.472144 9.39024 -0.0939329 11.4142 0.0126824C13.7537 0.135375 15.7371 1.10676 17.3086 2.89891C18.776 4.57345 19.4857 6.61437 19.418 8.96837H19.4603C19.6091 8.96837 19.7521 8.96837 19.8942 8.96837C21.0868 8.97853 21.9901 9.87884 21.996 11.0626C22.0019 12.3124 22.0019 13.5799 21.996 14.8297C21.9901 16.0126 21.0859 16.9129 19.8933 16.9239H19.8671C19.8384 16.9256 19.8037 16.9273 19.7656 16.9222C19.4011 16.8765 19.1905 16.9163 19.0492 17.2615C18.9207 17.5755 18.6373 17.8191 18.1831 18.0087C18.1603 18.018 18.1518 18.0248 18.1502 18.0264C18.1502 18.0264 18.1468 18.0391 18.1468 18.073C18.1468 18.1339 18.1468 18.1957 18.1468 18.2575C18.1476 18.5028 18.1493 18.7558 18.1096 19.0054C17.9514 19.9946 17.1064 20.7198 16.1016 20.7291C15.0934 20.7384 14.0683 20.7341 13.0779 20.7291H12.9916C12.9096 20.7291 12.9062 20.7325 12.8775 20.7942C12.5298 21.5464 11.7838 22 10.9956 22H10.9947ZM10.9888 18.194C10.1658 18.194 9.45198 18.7795 9.30059 19.5995C9.14242 20.4591 9.6406 21.3087 10.4602 21.5769C11.3068 21.8536 12.1941 21.4644 12.5696 20.6529C12.6753 20.4244 12.8326 20.3915 12.9874 20.3915H13.0788C14.0683 20.3957 15.0918 20.4008 16.0982 20.3915C16.9373 20.3838 17.6427 19.7788 17.7746 18.953C17.8101 18.7304 17.8093 18.502 17.8076 18.26C17.8076 18.1974 17.8076 18.1348 17.8076 18.0721C17.8076 17.9444 17.8364 17.7861 18.052 17.6964C18.4191 17.5433 18.6432 17.3597 18.7354 17.1338C18.9689 16.5618 19.4087 16.5364 19.8071 16.5863C19.8181 16.588 19.8358 16.5863 19.8544 16.5863C19.8663 16.5863 19.8781 16.5863 19.89 16.5854C20.8922 16.577 21.6526 15.8214 21.6577 14.828C21.6636 13.5791 21.6636 12.3132 21.6577 11.0643C21.6526 10.0709 20.8931 9.3153 19.8908 9.30684C19.7495 9.30599 19.6091 9.30684 19.4603 9.30684H19.0645L19.0721 9.12999C19.1769 6.79122 18.4978 4.76976 17.0532 3.12145C15.5443 1.40037 13.6412 0.467913 11.3956 0.350298C9.45452 0.248759 7.70457 0.790298 6.19313 1.96053C3.91456 3.72476 2.81418 6.13799 2.92159 9.13253L2.92836 9.30768H2.75328C2.66954 9.30768 2.58835 9.30768 2.50884 9.30684C2.34391 9.30599 2.18829 9.30514 2.03435 9.30853C1.11243 9.33053 0.355446 10.087 0.346988 10.9958C0.334301 12.2641 0.334301 13.5791 0.346988 14.9058C0.3546 15.7097 0.959344 16.4145 1.75439 16.5457C2.02843 16.5905 2.31431 16.588 2.60696 16.5804C2.85477 16.5744 3.00363 16.6633 3.11105 16.8875C3.45444 17.6042 4.24695 17.9841 5.03862 17.8124C5.80322 17.6465 6.38259 16.9417 6.38682 16.1725C6.39612 14.1392 6.39612 12.0298 6.38682 9.7223C6.38428 9.02422 5.92332 8.38876 5.24076 8.14253C4.88384 8.01391 4.51761 8.00545 4.12178 8.11884L3.90018 8.1823L3.90694 7.9513C3.94839 6.44853 4.6411 4.8163 5.76178 3.58514C7.044 2.17545 8.80326 1.35807 10.7148 1.28191C12.7108 1.20237 14.5834 1.92837 15.9874 3.32453C17.2604 4.59037 18.03 6.27507 18.1011 7.94707L18.1104 8.16791L17.778 8.09261C17.2274 7.96907 16.6742 8.08668 16.2606 8.41753C15.8487 8.74584 15.6119 9.25607 15.6111 9.81707C15.6068 12.0315 15.6085 14.2348 15.6111 16.0989C15.6111 16.5592 15.7388 17.1761 16.3385 17.5052C16.9001 17.8132 16.928 18.2312 16.8781 18.6018V18.6111C16.8705 19.1264 16.533 19.4598 16.0179 19.4607C15.6322 19.4607 15.2457 19.4607 14.8592 19.4607C14.2409 19.4607 13.6023 19.4607 12.9739 19.4641C12.7836 19.4674 12.6609 19.3879 12.573 19.2068C12.2719 18.5832 11.7788 18.2439 11.1081 18.1982C11.0683 18.1957 11.0285 18.194 10.9888 18.194ZM16.8772 18.6094C16.8772 18.6094 16.8772 18.6103 16.8772 18.6111C16.8772 18.6111 16.8772 18.6103 16.8772 18.6094ZM11.0006 20.7291C11.0006 20.7291 10.9956 20.7291 10.9922 20.7291C10.5574 20.724 10.1946 20.3534 10.1988 19.9184C10.2014 19.7069 10.2876 19.5072 10.4416 19.3558C10.5955 19.2043 10.8002 19.1239 11.0082 19.1239C11.2197 19.1264 11.4193 19.2128 11.5707 19.3668C11.7221 19.5216 11.8041 19.723 11.8016 19.9345C11.7965 20.3669 11.4303 20.7291 10.9998 20.7291H11.0006ZM11.0006 19.4632C10.8814 19.4632 10.7672 19.5106 10.6784 19.5978C10.5887 19.6858 10.538 19.8008 10.5371 19.9218C10.5346 20.1731 10.7444 20.3881 10.9964 20.3906C11.2468 20.3965 11.4624 20.1833 11.465 19.9311C11.4667 19.8101 11.4185 19.6942 11.3305 19.6045C11.2425 19.5148 11.1275 19.4641 11.0057 19.4632C11.0057 19.4632 11.0023 19.4632 11.0006 19.4632ZM4.66647 16.9248C4.55736 16.9248 4.44741 16.9011 4.34168 16.8537C4.02113 16.7107 3.85197 16.434 3.85366 16.0532C3.85535 15.3027 3.85535 14.5521 3.85535 13.8016V12.0196C3.8545 11.2843 3.85366 10.549 3.85535 9.81453C3.8562 9.51414 3.99829 9.24337 4.23427 9.09107C4.45671 8.94722 4.72567 8.92861 4.97265 9.0386C5.29236 9.18076 5.46067 9.45068 5.46067 9.81707C5.46067 10.2841 5.46067 10.7512 5.46067 11.2183V13.0062C5.46067 14.0301 5.46152 15.0531 5.45983 16.0769C5.45983 16.3773 5.31773 16.6481 5.08091 16.8004C4.95404 16.8825 4.81195 16.9239 4.66731 16.9239L4.66647 16.9248ZM4.19282 12.9453V13.8025C4.19282 14.553 4.19367 15.3044 4.19198 16.0549C4.19198 16.3011 4.28248 16.4568 4.47955 16.5448C4.61995 16.6075 4.77219 16.5973 4.89652 16.5169C5.03608 16.4264 5.12066 16.2614 5.12066 16.0761C5.1232 15.0531 5.12235 14.0301 5.12235 13.0062V11.2183C5.12235 10.7512 5.12235 10.2833 5.12235 9.81622C5.12235 9.58353 5.03101 9.4346 4.83478 9.34661C4.69438 9.28399 4.54214 9.29414 4.41865 9.37453C4.27909 9.46507 4.19536 9.63007 4.19451 9.81537C4.19198 10.5498 4.19282 11.2851 4.19282 12.0196V12.9445V12.9453ZM17.3543 16.9248C17.246 16.9248 17.136 16.9011 17.0303 16.8545C16.7106 16.7124 16.5414 16.4433 16.5423 16.0761C16.5423 15.5506 16.5423 15.0243 16.5423 14.4988V12.7135C16.5423 11.748 16.5414 10.7817 16.5431 9.81622C16.5431 9.51584 16.6852 9.24507 16.9212 9.09191C17.1428 8.94807 17.4118 8.92861 17.6587 9.0386C17.9801 9.18161 18.1485 9.4583 18.1476 9.83822C18.1459 10.5888 18.1459 11.3393 18.1468 12.0907V13.8532C18.1476 14.5944 18.1485 15.3357 18.1459 16.0769C18.1451 16.3773 18.003 16.6481 17.767 16.8012C17.6401 16.8833 17.498 16.9248 17.3534 16.9248H17.3543ZM17.3356 9.30684C17.2545 9.30684 17.1758 9.32968 17.1047 9.37537C16.9652 9.46591 16.8815 9.63091 16.8806 9.81622C16.8781 10.7817 16.8789 11.7471 16.8789 12.7126V14.498C16.8789 15.0234 16.8789 15.5498 16.8789 16.0761C16.8789 16.3088 16.9703 16.4577 17.1665 16.5448C17.3069 16.6075 17.4591 16.5973 17.5826 16.5169C17.7222 16.4264 17.8068 16.2614 17.8068 16.0761C17.8093 15.3357 17.8093 14.5944 17.8084 13.8541V12.0915C17.8076 11.3401 17.8076 10.5896 17.8084 9.83822C17.8084 9.59199 17.7171 9.4363 17.52 9.3483C17.4591 9.32122 17.3965 9.30768 17.334 9.30768L17.3356 9.30684ZM19.6963 15.6555C19.6261 15.6555 19.5559 15.6555 19.4831 15.6538C19.4095 15.653 19.3343 15.6521 19.2565 15.6521H19.0873V10.2528H19.2565C19.336 10.2528 19.4163 10.2503 19.4958 10.2478C19.6827 10.2418 19.8764 10.2359 20.0701 10.2605C20.4482 10.3087 20.7231 10.637 20.7248 11.0406C20.729 12.3293 20.729 13.6087 20.7248 14.8432C20.7231 15.2815 20.3949 15.6285 19.961 15.6496C19.8722 15.6538 19.7842 15.6555 19.6954 15.6555H19.6963ZM19.4256 15.3145C19.4459 15.3145 19.4671 15.3145 19.4874 15.3145C19.6464 15.3162 19.7969 15.3179 19.9449 15.3111C20.2004 15.2985 20.3856 15.1013 20.3864 14.8415C20.3907 13.6078 20.3907 12.3293 20.3864 11.0415C20.3864 10.8096 20.235 10.6218 20.027 10.5955C19.8603 10.5744 19.6878 10.5795 19.506 10.5854C19.4789 10.5854 19.4527 10.5871 19.4256 10.5879V15.3145ZM2.30839 15.6555C2.22043 15.6555 2.13246 15.6538 2.0445 15.6505C1.61737 15.631 1.28159 15.2866 1.27906 14.8678C1.27229 13.5935 1.27229 12.2997 1.27906 11.0228C1.28075 10.6108 1.60807 10.2689 2.0242 10.2444C2.18829 10.2351 2.34814 10.2368 2.5173 10.2393C2.59088 10.2401 2.66531 10.241 2.74059 10.241H2.90975V15.6521H2.74059C2.66616 15.6521 2.59258 15.6521 2.52068 15.6538C2.44879 15.6538 2.37859 15.6555 2.30839 15.6555ZM2.29909 10.5752C2.21281 10.5752 2.12739 10.5769 2.04365 10.582C1.80599 10.5955 1.61822 10.7901 1.61737 11.0245C1.61061 12.3005 1.61061 13.5926 1.61737 14.8661C1.61822 15.1089 1.80852 15.301 2.05973 15.312C2.20859 15.3188 2.35829 15.3171 2.51645 15.3154C2.53422 15.3154 2.55282 15.3154 2.57059 15.3154V10.5786C2.55113 10.5786 2.53083 10.5786 2.51138 10.5786C2.43864 10.5778 2.36759 10.5769 2.29824 10.5769L2.29909 10.5752Z" fill="#DE000E"/>
</g>
<defs>
<clipPath id="clip0_998_7829">
<rect width="22" height="22" fill="white"/>
</clipPath>
</defs>
</svg>
