<svg width="20" height="21" viewBox="0 0 20 21" fill="none" xmlns="http://www.w3.org/2000/svg">
<path d="M9.95018 20.9915C7.59906 20.9915 5.24795 20.9987 2.89683 20.9915C1.15544 20.9842 0.0166535 19.7983 0.014281 18.0073C0.0119085 14.6878 0.014281 11.3682 4.61994e-05 8.0487C-0.00469874 7.07666 0.355916 6.35491 1.14595 5.80085C3.55638 4.10949 5.94782 2.38898 8.34639 0.678181C9.58956 -0.208808 10.3559 -0.230679 11.5919 0.64173C14.0308 2.36225 16.4626 4.09248 18.8968 5.82029C19.6299 6.34033 20.0047 7.03049 20 7.97094C19.981 11.3099 20 14.6489 19.9928 17.9903C19.9905 19.8323 18.8707 20.9842 17.0628 20.9939C14.6927 21.006 12.3203 20.9963 9.95018 20.9963V20.9915ZM9.9739 19.1008V19.096C12.306 19.096 14.6358 19.0984 16.9679 19.096C17.8268 19.096 18.1708 18.7606 18.1732 17.8955C18.1826 14.6586 18.1874 11.4193 18.1565 8.18236C18.1542 7.89803 17.9549 7.51408 17.7295 7.3464C15.3357 5.59672 12.9134 3.88592 10.5101 2.1484C10.1471 1.88595 9.87426 1.88838 9.5089 2.15326C7.15067 3.84947 4.78294 5.53354 2.40336 7.20059C1.97868 7.4995 1.83396 7.847 1.83634 8.36461C1.85532 11.48 1.8482 14.5978 1.84345 17.7157C1.84345 18.7898 2.12341 19.1033 3.1578 19.1057C5.43063 19.1106 7.70108 19.1057 9.9739 19.1057V19.1008Z" fill="black"/>
</svg>
