<svg width="80" height="19" viewBox="0 0 80 19" fill="none" xmlns="http://www.w3.org/2000/svg">
<g clip-path="url(#clip0_1148_4654)">
<path d="M7.04278 13.6968H2.41767C2.41767 14.2482 2.52279 14.7629 2.73302 15.1673C2.94325 15.6084 3.22356 15.9393 3.57395 16.1231C3.92434 16.3437 4.30976 16.454 4.73023 16.454C5.01054 16.454 5.25581 16.454 5.50108 16.3437C5.74635 16.2702 5.95658 16.1599 6.16681 16.0128C6.37705 15.8658 6.58728 15.7187 6.76247 15.5349C6.93767 15.3511 7.18294 15.1305 7.46325 14.8364C7.56836 14.7261 7.74356 14.6894 7.98883 14.6894C8.2341 14.6894 8.40929 14.7629 8.58449 14.9099C8.72464 15.057 8.79472 15.2408 8.79472 15.4981C8.79472 15.7187 8.72464 15.9761 8.54945 16.2702C8.37425 16.5643 8.12898 16.8583 7.77859 17.1524C7.42821 17.4098 7.00774 17.6671 6.5172 17.8509C5.99162 18.0347 5.431 18.1083 4.76527 18.1083C3.2586 18.1083 2.06729 17.6671 1.22636 16.7481C0.38543 15.829 -0.0350342 14.6158 -0.0350342 13.0718C-0.0350342 12.3366 0.0700819 11.6748 0.280314 11.0499C0.490546 10.4249 0.805894 9.87349 1.19132 9.43234C1.57675 8.99119 2.06729 8.62357 2.66295 8.40299C3.2586 8.14566 3.8893 8.03537 4.59007 8.03537C5.50108 8.03537 6.30697 8.25594 6.9727 8.66033C7.63844 9.06472 8.12898 9.61615 8.44433 10.2411C8.75968 10.9028 8.93487 11.5646 8.93487 12.2263C8.93487 12.8512 8.75968 13.2556 8.40929 13.4394C8.0589 13.6233 7.6034 13.7335 6.9727 13.7335M2.41767 12.263H6.6924C6.62232 11.4175 6.41209 10.7926 6.02666 10.3514C5.64123 9.94702 5.15069 9.72644 4.52 9.72644C3.8893 9.72644 3.4338 9.94702 3.08341 10.3514C2.69798 10.7926 2.48775 11.4175 2.38264 12.2263" fill="#1D1D1B"/>
<path d="M15.8375 17.0789L14.1207 14.432L12.3687 17.0789C12.1234 17.4466 11.9132 17.7039 11.738 17.8509C11.5628 17.998 11.3526 18.1083 11.0723 18.1083C10.7569 18.1083 10.5117 17.998 10.3014 17.8142C10.0912 17.6304 9.98608 17.4098 9.98608 17.1525C9.98608 16.8951 10.1613 16.5275 10.4766 16.0496L12.614 12.8513L10.7219 10.1676C10.4065 9.72645 10.2314 9.35883 10.2314 9.02797C10.2314 8.77063 10.3365 8.55005 10.5117 8.36624C10.7219 8.18243 10.9672 8.07214 11.2825 8.07214C11.5628 8.07214 11.8081 8.14567 11.9833 8.32948C12.1585 8.47653 12.3687 8.73387 12.614 9.10149L14.1557 11.3072L15.6273 9.10149C15.8726 8.73387 16.0828 8.47653 16.258 8.32948C16.4332 8.18243 16.6785 8.10891 16.9237 8.10891C17.2391 8.10891 17.4844 8.21919 17.6946 8.403C17.9048 8.58682 18.0099 8.80739 18.0099 9.06473C18.0099 9.24854 17.9749 9.43235 17.8698 9.61617C17.7997 9.79998 17.6596 9.98379 17.4844 10.2411L15.5923 12.9248L17.7296 16.1231C18.045 16.6378 18.2202 17.0054 18.2202 17.2627C18.2202 17.5201 18.1151 17.7407 17.9048 17.9245C17.6946 18.1083 17.4493 18.2186 17.134 18.2186C16.8537 18.2186 16.6434 18.145 16.4332 17.9612C16.258 17.8142 16.0478 17.5201 15.8025 17.1892" fill="#E20613"/>
<path d="M20.0772 8.25594H20.3224V6.78544C20.3224 6.38105 20.3224 6.08696 20.3224 5.86638C20.3224 5.64581 20.3925 5.46199 20.4976 5.27818C20.6028 5.09437 20.7079 4.98408 20.8831 4.8738C21.0583 4.76351 21.2334 4.72675 21.4787 4.72675C21.759 4.72675 22.0393 4.83703 22.2846 5.09437C22.4598 5.24142 22.5649 5.46199 22.6 5.68257C22.635 5.90314 22.67 6.23401 22.67 6.63839V8.32946H23.546C23.8614 8.32946 24.1417 8.40299 24.3169 8.5868C24.492 8.73385 24.5621 8.95442 24.5621 9.21176C24.5621 9.54262 24.457 9.7632 24.1767 9.91025C23.9314 10.0573 23.581 10.1308 23.0905 10.1308H22.635V14.6894C22.635 15.057 22.635 15.3878 22.67 15.5717C22.67 15.7922 22.7752 15.9393 22.8803 16.0863C22.9854 16.2334 23.1956 16.2701 23.4409 16.2701C23.581 16.2701 23.7562 16.2701 24.0015 16.1966C24.2468 16.1599 24.422 16.1231 24.5621 16.1231C24.7373 16.1231 24.9125 16.1966 25.0877 16.3804C25.2279 16.5275 25.333 16.7481 25.333 16.9686C25.333 17.373 25.1227 17.6671 24.7023 17.8877C24.2818 18.1083 23.6862 18.2186 22.9153 18.2186C22.1445 18.2186 21.6189 18.0715 21.2334 17.8142C20.848 17.5568 20.6028 17.1892 20.4976 16.7481C20.3925 16.2701 20.3224 15.6819 20.3224 14.9099V10.1676H20.0071C19.6567 10.1676 19.4114 10.0941 19.2362 9.91025C19.061 9.7632 18.9559 9.54262 18.9559 9.24852C18.9559 8.95442 19.061 8.77061 19.2362 8.62356C19.4114 8.47651 19.6917 8.36622 20.0421 8.36622" fill="#1D1D1B"/>
<path d="M32.2005 16.7113C31.6399 17.1892 31.0793 17.5201 30.5537 17.7774C30.0281 17.998 29.4325 18.145 28.7667 18.145C28.1711 18.145 27.6455 17.998 27.19 17.7774C26.7345 17.5201 26.3841 17.1892 26.1388 16.7481C25.8936 16.3069 25.7534 15.8658 25.7534 15.3511C25.7534 14.6894 25.9637 14.1012 26.3841 13.6233C26.8046 13.1454 27.3652 12.8145 28.066 12.6674C28.2061 12.6674 28.5916 12.5572 29.1872 12.4101C29.7829 12.2631 30.2734 12.1528 30.6939 12.0425C31.1143 11.9322 31.5698 11.8219 32.0604 11.6749C32.0604 11.0131 31.9202 10.5352 31.675 10.2411C31.4647 9.94703 31.0092 9.79998 30.3084 9.79998C29.7128 9.79998 29.2573 9.8735 28.9419 10.0573C28.6266 10.2411 28.3813 10.4985 28.1711 10.8293C27.9609 11.1969 27.8207 11.4175 27.7156 11.5278C27.6105 11.6381 27.4353 11.7116 27.155 11.7116C26.8747 11.7116 26.6644 11.6381 26.4542 11.4543C26.279 11.2705 26.1739 11.0499 26.1739 10.7926C26.1739 10.3514 26.314 9.94703 26.6294 9.50588C26.9097 9.10149 27.4002 8.77063 27.9959 8.47653C28.6266 8.21919 29.3974 8.07214 30.3435 8.07214C31.3946 8.07214 32.2005 8.21919 32.7962 8.43977C33.3919 8.6971 33.8123 9.10149 34.0576 9.65293C34.3029 10.2044 34.408 10.9396 34.408 11.8587C34.408 12.4469 34.408 12.9248 34.408 13.3292C34.408 13.7336 34.408 14.1747 34.408 14.6894C34.408 15.1673 34.4781 15.6452 34.6182 16.1599C34.7584 16.6745 34.8284 16.9686 34.8284 17.1157C34.8284 17.373 34.7233 17.5936 34.4781 17.8142C34.2328 18.0348 33.9875 18.145 33.7072 18.145C33.4619 18.145 33.2167 18.0348 33.0064 17.7774C32.7612 17.5201 32.5159 17.1892 32.2706 16.7481M32.0253 13.1086C31.675 13.2556 31.1844 13.4027 30.5187 13.5497C29.8529 13.6968 29.3974 13.8071 29.1522 13.8806C28.9069 13.9541 28.6616 14.1012 28.4164 14.285C28.1711 14.5056 28.066 14.7629 28.066 15.1305C28.066 15.4982 28.2061 15.829 28.4864 16.0864C28.7667 16.3437 29.1171 16.4907 29.5376 16.4907C29.9931 16.4907 30.4486 16.3804 30.834 16.1599C31.2195 15.9393 31.4998 15.682 31.71 15.3143C31.9202 14.9467 32.0253 14.3218 32.0253 13.4762V13.1086Z" fill="#1D1D1B"/>
<path d="M40.9602 8.25596H41.5209V7.52071C41.5209 6.7487 41.626 6.12374 41.8012 5.68259C41.9764 5.24144 42.2917 4.91058 42.7472 4.69C43.2027 4.46943 43.7984 4.3959 44.6043 4.3959C45.9708 4.3959 46.6715 4.76353 46.6715 5.46201C46.6715 5.68259 46.6015 5.90316 46.4613 6.05021C46.3212 6.19726 46.146 6.30755 45.9357 6.30755C45.8306 6.30755 45.6905 6.30755 45.4452 6.27079C45.235 6.27079 45.0247 6.23403 44.8846 6.23403C44.4641 6.23403 44.1838 6.38108 44.0787 6.63841C43.9736 6.89575 43.9035 7.26337 43.9035 7.77805V8.36625H44.4641C45.3751 8.36625 45.7956 8.66035 45.7956 9.21178C45.7956 9.61617 45.6905 9.87351 45.4452 9.98379C45.1999 10.0941 44.8846 10.1676 44.4641 10.1676H43.9035V16.7113C43.9035 17.1892 43.7984 17.5936 43.5531 17.851C43.3429 18.1083 43.0275 18.2186 42.6771 18.2186C42.3267 18.2186 42.0815 18.0715 41.8362 17.851C41.626 17.5936 41.4858 17.226 41.4858 16.7113V10.1676H40.8551C40.5047 10.1676 40.2244 10.0941 40.0492 9.91027C39.874 9.72646 39.7689 9.54264 39.7689 9.24854C39.7689 8.66035 40.1543 8.36625 40.9602 8.36625" fill="#1D1D1B"/>
<path d="M49.4046 14.5423V16.601C49.4046 17.1157 49.2995 17.4833 49.0542 17.7406C48.844 17.998 48.5286 18.1083 48.2133 18.1083C47.8979 18.1083 47.5826 17.998 47.3724 17.7406C47.1621 17.4833 47.057 17.1157 47.057 16.601V9.68968C47.057 8.58681 47.4424 8.03537 48.2133 8.03537C48.5987 8.03537 48.879 8.18242 49.0542 8.43976C49.2294 8.69709 49.3345 9.10148 49.3345 9.57939C49.6148 9.06472 49.8951 8.69709 50.2105 8.43976C50.4908 8.18242 50.9113 8.03537 51.4018 8.03537C51.8923 8.03537 52.3829 8.18242 52.8384 8.43976C53.2939 8.69709 53.5392 9.02795 53.5392 9.4691C53.5392 9.7632 53.434 10.0205 53.2238 10.2044C53.0136 10.3882 52.8034 10.4985 52.5931 10.4985C52.523 10.4985 52.3128 10.4617 51.9624 10.3514C51.6471 10.2411 51.3317 10.1676 51.0865 10.1676C50.7361 10.1676 50.4558 10.2779 50.2455 10.4617C50.0353 10.6455 49.8601 10.9396 49.755 11.3072C49.6499 11.6748 49.5448 12.116 49.5097 12.6307C49.4747 13.1453 49.4396 13.7703 49.4396 14.5056" fill="#1D1D1B"/>
<path d="M60.9673 13.6968H56.3422C56.3422 14.2482 56.4473 14.7629 56.6576 15.1673C56.8678 15.6084 57.1481 15.9393 57.4985 16.1231C57.8489 16.3437 58.2343 16.454 58.6548 16.454C58.9351 16.454 59.1804 16.454 59.4256 16.3437C59.6709 16.2702 59.8811 16.1599 60.0914 16.0128C60.3016 15.8658 60.5118 15.7187 60.687 15.5349C60.8622 15.3511 61.1075 15.1305 61.4228 14.8364C61.528 14.7261 61.7032 14.6894 61.9484 14.6894C62.1937 14.6894 62.3689 14.7629 62.5441 14.9099C62.6842 15.057 62.7543 15.2408 62.7543 15.4981C62.7543 15.7187 62.6842 15.9761 62.509 16.2702C62.3338 16.5643 62.0886 16.8583 61.7382 17.1524C61.3878 17.4098 60.9673 17.6671 60.4768 17.8509C59.9512 18.0347 59.3906 18.1083 58.7249 18.1083C57.2182 18.1083 56.0269 17.6671 55.186 16.7481C54.345 15.829 53.9246 14.6158 53.9246 13.0718C53.9246 12.3366 54.0297 11.6748 54.2399 11.0499C54.4501 10.4249 54.7655 9.87349 55.1509 9.43234C55.5363 8.99119 56.0269 8.62357 56.6225 8.40299C57.2182 8.14566 57.8489 8.03537 58.5497 8.03537C59.4607 8.03537 60.2666 8.25594 60.9323 8.66033C61.598 9.06472 62.0886 9.61615 62.4039 10.2411C62.7193 10.9028 62.8945 11.5646 62.8945 12.2263C62.8945 12.8512 62.7193 13.2556 62.3689 13.4394C62.0185 13.6233 61.563 13.7335 60.9323 13.7335M56.3422 12.263H60.6169C60.5469 11.4175 60.3366 10.7926 59.9512 10.3514C59.5658 9.94702 59.0752 9.72644 58.4446 9.72644C57.8139 9.72644 57.3584 9.94702 57.008 10.3514C56.6225 10.7926 56.4123 11.4175 56.3422 12.2263" fill="#1D1D1B"/>
<path d="M71.4789 13.6968H66.8538C66.8538 14.2482 66.9589 14.7629 67.1692 15.1673C67.3794 15.6084 67.6597 15.9393 68.0101 16.1231C68.3605 16.3437 68.7459 16.454 69.1664 16.454C69.4467 16.454 69.692 16.454 69.9372 16.3437C70.1825 16.2702 70.3927 16.1599 70.603 16.0128C70.8132 15.8658 71.0234 15.7187 71.1986 15.5349C71.3738 15.3511 71.6191 15.1305 71.9344 14.8364C72.0396 14.7261 72.2148 14.6894 72.46 14.6894C72.7053 14.6894 72.8805 14.7629 73.0557 14.9099C73.1958 15.057 73.2659 15.2408 73.2659 15.4981C73.2659 15.7187 73.1958 15.9761 73.0206 16.2702C72.8454 16.5643 72.6002 16.8583 72.2498 17.1524C71.8994 17.4098 71.4789 17.6671 70.9884 17.8509C70.4979 18.0347 69.9022 18.1083 69.2365 18.1083C67.7298 18.1083 66.5385 17.6671 65.6976 16.7481C64.8566 15.829 64.4362 14.6158 64.4362 13.0718C64.4362 12.3366 64.5413 11.6748 64.7515 11.0499C64.9617 10.4249 65.2771 9.87349 65.6625 9.43234C66.0479 8.99119 66.5385 8.62357 67.1341 8.40299C67.7298 8.14566 68.3605 8.03537 69.0613 8.03537C69.9723 8.03537 70.7782 8.25594 71.4439 8.66033C72.1096 9.06472 72.6002 9.61615 72.9155 10.2411C73.2309 10.9028 73.4061 11.5646 73.4061 12.2263C73.4061 12.8512 73.2309 13.2556 72.8805 13.4394C72.5301 13.6233 72.0746 13.7335 71.4439 13.7335M66.8538 12.263H71.1285C71.0585 11.4175 70.8482 10.7926 70.4628 10.3514C70.0774 9.94702 69.5868 9.72644 68.9562 9.72644C68.3255 9.72644 67.87 9.94702 67.5196 10.3514C67.1341 10.7926 66.9239 11.4175 66.8188 12.2263" fill="#1D1D1B"/>
<path d="M79.0473 9.98377C78.8021 9.98377 78.5918 9.76319 78.5918 9.50586C78.5918 5.24142 75.2982 1.78575 71.2337 1.78575C70.9884 1.78575 70.7782 1.56517 70.7782 1.30784C70.7782 1.0505 70.9884 0.829926 71.2337 0.829926C75.7887 0.829926 79.4678 4.72674 79.4678 9.46909C79.4678 9.72643 79.2576 9.94701 79.0123 9.94701" fill="#E20613"/>
<path d="M76.945 9.98377C76.6997 9.98377 76.4895 9.7632 76.4895 9.50586C76.4895 6.45458 74.1419 3.9915 71.2337 3.9915C70.9884 3.9915 70.7782 3.77092 70.7782 3.51359C70.7782 3.25625 70.9884 3.03568 71.2337 3.03568C74.6325 3.03568 77.3655 5.93991 77.3655 9.4691C77.3655 9.72644 77.1552 9.94701 76.91 9.94701" fill="#E20613"/>
<path d="M74.8077 10.0573C74.5624 10.0573 74.3522 9.83674 74.3522 9.5794C74.3522 7.74128 72.9156 6.23402 71.1636 6.23402C70.9184 6.23402 70.7081 6.01345 70.7081 5.75611C70.7081 5.49877 70.9184 5.2782 71.1636 5.2782C73.4061 5.2782 75.2281 7.18984 75.2281 9.54264C75.2281 9.79997 75.0179 10.0205 74.7726 10.0205" fill="#E20613"/>
</g>
<defs>
<clipPath id="clip0_1148_4654">
<rect width="79.5028" height="17.2416" fill="white" transform="translate(0 0.866699)"/>
</clipPath>
</defs>
</svg>
