<svg width="42" height="39" viewBox="0 0 42 39" fill="none" xmlns="http://www.w3.org/2000/svg">
<path d="M39.8181 22.3056C39.2131 20.8431 38.3813 19.4575 37.4738 17.995C39.8937 14.916 36.8688 9.98949 32.9365 6.7565C29.3066 3.67746 24.4668 1.67609 21.7445 3.90839C19.4002 2.67678 16.9803 1.75307 14.7116 1.21423C9.49371 0.0595947 5.18326 1.06028 2.76336 4.06234C-1.9252 9.83554 2.46087 21.151 12.7454 29.8493C17.434 33.7751 22.6519 36.5462 27.4917 37.6239C29.0042 37.9318 30.3653 38.0857 31.7265 38.0857C35.0539 38.0857 37.7763 37.008 39.5156 34.8527C41.9355 31.8507 42.0867 27.3861 39.8937 22.3056M7.7544 13.6074C7.7544 13.6074 8.66187 13.0685 9.56933 13.0685C12.1405 13.0685 16.7534 14.839 21.5932 18.9187C28.0211 24.384 30.5166 30.2342 29.3066 31.6967C28.5504 32.6204 26.0549 32.4665 22.8788 31.0809C20.4589 29.8493 17.9634 28.3098 15.6191 26.3084C13.6529 24.6919 11.9892 22.9215 10.628 21.228C7.98127 17.6871 6.99818 14.685 7.83002 13.6074M35.9614 31.9276C35.3564 32.6974 34.2977 33.2362 33.0121 33.3902C35.5076 28.6946 30.5922 20.9201 24.24 15.5318C17.8877 10.2204 9.49371 6.83348 5.41012 10.2204C5.41012 8.91183 5.63699 7.75719 6.24196 6.98743C7.0738 5.90977 8.58624 5.37094 10.5524 5.37094C11.5355 5.37094 12.5942 5.52489 13.7285 5.75581C17.8121 6.67953 22.4251 9.14276 26.5843 12.6067C30.7435 16.0706 33.9952 20.2273 35.6589 24.1531C37.0957 27.54 37.1713 30.3881 35.9614 31.9276Z" fill="black"/>
</svg>
