<svg width="111" height="22" viewBox="0 0 111 22" fill="none" xmlns="http://www.w3.org/2000/svg">
<g clip-path="url(#clip0_1144_8800)">
<path d="M10.1918 20.191L6.68494 14.4721L4.52235 16.5146V19.6658C4.52235 20.4244 4.347 21.008 3.93786 21.4164C3.52872 21.8249 3.06114 22.0584 2.5351 22.0584C1.95061 22.0584 1.42458 21.8249 1.07389 21.4748C0.723197 21.0663 0.547852 20.4828 0.547852 19.6658V2.68435C0.6063 1.80902 0.781645 1.16711 1.13234 0.700265C1.48303 0.233422 1.95061 0 2.59355 0C3.23648 0 3.70407 0.233422 4.05476 0.64191C4.40545 1.0504 4.5808 1.69231 4.5808 2.50928V12.1379L9.02288 7.4695C9.60736 6.88594 10.0165 6.47745 10.3087 6.30239C10.601 6.06897 10.9517 6.01061 11.3608 6.01061C11.8869 6.01061 12.296 6.18568 12.5882 6.47745C12.9389 6.76923 13.0558 7.17772 13.0558 7.64456C13.0558 8.22812 12.5298 8.98674 11.4193 9.97878L9.31512 11.9045L13.4065 18.3236C13.6988 18.7905 13.9325 19.1406 14.0494 19.374C14.1663 19.6074 14.2248 19.8408 14.2248 20.0743C14.2248 20.7162 14.0494 21.183 13.6988 21.5332C13.3481 21.8833 12.8805 22.0584 12.3544 22.0584C11.8869 22.0584 11.4777 21.9416 11.2439 21.6499C11.0101 21.4164 10.601 20.8912 10.1918 20.2493" fill="black"/>
<path d="M30.8245 13.9469C30.8245 15.114 30.6492 16.2227 30.2401 17.2148C29.8894 18.2068 29.3633 19.0821 28.662 19.7824C27.9606 20.4827 27.1423 21.0662 26.1487 21.4164C25.155 21.8248 24.103 21.9999 22.8756 21.9999C21.6481 21.9999 20.5961 21.8248 19.6609 21.4164C18.7257 21.0079 17.849 20.4827 17.1476 19.724C16.4462 19.0238 15.9202 18.1484 15.5695 17.1564C15.2188 16.1644 15.0435 15.114 15.0435 13.8885C15.0435 12.663 15.2188 11.6126 15.6279 10.6206C15.9786 9.62855 16.5047 8.75322 17.206 8.05296C17.9074 7.35269 18.7257 6.82749 19.7193 6.419C20.713 6.01052 21.765 5.83545 22.934 5.83545C24.103 5.83545 25.2135 6.01052 26.2071 6.419C27.2007 6.82749 28.019 7.35269 28.7204 8.05296C29.4218 8.75322 29.9478 9.62855 30.2985 10.6206C30.6492 11.6126 30.8245 12.7214 30.8245 13.8885M26.85 13.9469C26.85 12.3129 26.4994 11.0874 25.798 10.1538C25.0966 9.27842 24.103 8.81158 22.934 8.81158C22.1742 8.81158 21.4728 8.98664 20.8883 9.39513C20.3038 9.80362 19.8362 10.3872 19.544 11.2041C19.1933 11.9628 19.0764 12.8965 19.0764 13.9469C19.0764 14.9973 19.2517 15.8726 19.544 16.6896C19.8362 17.4482 20.3038 18.0317 20.8883 18.4402C21.4728 18.8487 22.1742 19.0821 22.934 19.0821C24.1614 19.0821 25.0966 18.6153 25.798 17.74C26.4994 16.8646 26.85 15.5808 26.85 14.0052" fill="#DE000E"/>
<path d="M37.2534 8.11131V8.57815C37.9548 7.64447 38.7146 7.00256 39.5329 6.53571C40.3512 6.12723 41.2863 5.8938 42.3969 5.8938C43.5074 5.8938 44.3841 6.12723 45.2024 6.59407C46.0207 7.06091 46.6636 7.70282 47.0727 8.5198C47.3065 8.98664 47.4819 9.51184 47.5988 10.0954C47.6572 10.679 47.7157 11.3792 47.7157 12.2545V19.6073C47.7157 20.4243 47.5403 21.0079 47.1896 21.4164C46.8389 21.8248 46.3714 21.9999 45.7869 21.9999C45.2024 21.9999 44.7348 21.7665 44.3257 21.358C43.9165 20.9495 43.7412 20.366 43.7412 19.549V12.9548C43.7412 11.671 43.5658 10.679 43.2151 9.97869C42.8644 9.27842 42.1046 8.92829 41.0525 8.92829C40.3512 8.92829 39.7082 9.16171 39.1237 9.5702C38.5393 9.97868 38.1301 10.5622 37.8379 11.3209C37.6625 11.9044 37.5456 13.0132 37.5456 14.6471V19.6073C37.5456 20.4243 37.3703 21.0079 36.9612 21.4164C36.6105 21.8248 36.0844 21.9999 35.4999 21.9999C34.9155 21.9999 34.4479 21.7665 34.0972 21.358C33.7465 20.9495 33.5127 20.366 33.5127 19.549V8.11131C33.5127 7.35269 33.688 6.76914 34.0387 6.419C34.3894 6.06887 34.7986 5.83545 35.383 5.83545C35.7337 5.83545 36.026 5.8938 36.3182 6.06887C36.6105 6.24394 36.8443 6.47736 37.0196 6.82749C37.1949 7.17762 37.2534 7.58611 37.2534 8.05296" fill="black"/>
<path d="M62.445 14.9389H54.6713C54.6713 15.8142 54.8467 16.6312 55.1974 17.3315C55.5481 18.0317 56.0156 18.5569 56.6001 18.9071C57.1846 19.2572 57.8275 19.4322 58.5289 19.4322C58.9965 19.4322 59.4057 19.4322 59.8148 19.2572C60.2239 19.1405 60.5746 18.9654 60.9838 18.732C61.3344 18.4986 61.6851 18.2651 61.9774 17.9734C62.2696 17.6816 62.6788 17.3315 63.2048 16.8646C63.4386 16.6895 63.6724 16.6312 64.0815 16.6312C64.4907 16.6312 64.8414 16.7479 65.0752 16.9813C65.3089 17.2147 65.4258 17.5065 65.4258 17.915C65.4258 18.2651 65.3089 18.6736 65.0167 19.1988C64.7245 19.6657 64.3153 20.1325 63.7308 20.5994C63.1464 21.0662 62.445 21.4163 61.5682 21.7081C60.6915 21.9999 59.6979 22.1166 58.5874 22.1166C56.0156 22.1166 54.0284 21.4163 52.6256 19.9574C51.2229 18.4986 50.5215 16.5145 50.5215 14.0635C50.5215 12.8964 50.6968 11.7877 51.0475 10.7956C51.3982 9.8036 51.9242 8.92827 52.5672 8.228C53.2101 7.52774 54.0284 6.94419 55.022 6.59405C56.0156 6.18556 57.0677 6.0105 58.2951 6.0105C59.8148 6.0105 61.1591 6.36063 62.2696 7.00254C63.3801 7.64445 64.1984 8.51978 64.7829 9.51182C65.3674 10.5622 65.6012 11.6126 65.6012 12.663C65.6012 13.6551 65.3089 14.297 64.7245 14.5887C64.14 14.8805 63.3217 15.0556 62.3281 15.0556M54.6713 12.663H61.8605C61.7436 11.3208 61.3929 10.2704 60.75 9.62854C60.107 8.98663 59.2888 8.63649 58.2367 8.63649C57.1846 8.63649 56.4248 8.98663 55.7818 9.62854C55.1389 10.3288 54.7298 11.3208 54.6129 12.663" fill="black"/>
<path d="M78.6352 20.191L75.1283 14.4721L72.9657 16.5146V19.6658C72.9657 20.4244 72.7904 21.008 72.3812 21.4164C71.9721 21.8249 71.5045 22.0584 70.9785 22.0584C70.394 22.0584 69.8679 21.8249 69.5172 21.4748C69.1666 21.0663 68.9912 20.4828 68.9912 19.6658V2.68435C68.9912 1.80902 69.1666 1.10875 69.5172 0.700265C69.8679 0.233422 70.3355 0 70.9785 0C71.6214 0 72.089 0.233422 72.4397 0.64191C72.7904 1.0504 72.9657 1.69231 72.9657 2.50928V12.1379L77.4078 7.4695C77.9923 6.88594 78.4014 6.47745 78.6937 6.30239C78.9859 6.06897 79.3366 6.01061 79.7457 6.01061C80.2718 6.01061 80.6809 6.18568 80.9731 6.47745C81.3238 6.76923 81.4407 7.17772 81.4407 7.64456C81.4407 8.22812 80.9147 8.98674 79.8042 9.97878L77.7 11.9045L81.7914 18.3236C82.0837 18.7905 82.3175 19.1406 82.4344 19.374C82.5513 19.6074 82.6097 19.8408 82.6097 20.0743C82.6097 20.7162 82.4344 21.183 82.0837 21.5332C81.733 21.8833 81.2654 22.0584 80.7394 22.0584C80.2718 22.0584 79.8626 21.9416 79.6288 21.6499C79.395 21.4164 78.9859 20.8912 78.5768 20.2493" fill="black"/>
<path d="M85.7074 6.24398H86.1165V3.85141C86.1165 3.2095 86.1165 2.6843 86.1165 2.33417C86.1165 1.98403 86.2334 1.6339 86.4088 1.40048C86.5841 1.1087 86.8179 0.933635 87.0517 0.758568C87.344 0.583502 87.6947 0.525146 88.0453 0.525146C88.5714 0.525146 88.9805 0.700213 89.3897 1.1087C89.6819 1.34212 89.8572 1.69226 89.9157 2.04239C89.9741 2.39252 90.0326 2.91772 90.0326 3.55963V6.24398H91.4938C92.0783 6.24398 92.4874 6.36069 92.7797 6.65247C93.0719 6.94424 93.2473 7.23602 93.2473 7.70287C93.2473 8.22807 93.0135 8.5782 92.6043 8.81162C92.1952 9.04504 91.6107 9.1034 90.7924 9.1034H90.0326V16.3978C90.0326 17.0397 90.0326 17.5066 90.091 17.7984C90.091 18.1485 90.2664 18.3819 90.4417 18.6153C90.6171 18.8488 90.9093 18.9071 91.3769 18.9071C91.6107 18.9071 91.9029 18.9071 92.3121 18.7904C92.7212 18.732 93.0135 18.6737 93.2473 18.6737C93.5395 18.6737 93.8317 18.7904 94.124 19.0822C94.3578 19.3156 94.5331 19.6657 94.5331 20.0159C94.5331 20.6578 94.1824 21.1246 93.4811 21.4748C92.7797 21.8249 91.7861 21.9999 90.5002 21.9999C89.2728 21.9999 88.3376 21.7665 87.6947 21.358C87.0517 20.9496 86.6426 20.366 86.4672 19.6074C86.2919 18.8488 86.175 17.9151 86.175 16.6312V9.04504H85.649C85.0645 9.04504 84.6553 8.92833 84.3631 8.63655C84.0709 8.34478 83.8955 7.99464 83.8955 7.58615C83.8955 7.17767 84.0709 6.82753 84.3631 6.53576C84.6553 6.30233 85.1229 6.12727 85.7659 6.12727" fill="black"/>
<path d="M110.606 13.9469C110.606 15.114 110.431 16.2227 110.022 17.2148C109.671 18.2068 109.145 19.0821 108.444 19.7824C107.742 20.4827 106.924 21.0662 105.93 21.4164C104.937 21.8248 103.885 21.9999 102.657 21.9999C101.43 21.9999 100.378 21.8248 99.4426 21.4164C98.5074 21.0079 97.6307 20.4827 96.9293 19.724C96.228 19.0238 95.7019 18.1484 95.3512 17.1564C95.0005 16.1644 94.8252 15.114 94.8252 13.8885C94.8252 12.663 95.0005 11.6126 95.4097 10.6206C95.7604 9.62855 96.2864 8.75322 96.9878 8.05296C97.6892 7.35269 98.5074 6.82749 99.5011 6.419C100.495 6.01052 101.547 5.83545 102.716 5.83545C103.885 5.83545 104.995 6.01052 105.989 6.419C106.982 6.82749 107.801 7.35269 108.502 8.05296C109.204 8.75322 109.73 9.62855 110.08 10.6206C110.431 11.6126 110.606 12.7214 110.606 13.8885M106.632 13.9469C106.632 12.3129 106.281 11.0874 105.58 10.1538C104.878 9.27842 103.885 8.81158 102.716 8.81158C101.956 8.81158 101.255 8.98664 100.67 9.39513C100.086 9.80362 99.618 10.3872 99.3257 11.2041C98.975 11.9628 98.8581 12.8965 98.8581 13.9469C98.8581 14.9973 99.0335 15.8726 99.3257 16.6896C99.618 17.4482 100.086 18.0317 100.67 18.4402C101.255 18.8487 101.956 19.0821 102.716 19.0821C103.943 19.0821 104.878 18.6153 105.58 17.74C106.281 16.8646 106.632 15.5808 106.632 14.0052" fill="black"/>
</g>
<defs>
<clipPath id="clip0_1144_8800">
<rect width="110" height="22" fill="white" transform="translate(0.606445)"/>
</clipPath>
</defs>
</svg>
