<svg width="132" height="28" viewBox="0 0 132 28" fill="none" xmlns="http://www.w3.org/2000/svg">
<g clip-path="url(#clip0_1144_8785)">
<path d="M30.2051 23.8899V5.11008C30.2051 4.28249 30.3998 3.64589 30.7892 3.1366C31.1786 2.69098 31.6978 2.5 32.4117 2.5C33.1256 2.5 33.6447 2.75464 34.0341 3.1366C34.4235 3.58223 34.6182 4.21883 34.6182 5.11008V23.8899C34.6182 24.7812 34.4235 25.4178 33.9692 25.8634C33.5798 26.309 32.9958 26.5 32.3468 26.5C31.6978 26.5 31.1786 26.2454 30.7892 25.7997C30.3998 25.3541 30.2051 24.7175 30.2051 23.8263" fill="black"/>
<path d="M51.1028 18.7972H42.4711C42.4711 19.7521 42.6658 20.6433 43.0552 21.4073C43.4446 22.1712 43.9638 22.7441 44.6128 23.1261C45.2618 23.5081 45.9757 23.699 46.7545 23.699C47.2737 23.699 47.728 23.699 48.1823 23.5081C48.6366 23.3807 49.026 23.1898 49.4803 22.9351C49.8697 22.6805 50.2591 22.4258 50.5836 22.1075C50.9081 21.7892 51.3624 21.4073 51.9465 20.898C52.2061 20.707 52.4657 20.6433 52.92 20.6433C53.3743 20.6433 53.7636 20.7707 54.0232 21.0253C54.2828 21.2799 54.4126 21.5982 54.4126 22.0439C54.4126 22.4258 54.2828 22.8715 53.9583 23.4444C53.6338 23.9537 53.1796 24.463 52.5306 24.9722C51.8816 25.4815 51.1028 25.8635 50.1293 26.1818C49.1558 26.5001 48.0525 26.6274 46.8194 26.6274C43.9638 26.6274 41.7572 25.8635 40.1997 24.272C38.6421 22.6805 37.8633 20.516 37.8633 17.8423C37.8633 16.5691 38.058 15.3595 38.4474 14.2773C38.8368 13.1951 39.4209 12.2402 40.1348 11.4762C40.8487 10.7123 41.7572 10.0757 42.8605 9.69373C43.9638 9.24811 45.132 9.05713 46.4949 9.05713C48.1823 9.05713 49.675 9.43909 50.9081 10.1394C52.1412 10.8396 53.0498 11.7945 53.6987 12.8768C54.3477 14.0226 54.6073 15.1685 54.6073 16.3144C54.6073 17.3967 54.2828 18.0969 53.6338 18.4152C52.9849 18.7335 52.0763 18.9245 50.973 18.9245M42.536 16.3144H50.5187C50.3889 14.8502 49.9995 13.7043 49.2856 13.0041C48.5717 12.3038 47.6631 11.9219 46.4949 11.9219C45.3267 11.9219 44.483 12.3038 43.7691 13.0041C43.0552 13.768 42.6009 14.8502 42.4711 16.3144" fill="black"/>
<path d="M70.2479 24.0172V23.5716C69.6638 24.2082 69.0797 24.7812 68.4956 25.2268C67.9115 25.6724 67.3274 25.9907 66.6135 26.1817C65.9645 26.3727 65.1857 26.5 64.4069 26.5C63.3685 26.5 62.395 26.309 61.4864 25.8634C60.5779 25.4178 59.7991 24.7812 59.1501 24.0172C58.5011 23.1897 57.9819 22.2347 57.6574 21.1525C57.3329 20.0703 57.1382 18.8607 57.1382 17.5875C57.1382 14.8501 57.7872 12.7493 59.1501 11.2851C60.513 9.75729 62.2652 8.99337 64.4718 8.99337C65.7049 8.99337 66.8082 9.18435 67.6519 9.62997C68.4956 10.0756 69.3393 10.7122 70.183 11.6034V5.17374C70.183 4.28249 70.3777 3.64589 70.7022 3.1366C71.1565 2.75464 71.6757 2.5 72.3247 2.5C72.9736 2.5 73.4928 2.69098 73.8822 3.1366C74.2716 3.58223 74.4014 4.15517 74.4014 4.98276V24.0809C74.4014 24.9085 74.2067 25.5451 73.8173 25.9271C73.4279 26.309 72.9087 26.5637 72.3247 26.5637C71.7406 26.5637 71.2214 26.3727 70.832 25.9271C70.4426 25.4814 70.2479 24.9085 70.2479 24.0809M61.5513 17.7149C61.5513 18.8607 61.746 19.8793 62.1354 20.7069C62.5248 21.5345 62.9791 22.1711 63.693 22.553C64.342 22.9987 65.0559 23.1897 65.8347 23.1897C66.6135 23.1897 67.3274 22.9987 67.9764 22.6167C68.6254 22.2347 69.1446 21.5981 69.534 20.7706C69.9234 19.943 70.1181 18.9244 70.1181 17.7149C70.1181 16.569 69.9234 15.5504 69.534 14.7228C69.1446 13.8952 68.6254 13.2586 67.9764 12.813C67.3274 12.3674 66.6135 12.1764 65.8347 12.1764C65.0559 12.1764 64.2771 12.431 63.693 12.8767C63.044 13.3223 62.5897 13.9589 62.2003 14.7865C61.8758 15.6141 61.6811 16.6326 61.6811 17.7149" fill="black"/>
<path d="M80.6968 6.89269C80.1127 6.89269 79.5935 6.70171 79.1392 6.31975C78.6849 5.93779 78.4902 5.4285 78.4902 4.72824C78.4902 4.09163 78.6849 3.58235 79.1392 3.20039C79.5935 2.81842 80.1127 2.62744 80.6968 2.62744C81.2809 2.62744 81.8001 2.81842 82.1895 3.20039C82.6438 3.58235 82.8385 4.09163 82.8385 4.7919C82.8385 5.49216 82.6438 6.00145 82.1895 6.31975C81.7352 6.70171 81.216 6.89269 80.6319 6.89269M82.9034 11.4126V23.89C82.9034 24.7813 82.7087 25.4179 82.2544 25.8635C81.8001 26.3091 81.2809 26.5001 80.6319 26.5001C79.9829 26.5001 79.4637 26.2455 79.0743 25.7999C78.6849 25.3542 78.4902 24.7176 78.4902 23.8264V11.4762C78.4902 10.6487 78.6849 9.9484 79.0743 9.56643C79.4637 9.12081 79.9829 8.92983 80.6319 8.92983C81.2809 8.92983 81.8001 9.12081 82.2544 9.56643C82.6438 10.0121 82.9034 10.585 82.9034 11.3489" fill="black"/>
<path d="M96.6619 24.7175L93.4818 20.134L90.2368 24.7175C89.7826 25.3542 89.3932 25.7998 89.0038 26.1181C88.6793 26.3727 88.2899 26.5637 87.7707 26.5637C87.1866 26.5637 86.7323 26.3727 86.3429 26.0544C85.9535 25.7361 85.7588 25.2905 85.7588 24.9085C85.7588 24.5266 86.0833 23.8263 86.6674 22.9351L90.6262 17.3329L87.1217 12.6857C86.5376 11.9218 86.2131 11.2215 86.2131 10.6486C86.2131 10.203 86.4078 9.82099 86.7972 9.50269C87.1866 9.18439 87.6409 8.99341 88.225 8.99341C88.7442 8.99341 89.1336 9.12073 89.523 9.43903C89.8475 9.69367 90.2368 10.203 90.6911 10.7759L93.5467 14.5955L96.3374 10.7759C96.7917 10.1393 97.1811 9.69367 97.5705 9.43903C97.895 9.18439 98.3493 9.05707 98.8685 9.05707C99.4526 9.05707 99.9069 9.24805 100.296 9.56635C100.686 9.88466 100.88 10.2666 100.88 10.7122C100.88 11.0305 100.815 11.3488 100.621 11.6671C100.491 11.9855 100.231 12.3038 99.9069 12.7494L96.4023 17.3966L100.361 22.9987C101.01 23.89 101.27 24.5266 101.27 24.9722C101.27 25.4178 101.075 25.7998 100.686 26.1181C100.296 26.4364 99.842 26.6274 99.2579 26.6274C98.7387 26.6274 98.3493 26.5 97.9599 26.1817C97.5705 25.8634 97.1811 25.4178 96.7917 24.8449" fill="#DE000E"/>
</g>
<defs>
<clipPath id="clip0_1144_8785">
<rect width="71" height="24" fill="white" transform="translate(30.2051 2.5)"/>
</clipPath>
</defs>
</svg>
