<svg width="57" height="40" viewBox="0 0 57 40" fill="none" xmlns="http://www.w3.org/2000/svg">
<g clip-path="url(#clip0_1144_8782)">
<path d="M15.0569 29.4871L8.50461 35.8973C7.54361 36.8375 7.54361 38.2905 8.50461 39.2307C8.94143 39.658 9.55297 39.9144 10.2519 39.9144C10.9508 39.9144 11.475 39.658 11.9118 39.2307L18.464 32.8204C19.425 31.8802 19.425 30.4272 18.464 29.4871C17.503 28.5469 16.0179 28.5469 15.0569 29.4871ZM39.606 11.111C40.2176 11.111 40.8291 10.8546 41.2659 10.4272L47.8182 4.01698C48.7792 3.07681 48.7792 1.62381 47.8182 0.683644C46.8572 -0.256527 45.372 -0.256527 44.411 0.683644L37.8587 7.0939C36.8977 8.03407 36.8977 9.48706 37.8587 10.4272C38.2956 10.8546 38.9071 11.111 39.606 11.111ZM11.9118 0.683644C10.9508 -0.256527 9.46561 -0.256527 8.50461 0.683644C7.54361 1.62381 7.54361 3.07681 8.50461 4.01698L15.0569 10.4272C15.4937 10.8546 16.1052 11.111 16.7168 11.111C17.3283 11.111 17.9399 10.8546 18.3767 10.4272C19.3377 9.48706 19.3377 8.03407 18.3767 7.0939L11.9118 0.683644ZM16.5421 19.2307C16.5421 17.9486 15.4937 16.8375 14.1832 16.8375H2.56389C1.25344 16.8375 0.205078 17.8631 0.205078 19.2307C0.205078 20.5982 1.25344 21.6238 2.56389 21.6238H14.0959C15.4063 21.6238 16.4547 20.5982 16.4547 19.2307M53.7589 16.923H42.2269C40.9165 16.923 39.7807 17.9486 39.7807 19.3161C39.7807 20.6836 40.8291 21.7093 42.2269 21.7093H53.7589C55.0694 21.7093 56.1177 20.6836 56.1177 19.3161C56.1177 17.9486 55.0694 16.923 53.7589 16.923ZM31.918 11.2819H24.4921C21.6091 11.2819 19.3377 13.5042 19.3377 16.3247V23.5896C19.3377 26.4101 21.6965 28.6324 24.4921 28.6324H31.918C34.801 28.6324 37.0725 26.4101 37.0725 23.5896V16.3247C37.0725 13.5042 34.7137 11.2819 31.918 11.2819ZM32.2675 23.5896C32.2675 23.5896 32.0928 23.9315 31.918 23.9315L24.1427 23.5896L24.4921 15.9828L32.2675 16.3247V23.5896ZM41.3533 29.4871C40.3923 28.5469 38.9071 28.5469 37.9461 29.4871C36.9851 30.4272 36.9851 31.8802 37.9461 32.8204L44.4984 39.2307C44.9352 39.658 45.5467 39.9144 46.1583 39.9144C46.7698 39.9144 47.3814 39.658 47.8182 39.2307C48.7792 38.2905 48.7792 36.8375 47.8182 35.8973L41.2659 29.4871H41.3533Z" fill="black"/>
</g>
<defs>
<clipPath id="clip0_1144_8782">
<rect width="56" height="40" fill="white" transform="translate(0.205078)"/>
</clipPath>
</defs>
</svg>
