<svg width="18" height="17" viewBox="0 0 18 17" fill="none" xmlns="http://www.w3.org/2000/svg">
<path d="M12.0788 1.95728C14.3312 4.21629 14.6842 7.84826 12.8678 10.4883L12.8459 10.5994L16.0362 13.8284C16.4117 14.2081 17.3 14.9475 17.5364 15.3589C18.1251 16.3851 16.6584 17.5824 15.796 16.6841L11.2672 12.1499C10.4556 12.6859 9.55769 13.129 8.59023 13.3007C3.30783 14.2404 -0.937533 8.98874 1.20673 4.02577C3.07016 -0.288159 8.74739 -1.38343 12.0788 1.95728ZM12.1007 6.70326C12.1007 4.06969 9.97121 1.93468 7.34451 1.93468C4.7178 1.93468 2.58771 4.06969 2.58771 6.70326C2.58771 9.33682 4.71716 11.4718 7.34386 11.4718C9.97057 11.4718 12.1 9.33682 12.1 6.70326H12.1007Z" fill="black"/>
</svg>
