<svg width="22" height="21" viewBox="0 0 22 21" fill="none" xmlns="http://www.w3.org/2000/svg">
<g clip-path="url(#clip0_1122_4826)">
<path d="M15.0745 12.7644C15.1342 12.8079 15.203 12.8448 15.2554 12.8973C16.9972 14.6404 18.7374 16.3852 20.4785 18.1299C20.9811 18.6327 21.1579 19.2217 20.9344 19.9083C20.5972 20.9484 19.2507 21.3462 18.4002 20.6588C18.2995 20.5776 18.2037 20.4898 18.1121 20.398C16.3899 18.6737 14.6685 16.9487 12.9479 15.2228C12.8947 15.1695 12.8521 15.1072 12.8005 15.044C10.6068 16.4229 8.28463 16.7879 5.829 16.0333C3.99382 15.4689 2.52535 14.3632 1.4637 12.7587C-0.815125 9.31597 -0.184846 5.02673 2.53845 2.36246C5.48521 -0.520007 9.8063 -0.700469 12.9143 1.47163C14.7282 2.73979 15.8668 4.47714 16.2933 6.65334C16.7197 8.83119 16.2843 10.8565 15.0753 12.7653L15.0745 12.7644ZM0.898088 8.20121C0.88581 12.2526 4.19437 15.5731 8.26171 15.5903C12.2906 15.6075 15.618 12.2821 15.6294 8.22828C15.6409 4.17036 12.3413 0.84904 8.27726 0.827713C4.24102 0.806386 0.910366 4.13508 0.898088 8.20121ZM15.2349 16.3515C15.2267 16.3425 15.248 16.3687 15.2725 16.3925C16.4341 17.5557 17.5956 18.7188 18.7571 19.882C18.8054 19.9304 18.8553 19.9772 18.9102 20.0174C19.3653 20.3602 20.0176 20.1412 20.1773 19.5916C20.2779 19.2446 20.1576 18.9658 19.9137 18.7213C18.7522 17.5582 17.5915 16.3942 16.43 15.231C16.403 15.2039 16.3718 15.1818 16.389 15.1966C16.0002 15.5862 15.6245 15.9619 15.2357 16.3515H15.2349ZM14.6472 15.7256C15.0237 15.3549 15.4043 14.98 15.7645 14.6256C15.338 14.1966 14.9599 13.8169 14.6374 13.492C14.2723 13.857 13.8949 14.2352 13.525 14.6043C13.8532 14.9324 14.2281 15.3073 14.6472 15.7256Z" fill="black"/>
<path d="M14.8116 8.21754C14.8001 11.8309 11.8468 14.7822 8.25423 14.7708C4.64854 14.7593 1.70342 11.7997 1.71488 8.19949C1.72634 4.58616 4.67964 1.63479 8.27224 1.64627C11.8779 1.65776 14.823 4.61733 14.8116 8.21754ZM13.9922 8.19949C13.9808 5.03895 11.3958 2.45671 8.25423 2.46819C5.10038 2.47968 2.5236 5.07012 2.53506 8.21836C2.54652 11.3789 5.13148 13.9611 8.27305 13.9497C11.4269 13.9382 14.0037 11.3477 13.9922 8.19949Z" fill="black"/>
<path d="M8.44595 3.29251C10.4948 3.46641 11.9772 4.45321 12.8121 6.36118C12.9324 6.63597 12.853 6.87221 12.6271 6.96819C12.3979 7.0658 12.1818 6.96245 12.0623 6.68273C11.572 5.5327 10.7436 4.73538 9.56409 4.33427C9.19574 4.20876 8.79302 4.18169 8.40585 4.11197C8.33954 4.09967 8.26915 4.10869 8.20285 4.09639C7.99985 4.05783 7.85742 3.8905 7.85742 3.69773C7.85742 3.49758 8.01049 3.32368 8.22167 3.29415C8.29534 3.28431 8.37147 3.29251 8.44595 3.29251Z" fill="black"/>
<path d="M13.1723 8.20518C13.1747 8.41846 12.9881 8.61122 12.7745 8.61614C12.5535 8.62188 12.3546 8.42338 12.3595 8.2019C12.3636 7.98781 12.5543 7.79996 12.7679 7.80078C12.9807 7.8016 13.1706 7.99109 13.1731 8.20518H13.1723Z" fill="black"/>
</g>
<defs>
<clipPath id="clip0_1122_4826">
<rect width="20.9588" height="21" fill="white" transform="translate(0.0712891)"/>
</clipPath>
</defs>
</svg>
