<svg width="15" height="15" viewBox="0 0 15 15" fill="none" xmlns="http://www.w3.org/2000/svg">
<g clip-path="url(#clip0_998_8947)">
<path d="M4.56308 9.87028C4.12377 9.24636 3.69147 8.6426 3.27126 8.03193C3.00577 7.64594 2.72372 7.26456 2.50852 6.85553C2.05457 5.99137 1.92724 5.07249 2.1176 4.13171C2.4595 2.442 3.50174 1.21605 5.23541 0.529916C6.83792 -0.104374 8.43725 -0.000675365 9.94808 0.805293C11.2775 1.51448 12.1071 2.57681 12.4267 3.94045C12.7164 5.17561 12.4878 6.34625 11.7473 7.42126C11.2093 8.20304 10.6516 8.97328 10.1034 9.7493C10.078 9.78501 10.0557 9.82246 10.0213 9.87604C10.1308 9.89505 10.2276 9.91176 10.3244 9.92846C11.2908 10.0927 12.2395 10.3087 13.1136 10.7316C13.572 10.9528 13.9929 11.2195 14.2539 11.6429C14.5589 12.1367 14.515 12.6189 14.1597 13.0769C13.8681 13.4525 13.453 13.6956 13.0111 13.899C12.0988 14.3184 11.1177 14.535 10.1149 14.6813C8.65245 14.8951 7.18173 14.9383 5.70655 14.8219C4.37589 14.717 3.06943 14.5096 1.83683 14.0171C1.3485 13.8223 0.889453 13.5815 0.538008 13.2076C-0.0451878 12.5883 0.00128953 11.825 0.648789 11.2616C1.17787 10.8013 1.82282 10.5201 2.5117 10.334C3.15475 10.1606 3.81498 10.0402 4.46757 9.89563C4.4924 9.89044 4.5166 9.88238 4.56244 9.8697L4.56308 9.87028ZM7.29314 12.1263C7.33644 12.0664 7.36573 12.0266 7.39438 11.9863C8.07053 11.0282 8.7454 10.0702 9.42155 9.11213C9.92962 8.39257 10.4568 7.68397 10.9419 6.95231C11.7607 5.71888 11.8231 4.43071 11.11 3.14946C10.4116 1.89413 9.25474 1.16363 7.7038 1.0294C6.08728 0.88998 4.78273 1.45283 3.81116 2.62808C2.78993 3.86325 2.72308 5.66242 3.64117 6.96441C4.82348 8.6426 6.0096 10.3185 7.19382 11.9955C7.2212 12.0347 7.25176 12.0721 7.29251 12.1263H7.29314ZM7.59302 14.0211C7.89289 14.0038 8.49137 13.9808 9.08794 13.9318C10.1314 13.846 11.1546 13.6662 12.1319 13.3131C12.5655 13.1564 12.9901 12.9761 13.3097 12.6511C13.56 12.3965 13.5555 12.181 13.3027 11.9252C13.0684 11.6885 12.7711 11.53 12.4591 11.3958C11.5633 11.0104 10.6064 10.8318 9.63293 10.7016C9.48841 10.682 9.41901 10.7148 9.34388 10.8232C8.81416 11.5871 8.27426 12.3446 7.74136 13.1068C7.61339 13.2895 7.44977 13.3955 7.20146 13.3592C7.02892 13.3338 6.92706 13.2278 6.83856 13.1022C6.29547 12.3291 5.74984 11.5571 5.20867 10.7834C5.15709 10.7097 5.11125 10.6768 5.00684 10.6958C4.77827 10.7373 4.54525 10.7569 4.31668 10.7955C3.475 10.9372 2.64668 11.121 1.89604 11.5087C1.66493 11.628 1.44782 11.7841 1.25936 11.9546C1.01997 12.1724 1.03016 12.4028 1.25618 12.6321C1.35741 12.7352 1.47392 12.8303 1.59871 12.9086C2.10105 13.2249 2.66896 13.4099 3.25216 13.5596C4.57326 13.899 5.92684 14.0096 7.59429 14.0211H7.59302Z" fill="black"/>
<path d="M7.29132 15.0003C6.76097 15.0003 6.22807 14.9796 5.69517 14.9375C4.08183 14.8102 2.87597 14.5596 1.78534 14.1235C1.17158 13.8781 0.756472 13.6194 0.44068 13.2835C-0.188356 12.6158 -0.141242 11.7897 0.560375 11.1796C1.05189 10.7521 1.67838 10.4399 2.4755 10.2244C2.92435 10.1034 3.38722 10.0067 3.8348 9.91333C4.01116 9.87646 4.18688 9.83959 4.36261 9.80157C4.26265 9.65985 4.16269 9.5187 4.06337 9.37871C3.75203 8.93857 3.45789 8.52262 3.16247 8.094C3.11345 8.02314 3.06442 7.95228 3.01476 7.88084C2.79702 7.56859 2.57164 7.2454 2.39273 6.9055C1.92987 6.02406 1.79489 5.08444 1.99162 4.1114C2.34498 2.3635 3.41905 1.12315 5.18392 0.424338C6.82209 -0.223778 8.44689 -0.129297 10.0125 0.706628C11.3667 1.42906 12.2205 2.50926 12.5509 3.91725C12.8476 5.1818 12.6133 6.38182 11.8557 7.48276C11.4877 8.01796 11.1037 8.55604 10.7332 9.07683C10.5632 9.31592 10.3926 9.555 10.2232 9.79408C10.2652 9.80157 10.3066 9.80848 10.348 9.8154C11.2183 9.96346 12.2345 10.176 13.1742 10.63C13.5728 10.8224 14.0687 11.1053 14.3654 11.5869C14.6908 12.114 14.6564 12.6377 14.2642 13.143C13.9331 13.5693 13.4518 13.8257 13.0692 14.0019C12.265 14.3718 11.3603 14.6166 10.136 14.7952C9.20198 14.9318 8.25015 14.9997 7.29195 14.9997L7.29132 15.0003ZM7.31678 0.231919C6.64445 0.231919 5.96703 0.366151 5.28642 0.635768C3.60432 1.30174 2.58055 2.48506 2.24311 4.15288C2.05593 5.07695 2.18454 5.96991 2.62384 6.80641C2.79575 7.13364 3.01731 7.45107 3.23123 7.75756C3.28089 7.82899 3.33055 7.90043 3.38022 7.97187C3.67436 8.39933 3.96787 8.81413 4.2792 9.2537C4.40908 9.43747 4.5396 9.62183 4.67139 9.80848L4.7618 9.93638L4.56125 9.99168C4.53642 9.9986 4.51796 10.0038 4.49949 10.0078C4.29767 10.0522 4.09584 10.0948 3.89338 10.1369C3.44961 10.2296 2.99057 10.3252 2.54999 10.4445C1.79234 10.649 1.20024 10.9434 0.738645 11.3444C0.142079 11.8634 0.101968 12.5651 0.63614 13.1326C0.925827 13.4408 1.31293 13.6805 1.88976 13.9109C2.95428 14.3361 4.13531 14.5815 5.71936 14.7059C7.19327 14.8217 8.6659 14.7751 10.0965 14.5665C11.2935 14.392 12.1753 14.154 12.9552 13.7951C13.3117 13.6315 13.7587 13.3942 14.0573 13.0093C14.3934 12.5761 14.4221 12.1475 14.1445 11.6981C13.8816 11.2718 13.4467 11.0212 13.0558 10.8322C12.1466 10.3932 11.154 10.1858 10.3028 10.0412C10.241 10.0309 10.1793 10.0199 10.115 10.009L9.82274 9.95827L9.94435 9.76931C9.96409 9.7382 9.98064 9.71227 9.99847 9.68693C10.1723 9.44151 10.3467 9.19609 10.5212 8.95124C10.8917 8.4316 11.2744 7.89409 11.6417 7.36062C12.3637 6.31154 12.5866 5.16912 12.3045 3.96449C11.99 2.62275 11.1763 1.59325 9.88577 0.904808C9.04536 0.456024 8.18712 0.231919 7.31869 0.231919H7.31678ZM7.59692 14.1367H7.59247C5.74674 14.1241 4.43837 13.9847 3.21659 13.6707C2.68815 13.5347 2.07439 13.3498 1.52558 13.0036C1.39506 12.9212 1.27218 12.8221 1.16076 12.7092C0.88317 12.4275 0.886354 12.1308 1.16904 11.8738C1.37277 11.6883 1.60261 11.5276 1.83245 11.4089C2.62066 11.0016 3.48081 10.819 4.29321 10.6824C4.40208 10.664 4.51223 10.6502 4.61855 10.6363C4.73888 10.6208 4.86303 10.6052 4.98209 10.5833C5.16928 10.5494 5.25905 10.6398 5.31698 10.7222C5.64742 11.1946 5.97913 11.6658 6.31084 12.1371C6.52285 12.4384 6.73486 12.7397 6.94688 13.0416C7.03919 13.1735 7.11687 13.2305 7.22256 13.2461C7.3951 13.2714 7.51861 13.2115 7.63449 13.0462C7.84968 12.7385 8.06615 12.4315 8.28199 12.125C8.59587 11.6791 8.92057 11.2182 9.237 10.7631C9.34078 10.6133 9.46111 10.5632 9.65275 10.5885C10.5326 10.7061 11.5602 10.8818 12.5146 11.2931C12.7846 11.4095 13.1296 11.5777 13.399 11.8496C13.6969 12.1509 13.6995 12.4303 13.406 12.7288C13.0545 13.0865 12.5891 13.2737 12.1804 13.4212C11.2801 13.7462 10.2729 13.9512 9.10075 14.0475C8.65954 14.0837 8.21768 14.1056 7.89552 14.1218C7.78092 14.1275 7.6816 14.1327 7.60265 14.1373H7.5982L7.59692 14.1367ZM5.05977 10.8063C5.05404 10.8063 5.04512 10.8069 5.03175 10.8092C4.90569 10.8322 4.77772 10.8484 4.6542 10.8645C4.55043 10.8777 4.44283 10.8916 4.33969 10.9088C3.54957 11.0419 2.71425 11.2188 1.95852 11.6088C1.74778 11.7177 1.53767 11.8652 1.34922 12.0363C1.16331 12.2056 1.16331 12.3658 1.35113 12.5559C1.4479 12.6544 1.55868 12.7437 1.67138 12.8146C2.18963 13.1412 2.77856 13.3187 3.28662 13.4495C4.48358 13.7571 5.77093 13.8936 7.58992 13.9063C7.66823 13.9017 7.76691 13.8971 7.88024 13.8913C8.20113 13.8752 8.6398 13.8533 9.07656 13.8176C10.2239 13.7231 11.2082 13.5232 12.0849 13.2069C12.4669 13.0692 12.9004 12.8952 13.2143 12.5749C13.42 12.3652 13.4187 12.2154 13.208 12.0029C12.9692 11.7615 12.6528 11.6077 12.4045 11.5005C11.48 11.1024 10.4753 10.9313 9.61455 10.8161C9.52287 10.804 9.50186 10.8132 9.45156 10.8852C9.13513 11.3409 8.81043 11.8024 8.49591 12.2483C8.28008 12.5548 8.06361 12.8618 7.84841 13.1689C7.67651 13.4143 7.45813 13.514 7.18054 13.4731C6.95133 13.4397 6.82463 13.2979 6.73041 13.1643C6.51839 12.863 6.30638 12.5617 6.09437 12.2604C5.76266 11.7891 5.43031 11.3173 5.09988 10.8449C5.07696 10.8121 5.06741 10.8069 5.06613 10.8063C5.06613 10.8063 5.06422 10.8057 5.05849 10.8057L5.05977 10.8063ZM7.29577 12.3335L7.14998 12.1417C7.12642 12.1106 7.10604 12.0847 7.08694 12.0576L6.15039 10.732C5.27751 9.49681 4.40526 8.26222 3.53429 7.02648C2.58119 5.67379 2.65313 3.8366 3.71001 2.55938C4.72933 1.32709 6.07781 0.773456 7.71662 0.915178C9.29239 1.05114 10.5053 1.80583 11.2247 3.09803C11.9582 4.41673 11.9002 5.73313 11.0515 7.01208C10.7192 7.51329 10.362 8.01104 10.0163 8.49209C9.8533 8.71907 9.69032 8.94606 9.52924 9.17419C9.09502 9.78947 8.66081 10.4053 8.2266 11.0212L7.50206 12.0484C7.48296 12.0749 7.46386 12.1014 7.44094 12.1336L7.29641 12.3335H7.29577ZM7.22892 1.1243C5.8919 1.1243 4.77836 1.65201 3.91375 2.69764C2.91926 3.89997 2.85114 5.62943 3.74885 6.90319C4.61982 8.13894 5.49207 9.3741 6.36495 10.6087L7.29068 11.9193L8.0114 10.8979C8.44561 10.282 8.87983 9.66676 9.31404 9.05091C9.47512 8.8222 9.63874 8.59463 9.80173 8.36707C10.1462 7.88718 10.5021 7.39115 10.8325 6.89398C11.6328 5.68762 11.6882 4.44554 10.9961 3.20231C10.3092 1.96714 9.19689 1.27524 7.69179 1.14504C7.53453 1.13122 7.37982 1.12488 7.22829 1.12488L7.22892 1.1243Z" fill="black"/>
<path d="M7.28932 7.07665C5.97522 7.07607 4.89987 6.10073 4.90305 4.91165C4.90624 3.722 5.98604 2.75127 7.30014 2.75588C8.60851 2.76048 9.67685 3.73007 9.67813 4.91396C9.6794 6.10304 8.60342 7.07723 7.28932 7.07665ZM8.72184 4.91453C8.71993 4.20938 8.07179 3.62349 7.29314 3.62176C6.51512 3.62003 5.86634 4.2042 5.86061 4.91108C5.85488 5.61796 6.51575 6.21653 7.29759 6.21077C8.0788 6.20558 8.72439 5.61796 8.72248 4.91453H8.72184Z" fill="black"/>
<path d="M7.29121 7.19184H7.28994C6.62016 7.19184 5.98857 6.95333 5.51234 6.52068C5.03611 6.0886 4.77507 5.51653 4.77634 4.91105C4.77761 4.30499 5.04247 3.73407 5.52125 3.30372C5.99749 2.87568 6.62525 2.64062 7.29058 2.64062C7.2944 2.64062 7.29758 2.64062 7.30076 2.64062C8.68044 2.64581 9.80418 3.66551 9.80609 4.91393C9.80672 5.51999 9.54505 6.09148 9.06818 6.52298C8.59194 6.95449 7.961 7.19184 7.29185 7.19184H7.29121ZM7.28994 6.9614C7.89224 6.9614 8.45888 6.74824 8.888 6.35995C9.31648 5.97165 9.55269 5.45835 9.55142 4.91393C9.55014 3.79226 8.53974 2.87568 7.30013 2.87107C6.70038 2.86876 6.13055 3.08077 5.7008 3.46733C5.2704 3.85447 5.03292 4.36721 5.03101 4.91162C5.02974 5.45604 5.26467 5.96935 5.69252 6.35822C6.121 6.74709 6.68828 6.9614 7.28994 6.9614ZM7.28612 6.32596C6.87801 6.32596 6.49027 6.17848 6.19295 5.90944C5.89307 5.63809 5.72945 5.28321 5.73263 4.9099C5.739 4.13504 6.43743 3.50651 7.2893 3.50651H7.29312C8.14882 3.50824 8.84661 4.13965 8.84916 4.91393C8.85171 5.68648 8.15582 6.3202 7.29822 6.32596C7.2944 6.32596 7.29058 6.32596 7.28676 6.32596H7.28612ZM7.28994 3.73695C6.58896 3.73695 5.99303 4.27445 5.98794 4.91162C5.98539 5.22272 6.12228 5.51884 6.37376 5.7464C6.6227 5.97165 6.94677 6.09552 7.28676 6.09552C7.28994 6.09552 7.29312 6.09552 7.29631 6.09552C8.00174 6.09091 8.5964 5.54995 8.59449 4.9145C8.59258 4.27733 7.99665 3.7381 7.29249 3.73637H7.2893L7.28994 3.73695Z" fill="black"/>
</g>
<defs>
<clipPath id="clip0_998_8947">
<rect width="14.5863" height="15" fill="white"/>
</clipPath>
</defs>
</svg>
