<svg width="41" height="38" viewBox="0 0 41 38" fill="none" xmlns="http://www.w3.org/2000/svg">
<path d="M34.0011 37.3876C30.4123 37.3876 27.4217 34.487 27.4217 30.8427V7.26591C27.4217 5.92717 26.3002 4.88592 25.0292 4.88592C23.7581 4.88592 22.6366 6.00154 22.6366 7.26591V30.917C22.6366 34.487 19.7208 37.462 16.0572 37.462C12.3937 37.462 9.47776 34.5614 9.47776 30.917V7.26591C9.47776 5.92717 8.35627 4.88592 7.08524 4.88592C5.81421 4.88592 4.69272 6.00154 4.69272 7.26591V31.7352C4.69272 32.8508 3.79552 33.7433 2.59926 33.7433C1.403 33.7433 0.580566 32.8508 0.580566 31.7352V7.26591C0.580566 3.69593 3.49645 0.720947 7.16001 0.720947C10.8236 0.720947 13.6647 3.62156 13.6647 7.26591V30.917C13.6647 32.2558 14.7862 33.297 16.132 33.297C17.4778 33.297 18.5245 32.1814 18.5245 30.917V7.26591C18.5245 3.69593 21.4404 0.720947 25.1039 0.720947C28.7675 0.720947 31.6834 3.62156 31.6834 7.26591V30.917C31.6834 32.2558 32.8049 33.297 34.0759 33.297C35.3469 33.297 36.4684 32.1814 36.4684 30.917V6.37342C36.4684 5.2578 37.3656 4.29093 38.5619 4.29093C39.7581 4.29093 40.6553 5.18342 40.6553 6.37342V30.8427C40.6553 34.4126 37.7394 37.3876 34.0759 37.3876" fill="black"/>
</svg>
