<svg width="14" height="14" viewBox="0 0 14 14" fill="none" xmlns="http://www.w3.org/2000/svg">
<g clip-path="url(#clip0_998_9009)">
<path d="M2.54202 3.93417C2.54202 3.46834 2.54202 3.02175 2.54202 2.57574C2.54202 2.1653 2.6065 1.7636 2.7656 1.37239C3.37184 -0.124795 5.17446 -1.1235 7.03384 -0.987661C9.03059 -0.841907 10.6201 0.371353 10.8633 1.98748C10.9495 2.55767 10.9068 3.14127 10.9222 3.71846C10.9243 3.78492 10.9222 3.85138 10.9222 3.9091C11.2089 3.93592 11.4794 3.94117 11.738 3.98956C12.7325 4.17554 13.4551 4.92005 13.4586 5.76718C13.4656 7.56462 13.4663 9.36265 13.4586 11.1601C13.4544 12.1629 12.4613 12.9919 11.2579 12.9943C8.23862 13.0007 5.21931 13.0007 2.1993 12.9943C1.00503 12.9913 0.0112138 12.1611 0.00630775 11.1683C-0.00210258 9.36556 -0.00210258 7.56346 0.00630775 5.76077C0.0112138 4.7743 0.995222 3.95808 2.18318 3.93359C2.29322 3.93126 2.40325 3.93359 2.54202 3.93359V3.93417ZM6.73878 12.0644C8.20988 12.0644 9.68169 12.0649 11.1528 12.0644C11.8635 12.0644 12.338 11.6691 12.338 11.0767C12.3394 9.33758 12.3394 7.59902 12.338 5.85988C12.338 5.25937 11.8642 4.86758 11.1395 4.86758C8.20218 4.86758 5.26557 4.86758 2.32826 4.86758C1.59446 4.86758 1.12558 5.25879 1.12558 5.87096C1.12558 7.60019 1.12558 9.32942 1.12558 11.0586C1.12558 11.679 1.59166 12.0644 2.34158 12.0649C3.80708 12.0649 5.27258 12.0649 6.73808 12.0649L6.73878 12.0644ZM9.7693 3.92601C9.78051 3.91493 9.78752 3.91143 9.78752 3.90794C9.77631 3.29227 9.83448 2.66961 9.73776 2.06327C9.54713 0.873914 8.29048 -0.0210184 6.86984 -0.0594976C5.3728 -0.100309 4.07551 0.709502 3.75311 1.91052C3.57719 2.56583 3.68723 3.23513 3.67531 3.89861C3.67531 3.90619 3.68723 3.91377 3.69704 3.92601H9.77H9.7693Z" fill="black"/>
<path d="M5.96922 10.0522C5.96922 9.97001 5.96361 9.88722 5.96992 9.80502C5.98464 9.60854 5.94118 9.44063 5.79961 9.26573C5.49474 8.8891 5.6293 8.37079 6.05963 8.09328C6.49276 7.81343 7.10812 7.84258 7.4978 8.16149C7.88677 8.47982 7.92742 8.99054 7.60643 9.35901C7.54405 9.43014 7.5034 9.53042 7.4999 9.61845C7.48658 9.91404 7.49639 10.2102 7.49429 10.5058C7.49149 10.8463 7.27492 11.0288 6.87053 11.0329C6.7654 11.034 6.66027 11.0346 6.55584 11.0329C6.20471 11.0253 5.98043 10.841 5.97062 10.5478C5.96501 10.3828 5.96992 10.2178 5.96922 10.0528V10.0522Z" fill="black"/>
</g>
<defs>
<clipPath id="clip0_998_9009">
<rect width="13.4642" height="14" fill="white"/>
</clipPath>
</defs>
</svg>
