<svg width="20" height="27" viewBox="0 0 20 27" fill="none" xmlns="http://www.w3.org/2000/svg">
<g clip-path="url(#clip0_998_12564)">
<path d="M9.99667 26.9992C7.23259 26.9992 4.46851 27.0012 1.70442 26.9952C1.46537 26.9952 1.21436 26.9707 0.990993 26.9019C0.384389 26.7167 0.0078763 26.2174 0.003394 25.6241C-0.00258239 24.7973 0.00115285 23.9705 0.00115285 23.1437C0.00115285 19.5224 0.00115285 15.9011 0.00115285 12.2805C0.00115285 11.6389 0.350025 11.1462 0.968581 10.9385C1.14563 10.8789 1.34211 10.8551 1.53186 10.8386C1.76867 10.8181 1.77017 10.8287 1.77017 10.6111C1.77017 9.50318 1.76344 8.3953 1.77166 7.28741C1.78511 5.37854 2.50377 3.69521 4.0031 2.32871C6.32418 0.214799 9.15923 -0.492925 12.3432 0.341131C15.4837 1.16394 17.3775 3.10985 18.088 5.94273C18.2687 6.66369 18.2344 7.40051 18.2344 8.13337C18.2344 8.96544 18.2374 9.79818 18.2299 10.6302C18.2284 10.785 18.2732 10.8366 18.4578 10.8399C19.3714 10.8545 19.9989 11.4405 19.9989 12.2712C20.0004 16.2338 19.9989 20.1971 19.9989 24.1597C19.9989 24.6174 19.9989 25.0744 19.9989 25.5321C19.9974 26.4343 19.3662 26.9965 18.3435 26.9985C17.0301 27.0012 15.7161 26.9992 14.4028 26.9992C12.9333 26.9992 11.4646 26.9992 9.99518 26.9992H9.99667ZM9.98771 26.0619C12.7705 26.0619 15.5525 26.0619 18.3352 26.0619C18.782 26.0619 18.9456 25.9191 18.9456 25.5262C18.9456 21.1224 18.9456 16.7193 18.9456 12.3156C18.9456 11.9141 18.782 11.7712 18.3233 11.7712C12.7772 11.7712 7.23109 11.7712 1.685 11.7712C1.21436 11.7712 1.05524 11.9114 1.05524 12.3261C1.05524 16.7187 1.05524 21.1112 1.05524 25.5037C1.05524 25.929 1.20913 26.0626 1.69621 26.0626C4.46029 26.0626 7.22362 26.0626 9.98771 26.0626V26.0619ZM9.99443 10.8353C11.4138 10.8353 12.8332 10.834 14.2519 10.8379C14.4005 10.8379 14.458 10.8055 14.458 10.664C14.4521 9.46813 14.467 8.27227 14.4521 7.07642C14.4259 5.02335 12.6046 3.31953 10.3149 3.18989C7.72415 3.04239 5.55472 4.83485 5.54725 7.1333C5.54351 8.30137 5.55023 9.47011 5.54276 10.6382C5.54202 10.8009 5.59879 10.8399 5.7751 10.8393C7.18179 10.8333 8.58848 10.836 9.99518 10.836L9.99443 10.8353ZM15.4979 8.65788C15.5024 8.65788 15.5069 8.65788 15.5114 8.65788C15.5114 9.3246 15.5144 9.99131 15.5084 10.658C15.5069 10.7943 15.557 10.8406 15.7123 10.8379C16.1232 10.8307 16.5341 10.826 16.9442 10.8393C17.1392 10.8459 17.1825 10.7857 17.181 10.623C17.1736 9.52104 17.1893 8.41844 17.1706 7.31717C17.1639 6.90048 17.1273 6.47783 17.0369 6.06973C16.2958 2.70969 12.6435 0.482015 8.81932 1.04356C5.4322 1.54096 2.89597 4.11919 2.83098 7.15579C2.80632 8.32915 2.82724 9.50318 2.82201 10.6765C2.82201 10.7996 2.86534 10.8399 3.00429 10.8373C3.42114 10.8307 3.83874 10.8274 4.25485 10.8386C4.44161 10.8439 4.49914 10.7969 4.49764 10.6269C4.48942 9.47011 4.49241 8.31262 4.49465 7.15512C4.49465 6.96794 4.49764 6.77944 4.52229 6.59424C4.88835 3.84999 7.61657 1.95567 10.7161 2.29101C13.3106 2.57145 15.3672 4.51406 15.4927 6.82309C15.5256 7.43292 15.4979 8.04606 15.4979 8.65722V8.65788Z" fill="black"/>
<path d="M8.27569 20.5888C8.27569 20.2032 8.28316 19.8169 8.27046 19.432C8.26748 19.338 8.22041 19.2289 8.15392 19.1555C7.49428 18.4299 7.33889 17.6316 7.7916 16.7915C8.24282 15.9529 9.03843 15.5216 10.0895 15.5567C11.1317 15.5911 11.8839 16.066 12.2732 16.9225C12.6385 17.7268 12.4719 18.4808 11.8436 19.1475C11.7577 19.2388 11.7181 19.3248 11.7188 19.4432C11.7241 20.2091 11.7218 20.9751 11.7211 21.741C11.7211 22.112 11.5224 22.29 11.1048 22.2906C10.3644 22.292 9.62337 22.292 8.88304 22.2906C8.48113 22.29 8.27793 22.1061 8.27644 21.7476C8.27495 21.362 8.27644 20.9764 8.27644 20.5908L8.27569 20.5888ZM9.32829 20.1364C9.32829 20.4889 9.33351 20.8414 9.32604 21.194C9.32306 21.319 9.37684 21.3574 9.51131 21.3554C9.83478 21.3501 10.1583 21.3488 10.4817 21.3554C10.6289 21.3587 10.6737 21.3124 10.6722 21.1827C10.6655 20.5379 10.679 19.8936 10.6648 19.2487C10.6588 18.9815 10.738 18.7811 10.971 18.5966C11.4267 18.2348 11.5231 17.6342 11.243 17.1553C10.9591 16.6705 10.3585 16.4013 9.76232 16.5018C9.19755 16.5971 8.81805 16.8941 8.65968 17.3802C8.5028 17.8611 8.64324 18.291 9.06234 18.6277C9.25507 18.7824 9.34024 18.9498 9.33127 19.1766C9.31857 19.4961 9.32829 19.8156 9.32829 20.135V20.1364Z" fill="black"/>
</g>
<defs>
<clipPath id="clip0_998_12564">
<rect width="20" height="27" fill="white"/>
</clipPath>
</defs>
</svg>
