<svg width="15" height="13" viewBox="0 0 15 13" fill="none" xmlns="http://www.w3.org/2000/svg">
<g clip-path="url(#clip0_998_8972)">
<path d="M11.8108 5.44092C12.0875 5.44092 12.3362 5.44092 12.5849 5.44092C13.001 5.44206 13.1937 5.60753 13.1943 5.96682C13.195 6.83556 13.1943 7.70431 13.1943 8.57305C13.1943 8.62916 13.1943 8.68526 13.1943 8.76346C13.3916 8.76346 13.5791 8.76346 13.766 8.76346C13.8526 8.76346 13.9398 8.7646 14.0264 8.76346C14.2458 8.7612 14.4177 8.83543 14.5219 9.00657C14.6306 9.18395 14.5961 9.35226 14.464 9.51093C14.0909 9.95749 13.7178 10.404 13.3447 10.8506C12.8096 11.4921 12.2744 12.1336 11.7418 12.7768C11.6103 12.9355 11.4397 13.0137 11.2137 12.9984C11.1382 12.9933 11.062 12.9938 10.9859 12.9938C7.75843 12.9938 4.53101 12.9938 1.30293 12.9938C0.677884 12.9938 0.213009 12.715 0.0547957 12.2401C0.018986 12.133 0.00205778 12.0174 0.00205778 11.9058C0.000104524 8.2982 0.000104524 4.69062 0.000755609 1.0836C0.00140669 0.462502 0.514462 0.00461148 1.2274 0.0029114C3.37533 -0.00218887 5.52391 0.00121131 7.67184 7.79181e-05C8.03384 7.79181e-05 8.33725 0.11455 8.58531 0.341796C9.54241 1.21734 10.4989 2.09345 11.4559 2.969C11.7001 3.19228 11.8108 3.46032 11.8108 3.76634C11.8108 4.26673 11.8108 4.76712 11.8108 5.26752C11.8108 5.31852 11.8108 5.37009 11.8108 5.44036V5.44092ZM7.46284 0.915858C7.39317 0.913025 7.34565 0.909058 7.29812 0.909058C5.30189 0.909058 3.30501 0.909058 1.30879 0.909058C1.08351 0.909058 1.04314 0.94476 1.04314 1.14027C1.04314 4.70989 1.04314 8.28007 1.04314 11.8497C1.04314 12.052 1.08221 12.0849 1.32051 12.0849C4.23932 12.0849 7.15813 12.0849 10.0769 12.0849C10.1271 12.0849 10.1772 12.0792 10.2475 12.0752C10.1954 12.0106 10.1596 11.9642 10.1219 11.9194C9.45842 11.1255 8.79626 10.3304 8.13085 9.53813C7.99152 9.37209 7.93553 9.19982 8.04817 9.01054C8.16015 8.82127 8.35287 8.75723 8.58987 8.76233C8.84835 8.76799 9.10683 8.76346 9.37703 8.76346C9.37703 8.69489 9.37703 8.64389 9.37703 8.59289C9.37703 7.70487 9.37638 6.81743 9.37703 5.92942C9.37703 5.62567 9.58342 5.44546 9.93176 5.44149C10.1596 5.43866 10.3875 5.43526 10.6154 5.44319C10.7391 5.44772 10.7723 5.41146 10.7704 5.30662C10.7638 4.89576 10.7632 4.48491 10.7704 4.07405C10.7723 3.95618 10.7326 3.92275 10.5978 3.92388C9.93631 3.92841 9.27416 3.93351 8.61266 3.92048C8.03905 3.90915 7.56246 3.52039 7.48433 3.02567C7.46935 2.93273 7.46479 2.83752 7.46414 2.74345C7.46219 2.13935 7.46349 1.53582 7.46349 0.915858H7.46284ZM10.4188 6.355C10.4188 6.41337 10.4188 6.45531 10.4188 6.49725C10.4188 7.39432 10.4201 8.2914 10.4181 9.18848C10.4181 9.48033 10.202 9.66677 9.8699 9.67074C9.76898 9.67188 9.66807 9.67074 9.53329 9.67074C10.1277 10.3825 10.7026 11.0699 11.2867 11.7698C11.872 11.0688 12.4469 10.3808 13.0394 9.67074C12.9404 9.67074 12.8766 9.67074 12.8128 9.67074C12.3362 9.67074 12.1507 9.51093 12.1507 9.10008C12.1507 8.24097 12.1507 7.38129 12.1507 6.52218C12.1507 6.46778 12.1507 6.41337 12.1507 6.355H10.4188ZM8.50653 1.58739C8.50653 2.03452 8.50653 2.4346 8.50653 2.83469C8.50653 2.96333 8.58271 3.02 8.7305 3.01887C9.13613 3.01603 9.54241 3.0183 9.94803 3.01717C9.97538 3.01717 10.0034 3.0064 10.0463 2.99733C9.53524 2.52924 9.03716 2.07305 8.50588 1.58683L8.50653 1.58739Z" fill="black"/>
<path d="M5.37211 7.55311C4.68326 7.55311 3.99441 7.55481 3.30492 7.55197C3.06141 7.55084 2.86543 7.42163 2.80163 7.23519C2.73717 7.04705 2.80814 6.83794 2.99956 6.7365C3.09657 6.68493 3.22158 6.64979 3.33421 6.64923C4.70149 6.64356 6.06877 6.64356 7.4354 6.64639C7.75834 6.64696 7.98296 6.8402 7.98361 7.09975C7.98426 7.36723 7.75964 7.55141 7.42238 7.55254C6.73874 7.55481 6.0551 7.55311 5.37146 7.55254L5.37211 7.55311Z" fill="black"/>
<path d="M5.02637 9.36498C4.44626 9.36498 3.86614 9.36781 3.28537 9.36328C3.04642 9.36158 2.85566 9.22331 2.79771 9.0312C2.73911 8.83512 2.82571 8.62714 3.02819 8.53194C3.11935 8.48887 3.23329 8.46167 3.33681 8.4611C4.47035 8.456 5.60389 8.456 6.73677 8.4594C7.06622 8.45997 7.29801 8.65944 7.2928 8.92239C7.28759 9.17854 7.05841 9.36385 6.73417 9.36555C6.16447 9.36781 5.59542 9.36611 5.02572 9.36611V9.36498H5.02637Z" fill="black"/>
<path d="M4.33296 5.13803C4.00286 5.13803 3.67211 5.13917 3.34201 5.13803C3.01386 5.13633 2.77621 4.94479 2.77621 4.68468C2.77621 4.42286 3.01126 4.23189 3.34071 4.23132C4.00677 4.23019 4.67283 4.23019 5.33823 4.23132C5.66833 4.23189 5.89947 4.42003 5.90012 4.68411C5.90012 4.94876 5.67029 5.1369 5.34019 5.13803C5.00423 5.13973 4.66892 5.13803 4.33296 5.13803Z" fill="black"/>
</g>
<defs>
<clipPath id="clip0_998_8972">
<rect width="14.5863" height="13" fill="white"/>
</clipPath>
</defs>
</svg>
