<svg width="16" height="14" viewBox="0 0 16 14" fill="none" xmlns="http://www.w3.org/2000/svg">
<g clip-path="url(#clip0_998_8985)">
<path d="M0.000743439 7.00056C0.000743439 5.24181 0.000743439 3.48361 0.000743439 1.72486C0.00135695 0.704713 0.791556 0.00274491 1.94004 0.00274491C4.15358 0.0021982 6.36774 0.00602513 8.58127 1.13873e-05C9.1727 -0.00162873 9.66473 0.173863 10.0776 0.550542C10.6101 1.03547 11.1531 1.5122 11.6924 1.99165C11.9206 2.19448 12.0936 2.42683 12.1875 2.70346C12.293 3.01344 12.1316 3.31468 11.8059 3.4109C11.4838 3.50603 11.1635 3.35678 11.0255 3.06484C10.9715 2.95057 10.893 2.83741 10.7967 2.74939C10.2641 2.26391 9.71995 1.78883 9.18497 1.30554C9.02362 1.15957 8.84018 1.09506 8.61072 1.09561C6.38185 1.09889 4.15236 1.09725 1.92348 1.09779C1.47439 1.09779 1.22899 1.31429 1.22837 1.7112C1.22837 5.23744 1.22837 8.76368 1.22837 12.2899C1.22837 12.6879 1.47378 12.9055 1.92103 12.9055C4.73274 12.9055 7.54506 12.9055 10.3568 12.9055C10.7948 12.9055 11.0421 12.6863 11.0433 12.2981C11.0433 12.1658 11.0408 12.0341 11.0439 11.9018C11.0513 11.5912 11.3188 11.3512 11.655 11.3501C11.993 11.349 12.2672 11.5874 12.2697 11.8974C12.2721 12.2517 12.2991 12.6065 12.1488 12.9498C11.8801 13.5626 11.2065 13.9973 10.4672 13.9978C7.5788 14.0011 4.68979 14.0027 1.80139 13.9973C0.809961 13.9951 0.00319747 13.2549 0.00135695 12.3594C-0.0023241 10.5733 0.000129931 8.78773 0.000129931 7.00165L0.000743439 7.00056Z" fill="black"/>
<path d="M6.59401 10.7184C6.68051 10.1651 6.86579 9.65288 7.16702 9.1756C7.38605 8.8279 7.65538 8.51464 7.97133 8.23254C9.4959 6.87343 11.0186 5.51214 12.5469 4.15631C13.4849 3.32423 15.0199 3.57462 15.5506 4.63905C15.8586 5.25573 15.7071 5.97574 15.158 6.46723C14.2279 7.29986 13.2941 8.12976 12.3616 8.9602C11.7364 9.51729 11.1199 10.082 10.4818 10.6276C9.58057 11.399 8.49282 11.7878 7.24494 11.8102C6.67806 11.8206 6.11056 11.8145 5.54307 11.8118C5.17987 11.8102 4.92894 11.592 4.9087 11.2684C4.88845 10.9475 4.63446 10.7195 4.2958 10.7195C3.95837 10.7195 3.70254 10.948 3.68291 11.2684C3.66266 11.5915 3.39456 11.8211 3.04854 11.8118C2.70559 11.8025 2.45344 11.5565 2.45589 11.2318C2.4608 10.4844 3.0878 9.81306 3.92708 9.6567C4.76023 9.50144 5.62221 9.89179 5.97007 10.5921C6.02099 10.6943 6.0762 10.7282 6.19461 10.72C6.32099 10.7113 6.44922 10.7179 6.59462 10.7179L6.59401 10.7184ZM7.81857 10.6659C8.60141 10.5243 9.21491 10.2187 9.73333 9.75511C10.5775 9.0012 11.4235 8.24894 12.269 7.49558C12.3033 7.46497 12.3352 7.43162 12.353 7.41412C12.0634 7.15334 11.7843 6.90186 11.499 6.64436C11.4824 6.65694 11.4591 6.67334 11.4377 6.69193C10.5456 7.48683 9.65173 8.28065 8.76276 9.07829C8.49097 9.32212 8.27257 9.60422 8.12103 9.92076C8.0106 10.152 7.92716 10.3942 7.81796 10.6654L7.81857 10.6659ZM13.2561 6.61156C13.6033 6.30322 13.9543 5.99871 14.296 5.68599C14.5451 5.45801 14.5408 5.12781 14.3009 4.91404C14.0592 4.6981 13.6794 4.69974 13.4224 4.92443C13.1273 5.18248 12.8383 5.44653 12.5426 5.70458C12.4892 5.75159 12.4187 5.78276 12.3641 5.81611C12.6855 6.10313 12.9665 6.35352 13.2561 6.61156Z" fill="black"/>
<path d="M4.91113 4.37702C4.31358 4.37702 3.71541 4.37757 3.11785 4.37702C2.73134 4.37647 2.45649 4.1485 2.45587 3.83141C2.45526 3.51432 2.73072 3.28361 3.11539 3.28361C4.31112 3.28307 5.50624 3.28307 6.70197 3.28361C7.08909 3.28361 7.36333 3.51159 7.36394 3.82922C7.36456 4.14686 7.0897 4.37647 6.70442 4.37757C6.10686 4.37866 5.50869 4.37757 4.91113 4.37757V4.37702Z" fill="black"/>
<path d="M4.90623 6.56377C4.29334 6.56377 3.67983 6.5665 3.06694 6.56267C2.74362 6.56049 2.48594 6.34618 2.45711 6.06845C2.42889 5.79346 2.6295 5.5469 2.93687 5.48403C2.99577 5.472 3.05835 5.47036 3.11908 5.47036C4.30929 5.46981 5.50011 5.46926 6.69032 5.47036C7.0891 5.47036 7.36456 5.69669 7.36334 6.0198C7.3615 6.34126 7.08542 6.56377 6.68418 6.56431C6.09153 6.56486 5.49888 6.56431 4.90623 6.56431V6.56377Z" fill="black"/>
</g>
<defs>
<clipPath id="clip0_998_8985">
<rect width="15.7083" height="14" fill="white"/>
</clipPath>
</defs>
</svg>
