<svg width="15" height="15" viewBox="0 0 15 15" fill="none" xmlns="http://www.w3.org/2000/svg">
<g clip-path="url(#clip0_1528_11320)">
<path d="M0.500529 7.50056C0.500529 5.74181 0.500529 3.98361 0.500529 2.22486C0.501075 1.20471 1.20534 0.502745 2.22893 0.502745C4.20175 0.502198 6.17511 0.506025 8.14793 0.500011C8.67503 0.498371 9.11356 0.673863 9.48155 1.05054C9.95616 1.53547 10.4401 2.0122 10.9207 2.49165C11.1241 2.69448 11.2783 2.92683 11.362 3.20346C11.456 3.51344 11.3122 3.81468 11.0219 3.9109C10.7348 4.00603 10.4494 3.85678 10.3263 3.56484C10.2782 3.45057 10.2082 3.33741 10.1224 3.24939C9.64777 2.76391 9.16277 2.28883 8.68597 1.80554C8.54216 1.65957 8.37867 1.59506 8.17417 1.59561C6.18769 1.59889 4.20065 1.59725 2.21417 1.59779C1.81392 1.59779 1.5952 1.81429 1.59465 2.2112C1.59465 5.73744 1.59465 9.26368 1.59465 12.7899C1.59465 13.1879 1.81337 13.4055 2.21198 13.4055C4.71792 13.4055 7.2244 13.4055 9.73034 13.4055C10.1207 13.4055 10.3411 13.1863 10.3422 12.7981C10.3422 12.6658 10.34 12.5341 10.3427 12.4018C10.3493 12.0912 10.5877 11.8512 10.8873 11.8501C11.1886 11.849 11.433 12.0874 11.4352 12.3974C11.4374 12.7517 11.4615 13.1065 11.3275 13.4498C11.088 14.0626 10.4876 14.4973 9.82876 14.4978C7.25447 14.5011 4.67964 14.5027 2.10536 14.4973C1.22174 14.4951 0.502716 13.7549 0.501075 12.8594C0.497795 11.0733 0.499982 9.28773 0.499982 7.50165L0.500529 7.50056Z" fill="white"/>
<path d="M6.37683 11.2184C6.45393 10.6651 6.61906 10.1529 6.88753 9.6756C7.08274 9.3279 7.32278 9.01464 7.60437 8.73254C8.96315 7.37343 10.3203 6.01214 11.6823 4.65631C12.5184 3.82423 13.8864 4.07462 14.3594 5.13905C14.6339 5.75573 14.4988 6.47574 14.0095 6.96723C13.1805 7.79986 12.3483 8.62976 11.5172 9.4602C10.96 10.0173 10.4105 10.582 9.84184 11.1276C9.0386 11.899 8.06915 12.2878 6.95698 12.3102C6.45174 12.3206 5.94596 12.3145 5.44018 12.3118C5.11648 12.3102 4.89285 12.092 4.8748 11.7684C4.85676 11.4475 4.63039 11.2195 4.32856 11.2195C4.02782 11.2195 3.79981 11.448 3.78232 11.7684C3.76427 12.0915 3.52532 12.3211 3.21694 12.3118C2.91128 12.3025 2.68655 12.0565 2.68874 11.7318C2.69311 10.9844 3.25193 10.3131 3.99994 10.1567C4.74248 10.0014 5.51072 10.3918 5.82075 11.0921C5.86613 11.1943 5.91534 11.2282 6.02087 11.22C6.13351 11.2113 6.24779 11.2179 6.37738 11.2179L6.37683 11.2184ZM7.46822 11.1659C8.16593 11.0243 8.71272 10.7187 9.17475 10.2551C9.92714 9.5012 10.6812 8.74894 11.4346 7.99558C11.4653 7.96497 11.4937 7.93162 11.5095 7.91412C11.2515 7.65334 11.0027 7.40186 10.7484 7.14436C10.7337 7.15694 10.7129 7.17334 10.6937 7.19193C9.8987 7.98683 9.10203 8.78065 8.30973 9.57829C8.06751 9.82212 7.87285 10.1042 7.73779 10.4208C7.63937 10.652 7.56501 10.8942 7.46768 11.1654L7.46822 11.1659ZM12.3144 7.11156C12.6239 6.80322 12.9367 6.49871 13.2412 6.18599C13.4632 5.95801 13.4594 5.62781 13.2456 5.41404C13.0302 5.1981 12.6917 5.19974 12.4626 5.42443C12.1996 5.68248 11.9421 5.94653 11.6785 6.20458C11.6309 6.25159 11.5681 6.28276 11.5194 6.31611C11.8059 6.60313 12.0563 6.85352 12.3144 7.11156Z" fill="white"/>
<path d="M4.87697 4.87702C4.3444 4.87702 3.81128 4.87757 3.27871 4.87702C2.93423 4.87647 2.68927 4.6485 2.68872 4.33141C2.68817 4.01432 2.93368 3.78361 3.27652 3.78361C4.34221 3.78307 5.40736 3.78307 6.47305 3.78361C6.81808 3.78361 7.06249 4.01159 7.06304 4.32922C7.06358 4.64686 6.81862 4.87647 6.47524 4.87757C5.94267 4.87866 5.40955 4.87757 4.87697 4.87757V4.87702Z" fill="white"/>
<path d="M4.87264 7.06377C4.32639 7.06377 3.7796 7.0665 3.23336 7.06267C2.9452 7.06049 2.71555 6.84618 2.68985 6.56845C2.6647 6.29346 2.8435 6.0469 3.11744 5.98403C3.16993 5.972 3.22571 5.97036 3.27984 5.97036C4.34061 5.96981 5.40193 5.96926 6.4627 5.97036C6.81811 5.97036 7.06362 6.19669 7.06253 6.5198C7.06089 6.84126 6.81483 7.06377 6.45723 7.06431C5.92903 7.06486 5.40084 7.06431 4.87264 7.06431V7.06377Z" fill="white"/>
</g>
<defs>
<clipPath id="clip0_1528_11320">
<rect width="14" height="14" fill="white" transform="translate(0.5 0.5)"/>
</clipPath>
</defs>
</svg>
