<svg width="16" height="17" viewBox="0 0 16 17" fill="none" xmlns="http://www.w3.org/2000/svg">
<path d="M3.70795 5.57283C4.97995 9.04286 6.29681 10.4274 9.64686 11.902L8.19504 13.941C4.34813 12.0993 2.43206 8.9947 1.52965 6.57194L3.70795 5.57283Z" fill="black"/>
<path d="M4.77473 0.782733C5.45491 0.780073 5.97208 1.34604 5.92571 1.98691C5.85274 2.99543 5.93042 3.72306 6.13959 4.62498C6.25449 5.12041 5.99456 5.62359 5.58149 5.94769C5.02472 6.38453 4.59937 6.94114 4.26131 7.42031C3.79274 8.08444 2.18022 8.03673 1.82361 7.31321C1.09072 5.82628 0.59404 3.08685 1.66427 1.23603C1.83238 0.945316 2.17086 0.792915 2.5216 0.791544L4.77473 0.782733Z" fill="black"/>
<path d="M15.0998 11.7858C15.1844 11.1484 14.6516 10.5954 13.9724 10.5618C12.9035 10.509 12.148 10.3486 11.225 10.0441C10.7181 9.87676 10.1579 10.0599 9.76751 10.4082C9.24136 10.8777 8.6051 11.2096 8.06076 11.4689C7.30629 11.8283 7.16252 13.3459 7.88018 13.7672C9.35507 14.6332 12.175 15.4283 14.2492 14.6475C14.575 14.5248 14.7759 14.2258 14.8196 13.8971L15.0998 11.7858Z" fill="black"/>
<path d="M15.0998 11.7858C15.1844 11.1484 14.6516 10.5954 13.9724 10.5618C12.9035 10.509 12.148 10.3486 11.225 10.0441C10.7181 9.87676 10.1579 10.0599 9.76751 10.4082C9.24136 10.8777 8.6051 11.2096 8.06076 11.4689C7.30628 11.8283 7.16252 13.3459 7.88018 13.7672C9.35507 14.6332 12.175 15.4283 14.2492 14.6475C14.575 14.5248 14.7759 14.2258 14.8196 13.8971L15.0998 11.7858Z" fill="black"/>
</svg>
