<svg width="21" height="17" viewBox="0 0 21 17" fill="none" xmlns="http://www.w3.org/2000/svg">
<path d="M6.98347 7.7996C8.34393 7.7996 9.70481 7.7996 11.0653 7.7996C11.8456 7.7996 12.6264 7.80123 13.4068 7.80204C13.5817 7.80204 13.5752 7.80001 13.6306 7.64386C13.8184 7.11401 14.1665 6.70616 14.6903 6.44306C15.1415 6.21657 15.6241 6.13971 16.1251 6.23934C16.8212 6.37759 17.3399 6.74641 17.6605 7.3523C17.7193 7.46331 17.761 7.58327 17.8005 7.70201C17.8268 7.7809 17.8723 7.80448 17.9574 7.80407C18.6411 7.80123 19.3251 7.80204 20.0092 7.80245C20.3212 7.80245 20.5442 7.99926 20.5399 8.27049C20.5365 8.50349 20.347 8.70477 20.1012 8.71738C19.8799 8.72876 19.6573 8.7247 19.4356 8.72511C18.9449 8.72511 18.4546 8.72633 17.9638 8.72063C17.8594 8.71941 17.8233 8.76089 17.7941 8.8471C17.5462 9.58514 17.0288 10.0642 16.2347 10.2585C15.557 10.4244 14.9357 10.287 14.3813 9.89215C14.0019 9.62174 13.7454 9.2639 13.6199 8.82758C13.5988 8.75438 13.5615 8.72185 13.4777 8.72185C12.4893 8.72429 11.5014 8.7247 10.5131 8.72511C9.76841 8.72511 9.02373 8.72389 8.27904 8.72389C7.52017 8.72389 6.76088 8.72511 6.00201 8.72511C5.25732 8.72511 4.51264 8.72389 3.76795 8.72389C3.00908 8.72389 2.24979 8.7247 1.49092 8.72511C1.16864 8.72511 0.846358 8.72836 0.524076 8.72429C0.217693 8.71982 -0.000169583 8.52016 0.00283838 8.25544C0.00541664 8.03504 0.189332 7.82237 0.421375 7.81221C0.778464 7.79594 1.13684 7.80123 1.49479 7.80082C2.26096 7.7996 3.02713 7.80041 3.7933 7.80082C4.53799 7.80082 5.28268 7.80163 6.02736 7.80204C6.34621 7.80204 6.66462 7.80204 6.98347 7.80204V7.80041V7.7996ZM14.5236 8.26154C14.4776 8.80562 14.9907 9.39118 15.7044 9.39809C16.3189 9.40378 16.9407 8.91419 16.902 8.19119C16.8719 7.62475 16.3486 7.13394 15.716 7.12743C15.0431 7.12052 14.4785 7.6833 14.5236 8.26154Z" fill="black"/>
<path d="M15.6371 14.9186C14.2052 14.9186 12.7728 14.9186 11.3408 14.9186C11.1745 14.9186 11.1814 14.9206 11.1255 15.0766C10.8956 15.7242 10.4457 16.1771 9.76493 16.4056C8.65229 16.7791 7.46616 16.2374 7.0291 15.2326C6.99773 15.1609 6.97495 15.086 6.95174 15.0115C6.93197 14.9483 6.89716 14.917 6.82196 14.9174C6.10942 14.9198 5.39688 14.9194 4.68435 14.9198C3.92153 14.9198 3.15914 14.9198 2.39632 14.9194C1.77704 14.9194 1.15734 14.9214 0.538056 14.917C0.260003 14.9149 0.10658 14.8107 0.0279349 14.5923C-0.067471 14.328 0.119043 14.0299 0.414286 14.005C0.659677 13.9843 0.907647 13.9912 1.15433 13.9912C2.49689 13.9912 3.83945 13.9928 5.18244 13.9932C5.72307 13.9932 6.2637 13.9908 6.80434 13.9916C6.88083 13.9916 6.93283 13.9769 6.95604 13.8975C7.10431 13.388 7.41975 12.9925 7.8899 12.7127C9.04251 12.0268 10.5467 12.4879 11.0688 13.6837C11.0907 13.7338 11.1114 13.7843 11.1277 13.8364C11.1758 13.99 11.175 13.9908 11.3456 13.9908C12.7599 13.9908 14.1742 13.9908 15.5881 13.9908C17.0596 13.9912 18.5311 13.9953 20.0026 13.9908C20.3662 13.99 20.5591 14.262 20.5385 14.4881C20.5183 14.7076 20.3464 14.8966 20.1156 14.906C19.7439 14.921 19.3713 14.9194 18.9991 14.9202C17.8783 14.9218 16.7579 14.9206 15.6371 14.9206V14.9182V14.9186ZM7.85982 14.4547C7.81598 15.0233 8.36005 15.5857 9.02833 15.5963C9.62784 15.6057 10.2759 15.1397 10.2407 14.3789C10.2153 13.8299 9.68585 13.3277 9.06701 13.3212C8.37123 13.3135 7.82802 13.8653 7.85982 14.4551V14.4547Z" fill="black"/>
<path d="M14.1365 2.52836C13.3952 2.52836 12.6544 2.52836 11.9131 2.52836C11.1503 2.52836 10.388 2.52836 9.62518 2.52836C9.15634 2.52836 8.68707 2.52999 8.21823 2.52918C8.13959 2.52918 8.10006 2.5524 8.07384 2.63062C7.82675 3.37204 7.31364 3.86374 6.51691 4.06295C5.3605 4.35137 4.21354 3.69468 3.88694 2.63387C3.85944 2.54507 3.81517 2.52836 3.72837 2.52836C2.71892 2.53081 1.70904 2.53162 0.699598 2.52796C0.562512 2.52755 0.417262 2.52022 0.290061 2.47744C0.0850774 2.4086 -0.0232158 2.20002 0.00815487 2.00122C0.0412444 1.79468 0.208841 1.63784 0.430154 1.61299C0.522117 1.60281 0.615799 1.59996 0.708622 1.59996C1.71463 1.59914 2.72064 1.59833 3.72665 1.60118C3.82033 1.60118 3.86416 1.57836 3.8921 1.48874C4.0829 0.882567 4.48599 0.446268 5.09149 0.182289C6.2045 -0.302895 7.5573 0.218138 7.9995 1.2985C8.02528 1.36164 8.06095 1.42356 8.07255 1.48874C8.08759 1.57388 8.13143 1.60036 8.2178 1.59996C8.68664 1.59833 9.15591 1.59996 9.62475 1.59996C10.3837 1.59996 11.1426 1.59996 11.9019 1.59996C12.6466 1.59996 13.3914 1.59996 14.1361 1.59996C14.895 1.59996 15.6539 1.59996 16.4133 1.59996C17.1614 1.59996 17.9096 1.59996 18.6582 1.59996C19.0987 1.59996 19.5392 1.5967 19.9792 1.60036C20.2787 1.60281 20.4403 1.71117 20.5202 1.94541C20.604 2.19146 20.4107 2.48355 20.1395 2.51696C20.0617 2.52633 19.9822 2.52918 19.904 2.52918C18.5542 2.52918 17.2044 2.52796 15.8546 2.52714C15.2818 2.52714 14.7089 2.52714 14.1361 2.52714C14.1361 2.52714 14.1361 2.52755 14.1361 2.52796L14.1365 2.52836ZM7.17828 2.06355C7.17828 1.45045 6.64111 0.93023 6.00811 0.929823C5.30506 0.929823 4.78594 1.42356 4.78594 2.0941C4.78594 2.68968 5.33643 3.20705 5.96986 3.20583C6.63896 3.20501 7.17871 2.69498 7.17828 2.06355Z" fill="black"/>
</svg>
