<svg width="12" height="12" viewBox="0 0 12 12" fill="none" xmlns="http://www.w3.org/2000/svg">
<g clip-path="url(#clip0_1188_12964)">
<path d="M6.07326 11.9911C5.29029 11.9911 4.50605 12.0153 3.72308 11.9847C2.83589 11.9503 1.98047 11.7808 1.26868 11.1843C0.424705 10.4769 0.0408473 9.54522 0.0243236 8.47077C-0.00109746 6.87884 -0.0125369 5.28564 0.0255946 3.69498C0.0611841 2.23561 0.581044 1.00311 2.00462 0.379848C2.48508 0.169545 3.04053 0.0471874 3.56547 0.0331672C5.13141 -0.0114425 6.69862 -0.00634421 8.26455 0.0242453C9.55975 0.0497365 10.6999 0.449949 11.4358 1.62C11.8248 2.23816 11.9849 2.92642 11.9875 3.6491C11.9951 5.18877 12.0142 6.72844 11.9824 8.26684C11.9557 9.55287 11.5629 10.6885 10.4088 11.4239C9.81396 11.8037 9.15429 11.9796 8.45394 11.9898C7.6608 12.0026 6.8664 11.9924 6.07199 11.9924L6.07326 11.9911ZM6.09741 1.12164C6.09741 1.11145 6.09741 1.10125 6.09741 1.08978C5.32461 1.08978 4.548 1.04644 3.77901 1.1038C3.22992 1.14459 2.64015 1.21851 2.15842 1.45813C1.33224 1.86726 1.11234 2.7021 1.09836 3.55861C1.07167 5.13014 1.05769 6.70295 1.10853 8.27194C1.12633 8.82764 1.23945 9.43561 1.50001 9.91739C1.92073 10.6974 2.7431 10.8988 3.5731 10.9116C5.14031 10.9345 6.70751 10.9409 8.27472 10.9052C8.7717 10.8937 9.2941 10.7943 9.75422 10.6108C10.4876 10.3189 10.7812 9.63062 10.8575 8.90794C10.9427 8.09859 10.9147 7.27523 10.9134 6.45951C10.9109 5.3876 10.9249 4.31442 10.8613 3.24506C10.785 1.96795 10.0733 1.23253 8.79458 1.13566C7.89976 1.06811 6.99604 1.12292 6.09741 1.12292V1.12164Z" fill="black"/>
<path d="M6.01837 2.92139C7.73429 2.92011 9.09432 4.28644 9.09304 6.0122C9.09177 7.72266 7.71268 9.09919 6.00185 9.09919C4.27703 9.09919 2.90811 7.71629 2.91065 5.98034C2.91446 4.2686 4.28084 2.92394 6.0171 2.92139H6.01837ZM8.01392 5.98926C8.00248 4.85362 7.12546 3.9831 5.99676 3.98692C4.85282 3.99075 3.97706 4.88166 3.9885 6.02877C3.99994 7.16186 4.89095 8.03875 6.01201 8.02091C7.128 8.00307 8.02536 7.09303 8.01392 5.98798V5.98926Z" fill="black"/>
<path d="M9.86836 2.83201C9.86836 3.23859 9.57348 3.53684 9.17437 3.52919C8.76636 3.52282 8.47656 3.23095 8.47656 2.82946C8.47656 2.43052 8.77526 2.13227 9.17564 2.13355C9.58365 2.13355 9.86836 2.42033 9.86836 2.83201Z" fill="black"/>
</g>
<defs>
<clipPath id="clip0_1188_12964">
<rect width="12" height="12" fill="white"/>
</clipPath>
</defs>
</svg>
