<svg width="11" height="11" viewBox="0 0 11 11" fill="none" xmlns="http://www.w3.org/2000/svg">
<g clip-path="url(#clip0_1188_12971)">
<path d="M6.06311 4.58466C6.35215 4.32715 6.60101 4.04911 6.90202 3.84893C7.50834 3.44342 8.19931 3.4246 8.89798 3.51956C9.31958 3.57688 9.71466 3.71205 10.0516 3.98238C10.5587 4.3896 10.8033 4.94995 10.8794 5.57019C10.9555 6.19043 10.982 6.81836 10.9914 7.44373C11.0085 8.54134 10.9914 9.63894 11.0008 10.7365C11.0025 10.9461 10.9341 11.0035 10.7315 10.9992C10.1474 10.9872 9.5633 10.9889 8.97922 10.9992C8.7928 11.0026 8.73208 10.9436 8.73293 10.7562C8.73978 9.68685 8.74491 8.61748 8.73208 7.54896C8.72695 7.15201 8.70985 6.74907 8.63203 6.36153C8.51487 5.77979 8.16083 5.49234 7.64345 5.47437C6.92939 5.45042 6.48299 5.70707 6.30683 6.28966C6.22388 6.56513 6.17599 6.86028 6.17257 7.14773C6.15803 8.34543 6.16145 9.54227 6.17086 10.74C6.17257 10.9496 6.10929 11.0043 5.90576 11C5.30714 10.9872 4.70852 10.9906 4.11076 10.9983C3.95512 11 3.89868 10.9564 3.89868 10.7947C3.90296 8.48573 3.90296 6.17588 3.89868 3.86689C3.89868 3.70863 3.94828 3.65558 4.10734 3.65815C4.69142 3.66585 5.2755 3.66499 5.86043 3.65815C6.02035 3.65644 6.07508 3.71632 6.06909 3.87203C6.06054 4.11157 6.06653 4.35196 6.06653 4.58466H6.06311Z" fill="black"/>
<path d="M2.44834 7.33088C2.44834 8.46356 2.44406 9.5971 2.45261 10.7298C2.45432 10.9308 2.40301 11.0044 2.19093 11.0001C1.60001 10.9873 1.00824 10.989 0.417316 11.0001C0.227469 11.0035 0.172739 10.9385 0.173594 10.7537C0.178725 8.45929 0.178725 6.16484 0.173594 3.86954C0.173594 3.68817 0.245428 3.65652 0.401923 3.65823C1.00054 3.66422 1.59916 3.66678 2.19692 3.65737C2.38933 3.65395 2.45518 3.70956 2.45347 3.9106C2.44406 5.05098 2.44919 6.19136 2.44919 7.33088H2.44834Z" fill="black"/>
<path d="M2.40966e-05 1.31236C0.00429993 0.583473 0.594364 -0.00425429 1.31698 2.32014e-05C2.04045 0.00430069 2.6194 0.596306 2.61769 1.32947C2.61512 2.06605 2.03617 2.63924 1.30073 2.63325C0.561013 2.6264 -0.00425173 2.05322 2.40966e-05 1.31236Z" fill="black"/>
</g>
<defs>
<clipPath id="clip0_1188_12971">
<rect width="11" height="11" fill="white"/>
</clipPath>
</defs>
</svg>
