<svg width="19" height="19" viewBox="0 0 19 19" fill="none" xmlns="http://www.w3.org/2000/svg">
<g clip-path="url(#clip0_1148_5068)">
<path d="M2.15475 7.23648V7.00644C2.15475 5.14383 2.15475 3.28123 2.15475 1.4179C2.15475 0.963573 2.35115 0.766602 2.80256 0.766602C4.8449 0.766602 6.88723 0.766602 8.92957 0.766602C9.37816 0.766602 9.57314 0.965011 9.57314 1.42293C9.57314 3.27979 9.57314 5.13664 9.57314 6.9935C9.57314 7.06538 9.57314 7.13655 9.57314 7.23648C9.6353 7.23648 9.69111 7.23648 9.74692 7.23648C10.1941 7.23648 10.6413 7.23648 11.0892 7.23648C11.4798 7.2372 11.6918 7.44926 11.6925 7.84392C11.6939 8.64619 11.6925 9.44917 11.6925 10.2514V10.4714C11.7709 10.4714 11.8387 10.4714 11.9072 10.4714C13.7553 10.4714 15.6034 10.4714 17.4521 10.4714C17.888 10.4714 18.0858 10.6741 18.0858 11.1191C18.0858 13.2031 18.0858 15.2879 18.0858 17.3719C18.0858 17.8169 17.8873 18.0203 17.4514 18.0203C11.8479 18.0203 6.24437 18.0203 0.640842 18.0203C0.193662 18.0203 -0.000610352 17.8205 -0.000610352 17.3618C-0.000610352 14.2052 -0.000610352 11.0487 -0.000610352 7.89209C-0.000610352 7.43489 0.194369 7.23648 0.642961 7.23576C1.13747 7.23576 1.63128 7.23576 2.15405 7.23576L2.15475 7.23648ZM1.06965 16.9283H10.6236V8.32701H7.45451C7.45451 8.85826 7.45663 9.378 7.4538 9.89847C7.45168 10.2471 7.23198 10.4707 6.88865 10.4714C6.20622 10.4736 5.52309 10.4736 4.84066 10.4714C4.49733 10.47 4.27762 10.2464 4.2755 9.89847C4.27268 9.43695 4.2755 8.97615 4.2748 8.51464C4.2748 8.45137 4.2748 8.38811 4.2748 8.32413H1.06965V16.9276V16.9283ZM12.7514 11.5641H11.7017V16.9298H17.012V11.5605H15.9311C15.9311 12.0774 15.9319 12.5849 15.9311 13.0924C15.9304 13.49 15.7206 13.7064 15.3349 13.7071C14.6758 13.7085 14.0167 13.7078 13.3576 13.7071C12.9584 13.7071 12.7514 13.4943 12.7514 13.0852C12.7514 12.5827 12.7514 12.0803 12.7514 11.5641ZM7.45451 1.85426C7.45451 2.37904 7.45521 2.88728 7.45451 3.39553C7.4538 3.78228 7.24257 4.00154 6.86886 4.00226C6.19774 4.0037 5.52732 4.0037 4.8562 4.00226C4.49168 4.00154 4.27621 3.78084 4.2755 3.40919C4.27409 2.94839 4.2755 2.48687 4.2755 2.02607C4.2755 1.96928 4.2755 1.91177 4.2755 1.85642H3.22855V7.22354H8.50499V1.85426H7.45592H7.45451ZM5.34506 1.85498V2.91172H6.38071V1.85498H5.34506ZM5.34789 8.32341V9.378H6.38354V8.32341H5.34789ZM13.8274 11.5548V12.6158H14.8573V11.5548H13.8274Z" fill="black"/>
<path d="M3.73422 15.8644C3.39936 15.8644 3.0638 15.8659 2.72895 15.8644C2.39056 15.8623 2.15178 15.6337 2.15531 15.3188C2.15814 15.0118 2.3955 14.7868 2.72329 14.7861C3.40501 14.7839 4.08673 14.7839 4.76916 14.7861C5.09695 14.7868 5.3329 15.014 5.33432 15.3217C5.33573 15.6301 5.10119 15.8608 4.77481 15.8637C4.42795 15.8666 4.08108 15.8637 3.73422 15.8637V15.8644Z" fill="black"/>
</g>
<defs>
<clipPath id="clip0_1148_5068">
<rect width="18.0864" height="17.2544" fill="white" transform="translate(0 0.766602)"/>
</clipPath>
</defs>
</svg>
