<svg width="30" height="41" viewBox="0 0 30 41" fill="none" xmlns="http://www.w3.org/2000/svg">
<path d="M16.8456 5.77003V2.67793C16.8456 1.69109 16.0403 0.901611 14.9664 0.901611C13.8926 0.901611 13.1544 1.69109 13.1544 2.67793V5.77003C7.78524 6.36214 0 9.58582 0 18.9279V34.3885L1.14094 34.849C1.14094 34.849 4.96644 36.3621 14.0268 36.4937C14.5638 38.9279 16.7114 40.8358 19.3289 40.8358C22.2148 40.8358 24.5638 38.599 24.8322 35.8358C27.3826 35.4411 28.6577 34.9806 28.8591 34.849L30 34.3885V18.9279C30 9.58582 22.2148 6.36214 16.8456 5.77003ZM26.3087 31.8885C24.6309 32.2832 21.0738 32.9411 15.0336 32.9411C8.99329 32.9411 5.36913 32.2832 3.75839 31.8885V18.9279C3.75839 9.45424 14.6309 9.25688 15.0336 9.25688C15.5034 9.25688 26.3087 9.45424 26.3087 18.9279V31.8885Z" fill="black"/>
</svg>
