<svg width="88" height="27" viewBox="0 0 88 27" fill="none" xmlns="http://www.w3.org/2000/svg">
<g clip-path="url(#clip0_1144_8815)">
<path d="M16.1195 20.7636C16.1195 22.074 15.7736 23.1774 15.1509 24.074C14.5283 24.9705 13.5597 25.7291 12.3836 26.1429C11.2075 26.5567 9.68553 26.8326 7.88679 26.8326C6.08805 26.8326 4.77358 26.5567 3.5283 26.074C2.3522 25.5912 1.45283 24.9015 0.830189 24.1429C0.207547 23.3843 0 22.6257 0 21.7981C0 21.3153 0.207547 20.8326 0.553459 20.4878C0.899371 20.1429 1.38365 19.936 1.93711 19.936C2.42138 19.936 2.83648 20.074 3.04402 20.2809C3.32075 20.5567 3.5283 20.8326 3.80503 21.3153C4.28931 22.1429 4.84277 22.7636 5.53459 23.1774C6.22641 23.5912 7.12579 23.7981 8.30189 23.7981C9.27044 23.7981 10.0314 23.5912 10.5849 23.1774C11.1384 22.7636 11.4843 22.2809 11.4843 21.7291C11.4843 20.9015 11.2075 20.2809 10.5157 19.936C9.89308 19.5912 8.85535 19.1774 7.40252 18.8326C5.81132 18.4188 4.49686 18.005 3.45912 17.5912C2.42138 17.1774 1.66038 16.5567 1.03774 15.8671C0.415094 15.1774 0.138365 14.2809 0.138365 13.1774C0.138365 12.2119 0.415094 11.3843 0.968553 10.5567C1.52201 9.72913 2.3522 9.03948 3.45912 8.55672C4.56604 8.07396 5.8805 7.7981 7.40252 7.7981C8.6478 7.7981 9.68553 7.93603 10.6541 8.14292C11.6226 8.41879 12.4528 8.76361 13.0755 9.17741C13.6981 9.5912 14.1824 10.074 14.5283 10.5567C14.8742 11.0395 15.0126 11.5912 15.0126 12.074C15.0126 12.6257 14.805 13.0395 14.4591 13.3843C14.1132 13.7291 13.5597 13.8671 12.9371 13.8671C12.4528 13.8671 12.0377 13.7291 11.6918 13.4533C11.3459 13.1774 11 12.7636 10.5157 12.2119C10.1698 11.7291 9.75472 11.3843 9.27044 11.1084C8.78616 10.8326 8.16352 10.6946 7.33333 10.6946C6.50314 10.6946 5.74214 10.9015 5.18868 11.2464C4.63522 11.5912 4.35849 12.074 4.35849 12.6257C4.35849 13.1084 4.56604 13.5222 4.98113 13.8671C5.39623 14.1429 5.94969 14.4188 6.64151 14.6257C7.33333 14.8326 8.30189 15.1084 9.54717 15.3843C11 15.7291 12.1761 16.1429 13.1447 16.6257C14.044 17.1084 14.7358 17.7291 15.2201 18.3498C15.7044 18.9705 15.9119 19.7981 15.9119 20.6257" fill="black"/>
<path d="M31.9624 24.2809V23.6602C31.409 24.3498 30.7863 24.9705 30.1637 25.4533C29.541 25.936 28.8492 26.2809 28.1574 26.4878C27.3964 26.6946 26.5662 26.8326 25.6668 26.8326C24.5599 26.8326 23.5222 26.6257 22.6228 26.1429C21.7234 25.6602 21.0316 25.0395 20.5473 24.2119C19.9939 23.2464 19.6479 21.7981 19.6479 19.936V10.6257C19.6479 9.66016 19.8555 8.97051 20.2706 8.48775C20.6857 8.00499 21.2391 7.7981 21.931 7.7981C22.6228 7.7981 23.2454 8.00499 23.6605 8.48775C24.0756 8.97051 24.2832 9.66016 24.2832 10.5567V18.074C24.2832 19.1774 24.3524 20.074 24.5599 20.8326C24.7674 21.5912 25.0442 22.1429 25.5285 22.5567C26.0127 22.9705 26.6354 23.1774 27.4656 23.1774C28.2957 23.1774 28.9876 22.9705 29.6794 22.4878C30.3712 22.005 30.8555 21.3843 31.2014 20.6257C31.4781 19.936 31.6165 18.4878 31.6165 16.2809V10.5567C31.6165 9.66016 31.8241 8.90154 32.3083 8.48775C32.7234 8.00499 33.2769 7.7981 34.0379 7.7981C34.7989 7.7981 35.2832 8.00499 35.6983 8.48775C36.1134 8.97051 36.3209 9.66016 36.3209 10.6257V24.2119C36.3209 25.1084 36.1134 25.7981 35.6983 26.2119C35.2832 26.6946 34.7989 26.9015 34.1071 26.9015C33.4152 26.9015 32.931 26.6946 32.5159 26.2119C32.1008 25.7291 31.8932 25.1084 31.8932 24.2809" fill="black"/>
<path d="M44.9687 10.4878V11.0395C45.7989 9.93603 46.6982 9.17741 47.6668 8.62568C48.6354 8.14292 49.7423 7.86706 51.0567 7.86706C52.3712 7.86706 53.4089 8.14292 54.3775 8.69465C55.346 9.24637 56.1071 10.005 56.5913 10.9705C56.9372 11.5222 57.0756 12.1429 57.214 12.8326C57.2832 13.5222 57.3523 14.3498 57.3523 15.3843V24.074C57.3523 25.0395 57.1448 25.7291 56.7297 26.2119C56.3146 26.6946 55.7611 26.9015 55.0693 26.9015C54.3775 26.9015 53.824 26.6257 53.3398 26.1429C52.9247 25.6602 52.6479 24.9705 52.6479 24.005V16.2119C52.6479 14.6946 52.4404 13.5222 52.0253 12.6946C51.6102 11.8671 50.7108 11.4533 49.4655 11.4533C48.6354 11.4533 47.8743 11.7291 47.1825 12.2119C46.4907 12.6946 46.0064 13.3843 45.6605 14.2809C45.453 14.9705 45.3146 16.2809 45.3146 18.2119V24.074C45.3146 25.0395 45.1071 25.7291 44.6228 26.2119C44.2077 26.6946 43.585 26.9015 42.8932 26.9015C42.2014 26.9015 41.6479 26.6257 41.2328 26.1429C40.8177 25.6602 40.541 24.9705 40.541 24.005V10.4878C40.541 9.5912 40.7486 8.90154 41.1637 8.48775C41.5787 8.07396 42.063 7.7981 42.7549 7.7981C43.1699 7.7981 43.5159 7.86706 43.8618 8.07396C44.2077 8.28085 44.4844 8.55672 44.692 8.97051C44.8995 9.3843 44.9687 9.86706 44.9687 10.4188" fill="black"/>
<path d="M74.5095 24.2121V23.7293C73.8869 24.419 73.2642 25.0397 72.6416 25.5224C72.0189 26.0052 71.3963 26.35 70.6353 26.5569C69.9435 26.7638 69.1133 26.9017 68.2831 26.9017C67.1762 26.9017 66.1384 26.6948 65.1699 26.2121C64.2013 25.7293 63.3711 25.0397 62.6793 24.2121C61.9875 23.3155 61.434 22.281 61.0881 21.1086C60.7422 19.9362 60.5347 18.6259 60.5347 17.2466C60.5347 14.281 61.2265 12.0052 62.6793 10.419C64.1322 8.7638 66.0001 7.93621 68.3523 7.93621C69.6667 7.93621 70.8428 8.14311 71.7422 8.62587C72.6416 9.10863 73.541 9.79828 74.4403 10.7638V3.79828C74.4403 2.83276 74.6479 2.14311 74.9938 1.59138C75.4089 1.10863 75.9623 0.832764 76.6542 0.832764C77.346 0.832764 77.8994 1.03966 78.3145 1.52242C78.7296 2.00518 78.868 2.62587 78.868 3.52242V24.2121C78.868 25.1086 78.6605 25.7983 78.2454 26.2121C77.8303 26.6259 77.2768 26.9017 76.6542 26.9017C76.0315 26.9017 75.4781 26.6948 75.063 26.2121C74.6479 25.7293 74.4403 25.1086 74.4403 24.2121M65.2391 17.3845C65.2391 18.6259 65.4466 19.7293 65.8617 20.6259C66.2768 21.5224 66.7611 22.2121 67.4529 22.6259C68.1447 23.1086 68.9057 23.3155 69.7359 23.3155C70.5661 23.3155 71.3271 23.1086 72.0189 22.6948C72.7108 22.281 73.2642 21.5914 73.6793 20.6948C74.0944 19.7983 74.302 18.6948 74.302 17.3845C74.302 16.1431 74.0944 15.0397 73.6793 14.1431C73.2642 13.2466 72.7108 12.5569 72.0189 12.0741C71.3271 11.5914 70.5661 11.3845 69.7359 11.3845C68.9057 11.3845 68.0755 11.6604 67.4529 12.1431C66.7611 12.6259 66.2768 13.3155 65.8617 14.2121C65.5158 15.1086 65.3082 16.2121 65.3082 17.3845" fill="#DE000E"/>
<path d="M85.6476 5.66024C85.025 5.66024 84.4715 5.45334 83.9872 5.03955C83.503 4.62576 83.2954 4.07403 83.2954 3.31541C83.2954 2.62576 83.503 2.07403 83.9872 1.66024C84.4715 1.24645 85.025 1.03955 85.6476 1.03955C86.2703 1.03955 86.8237 1.24645 87.2388 1.66024C87.7231 2.07403 87.9306 2.62576 87.9306 3.38438C87.9306 4.143 87.7231 4.69472 87.2388 5.03955C86.7545 5.45334 86.2011 5.66024 85.5784 5.66024M87.9998 10.5568V24.074C87.9998 25.0395 87.7923 25.7292 87.308 26.212C86.8237 26.6947 86.2703 26.9016 85.5784 26.9016C84.8866 26.9016 84.3331 26.6258 83.9181 26.143C83.503 25.6602 83.2954 24.9706 83.2954 24.0051V10.6258C83.2954 9.72921 83.503 8.97059 83.9181 8.55679C84.3331 8.07403 84.8866 7.86714 85.5784 7.86714C86.2703 7.86714 86.8237 8.07403 87.308 8.55679C87.7923 9.03955 87.9998 9.66024 87.9998 10.4878" fill="black"/>
</g>
<defs>
<clipPath id="clip0_1144_8815">
<rect width="88" height="26" fill="white" transform="translate(0 0.901611)"/>
</clipPath>
</defs>
</svg>
