<svg width="84" height="32" viewBox="0 0 84 32" fill="none" xmlns="http://www.w3.org/2000/svg">
<g clip-path="url(#clip0_1144_8879)">
<path d="M15.2906 19.0481C15.2906 20.2847 14.9625 21.3261 14.3719 22.1722C13.7812 23.0183 12.8625 23.7343 11.7469 24.1248C10.5656 24.5804 9.12187 24.7756 7.48125 24.7756C5.84062 24.7756 4.52812 24.5153 3.34687 24.0597C2.23125 23.6041 1.37812 22.9532 0.7875 22.2373C0.2625 21.5213 0 20.8054 0 20.0244C0 19.5688 0.196875 19.1132 0.525 18.7877C0.853125 18.4623 1.3125 18.267 1.8375 18.267C2.29688 18.267 2.69062 18.3972 2.8875 18.5925C3.15 18.8528 3.34688 19.1132 3.60938 19.5688C4.06875 20.3498 4.59375 20.9356 5.25 21.3261C5.90625 21.7166 6.75938 21.9119 7.875 21.9119C8.79375 21.9119 9.51562 21.7166 10.1062 21.3261C10.6969 20.9356 10.9594 20.48 10.9594 19.9593C10.9594 19.1783 10.6969 18.5925 10.0406 18.267C9.45 17.8765 8.46562 17.5511 7.0875 17.2257C5.57813 16.8352 4.33125 16.4446 3.34687 16.0541C2.3625 15.6636 1.64062 15.0778 1.05 14.427C0.459375 13.711 0.196875 12.93 0.196875 11.8886C0.196875 10.9774 0.459375 10.1964 0.984375 9.35027C1.50937 8.56923 2.29688 7.91837 3.34687 7.46277C4.39687 7.00717 5.64375 6.74683 7.0875 6.74683C8.26875 6.74683 9.25312 6.877 10.1719 7.07226C11.0906 7.3326 11.8781 7.65803 12.4688 8.04855C13.0594 8.43906 13.5187 8.89466 13.8469 9.35027C14.175 9.80587 14.3063 10.3266 14.3063 10.7822C14.3063 11.3028 14.1094 11.6934 13.7812 12.0188C13.4531 12.3442 12.9281 12.4744 12.3375 12.4744C11.8781 12.4744 11.4844 12.3442 11.1562 12.0839C10.8281 11.8235 10.5 11.433 10.0406 10.9123C9.7125 10.4567 9.31875 10.1313 8.85938 9.87095C8.4 9.61061 7.80938 9.48044 7.02188 9.48044C6.23438 9.48044 5.5125 9.6757 4.9875 10.0011C4.4625 10.3266 4.2 10.7822 4.2 11.2378C4.2 11.6934 4.39687 12.0839 4.79063 12.4093C5.18438 12.6697 5.70938 12.93 6.36563 13.1253C7.02188 13.3205 7.94062 13.5809 9.12187 13.8412C10.5 14.1666 11.6156 14.5571 12.5344 15.0127C13.3875 15.4684 14.1094 16.0541 14.5031 16.6399C14.8969 17.2257 15.1594 18.0067 15.1594 18.7877" fill="black"/>
<path d="M30.3189 22.3673V21.7815C29.7939 22.4324 29.2033 23.0182 28.6127 23.4738C28.0221 23.9294 27.3658 24.2548 26.7096 24.4501C26.0533 24.6453 25.2002 24.7755 24.3471 24.7755C23.2971 24.7755 22.3127 24.5802 21.4596 24.1246C20.6064 23.669 19.9502 23.0833 19.4908 22.3022C18.9658 21.391 18.6377 20.0242 18.6377 18.2669V9.48029C18.6377 8.56909 18.8346 7.91823 19.2283 7.46263C19.6221 7.00703 20.1471 6.81177 20.8033 6.81177C21.4596 6.81177 22.0502 7.00703 22.4439 7.46263C22.8377 7.91823 23.0346 8.56909 23.0346 9.41521V16.5096C23.0346 17.551 23.1002 18.3971 23.2971 19.113C23.4939 19.829 23.7564 20.3497 24.2158 20.7402C24.6752 21.1307 25.2658 21.3259 26.0533 21.3259C26.8408 21.3259 27.4971 21.1307 28.1533 20.6751C28.8096 20.2195 29.2689 19.6337 29.5971 18.9178C29.8596 18.2669 29.9908 16.9001 29.9908 14.8173V9.41521C29.9908 8.56909 30.1877 7.91823 30.6471 7.46263C31.1064 7.00703 31.6314 6.81177 32.2877 6.81177C32.9439 6.81177 33.4689 7.00703 33.8627 7.46263C34.2564 7.91823 34.4533 8.56909 34.4533 9.48029V22.3022C34.4533 23.1484 34.2564 23.7992 33.8627 24.1897C33.4689 24.6453 32.9439 24.8406 32.3533 24.8406C31.7627 24.8406 31.2377 24.6453 30.8439 24.1897C30.4502 23.7341 30.2533 23.1484 30.2533 22.3673" fill="#DE000E"/>
<path d="M42.722 9.35022V9.87091C43.5751 8.82953 44.4282 8.11359 45.347 7.5929C46.2657 7.1373 47.2501 6.87695 48.4313 6.87695C49.8095 6.87695 51.0563 7.20238 52.2376 7.91833C53.4188 8.63427 54.272 9.67565 54.9938 10.9774C55.7157 12.2791 55.9782 13.9062 55.9782 15.7937C55.9782 17.1605 55.7813 18.3972 55.3876 19.5687C54.9938 20.7403 54.4688 21.6515 53.8126 22.4325C53.1563 23.2135 52.3688 23.7993 51.3845 24.1898C50.4657 24.5803 49.4813 24.8407 48.4313 24.8407C47.1845 24.8407 46.0688 24.5803 45.2157 24.0597C44.3626 23.539 43.5095 22.823 42.722 21.8467V28.4855C42.722 30.4381 42.0001 31.4144 40.5563 31.4144C39.7032 31.4144 39.1782 31.154 38.9157 30.6333C38.6532 30.1127 38.522 29.3967 38.522 28.4204V9.41531C38.522 8.56919 38.7188 7.91833 39.1126 7.52781C39.5063 7.1373 39.9657 6.87695 40.622 6.87695C41.2782 6.87695 41.8032 7.07221 42.197 7.52781C42.5907 7.98342 42.7876 8.56919 42.7876 9.35022M51.4501 15.7937C51.4501 14.6222 51.2532 13.6459 50.9251 12.7998C50.5314 11.9537 50.072 11.3028 49.4157 10.8472C48.7595 10.3916 48.1032 10.1963 47.3157 10.1963C46.0688 10.1963 45.0188 10.6519 44.2313 11.6282C43.3782 12.6045 42.9845 14.0364 42.9845 15.8588C42.9845 17.6161 43.3782 18.9829 44.2313 19.9592C45.0845 20.9355 46.1345 21.3911 47.3813 21.3911C48.1032 21.3911 48.8251 21.1959 49.4157 20.7403C50.072 20.2847 50.5314 19.6989 50.9251 18.8528C51.3188 18.0067 51.5157 16.9653 51.5157 15.7286" fill="black"/>
<path d="M59.1279 22.1721V2.97175C59.1279 2.06054 59.3248 1.40968 59.7186 0.954083C60.1123 0.498481 60.6373 0.303223 61.3592 0.303223C62.0811 0.303223 62.6061 0.498481 62.9998 0.954083C63.3936 1.40968 63.5904 2.06054 63.5904 2.97175V22.1721C63.5904 23.0833 63.3936 23.7342 62.9342 24.1898C62.5404 24.6454 61.9498 24.8406 61.2936 24.8406C60.6373 24.8406 60.1123 24.5803 59.7186 24.1247C59.3248 23.6691 59.1279 23.0182 59.1279 22.107" fill="black"/>
<path d="M79.144 22.3674C78.094 23.2135 77.0439 23.7993 75.9939 24.2549C75.0096 24.6454 73.894 24.9058 72.5815 24.9058C71.4658 24.9058 70.4158 24.6454 69.5627 24.2549C68.7096 23.7993 68.0533 23.2135 67.5939 22.4325C67.1346 21.6515 66.8721 20.8054 66.8721 19.9592C66.8721 18.7226 67.2658 17.6812 68.0533 16.8351C68.8408 15.989 69.8908 15.4032 71.2689 15.1429C71.5314 15.1429 72.2533 14.9476 73.3689 14.6873C74.4846 14.4269 75.4689 14.2317 76.2564 14.0364C77.0439 13.8412 77.8971 13.5808 78.8815 13.3205C78.8815 12.1489 78.6189 11.3028 78.1596 10.7821C77.7658 10.2614 76.8471 9.936 75.5346 9.936C74.4189 9.936 73.5658 10.0662 72.9752 10.3916C72.3846 10.717 71.9252 11.1726 71.5314 11.8235C71.1377 12.4743 70.8096 12.8649 70.6783 13.0601C70.4815 13.2554 70.1533 13.3856 69.5627 13.3856C69.0377 13.3856 68.6439 13.2554 68.2502 12.93C67.8564 12.6045 67.7252 12.214 67.7252 11.6933C67.7252 10.9123 67.9877 10.1313 68.5783 9.41531C69.1689 8.69936 70.0221 8.0485 71.2033 7.5929C72.3846 7.1373 73.8283 6.87695 75.6002 6.87695C77.569 6.87695 79.0783 7.1373 80.1939 7.5929C81.3096 8.0485 82.0971 8.76445 82.5564 9.74074C83.0158 10.717 83.2783 12.0838 83.2783 13.711C83.2783 14.7524 83.2783 15.5985 83.2783 16.3144C83.2783 17.0304 83.2783 17.8765 83.2783 18.7226C83.2783 19.5687 83.4096 20.4148 83.6721 21.326C83.9346 22.2372 84.0658 22.823 84.0658 23.0834C84.0658 23.539 83.8689 23.9295 83.4096 24.32C83.0158 24.7105 82.4908 24.9058 81.9658 24.9058C81.5064 24.9058 81.0471 24.7105 80.5877 24.2549C80.1283 23.7993 79.669 23.2135 79.144 22.3674ZM78.8158 15.989C78.1596 16.2493 77.2408 16.5097 75.9939 16.77C74.7471 17.0304 73.8939 17.2256 73.4346 17.3558C72.9752 17.486 72.5158 17.7463 72.0564 18.0717C71.5971 18.4623 71.4002 18.9179 71.4002 19.5687C71.4002 20.2196 71.6627 20.8054 72.1877 21.261C72.7127 21.7166 73.369 21.9769 74.2221 21.9769C75.0752 21.9769 75.9283 21.7816 76.6502 21.3911C77.3721 21.0006 77.9627 20.545 78.2908 19.8942C78.6846 19.2433 78.8815 18.1368 78.8815 16.5748V15.9239L78.8158 15.989Z" fill="black"/>
</g>
<defs>
<clipPath id="clip0_1144_8879">
<rect width="84" height="31.1111" fill="white" transform="translate(0 0.303223)"/>
</clipPath>
</defs>
</svg>
