<svg width="23" height="24" viewBox="0 0 23 24" fill="none" xmlns="http://www.w3.org/2000/svg">
<path d="M7.90625 8.25C8.09687 8.25 8.27969 8.32902 8.41448 8.46967C8.54927 8.61032 8.625 8.80109 8.625 9V18C8.625 18.1989 8.54927 18.3897 8.41448 18.5303C8.27969 18.671 8.09687 18.75 7.90625 18.75C7.71563 18.75 7.53281 18.671 7.39802 18.5303C7.26323 18.3897 7.1875 18.1989 7.1875 18V9C7.1875 8.80109 7.26323 8.61032 7.39802 8.46967C7.53281 8.32902 7.71563 8.25 7.90625 8.25ZM11.5 8.25C11.6906 8.25 11.8734 8.32902 12.0082 8.46967C12.143 8.61032 12.2188 8.80109 12.2188 9V18C12.2188 18.1989 12.143 18.3897 12.0082 18.5303C11.8734 18.671 11.6906 18.75 11.5 18.75C11.3094 18.75 11.1266 18.671 10.9918 18.5303C10.857 18.3897 10.7812 18.1989 10.7812 18V9C10.7812 8.80109 10.857 8.61032 10.9918 8.46967C11.1266 8.32902 11.3094 8.25 11.5 8.25ZM15.8125 9C15.8125 8.80109 15.7368 8.61032 15.602 8.46967C15.4672 8.32902 15.2844 8.25 15.0938 8.25C14.9031 8.25 14.7203 8.32902 14.5855 8.46967C14.4507 8.61032 14.375 8.80109 14.375 9V18C14.375 18.1989 14.4507 18.3897 14.5855 18.5303C14.7203 18.671 14.9031 18.75 15.0938 18.75C15.2844 18.75 15.4672 18.671 15.602 18.5303C15.7368 18.3897 15.8125 18.1989 15.8125 18V9Z" fill="#DE000E"/>
<path fill-rule="evenodd" clip-rule="evenodd" d="M20.8438 4.5C20.8438 4.89782 20.6923 5.27936 20.4227 5.56066C20.1531 5.84196 19.7875 6 19.4062 6H18.6875V19.5C18.6875 20.2956 18.3846 21.0587 17.8454 21.6213C17.3063 22.1839 16.575 22.5 15.8125 22.5H7.1875C6.425 22.5 5.69373 22.1839 5.15457 21.6213C4.6154 21.0587 4.3125 20.2956 4.3125 19.5V6H3.59375C3.2125 6 2.84687 5.84196 2.57728 5.56066C2.3077 5.27936 2.15625 4.89782 2.15625 4.5V3C2.15625 2.60218 2.3077 2.22064 2.57728 1.93934C2.84687 1.65804 3.2125 1.5 3.59375 1.5H8.625C8.625 1.10218 8.77645 0.720644 9.04603 0.43934C9.31562 0.158035 9.68125 0 10.0625 0L12.9375 0C13.3187 0 13.6844 0.158035 13.954 0.43934C14.2235 0.720644 14.375 1.10218 14.375 1.5H19.4062C19.7875 1.5 20.1531 1.65804 20.4227 1.93934C20.6923 2.22064 20.8438 2.60218 20.8438 3V4.5ZM5.91963 6L5.75 6.0885V19.5C5.75 19.8978 5.90145 20.2794 6.17103 20.5607C6.44062 20.842 6.80625 21 7.1875 21H15.8125C16.1937 21 16.5594 20.842 16.829 20.5607C17.0985 20.2794 17.25 19.8978 17.25 19.5V6.0885L17.0804 6H5.91963ZM3.59375 4.5V3H19.4062V4.5H3.59375Z" fill="#DE000E"/>
</svg>
