<svg width="23" height="17" viewBox="0 0 23 17" fill="none" xmlns="http://www.w3.org/2000/svg">
<g clip-path="url(#clip0_998_7816)">
<path d="M10.6255 12.8998H14.6759V12.6407C14.6759 9.27708 14.6759 5.91438 14.6759 2.55075C14.6759 1.91332 14.4014 1.64577 13.7504 1.64577C13.0245 1.64577 12.2996 1.64671 11.5738 1.64577C11.0911 1.64483 10.7485 1.33504 10.7448 0.901324C10.741 0.455405 11.0826 0.143732 11.5823 0.142793C12.3469 0.140915 13.1116 0.139038 13.8772 0.142793C15.1954 0.150303 16.1777 1.11912 16.19 2.42402C16.1948 2.90655 16.19 3.39002 16.19 3.89696C16.8818 3.89696 17.5499 3.88945 18.2171 3.90071C18.4433 3.90447 18.6751 3.93263 18.8919 3.99365C19.4246 4.14385 19.8524 4.45177 20.1618 4.91365C20.8603 5.95475 21.5624 6.99304 22.258 8.03602C22.6602 8.63871 22.858 9.3043 22.858 10.0272C22.858 11.2006 22.858 12.3741 22.858 13.5466C22.858 14.1221 22.5656 14.4103 21.9836 14.4112C21.4943 14.4122 21.006 14.4131 20.5167 14.415C20.5016 14.415 20.4864 14.4234 20.4722 14.4272C20.0104 15.5979 19.1776 16.3001 17.8812 16.2757C16.6395 16.2531 15.8427 15.5584 15.3979 14.4197H10.6539C10.5186 14.6713 10.4145 14.9276 10.2564 15.1472C9.66498 15.9724 8.84733 16.3733 7.8319 16.2681C6.78808 16.1602 6.05656 15.5847 5.65247 14.6262C5.57582 14.4441 5.49064 14.4075 5.31273 14.4047C4.91243 14.3981 4.50077 14.4169 4.11466 14.3324C3.09071 14.1071 2.40556 13.2293 2.38568 12.1469C2.3677 11.1621 2.37622 10.1755 2.38379 9.19071C2.38757 8.72508 2.71217 8.40026 3.14371 8.4012C3.57335 8.4012 3.89321 8.73071 3.89605 9.19447C3.90173 10.1332 3.897 11.072 3.89794 12.0099C3.89794 12.6191 4.18469 12.9054 4.79129 12.9064C5.02788 12.9064 5.30327 12.9787 5.48875 12.882C5.65152 12.7975 5.70546 12.5168 5.82281 12.3319C6.39535 11.425 7.2234 10.9584 8.30129 11.0429C9.36782 11.1265 10.1079 11.7094 10.5403 12.6783C10.5716 12.7487 10.5962 12.8219 10.6246 12.8961L10.6255 12.8998ZM16.2099 9.15598V11.6747C16.9679 11.0823 17.7884 10.8749 18.6931 11.1462C19.5931 11.4165 20.1647 12.038 20.4685 12.8942H21.3391C21.3391 11.8559 21.3438 10.8336 21.3344 9.81124C21.3325 9.65165 21.2624 9.493 21.2284 9.33247C21.199 9.19634 21.1243 9.15034 20.9785 9.15222C20.23 9.15973 19.4814 9.15598 18.7329 9.15598C17.8982 9.15598 17.0635 9.15598 16.2109 9.15598H16.2099ZM20.1458 7.63985C20.1335 7.60512 20.1306 7.58165 20.1193 7.56475C19.7057 6.9461 19.3045 6.319 18.8663 5.71724C18.7584 5.56892 18.536 5.42716 18.36 5.41871C17.6465 5.38492 16.931 5.40463 16.208 5.40463V7.63985H20.1467H20.1458ZM9.22871 13.6621C9.22871 13.0491 8.72336 12.5421 8.10729 12.5365C7.47892 12.5309 6.96127 13.0388 6.96127 13.6602C6.96127 14.2817 7.47892 14.7914 8.10635 14.7858C8.72242 14.7802 9.22966 14.2732 9.22966 13.6612L9.22871 13.6621ZM17.9285 14.7868C18.5464 14.7905 19.0612 14.292 19.0717 13.6818C19.0811 13.0585 18.572 12.5412 17.9465 12.5365C17.3285 12.5328 16.8137 13.0303 16.8042 13.6405C16.7947 14.2639 17.3039 14.7821 17.9294 14.7858L17.9285 14.7868Z" fill="#DE000E"/>
<path d="M8.14081 16.4286C8.03577 16.4286 7.92789 16.423 7.81906 16.4117C6.74684 16.3009 5.95286 15.7039 5.52322 14.6834C5.47212 14.5614 5.44183 14.5511 5.31218 14.5483C5.23458 14.5473 5.15604 14.5464 5.07749 14.5464C4.75005 14.5454 4.41126 14.5436 4.08572 14.4722C3.00594 14.2347 2.26684 13.3025 2.24507 12.1525C2.22804 11.2109 2.23467 10.2534 2.24224 9.32866V9.19254C2.24697 8.65368 2.62645 8.26315 3.1441 8.26315H3.146C3.66081 8.26315 4.03651 8.6565 4.04029 9.19629C4.04408 9.79429 4.04313 10.3923 4.04219 10.9903C4.04219 11.3311 4.04219 11.6718 4.04219 12.0136C4.04219 12.543 4.26742 12.7683 4.79359 12.7693C4.87024 12.7693 4.94879 12.7758 5.02449 12.7834C5.17591 12.7965 5.33206 12.8106 5.4248 12.7618C5.48631 12.7298 5.54025 12.6059 5.58757 12.497C5.62258 12.4172 5.6576 12.3346 5.70492 12.2614C6.3191 11.2898 7.22191 10.8213 8.31494 10.9077C9.40892 10.9931 10.202 11.5714 10.6723 12.6266C10.6922 12.6707 10.7092 12.7148 10.7262 12.7608H14.5353V2.55164C14.5353 1.99401 14.3223 1.78747 13.7517 1.78654H13.0325C12.547 1.78654 12.0606 1.78654 11.5751 1.78654C11.0177 1.78466 10.6089 1.4129 10.6051 0.902209C10.6032 0.658128 10.6884 0.443148 10.8502 0.279801C11.0281 0.101434 11.2893 0.00192387 11.5836 0.00192387H11.8202C12.495 4.63174e-05 13.1924 -0.00183123 13.8785 0.00192387C15.2649 0.00943407 16.3201 1.05054 16.3324 2.42303C16.3352 2.75347 16.3343 3.08392 16.3343 3.42188C16.3343 3.53266 16.3343 3.64343 16.3343 3.75609C16.4819 3.75609 16.6286 3.75609 16.7743 3.75515C17.2721 3.75327 17.7424 3.75233 18.2222 3.76078C18.4796 3.76547 18.7191 3.79833 18.9329 3.85935C19.5008 4.01988 19.955 4.34845 20.2824 4.83662C20.537 5.21588 20.7925 5.59609 21.048 5.97535C21.4928 6.63625 21.9376 7.29715 22.3795 7.95992C22.7931 8.58045 23.0032 9.27609 23.0032 10.029V10.9086C23.0032 11.7882 23.0032 12.6688 23.0032 13.5485C23.0032 14.2047 22.6511 14.552 21.9878 14.5539H21.5931C21.2543 14.5558 20.9155 14.5567 20.5777 14.5576C20.0553 15.8165 19.1487 16.4427 17.8834 16.4192C16.675 16.3976 15.8091 15.7734 15.3065 14.5633H10.7442C10.7168 14.6177 10.6893 14.6712 10.6628 14.7247C10.5777 14.8956 10.4906 15.0721 10.377 15.2317C9.81301 16.0184 9.04552 16.4286 8.14365 16.4286H8.14081ZM3.14316 8.54478C2.7826 8.54478 2.52898 8.81233 2.52614 9.19535V9.33148C2.51857 10.2552 2.511 11.21 2.52803 12.1487C2.54696 13.1664 3.1971 13.9906 4.14628 14.199C4.44154 14.2638 4.7652 14.2657 5.07844 14.2666C5.15793 14.2666 5.23742 14.2666 5.31597 14.2685C5.52606 14.2723 5.67842 14.3248 5.78441 14.5764C6.17714 15.5086 6.87176 16.0325 7.84745 16.1329C8.79474 16.2305 9.56601 15.8729 10.1414 15.0702C10.2417 14.9303 10.3212 14.7707 10.4045 14.6027C10.4442 14.522 10.4849 14.4394 10.5294 14.3586L10.5691 14.2845H15.4958L15.5308 14.3746C15.9813 15.5265 16.7734 16.1198 17.8844 16.1404C19.0437 16.1601 19.8717 15.5696 20.3402 14.3811L20.3648 14.3183L20.4301 14.2985C20.4518 14.2901 20.4802 14.2798 20.5171 14.2798C20.8748 14.2788 21.2316 14.2779 21.5893 14.2769H21.984C22.4903 14.2751 22.7164 14.0516 22.7164 13.5522C22.7164 12.6726 22.7164 11.792 22.7164 10.9124V10.0327C22.7164 9.33617 22.5224 8.69217 22.1401 8.11858C21.6982 7.4558 21.2534 6.79584 20.8096 6.13494C20.554 5.75568 20.2985 5.37547 20.044 4.99621C19.7553 4.56531 19.3541 4.27523 18.8525 4.13347C18.6623 4.07996 18.4475 4.04992 18.2147 4.04617C17.7377 4.03772 17.2683 4.03866 16.7724 4.04054C16.5794 4.04054 16.3854 4.04147 16.1895 4.04147H16.0475V3.90066C16.0475 3.74013 16.0475 3.58147 16.0475 3.4247C16.0475 3.08768 16.0494 2.75817 16.0456 2.42866C16.0343 1.19417 15.1201 0.292944 13.8738 0.286373C13.1886 0.282618 12.4912 0.284495 11.8174 0.286373H11.5808C11.3622 0.286373 11.1739 0.356781 11.0489 0.481638C10.9411 0.590536 10.8843 0.736046 10.8852 0.903148C10.8881 1.25801 11.171 1.50678 11.5723 1.50772C12.0577 1.50866 12.5432 1.50866 13.0287 1.50772H13.7479C14.4757 1.50772 14.8154 1.84005 14.8154 2.55352V13.0434H10.5256L10.4906 12.9533C10.4811 12.9289 10.4726 12.9045 10.4631 12.881C10.4461 12.834 10.4291 12.7871 10.4083 12.742C9.98335 11.7892 9.2698 11.2672 8.28844 11.1902C7.29289 11.1123 6.50363 11.5235 5.9415 12.4135C5.90649 12.4689 5.87621 12.5383 5.84498 12.6106C5.77589 12.7702 5.70397 12.9345 5.5535 13.0134C5.386 13.1007 5.18821 13.0828 4.9961 13.0659C4.92323 13.0594 4.85415 13.0537 4.7898 13.0537C4.1037 13.0537 3.75544 12.7045 3.7545 12.0173C3.7545 11.6765 3.7545 11.3348 3.7545 10.994C3.7545 10.397 3.75544 9.79992 3.7526 9.20192C3.75071 8.81796 3.49993 8.54947 3.14221 8.54854H3.14126L3.14316 8.54478ZM8.09633 14.9275C7.75849 14.9275 7.44052 14.797 7.19825 14.5586C6.95409 14.3183 6.81877 13.9991 6.81971 13.6602C6.81971 13.3222 6.95409 13.003 7.1992 12.7636C7.4443 12.5233 7.76795 12.3938 8.10958 12.3956C8.80609 12.4022 9.37201 12.9702 9.37201 13.662C9.37201 14.3539 8.80515 14.9209 8.10769 14.9275C8.10391 14.9275 8.10012 14.9275 8.09633 14.9275ZM8.09728 12.6773C7.83514 12.6773 7.5872 12.7787 7.39888 12.9636C7.20866 13.1504 7.10362 13.3973 7.10362 13.6602C7.10362 13.923 7.20866 14.1709 7.39888 14.3586C7.58909 14.5464 7.83798 14.6506 8.1058 14.6459C8.64711 14.6412 9.0881 14.2 9.0881 13.662C9.0881 13.1241 8.64805 12.6829 8.10674 12.6773C8.10391 12.6773 8.10012 12.6773 8.09728 12.6773ZM17.9364 14.9275C17.9364 14.9275 17.9308 14.9275 17.9279 14.9275C17.5882 14.9256 17.2683 14.7895 17.028 14.5464C16.7866 14.3014 16.656 13.9794 16.6617 13.6395C16.6721 12.9523 17.2447 12.3966 17.9383 12.3966C17.9412 12.3966 17.944 12.3966 17.9469 12.3966C18.2875 12.3985 18.6065 12.5346 18.8468 12.7777C19.0881 13.0227 19.2178 13.3447 19.2131 13.6846C19.2027 14.3718 18.6301 14.9285 17.9364 14.9285V14.9275ZM17.9383 12.6773C17.398 12.6773 16.9532 13.1091 16.9456 13.6433C16.9418 13.908 17.0431 14.1587 17.2305 14.3492C17.4178 14.5389 17.6658 14.644 17.9298 14.6459C17.9298 14.6459 17.9346 14.6459 17.9364 14.6459C18.4768 14.6459 18.9206 14.214 18.9292 13.6799C18.9329 13.4161 18.8317 13.1654 18.6443 12.9749C18.4569 12.7852 18.209 12.6801 17.945 12.6782C17.9431 12.6782 17.9402 12.6782 17.9383 12.6782V12.6773ZM21.4796 13.0349H20.3667L20.3335 12.9411C20.0298 12.083 19.4638 11.5245 18.6509 11.2813C17.82 11.0316 17.0497 11.1968 16.2974 11.7854L16.0674 11.9647V9.01511H19.3134C19.8585 9.01698 20.4215 9.01698 20.9752 9.01135C21.1928 9.00947 21.3215 9.10429 21.3651 9.30331C21.3764 9.35494 21.3916 9.40564 21.4067 9.45727C21.4398 9.56992 21.4739 9.68539 21.4748 9.81025C21.4824 10.58 21.4815 11.3649 21.4805 12.1243V13.0359L21.4796 13.0349ZM20.5673 12.7533H21.1966V12.1234C21.1976 11.3649 21.1985 10.58 21.1919 9.81213C21.1919 9.7267 21.1635 9.63376 21.1351 9.53519C21.119 9.47886 21.102 9.4216 21.0887 9.36152C21.0764 9.30519 21.0726 9.29111 20.9799 9.29205C20.4244 9.29768 19.8604 9.29768 19.3143 9.2958H16.3532V11.3958C17.1065 10.8908 17.9062 10.7612 18.7352 11.01C19.6086 11.2719 20.2247 11.8577 20.5682 12.7524L20.5673 12.7533ZM20.3449 7.78062H16.0655V5.26376H16.2075C16.4024 5.26376 16.5964 5.26188 16.7904 5.26094C17.3071 5.25719 17.8418 5.25343 18.3661 5.27784C18.6046 5.28911 18.861 5.47029 18.9812 5.63458C19.3077 6.08237 19.6172 6.55176 19.9171 7.00519C20.0231 7.16572 20.1301 7.32625 20.237 7.48678C20.2569 7.51588 20.2645 7.54499 20.272 7.56752C20.2739 7.57503 20.2768 7.58347 20.2796 7.5938L20.3449 7.78062ZM16.3494 7.49898H19.9048C19.8301 7.38633 19.7553 7.27274 19.6806 7.16009C19.3825 6.70947 19.074 6.2429 18.7512 5.7998C18.6623 5.67776 18.4759 5.56511 18.3528 5.55947C17.8361 5.53507 17.3062 5.53882 16.7923 5.54258C16.6447 5.54352 16.4971 5.54445 16.3485 5.54539V7.49898H16.3494Z" fill="#DE000E"/>
<path d="M5.05569 1.64576C3.68443 1.64576 2.31412 1.64858 0.942866 1.64482C0.367488 1.64294 -0.00347981 1.12943 0.194307 0.621555C0.307868 0.330535 0.57663 0.147473 0.912583 0.143718C1.31478 0.139024 1.71603 0.142779 2.11823 0.142779C4.46611 0.142779 6.814 0.141841 9.16188 0.142779C9.7543 0.142779 10.1357 0.651596 9.9341 1.16511C9.81486 1.46833 9.53853 1.64482 9.16851 1.64482C7.79725 1.64576 6.42694 1.64482 5.05569 1.64482V1.64576Z" fill="#DE000E"/>
<path d="M2.68393 1.78754C2.10382 1.78754 1.52465 1.78754 0.944544 1.78566C0.615215 1.78566 0.325633 1.63921 0.151506 1.38668C-0.0131587 1.14729 -0.0453344 0.849703 0.0634954 0.570886C0.198823 0.225417 0.524366 0.00762117 0.913314 0.00292729C1.19627 0.000110965 1.47923 0.000110965 1.76313 0.00104974H2.11991H4.01638C5.73211 0.00104974 7.44784 0.00104974 9.16356 0.00104974C9.50141 0.00104974 9.80802 0.153131 9.98215 0.406601C10.1449 0.643172 10.1762 0.937948 10.0673 1.21583C9.92537 1.57725 9.59793 1.78472 9.16924 1.78566C8.17274 1.7866 7.17529 1.78566 6.17784 1.78566H5.05642H3.85172C3.46182 1.78566 3.07288 1.78566 2.68298 1.78566L2.68393 1.78754ZM1.40541 0.281744C1.24264 0.281744 1.07892 0.281744 0.916153 0.28456C0.641713 0.287376 0.422161 0.432886 0.328472 0.673213C0.253711 0.863784 0.274531 1.06656 0.386199 1.22803C0.506385 1.40264 0.710796 1.50403 0.94549 1.50403C1.91455 1.50685 2.88361 1.50591 3.85267 1.50591H5.05736H6.17878C7.17623 1.50591 8.17274 1.50591 9.16924 1.50591C9.47964 1.50591 9.70487 1.36697 9.80329 1.11632C9.87711 0.926682 9.85723 0.726723 9.74746 0.56807C9.62348 0.388764 9.41056 0.285499 9.16261 0.285499C7.44689 0.28456 5.73116 0.28456 4.01544 0.285499H2.11896H1.76124C1.642 0.285499 1.52371 0.285499 1.40447 0.285499L1.40541 0.281744Z" fill="#DE000E"/>
<path d="M5.0652 3.1469C5.92354 3.1469 6.78188 3.14596 7.64021 3.1469C8.13421 3.1469 8.47868 3.46515 8.473 3.90919C8.46732 4.34196 8.12569 4.64894 7.64211 4.64988C5.92543 4.65082 4.20876 4.65082 2.49209 4.64988C1.9981 4.64988 1.65363 4.3307 1.66025 3.8876C1.66593 3.45294 2.00472 3.14878 2.4902 3.14784C3.34853 3.14596 4.20687 3.14784 5.0652 3.14784V3.1469Z" fill="#DE000E"/>
<path d="M5.06845 4.79158C4.21011 4.79158 3.35177 4.79158 2.49344 4.79064C2.20291 4.79064 1.94456 4.69113 1.7657 4.51089C1.60387 4.34754 1.51586 4.12599 1.51965 3.88473C1.52722 3.3684 1.92658 3.00697 2.49155 3.00603C3.09721 3.00509 3.70382 3.00603 4.30948 3.00603H5.06655H5.82363C6.42929 3.00603 7.0359 3.00603 7.64156 3.00603C7.93304 3.00603 8.19139 3.10648 8.37025 3.28673C8.53207 3.44913 8.61914 3.67162 8.61535 3.91101C8.60873 4.41983 8.19896 4.78971 7.64251 4.79064C6.78417 4.79064 5.92584 4.79158 5.0675 4.79158H5.06845ZM3.55145 3.28673C3.19752 3.28673 2.84453 3.28673 2.4906 3.28673C2.08367 3.28673 1.80639 3.52893 1.80166 3.88754C1.79977 4.05464 1.85655 4.20109 1.96632 4.31187C2.09124 4.43766 2.27862 4.50713 2.49249 4.50807C4.20916 4.50995 5.92584 4.50995 7.64251 4.50807C8.04944 4.50807 8.32672 4.26587 8.33145 3.90632C8.33334 3.74015 8.27751 3.59371 8.16773 3.48387C8.04281 3.35713 7.85544 3.28767 7.64062 3.28767C7.03495 3.28673 6.42929 3.28767 5.82363 3.28767H5.06655H4.30948C4.0568 3.28767 3.80507 3.28767 3.5524 3.28767L3.55145 3.28673Z" fill="#DE000E"/>
<path d="M5.06949 7.65379C4.69947 7.65379 4.32945 7.65755 3.96037 7.65379C3.50707 7.64816 3.17017 7.31865 3.17585 6.89245C3.18153 6.47469 3.5118 6.15551 3.95659 6.15269C4.69568 6.148 5.43573 6.148 6.17577 6.15269C6.63002 6.15551 6.96597 6.48689 6.96124 6.9131C6.95556 7.32898 6.62339 7.64816 6.17955 7.65379C5.80953 7.65849 5.43951 7.65473 5.07044 7.65473L5.06949 7.65379Z" fill="#DE000E"/>
<path d="M5.75017 7.79643C5.6366 7.79643 5.52304 7.79643 5.40853 7.79643C5.1833 7.79643 4.95713 7.79643 4.7319 7.79643C4.47354 7.79643 4.21519 7.79831 3.95684 7.79456C3.70133 7.79174 3.46569 7.69786 3.2944 7.53076C3.12216 7.36272 3.02847 7.13554 3.03131 6.89052C3.03794 6.39296 3.43446 6.01464 3.95305 6.01182C4.67606 6.00713 5.42273 6.00713 6.17318 6.01182C6.43532 6.0137 6.67569 6.11039 6.84793 6.285C7.01259 6.45211 7.1025 6.67554 7.09966 6.91492C7.09303 7.40966 6.69746 7.78798 6.17791 7.79456C6.03502 7.79643 5.89212 7.79737 5.74827 7.79737L5.75017 7.79643ZM5.0688 7.51292C5.18236 7.51292 5.29687 7.51292 5.41043 7.51292C5.66594 7.51292 5.92145 7.5148 6.17602 7.51105C6.5432 7.50635 6.81291 7.25288 6.81764 6.90929C6.81954 6.74594 6.75897 6.59292 6.6473 6.48027C6.52806 6.35917 6.35961 6.29251 6.17318 6.29158C5.42368 6.28688 4.67701 6.28688 3.95589 6.29158C3.58966 6.29345 3.31995 6.54692 3.31616 6.89239C3.31427 7.05949 3.37673 7.21439 3.49408 7.32798C3.61332 7.44345 3.77893 7.50823 3.96062 7.51105C4.21708 7.51386 4.47449 7.51386 4.73095 7.51292C4.84357 7.51292 4.95618 7.51292 5.06785 7.51292H5.0688Z" fill="#DE000E"/>
</g>
<defs>
<clipPath id="clip0_998_7816">
<rect width="23" height="16.4286" fill="white"/>
</clipPath>
</defs>
</svg>
