<svg width="16" height="14" viewBox="0 0 16 14" fill="none" xmlns="http://www.w3.org/2000/svg">
<g clip-path="url(#clip0_998_8932)">
<path d="M8.0502 13.7138C6.73604 13.7138 5.42188 13.7138 4.10773 13.7138C3.44192 13.7138 2.8136 13.604 2.26092 13.2816C1.63261 12.9152 1.25704 12.4113 1.18917 11.7877C1.0657 10.656 1.22731 9.54549 1.74767 8.48644C2.05536 7.86066 2.5169 7.32292 3.27127 6.99412C3.74315 6.78835 4.24864 6.69078 4.77741 6.69979C4.94418 6.70297 5.11872 6.77404 5.27127 6.84192C5.51174 6.94904 5.73539 7.08162 5.96875 7.20041C7.35725 7.90839 8.74639 7.9068 10.1349 7.19988C10.2952 7.11821 10.4626 7.04344 10.6081 6.94692C11.0302 6.66691 11.5021 6.66267 12.0004 6.74911C12.9733 6.91775 13.6559 7.3908 14.1252 8.094C14.5835 8.78077 14.7891 9.5264 14.8821 10.2954C14.93 10.6899 14.952 11.0893 14.9461 11.4859C14.9287 12.6855 13.9339 13.5659 12.4768 13.6884C12.2952 13.7037 12.1116 13.7117 11.9293 13.7122C10.6365 13.7143 9.34432 13.7133 8.0515 13.7133L8.0502 13.7138ZM8.03146 12.9173V12.9157C9.39927 12.9157 10.7671 12.9247 12.1349 12.913C13.2978 12.903 13.9959 12.3042 13.9785 11.3512C13.972 11.0071 13.9565 10.6618 13.9099 10.3198C13.824 9.69027 13.6656 9.07404 13.2939 8.50818C12.9086 7.92165 12.3501 7.54088 11.5085 7.50217C11.4342 7.49898 11.3469 7.51542 11.2836 7.54671C11.0392 7.6671 10.8052 7.80127 10.5609 7.92218C9.72635 8.3353 8.82719 8.5591 7.84464 8.52038C7.01012 8.4875 6.24283 8.27484 5.53307 7.91794C5.29002 7.79543 5.05343 7.66444 4.81102 7.54141C4.76319 7.51702 4.70243 7.4958 4.64813 7.49739C4.2467 7.50959 3.87243 7.59921 3.54276 7.79066C3.08574 8.05582 2.81296 8.43659 2.61322 8.85077C2.19757 9.71148 2.09932 10.6167 2.12841 11.5305C2.14586 12.0772 2.45226 12.5042 3.06894 12.7513C3.3999 12.8839 3.75737 12.9173 4.1213 12.9173C5.42447 12.9162 6.72764 12.9173 8.03081 12.9173H8.03146Z" fill="black"/>
<path d="M9.91117 13.8466C9.60089 13.8466 9.29126 13.8466 8.98098 13.8466H7.26152C6.21045 13.8466 5.15874 13.8466 4.10767 13.8466H4.10702C3.32874 13.8466 2.69396 13.697 2.16778 13.39C1.49293 12.9965 1.09926 12.4465 1.0288 11.8001C0.898227 10.6031 1.09021 9.47195 1.59829 8.43782C1.96158 7.69855 2.48388 7.18838 3.19558 6.87761C3.6888 6.6623 4.22273 6.55677 4.78123 6.56791C4.9855 6.57162 5.18136 6.65117 5.34879 6.72594C5.51039 6.79807 5.66424 6.8808 5.81291 6.96088C5.89307 7.00383 5.97322 7.04679 6.05402 7.08868C7.39727 7.77333 8.70432 7.77333 10.0495 7.08815C10.0883 7.06853 10.1277 7.04891 10.1672 7.02929C10.2893 6.96883 10.4044 6.91209 10.5065 6.8442C11.0249 6.50003 11.5951 6.54351 12.034 6.61935C13.003 6.78746 13.7548 7.2621 14.2674 8.03053C14.6875 8.66002 14.9338 9.37543 15.0431 10.2823C15.0915 10.6864 15.1135 11.0921 15.1077 11.4872C15.0889 12.7525 14.0385 13.6896 12.4936 13.82C12.3042 13.836 12.1142 13.8444 11.9299 13.8444C11.2577 13.8455 10.5847 13.8455 9.91247 13.8455L9.91117 13.8466ZM8.05015 13.5814H8.98098C9.96353 13.5814 10.9454 13.5814 11.928 13.5803C12.1019 13.5803 12.2809 13.5724 12.4593 13.5575C13.833 13.4419 14.767 12.6088 14.7832 11.485C14.789 11.0995 14.7677 10.7039 14.7198 10.3093C14.6151 9.43907 14.3805 8.75548 13.9823 8.15887C13.5104 7.45195 12.8511 7.03353 11.9655 6.87974C11.4109 6.78322 11.0346 6.83466 10.7082 7.05103C10.5886 7.13058 10.4587 7.19475 10.3326 7.25679C10.2945 7.27589 10.2564 7.29445 10.2189 7.31354C8.7793 8.04697 7.32035 8.04697 5.88208 7.31407C5.79869 7.27164 5.71659 7.2271 5.63385 7.18308C5.48389 7.10247 5.34232 7.0261 5.19235 6.95928C5.0482 6.89512 4.89824 6.83572 4.77218 6.83307C4.26927 6.82458 3.78964 6.91792 3.34555 7.11149C2.70366 7.3915 2.22984 7.85765 1.89629 8.53646C1.4076 9.53134 1.22337 10.6212 1.34878 11.7762C1.41148 12.3511 1.74955 12.8215 2.3533 13.1736C2.82325 13.4478 3.39662 13.5809 4.10509 13.5809H4.10573C5.1568 13.5809 6.20852 13.5809 7.25958 13.5809H8.04821L8.05015 13.5814ZM10.5104 13.0516C10.0941 13.0516 9.6804 13.0506 9.27252 13.05C8.91117 13.0495 8.54983 13.0484 8.18848 13.0484L8.03076 13.05H6.94478C6.0036 13.05 5.06242 13.05 4.12125 13.05H4.11737C3.65195 13.05 3.30676 12.9949 2.99778 12.8708C2.34232 12.6077 1.98614 12.1453 1.96675 11.5344C1.93184 10.443 2.08957 9.57483 2.46255 8.80215C2.71336 8.2835 3.02687 7.92765 3.44962 7.68264C3.78899 7.48589 4.19041 7.37877 4.64226 7.36551C4.74374 7.36233 4.83553 7.39839 4.8963 7.42915C5.01071 7.48748 5.12448 7.54741 5.2376 7.60787C5.36171 7.67363 5.4897 7.74151 5.61705 7.80568C6.32552 8.16205 7.0773 8.35827 7.8517 8.38903C8.75862 8.42456 9.61706 8.23524 10.4768 7.80939C10.5938 7.75158 10.7114 7.68901 10.8252 7.62802C10.9467 7.56332 11.0721 7.49597 11.2001 7.43339C11.2906 7.38884 11.4089 7.36551 11.5169 7.37028C12.3578 7.40847 12.9855 7.76007 13.4361 8.44577C13.7677 8.95117 13.9635 9.52445 14.0702 10.3056C14.1219 10.6827 14.1342 11.0618 14.1394 11.3498C14.1484 11.8568 13.9655 12.2832 13.6093 12.5828C13.2557 12.8803 12.7463 13.0405 12.1361 13.0458C11.5964 13.0506 11.0514 13.0521 10.5104 13.0521V13.0516ZM7.8698 12.7833H8.0314C8.44575 12.7833 8.85946 12.7843 9.27381 12.7849C10.2111 12.787 11.1801 12.7886 12.1329 12.7806C12.6552 12.7758 13.0857 12.6438 13.3779 12.3977C13.6727 12.1495 13.8246 11.7884 13.8168 11.3535C13.8116 11.0714 13.7994 10.7007 13.7496 10.3353C13.6474 9.58968 13.4632 9.0461 13.1516 8.57199C12.7593 7.97485 12.2189 7.66832 11.4994 7.63544C11.4561 7.63332 11.4012 7.64393 11.3663 7.66143C11.2434 7.72189 11.1206 7.78765 11.0017 7.85075C10.886 7.9128 10.7657 7.97644 10.6442 8.0369C9.74117 8.48449 8.79676 8.69184 7.83683 8.65419C7.00748 8.62131 6.20399 8.41236 5.44898 8.03212C5.3184 7.96636 5.18847 7.89742 5.06307 7.83113C4.95124 7.77174 4.83941 7.71287 4.72629 7.65507C4.69009 7.63703 4.66229 7.63067 4.65454 7.63067C4.26669 7.64234 3.92409 7.73249 3.63644 7.89954C3.26733 8.11379 2.99002 8.43146 2.76378 8.90026C2.40696 9.63847 2.25699 10.4732 2.2906 11.528C2.30676 12.0414 2.59312 12.4136 3.14064 12.6332C3.40308 12.7387 3.70431 12.7854 4.11801 12.7854H4.12189C5.06307 12.7849 6.00425 12.7854 6.94543 12.7854H7.8698V12.7838V12.7833Z" fill="black"/>
<path d="M11.9338 3.42559C11.9338 5.24406 10.0806 6.6913 7.928 6.6807C5.68689 6.66956 3.92282 5.13004 3.95644 3.35505C3.99005 1.57052 5.82974 0.100474 8.02238 0.133354C10.1614 0.165703 11.9642 1.63787 11.9338 3.42559ZM10.9629 3.40119C10.9519 2.01918 9.61191 0.926714 7.93576 0.933608C6.25638 0.940502 4.91959 2.04675 4.93123 3.41975C4.94286 4.79169 6.28546 5.88628 7.94998 5.8815C9.62742 5.87673 10.9739 4.76836 10.9629 3.40119Z" fill="black"/>
<path d="M7.95064 6.81307C7.94288 6.81307 7.93448 6.81307 7.92672 6.81307C6.81683 6.80777 5.77352 6.44291 4.99007 5.78584C4.21308 5.1346 3.77739 4.24791 3.7942 3.35273C3.81101 2.45171 4.26414 1.60426 5.06957 0.965219C5.87501 0.326713 6.92284 -0.0158746 8.02498 0.000565352C9.10837 0.0170053 10.1316 0.381866 10.9067 1.0278C11.6882 1.67956 12.1103 2.53126 12.0954 3.42591C12.0954 4.32427 11.6623 5.17173 10.8757 5.81342C10.0961 6.44927 9.03144 6.81254 7.95064 6.81254V6.81307ZM7.9487 0.265196C6.96033 0.265196 6.02045 0.580206 5.29453 1.1556C4.55115 1.74479 4.13357 2.52648 4.11741 3.35644C4.10189 4.18162 4.50396 4.99937 5.22084 5.60023C5.94353 6.20585 6.90539 6.54261 7.92866 6.54738C8.9306 6.55374 9.92285 6.21646 10.6475 5.62515C11.3728 5.03384 11.7722 4.25215 11.7722 3.42485V3.42273C11.7865 2.59861 11.3973 1.81426 10.6766 1.21341C9.96099 0.616798 9.01787 0.280045 8.01916 0.265196C7.99589 0.265196 7.97197 0.265196 7.9487 0.265196ZM7.93965 6.01388C6.20274 6.01388 4.78257 4.85247 4.76964 3.42061C4.76382 2.7227 5.08703 2.0667 5.68108 1.57403C6.27708 1.07871 7.07798 0.804532 7.93513 0.80082C7.9403 0.80082 7.94612 0.80082 7.95129 0.80082C9.72052 0.80082 11.1129 1.93995 11.1245 3.40045C11.1304 4.09411 10.8058 4.74747 10.2118 5.24014C9.61192 5.73705 8.80908 6.01176 7.95064 6.01441C7.94676 6.01441 7.94288 6.01441 7.93965 6.01441V6.01388ZM7.95064 1.06545C7.94547 1.06545 7.94094 1.06545 7.93577 1.06545C7.16525 1.06863 6.44579 1.31523 5.91056 1.75964C5.37791 2.20193 5.08703 2.79112 5.09285 3.41795C5.10383 4.70451 6.37986 5.74819 7.93965 5.74819C7.94288 5.74819 7.94612 5.74819 7.94935 5.74819C8.72117 5.74606 9.44321 5.49893 9.98167 5.0524C10.515 4.61065 10.8059 4.02411 10.8013 3.40098C10.791 2.08897 9.54017 1.06492 7.95064 1.06492V1.06545Z" fill="black"/>
</g>
<defs>
<clipPath id="clip0_998_8932">
<rect width="14.119" height="13.8462" fill="white" transform="translate(0.98877)"/>
</clipPath>
</defs>
</svg>
