<svg width="20" height="20" viewBox="0 0 20 20" fill="none" xmlns="http://www.w3.org/2000/svg">
<g clip-path="url(#clip0_998_7845)">
<path d="M16.9217 15.383C16.8131 15.383 16.7266 15.383 16.641 15.383C15.72 15.383 14.798 15.3859 13.877 15.383C12.1474 15.3762 10.764 13.9972 10.7688 12.2902C10.7745 10.5996 12.1618 9.23208 13.8837 9.2292C15.6383 9.22535 17.3928 9.22727 19.1474 9.2292C19.6838 9.2292 19.9982 9.5427 19.9992 10.0793C20.0011 11.5622 20.0011 13.0442 19.9992 14.5271C19.9992 15.0772 19.6877 15.382 19.1301 15.3849C18.9157 15.3849 18.7013 15.3849 18.4619 15.3849C18.4619 15.9484 18.4657 16.4908 18.4609 17.0332C18.458 17.3688 18.4763 17.7102 18.4244 18.0401C18.2427 19.1951 17.3024 19.9961 16.1343 20C14.1798 20.0067 12.2243 20.0019 10.2698 20.0019C8.14703 20.0019 6.02329 20.0048 3.90052 20.0019C2.01137 19.999 0.452942 18.7286 0.0760735 16.8832C0.0251194 16.6341 0.00589135 16.3745 0.00492995 16.1196C0.000122954 12.2931 -0.00179985 8.47044 0.00204575 4.64777C0.00492995 2.48111 1.71141 0.774133 3.8736 0.764516C4.36199 0.762593 4.85135 0.761631 5.33974 0.764516C5.80698 0.767401 6.15308 1.09629 6.15404 1.53097C6.15501 1.96661 5.81082 2.29647 5.34551 2.30416C4.73694 2.31378 4.12068 2.26377 3.52269 2.34455C2.3344 2.50419 1.54413 3.46106 1.54221 4.66027C1.53836 7.19237 1.54125 9.72542 1.54125 12.2575C1.54125 13.524 1.53932 14.7896 1.54125 16.0561C1.54317 17.4621 2.54206 18.4584 3.95244 18.4594C7.98263 18.4603 12.0119 18.4594 16.042 18.4594C16.616 18.4594 16.9208 18.1574 16.9217 17.5881C16.9227 16.9226 16.9217 16.2581 16.9217 15.5926C16.9217 15.5301 16.9217 15.4676 16.9217 15.3839V15.383ZM18.4494 10.7871C18.4138 10.7775 18.3994 10.7698 18.384 10.7698C16.8458 10.7698 15.3075 10.7515 13.7703 10.7775C13.1194 10.7881 12.6541 11.1554 12.4147 11.7613C12.0195 12.7605 12.7646 13.8347 13.8558 13.8404C15.346 13.8491 16.8362 13.8424 18.3254 13.8424C18.3638 13.8424 18.4013 13.8366 18.4494 13.8327V10.7871Z" fill="#DE000E"/>
<path d="M18.4621 6.47219C18.4621 6.62413 18.4669 6.77704 18.4611 6.92898C18.4448 7.35885 18.1054 7.69063 17.6891 7.68871C17.2728 7.68678 16.9363 7.35212 16.9248 6.92033C16.919 6.70395 16.9248 6.48757 16.9229 6.27119C16.9209 5.68457 16.621 5.38068 16.0384 5.38068C12.4581 5.38068 8.87883 5.38068 5.29858 5.38068C4.85826 5.38068 4.41794 5.38068 3.97666 5.38068C3.45173 5.38068 3.13832 5.16142 3.06717 4.7479C2.99795 4.34688 3.21811 4.02856 3.6892 3.84777C6.53206 2.7553 9.37588 1.66188 12.2187 0.569411C12.6514 0.40304 13.083 0.232824 13.5176 0.0703001C13.9992 -0.109534 14.3905 0.061645 14.5857 0.542484C15.003 1.57244 15.4135 2.60624 15.8259 3.63812C15.8701 3.74872 15.8971 3.85354 16.0663 3.84584C17.3593 3.79103 18.5332 4.84503 18.463 6.3289C18.4611 6.37698 18.463 6.42506 18.463 6.47315L18.4621 6.47219ZM14.2415 3.83142C13.9618 3.13036 13.6916 2.45237 13.4157 1.75997C11.6352 2.44468 9.88157 3.11978 8.12798 3.79391C8.13183 3.80642 8.13471 3.81892 8.13856 3.83142H14.2425H14.2415Z" fill="#DE000E"/>
</g>
<defs>
<clipPath id="clip0_998_7845">
<rect width="20" height="20" fill="white"/>
</clipPath>
</defs>
</svg>
